<svg xmlns="http://www.w3.org/2000/svg" xmlns:xlink="http://www.w3.org/1999/xlink" width="500" zoomAndPan="magnify" viewBox="0 0 375 374.999991" height="500" preserveAspectRatio="xMidYMid meet" version="1.0"><defs><clipPath id="fb7e89b97b"><path d="M 0 15.121094 L 354.75 15.121094 L 354.75 369.871094 L 0 369.871094 Z M 0 15.121094 " clip-rule="nonzero"/></clipPath></defs><rect x="-37.5" width="450" fill="#ffffff" y="-37.499999" height="449.999989" fill-opacity="1"/><rect x="-37.5" width="450" fill="#000000" y="-37.499999" height="449.999989" fill-opacity="1"/><path fill="#e1d3b8" d="M 87.640625 17.703125 L 267.109375 17.703125 C 268.5 17.703125 269.894531 17.738281 271.285156 17.804688 C 272.671875 17.875 274.0625 17.976562 275.445312 18.113281 C 276.832031 18.25 278.214844 18.417969 279.589844 18.625 C 280.96875 18.828125 282.339844 19.066406 283.703125 19.335938 C 285.070312 19.609375 286.425781 19.914062 287.777344 20.253906 C 289.128906 20.589844 290.46875 20.960938 291.800781 21.367188 C 293.132812 21.769531 294.453125 22.207031 295.765625 22.675781 C 297.074219 23.144531 298.375 23.644531 299.660156 24.179688 C 300.945312 24.710938 302.21875 25.273438 303.476562 25.871094 C 304.734375 26.464844 305.980469 27.089844 307.207031 27.746094 C 308.433594 28.402344 309.644531 29.089844 310.839844 29.804688 C 312.03125 30.519531 313.207031 31.265625 314.367188 32.039062 C 315.523438 32.8125 316.660156 33.613281 317.777344 34.441406 C 318.898438 35.273438 319.996094 36.128906 321.070312 37.011719 C 322.148438 37.894531 323.199219 38.804688 324.230469 39.738281 C 325.261719 40.671875 326.269531 41.632812 327.253906 42.617188 C 328.238281 43.601562 329.199219 44.609375 330.132812 45.640625 C 331.070312 46.671875 331.976562 47.726562 332.859375 48.800781 C 333.746094 49.878906 334.601562 50.976562 335.429688 52.09375 C 336.257812 53.210938 337.058594 54.347656 337.832031 55.507812 C 338.605469 56.664062 339.351562 57.839844 340.066406 59.035156 C 340.78125 60.226562 341.46875 61.4375 342.125 62.664062 C 342.78125 63.894531 343.40625 65.136719 344.003906 66.394531 C 344.597656 67.652344 345.160156 68.925781 345.695312 70.210938 C 346.226562 71.496094 346.726562 72.796875 347.195312 74.105469 C 347.664062 75.417969 348.101562 76.738281 348.507812 78.070312 C 348.910156 79.402344 349.28125 80.746094 349.621094 82.09375 C 349.957031 83.445312 350.261719 84.804688 350.535156 86.167969 C 350.804688 87.535156 351.042969 88.90625 351.246094 90.28125 C 351.453125 91.660156 351.621094 93.039062 351.757812 94.425781 C 351.894531 95.808594 351.996094 97.199219 352.066406 98.589844 C 352.132812 99.980469 352.167969 101.371094 352.167969 102.761719 L 352.167969 282.230469 C 352.167969 283.625 352.132812 285.015625 352.066406 286.40625 C 351.996094 287.796875 351.894531 289.183594 351.757812 290.570312 C 351.621094 291.953125 351.453125 293.335938 351.246094 294.710938 C 351.042969 296.089844 350.804688 297.460938 350.535156 298.824219 C 350.261719 300.191406 349.957031 301.550781 349.621094 302.898438 C 349.28125 304.25 348.910156 305.589844 348.507812 306.921875 C 348.101562 308.253906 347.664062 309.578125 347.195312 310.886719 C 346.726562 312.199219 346.226562 313.496094 345.695312 314.78125 C 345.160156 316.070312 344.597656 317.339844 344.003906 318.597656 C 343.40625 319.859375 342.78125 321.101562 342.125 322.328125 C 341.46875 323.554688 340.78125 324.765625 340.066406 325.960938 C 339.351562 327.15625 338.605469 328.332031 337.832031 329.488281 C 337.058594 330.644531 336.257812 331.785156 335.429688 332.902344 C 334.601562 334.019531 333.746094 335.117188 332.859375 336.191406 C 331.976562 337.269531 331.070312 338.324219 330.132812 339.355469 C 329.199219 340.386719 328.238281 341.394531 327.253906 342.378906 C 326.269531 343.363281 325.261719 344.320312 324.230469 345.257812 C 323.199219 346.191406 322.148438 347.101562 321.070312 347.984375 C 319.996094 348.867188 318.898438 349.722656 317.777344 350.550781 C 316.660156 351.382812 315.523438 352.183594 314.367188 352.957031 C 313.207031 353.730469 312.03125 354.472656 310.839844 355.1875 C 309.644531 355.90625 308.433594 356.589844 307.207031 357.246094 C 305.980469 357.902344 304.734375 358.527344 303.476562 359.125 C 302.21875 359.71875 300.945312 360.285156 299.660156 360.816406 C 298.375 361.347656 297.074219 361.847656 295.765625 362.320312 C 294.453125 362.789062 293.132812 363.222656 291.800781 363.628906 C 290.46875 364.03125 289.128906 364.402344 287.777344 364.742188 C 286.425781 365.078125 285.070312 365.382812 283.703125 365.65625 C 282.339844 365.929688 280.96875 366.164062 279.589844 366.371094 C 278.214844 366.574219 276.832031 366.746094 275.445312 366.882812 C 274.0625 367.019531 272.671875 367.121094 271.285156 367.1875 C 269.894531 367.257812 268.5 367.289062 267.109375 367.289062 L 87.640625 367.289062 C 86.25 367.289062 84.855469 367.257812 83.464844 367.1875 C 82.078125 367.121094 80.6875 367.019531 79.304688 366.882812 C 77.917969 366.746094 76.535156 366.574219 75.160156 366.371094 C 73.78125 366.164062 72.410156 365.929688 71.046875 365.65625 C 69.679688 365.382812 68.324219 365.078125 66.972656 364.742188 C 65.621094 364.402344 64.28125 364.03125 62.949219 363.628906 C 61.617188 363.222656 60.296875 362.789062 58.984375 362.320312 C 57.675781 361.847656 56.375 361.347656 55.089844 360.816406 C 53.804688 360.285156 52.53125 359.71875 51.273438 359.125 C 50.015625 358.527344 48.769531 357.902344 47.542969 357.246094 C 46.316406 356.589844 45.105469 355.90625 43.910156 355.1875 C 42.71875 354.472656 41.542969 353.730469 40.382812 352.957031 C 39.226562 352.183594 38.089844 351.382812 36.972656 350.550781 C 35.851562 349.722656 34.753906 348.867188 33.679688 347.984375 C 32.601562 347.101562 31.550781 346.191406 30.519531 345.257812 C 29.488281 344.320312 28.480469 343.363281 27.496094 342.378906 C 26.511719 341.394531 25.550781 340.386719 24.617188 339.355469 C 23.679688 338.324219 22.773438 337.269531 21.890625 336.191406 C 21.003906 335.117188 20.148438 334.019531 19.320312 332.902344 C 18.492188 331.785156 17.691406 330.644531 16.917969 329.488281 C 16.144531 328.332031 15.398438 327.15625 14.683594 325.960938 C 13.96875 324.765625 13.28125 323.554688 12.625 322.328125 C 11.96875 321.101562 11.34375 319.859375 10.746094 318.597656 C 10.152344 317.339844 9.589844 316.070312 9.054688 314.78125 C 8.523438 313.496094 8.023438 312.199219 7.554688 310.886719 C 7.085938 309.578125 6.648438 308.253906 6.242188 306.921875 C 5.839844 305.589844 5.46875 304.25 5.128906 302.898438 C 4.792969 301.550781 4.488281 300.191406 4.214844 298.824219 C 3.945312 297.460938 3.707031 296.089844 3.503906 294.710938 C 3.296875 293.335938 3.128906 291.953125 2.992188 290.570312 C 2.855469 289.183594 2.753906 287.796875 2.683594 286.40625 C 2.617188 285.015625 2.582031 283.625 2.582031 282.230469 L 2.582031 102.761719 C 2.582031 101.371094 2.617188 99.980469 2.683594 98.589844 C 2.753906 97.199219 2.855469 95.808594 2.992188 94.425781 C 3.128906 93.039062 3.296875 91.660156 3.503906 90.28125 C 3.707031 88.90625 3.945312 87.535156 4.214844 86.167969 C 4.488281 84.804688 4.792969 83.445312 5.128906 82.09375 C 5.46875 80.746094 5.839844 79.402344 6.242188 78.070312 C 6.648438 76.738281 7.085938 75.417969 7.554688 74.105469 C 8.023438 72.796875 8.523438 71.496094 9.054688 70.210938 C 9.589844 68.925781 10.152344 67.652344 10.746094 66.394531 C 11.34375 65.136719 11.96875 63.894531 12.625 62.664062 C 13.28125 61.4375 13.96875 60.226562 14.683594 59.035156 C 15.398438 57.839844 16.144531 56.664062 16.917969 55.507812 C 17.691406 54.347656 18.492188 53.210938 19.320312 52.09375 C 20.148438 50.976562 21.003906 49.878906 21.890625 48.800781 C 22.773438 47.726562 23.679688 46.671875 24.617188 45.640625 C 25.550781 44.609375 26.511719 43.601562 27.496094 42.617188 C 28.480469 41.632812 29.488281 40.671875 30.519531 39.738281 C 31.550781 38.804688 32.601562 37.894531 33.679688 37.011719 C 34.753906 36.128906 35.851562 35.273438 36.972656 34.441406 C 38.089844 33.613281 39.226562 32.8125 40.382812 32.039062 C 41.542969 31.265625 42.71875 30.519531 43.910156 29.804688 C 45.105469 29.089844 46.316406 28.402344 47.542969 27.746094 C 48.769531 27.089844 50.015625 26.464844 51.273438 25.871094 C 52.53125 25.273438 53.804688 24.710938 55.089844 24.179688 C 56.375 23.644531 57.675781 23.144531 58.984375 22.675781 C 60.296875 22.207031 61.617188 21.769531 62.949219 21.367188 C 64.28125 20.960938 65.621094 20.589844 66.972656 20.253906 C 68.324219 19.914062 69.679688 19.609375 71.046875 19.335938 C 72.410156 19.066406 73.78125 18.828125 75.160156 18.625 C 76.535156 18.417969 77.917969 18.25 79.304688 18.113281 C 80.6875 17.976562 82.078125 17.875 83.464844 17.804688 C 84.855469 17.738281 86.25 17.703125 87.640625 17.703125 Z M 87.640625 17.703125 " fill-opacity="1" fill-rule="nonzero"/><path fill="#fcf0de" d="M 15.121094 282.230469 L 15.121094 102.761719 C 15.121094 55.980469 53.398438 17.703125 100.179688 17.703125 L 87.640625 17.703125 C 40.859375 17.703125 2.582031 55.980469 2.582031 102.761719 L 2.582031 282.230469 C 2.582031 329.011719 40.859375 367.289062 87.640625 367.289062 L 100.179688 367.289062 C 53.398438 367.289062 15.121094 329.011719 15.121094 282.230469 Z M 15.121094 282.230469 " fill-opacity="1" fill-rule="nonzero"/><path fill="#ceb797" d="M 294.640625 22.3125 C 297.96875 24.136719 301.160156 26.175781 304.214844 28.429688 C 307.269531 30.679688 310.160156 33.125 312.890625 35.761719 C 315.617188 38.398438 318.160156 41.207031 320.511719 44.183594 C 322.867188 47.160156 325.011719 50.28125 326.949219 53.542969 C 328.886719 56.808594 330.597656 60.183594 332.082031 63.675781 C 333.570312 67.167969 334.816406 70.742188 335.824219 74.402344 C 336.835938 78.0625 337.59375 81.769531 338.109375 85.53125 C 338.621094 89.289062 338.882812 93.066406 338.894531 96.863281 L 338.894531 266.742188 C 338.894531 313.523438 300.617188 351.800781 253.835938 351.800781 L 83.953125 351.800781 C 46.699219 351.800781 14.847656 327.53125 3.40625 294.023438 C 9.21875 335.28125 44.855469 367.289062 87.640625 367.289062 L 267.109375 367.289062 C 313.890625 367.289062 352.167969 329.011719 352.167969 282.230469 L 352.167969 102.761719 C 352.167969 65.644531 328.03125 33.824219 294.640625 22.3125 Z M 294.640625 22.3125 " fill-opacity="1" fill-rule="nonzero"/><g clip-path="url(#fb7e89b97b)"><path stroke-linecap="butt" transform="matrix(0.737526, 0, 0, 0.737526, 0.0000045, 15.122063)" fill="none" stroke-linejoin="miter" d="M 118.83055 3.499621 L 362.169429 3.499621 C 364.054956 3.499621 365.945779 3.547289 367.831306 3.637328 C 369.711536 3.732664 371.597063 3.870371 373.471997 4.055746 C 375.352227 4.24112 377.227161 4.468867 379.091502 4.749577 C 380.96114 5.024991 382.820185 5.348073 384.668636 5.713526 C 386.522385 6.084276 388.360243 6.497397 390.192806 6.958186 C 392.025368 7.413678 393.842042 7.916838 395.648122 8.467666 C 397.454203 9.013198 399.244394 9.606397 401.023992 10.241968 C 402.798294 10.877539 404.562003 11.555481 406.304526 12.281091 C 408.047049 13.001405 409.773683 13.76409 411.479132 14.574442 C 413.18458 15.379499 414.874139 16.226927 416.537216 17.116726 C 418.200293 18.006525 419.842184 18.938695 421.46289 19.907941 C 423.078299 20.877186 424.672523 21.888803 426.24556 22.937495 C 427.813302 23.986187 429.354561 25.071954 430.869338 26.194796 C 432.389412 27.322934 433.877707 28.48285 435.334223 29.679842 C 436.796036 30.876834 438.220774 32.110901 439.61903 33.376746 C 441.017285 34.642591 442.383763 35.945511 443.718461 37.28021 C 445.05316 38.614909 446.35608 39.981386 447.621925 41.379642 C 448.893067 42.777897 450.121837 44.207932 451.318829 45.664448 C 452.521117 47.126261 453.681034 48.614556 454.803876 50.129333 C 455.926717 51.64411 457.012484 53.185369 458.061176 54.758407 C 459.109868 56.326149 460.121485 57.920372 461.09073 59.541078 C 462.059976 61.156487 462.992146 62.798378 463.881945 64.461455 C 464.771745 66.129828 465.619172 67.814091 466.429525 69.519539 C 467.234581 71.224988 467.997266 72.951622 468.722876 74.694145 C 469.44319 76.436668 470.121132 78.200377 470.756703 79.974679 C 471.392274 81.754278 471.985473 83.544469 472.536301 85.350549 C 473.081833 87.156629 473.584993 88.978599 474.045782 90.805865 C 474.501274 92.638428 474.914395 94.481583 475.285145 96.330035 C 475.650598 98.183783 475.97368 100.042828 476.249094 101.907169 C 476.529805 103.776806 476.757551 105.646444 476.942926 107.526674 C 477.128301 109.401608 477.266008 111.287135 477.361343 113.172661 C 477.451382 115.058188 477.49905 116.943715 477.49905 118.829242 L 477.49905 362.168121 C 477.49905 364.058944 477.451382 365.944471 477.361343 367.829997 C 477.266008 369.715524 477.128301 371.595754 476.942926 373.475985 C 476.757551 375.350919 476.529805 377.225853 476.249094 379.090194 C 475.97368 380.959831 475.650598 382.818876 475.285145 384.667328 C 474.914395 386.521076 474.501274 388.364231 474.045782 390.191497 C 473.584993 392.02406 473.081833 393.840733 472.536301 395.646813 C 471.985473 397.452894 471.392274 399.248381 470.756703 401.022683 C 470.121132 402.802281 469.44319 404.560694 468.722876 406.303217 C 467.997266 408.051037 467.234581 409.772375 466.429525 411.477823 C 465.619172 413.188568 464.771745 414.872831 463.881945 416.535907 C 462.992146 418.198984 462.059976 419.840876 461.09073 421.461581 C 460.121485 423.082287 459.109868 424.67651 458.061176 426.244252 C 457.012484 427.811993 455.926717 429.358549 454.803876 430.873326 C 453.681034 432.388103 452.521117 433.876398 451.318829 435.332914 C 450.121837 436.794727 448.893067 438.224762 447.621925 439.623017 C 446.35608 441.021273 445.05316 442.38775 443.718461 443.722449 C 442.383763 445.057148 441.017285 446.354772 439.61903 447.625913 C 438.220774 448.891758 436.796036 450.125825 435.334223 451.322817 C 433.877707 452.519808 432.389412 453.679725 430.869338 454.802567 C 429.354561 455.930705 427.813302 457.016472 426.24556 458.065164 C 424.672523 459.113856 423.078299 460.120176 421.46289 461.089422 C 419.842184 462.063963 418.200293 462.990838 416.537216 463.880637 C 414.874139 464.770436 413.18458 465.617864 411.479132 466.428216 C 409.773683 467.233273 408.047049 468.001254 406.304526 468.721568 C 404.562003 469.441881 402.798294 470.119824 401.023992 470.760691 C 399.244394 471.396262 397.454203 471.984165 395.648122 472.534993 C 393.842042 473.080524 392.025368 473.583684 390.192806 474.044473 C 388.360243 474.499966 386.522385 474.913087 384.668636 475.283836 C 382.820185 475.654586 380.96114 475.972371 379.091502 476.253082 C 377.227161 476.528496 375.352227 476.761539 373.471997 476.946913 C 371.597063 477.132288 369.711536 477.269995 367.831306 477.360034 C 365.945779 477.45537 364.054956 477.497741 362.169429 477.497741 L 118.83055 477.497741 C 116.945024 477.497741 115.054201 477.45537 113.168674 477.360034 C 111.288443 477.269995 109.402917 477.132288 107.527983 476.946913 C 105.647752 476.761539 103.772819 476.528496 101.908478 476.253082 C 100.03884 475.972371 98.179795 475.654586 96.331344 475.283836 C 94.477595 474.913087 92.639736 474.499966 90.807174 474.044473 C 88.974611 473.583684 87.157938 473.080524 85.351858 472.534993 C 83.545777 471.984165 81.755586 471.396262 79.975988 470.760691 C 78.201686 470.119824 76.437977 469.441881 74.695454 468.721568 C 72.952931 468.001254 71.226296 467.233273 69.520848 466.428216 C 67.8154 465.617864 66.125841 464.770436 64.462764 463.880637 C 62.799687 462.990838 61.157795 462.063963 59.53709 461.089422 C 57.921681 460.120176 56.327457 459.113856 54.75442 458.065164 C 53.186678 457.016472 51.645419 455.930705 50.130642 454.802567 C 48.610568 453.679725 47.122273 452.519808 45.665757 451.322817 C 44.203944 450.125825 42.779206 448.891758 41.38095 447.625913 C 39.982695 446.354772 38.616217 445.057148 37.281519 443.722449 C 35.94682 442.38775 34.6439 441.021273 33.378054 439.623017 C 32.106913 438.224762 30.878143 436.794727 29.681151 435.332914 C 28.478863 433.876398 27.318946 432.388103 26.196104 430.873326 C 25.073263 429.358549 23.987496 427.811993 22.938804 426.244252 C 21.890112 424.67651 20.878495 423.082287 19.90925 421.461581 C 18.940004 419.840876 18.007834 418.198984 17.118034 416.535907 C 16.228235 414.872831 15.380808 413.188568 14.570455 411.477823 C 13.765398 409.772375 13.002713 408.051037 12.277103 406.303217 C 11.55679 404.560694 10.878848 402.802281 10.243277 401.022683 C 9.607706 399.248381 9.014507 397.452894 8.463679 395.646813 C 7.918147 393.840733 7.414987 392.02406 6.954198 390.191497 C 6.498705 388.364231 6.085584 386.521076 5.714835 384.667328 C 5.349382 382.818876 5.0263 380.959831 4.750886 379.090194 C 4.470175 377.225853 4.242429 375.350919 4.057054 373.475985 C 3.871679 371.595754 3.733972 369.715524 3.638637 367.829997 C 3.548598 365.944471 3.50093 364.058944 3.50093 362.168121 L 3.50093 118.829242 C 3.50093 116.943715 3.548598 115.058188 3.638637 113.172661 C 3.733972 111.287135 3.871679 109.401608 4.057054 107.526674 C 4.242429 105.646444 4.470175 103.776806 4.750886 101.907169 C 5.0263 100.042828 5.349382 98.183783 5.714835 96.330035 C 6.085584 94.481583 6.498705 92.638428 6.954198 90.805865 C 7.414987 88.978599 7.918147 87.156629 8.463679 85.350549 C 9.014507 83.544469 9.607706 81.754278 10.243277 79.974679 C 10.878848 78.200377 11.55679 76.436668 12.277103 74.694145 C 13.002713 72.951622 13.765398 71.224988 14.570455 69.519539 C 15.380808 67.814091 16.228235 66.129828 17.118034 64.461455 C 18.007834 62.798378 18.940004 61.156487 19.90925 59.541078 C 20.878495 57.920372 21.890112 56.326149 22.938804 54.758407 C 23.987496 53.185369 25.073263 51.64411 26.196104 50.129333 C 27.318946 48.614556 28.478863 47.126261 29.681151 45.664448 C 30.878143 44.207932 32.106913 42.777897 33.378054 41.379642 C 34.6439 39.981386 35.94682 38.614909 37.281519 37.28021 C 38.616217 35.945511 39.982695 34.642591 41.38095 33.376746 C 42.779206 32.110901 44.203944 30.876834 45.665757 29.679842 C 47.122273 28.48285 48.610568 27.322934 50.130642 26.194796 C 51.645419 25.071954 53.186678 23.986187 54.75442 22.937495 C 56.327457 21.888803 57.921681 20.877186 59.53709 19.907941 C 61.157795 18.938695 62.799687 18.006525 64.462764 17.116726 C 66.125841 16.226927 67.8154 15.379499 69.520848 14.574442 C 71.226296 13.76409 72.952931 13.001405 74.695454 12.281091 C 76.437977 11.555481 78.201686 10.877539 79.975988 10.241968 C 81.755586 9.606397 83.545777 9.013198 85.351858 8.467666 C 87.157938 7.916838 88.974611 7.413678 90.807174 6.958186 C 92.639736 6.497397 94.477595 6.084276 96.331344 5.713526 C 98.179795 5.348073 100.03884 5.024991 101.908478 4.749577 C 103.772819 4.468867 105.647752 4.24112 107.527983 4.055746 C 109.402917 3.870371 111.288443 3.732664 113.168674 3.637328 C 115.054201 3.547289 116.945024 3.499621 118.83055 3.499621 Z M 118.83055 3.499621 " stroke="#846467" stroke-width="7" stroke-opacity="1" stroke-miterlimit="10"/></g><path fill="#541a0c" d="M 215.726562 192.585938 C 215.726562 193.84375 215.664062 195.097656 215.542969 196.347656 C 215.417969 197.597656 215.234375 198.839844 214.988281 200.074219 C 214.742188 201.304688 214.4375 202.523438 214.074219 203.726562 C 213.707031 204.929688 213.285156 206.113281 212.804688 207.273438 C 212.324219 208.433594 211.785156 209.570312 211.195312 210.679688 C 210.601562 211.785156 209.957031 212.863281 209.257812 213.910156 C 208.558594 214.953125 207.8125 215.960938 207.015625 216.933594 C 206.21875 217.90625 205.375 218.835938 204.484375 219.726562 C 203.597656 220.613281 202.664062 221.457031 201.695312 222.253906 C 200.722656 223.050781 199.714844 223.800781 198.667969 224.496094 C 197.625 225.195312 196.546875 225.84375 195.4375 226.433594 C 194.328125 227.027344 193.195312 227.5625 192.035156 228.042969 C 190.871094 228.527344 189.691406 228.949219 188.488281 229.3125 C 187.285156 229.679688 186.066406 229.984375 184.832031 230.230469 C 183.601562 230.472656 182.359375 230.660156 181.109375 230.78125 C 179.855469 230.90625 178.601562 230.964844 177.34375 230.964844 C 176.089844 230.964844 174.835938 230.90625 173.582031 230.78125 C 172.332031 230.660156 171.089844 230.472656 169.859375 230.230469 C 168.625 229.984375 167.40625 229.679688 166.203125 229.3125 C 165 228.949219 163.820312 228.527344 162.65625 228.042969 C 161.496094 227.5625 160.363281 227.027344 159.253906 226.433594 C 158.144531 225.84375 157.066406 225.195312 156.023438 224.5 C 154.976562 223.800781 153.96875 223.050781 152.996094 222.253906 C 152.023438 221.457031 151.09375 220.613281 150.207031 219.726562 C 149.316406 218.835938 148.472656 217.90625 147.675781 216.933594 C 146.878906 215.960938 146.132812 214.953125 145.433594 213.910156 C 144.734375 212.863281 144.089844 211.785156 143.496094 210.679688 C 142.902344 209.570312 142.367188 208.433594 141.886719 207.273438 C 141.40625 206.113281 140.980469 204.929688 140.617188 203.726562 C 140.253906 202.523438 139.949219 201.304688 139.703125 200.074219 C 139.457031 198.839844 139.273438 197.597656 139.148438 196.347656 C 139.027344 195.097656 138.964844 193.84375 138.964844 192.585938 C 138.964844 191.328125 139.027344 190.074219 139.148438 188.824219 C 139.273438 187.574219 139.457031 186.332031 139.703125 185.097656 C 139.949219 183.863281 140.253906 182.648438 140.617188 181.445312 C 140.980469 180.242188 141.40625 179.058594 141.886719 177.898438 C 142.367188 176.738281 142.902344 175.601562 143.496094 174.492188 C 144.089844 173.382812 144.734375 172.308594 145.433594 171.261719 C 146.132812 170.21875 146.878906 169.207031 147.675781 168.238281 C 148.472656 167.265625 149.316406 166.335938 150.207031 165.445312 C 151.09375 164.558594 152.023438 163.714844 152.996094 162.917969 C 153.96875 162.121094 154.976562 161.371094 156.023438 160.671875 C 157.066406 159.976562 158.144531 159.328125 159.253906 158.738281 C 160.363281 158.144531 161.496094 157.605469 162.65625 157.125 C 163.820312 156.644531 165 156.222656 166.203125 155.855469 C 167.40625 155.492188 168.625 155.1875 169.859375 154.941406 C 171.089844 154.695312 172.332031 154.511719 173.582031 154.390625 C 174.835938 154.265625 176.089844 154.203125 177.34375 154.203125 C 178.601562 154.203125 179.855469 154.265625 181.109375 154.390625 C 182.359375 154.511719 183.601562 154.695312 184.832031 154.941406 C 186.066406 155.1875 187.285156 155.492188 188.488281 155.855469 C 189.691406 156.222656 190.871094 156.644531 192.035156 157.125 C 193.195312 157.605469 194.328125 158.144531 195.4375 158.738281 C 196.546875 159.328125 197.625 159.976562 198.667969 160.671875 C 199.714844 161.371094 200.722656 162.121094 201.695312 162.917969 C 202.664062 163.714844 203.597656 164.558594 204.484375 165.445312 C 205.375 166.335938 206.21875 167.265625 207.015625 168.238281 C 207.8125 169.207031 208.558594 170.21875 209.257812 171.261719 C 209.957031 172.308594 210.601562 173.382812 211.195312 174.492188 C 211.785156 175.601562 212.324219 176.738281 212.804688 177.898438 C 213.285156 179.058594 213.707031 180.242188 214.074219 181.445312 C 214.4375 182.648438 214.742188 183.863281 214.988281 185.097656 C 215.234375 186.332031 215.417969 187.574219 215.542969 188.824219 C 215.664062 190.074219 215.726562 191.328125 215.726562 192.585938 Z M 215.726562 192.585938 " fill-opacity="1" fill-rule="nonzero"/><path fill="#350802" d="M 200.171875 161.726562 C 200.855469 162.640625 201.5 163.585938 202.097656 164.554688 C 202.699219 165.527344 203.253906 166.523438 203.765625 167.542969 C 204.277344 168.566406 204.738281 169.605469 205.15625 170.667969 C 205.574219 171.730469 205.945312 172.808594 206.265625 173.90625 C 206.589844 175 206.859375 176.109375 207.082031 177.226562 C 207.304688 178.347656 207.480469 179.476562 207.601562 180.609375 C 207.722656 181.746094 207.792969 182.882812 207.8125 184.027344 C 207.835938 185.167969 207.804688 186.308594 207.722656 187.445312 C 207.640625 188.585938 207.507812 189.71875 207.328125 190.84375 C 207.144531 191.972656 206.910156 193.089844 206.628906 194.195312 C 206.347656 195.300781 206.015625 196.390625 205.636719 197.46875 C 205.253906 198.546875 204.828125 199.601562 204.355469 200.640625 C 203.878906 201.679688 203.359375 202.695312 202.796875 203.6875 C 202.230469 204.679688 201.621094 205.644531 200.972656 206.582031 C 200.320312 207.519531 199.628906 208.425781 198.894531 209.300781 C 198.164062 210.179688 197.394531 211.019531 196.585938 211.828125 C 195.78125 212.632812 194.9375 213.40625 194.0625 214.136719 C 193.1875 214.867188 192.28125 215.558594 191.339844 216.210938 C 190.402344 216.863281 189.4375 217.46875 188.445312 218.035156 C 187.453125 218.601562 186.441406 219.121094 185.402344 219.59375 C 184.363281 220.070312 183.304688 220.496094 182.226562 220.875 C 181.152344 221.253906 180.058594 221.585938 178.953125 221.867188 C 177.847656 222.152344 176.730469 222.382812 175.605469 222.566406 C 174.476562 222.75 173.34375 222.882812 172.207031 222.960938 C 171.066406 223.042969 169.925781 223.074219 168.785156 223.054688 C 167.644531 223.035156 166.503906 222.960938 165.371094 222.839844 C 164.234375 222.71875 163.109375 222.546875 161.988281 222.324219 C 160.867188 222.101562 159.761719 221.828125 158.664062 221.507812 C 157.570312 221.1875 156.492188 220.816406 155.429688 220.398438 C 154.367188 219.980469 153.324219 219.515625 152.304688 219.003906 C 151.28125 218.492188 150.285156 217.9375 149.316406 217.339844 C 148.34375 216.738281 147.402344 216.097656 146.488281 215.410156 C 147.308594 216.507812 148.1875 217.558594 149.121094 218.5625 C 150.054688 219.566406 151.039062 220.515625 152.074219 221.414062 C 153.109375 222.3125 154.191406 223.152344 155.316406 223.933594 C 156.441406 224.714844 157.605469 225.433594 158.808594 226.089844 C 160.011719 226.746094 161.246094 227.335938 162.511719 227.863281 C 163.777344 228.386719 165.070312 228.84375 166.382812 229.226562 C 167.699219 229.613281 169.03125 229.929688 170.378906 230.171875 C 171.730469 230.414062 173.085938 230.585938 174.453125 230.683594 C 175.820312 230.78125 177.1875 230.804688 178.558594 230.757812 C 179.929688 230.707031 181.292969 230.585938 182.648438 230.390625 C 184.003906 230.195312 185.347656 229.929688 186.675781 229.589844 C 188.003906 229.25 189.308594 228.84375 190.59375 228.363281 C 191.875 227.886719 193.132812 227.339844 194.355469 226.726562 C 195.582031 226.113281 196.773438 225.433594 197.925781 224.695312 C 199.078125 223.953125 200.1875 223.152344 201.253906 222.292969 C 202.320312 221.433594 203.339844 220.519531 204.308594 219.550781 C 205.277344 218.578125 206.191406 217.5625 207.050781 216.496094 C 207.914062 215.425781 208.714844 214.316406 209.453125 213.164062 C 210.195312 212.011719 210.871094 210.824219 211.484375 209.597656 C 212.097656 208.371094 212.644531 207.117188 213.125 205.832031 C 213.601562 204.546875 214.011719 203.242188 214.351562 201.914062 C 214.691406 200.585938 214.957031 199.246094 215.152344 197.886719 C 215.347656 196.53125 215.46875 195.167969 215.515625 193.796875 C 215.566406 192.429688 215.542969 191.0625 215.445312 189.695312 C 215.347656 188.328125 215.175781 186.96875 214.933594 185.621094 C 214.6875 184.269531 214.375 182.941406 213.988281 181.625 C 213.601562 180.308594 213.148438 179.019531 212.621094 177.753906 C 212.097656 176.488281 211.507812 175.253906 210.851562 174.050781 C 210.191406 172.847656 209.472656 171.683594 208.691406 170.554688 C 207.910156 169.429688 207.070312 168.351562 206.171875 167.3125 C 205.277344 166.277344 204.324219 165.292969 203.324219 164.359375 C 202.320312 163.425781 201.269531 162.546875 200.171875 161.726562 Z M 200.171875 161.726562 " fill-opacity="1" fill-rule="nonzero"/><path fill="#702a1c" d="M 183.011719 165.804688 C 183.574219 166.277344 184.113281 166.777344 184.625 167.300781 C 185.136719 167.824219 185.625 168.371094 186.082031 168.945312 C 186.542969 169.515625 186.972656 170.109375 187.371094 170.722656 C 187.773438 171.335938 188.144531 171.96875 188.484375 172.617188 C 188.820312 173.269531 189.128906 173.933594 189.402344 174.613281 C 189.675781 175.292969 189.914062 175.984375 190.121094 176.6875 C 190.324219 177.390625 190.496094 178.105469 190.632812 178.824219 C 190.765625 179.542969 190.867188 180.269531 190.933594 181 C 190.996094 181.730469 191.023438 182.460938 191.015625 183.191406 C 191.011719 183.925781 190.96875 184.65625 190.886719 185.382812 C 190.808594 186.109375 190.695312 186.832031 190.542969 187.550781 C 190.394531 188.265625 190.207031 188.972656 189.988281 189.671875 C 189.769531 190.371094 189.515625 191.054688 189.226562 191.730469 C 188.941406 192.402344 188.621094 193.0625 188.269531 193.703125 C 187.917969 194.34375 187.535156 194.96875 187.121094 195.570312 C 186.707031 196.175781 186.265625 196.757812 185.796875 197.316406 C 185.324219 197.878906 184.828125 198.414062 184.304688 198.925781 C 183.78125 199.4375 183.234375 199.921875 182.664062 200.382812 C 182.09375 200.839844 181.5 201.265625 180.886719 201.667969 C 180.273438 202.066406 179.640625 202.433594 178.992188 202.773438 C 178.34375 203.109375 177.679688 203.414062 177 203.6875 C 176.316406 203.960938 175.625 204.199219 174.921875 204.402344 C 174.21875 204.605469 173.507812 204.773438 172.789062 204.910156 C 172.066406 205.042969 171.34375 205.140625 170.613281 205.203125 C 169.882812 205.269531 169.152344 205.296875 168.417969 205.285156 C 167.6875 205.277344 166.957031 205.234375 166.226562 205.152344 C 165.5 205.070312 164.777344 204.957031 164.058594 204.804688 C 163.34375 204.652344 162.632812 204.464844 161.933594 204.246094 C 161.234375 204.023438 160.550781 203.769531 159.875 203.480469 C 159.203125 203.191406 158.542969 202.871094 157.898438 202.519531 C 157.257812 202.164062 156.632812 201.78125 156.027344 201.367188 C 155.421875 200.953125 154.839844 200.511719 154.277344 200.039062 C 153.714844 199.566406 153.179688 199.070312 152.667969 198.546875 C 152.152344 198.019531 151.667969 197.472656 151.207031 196.902344 C 150.75 196.328125 150.320312 195.738281 149.917969 195.121094 C 149.519531 194.507812 149.148438 193.875 148.808594 193.226562 C 148.46875 192.578125 148.164062 191.910156 147.890625 191.230469 C 147.617188 190.550781 147.378906 189.859375 147.171875 189.15625 C 146.964844 188.453125 146.796875 187.742188 146.660156 187.019531 C 146.523438 186.300781 146.421875 185.574219 146.359375 184.847656 C 146.296875 184.117188 146.265625 183.386719 146.273438 182.652344 C 146.28125 181.921875 146.324219 181.191406 146.402344 180.460938 C 146.484375 179.734375 146.597656 179.011719 146.746094 178.296875 C 146.898438 177.578125 147.082031 176.871094 147.304688 176.171875 C 147.523438 175.472656 147.777344 174.789062 148.0625 174.113281 C 148.351562 173.441406 148.671875 172.785156 149.023438 172.140625 C 149.375 171.5 149.757812 170.878906 150.167969 170.273438 C 150.582031 169.667969 151.023438 169.085938 151.496094 168.527344 C 151.964844 167.964844 152.464844 167.429688 152.984375 166.917969 C 153.507812 166.40625 154.058594 165.921875 154.628906 165.464844 C 155.199219 165.007812 155.792969 164.578125 156.40625 164.179688 C 157.019531 163.777344 157.648438 163.410156 158.300781 163.074219 C 158.949219 162.734375 159.613281 162.429688 160.292969 162.15625 C 160.972656 161.886719 161.664062 161.648438 162.367188 161.445312 C 163.070312 161.238281 163.78125 161.070312 164.503906 160.9375 C 165.222656 160.800781 165.949219 160.703125 166.679688 160.640625 C 167.40625 160.578125 168.140625 160.550781 168.871094 160.558594 C 169.605469 160.566406 170.335938 160.613281 171.0625 160.691406 C 171.792969 160.773438 172.515625 160.890625 173.230469 161.042969 C 173.949219 161.191406 174.65625 161.378906 175.355469 161.601562 C 176.054688 161.820312 176.742188 162.074219 177.414062 162.363281 C 178.089844 162.652344 178.75 162.972656 179.390625 163.328125 C 180.035156 163.679688 180.65625 164.0625 181.261719 164.476562 C 181.867188 164.890625 182.453125 165.335938 183.011719 165.804688 Z M 183.011719 165.804688 " fill-opacity="1" fill-rule="nonzero"/></svg>