<svg xmlns="http://www.w3.org/2000/svg" xmlns:xlink="http://www.w3.org/1999/xlink" width="500" zoomAndPan="magnify" viewBox="0 0 375 374.999991" height="500" preserveAspectRatio="xMidYMid meet" version="1.0"><defs><clipPath id="29a46ecc13"><path d="M 0.363281 0 L 371.613281 0 L 371.613281 371.25 L 0.363281 371.25 Z M 0.363281 0 " clip-rule="nonzero"/></clipPath></defs><rect x="-37.5" width="450" fill="#ffffff" y="-37.499999" height="449.999989" fill-opacity="1"/><rect x="-37.5" width="450" fill="#000000" y="-37.499999" height="449.999989" fill-opacity="1"/><path fill="#e1d3b8" d="M 92.082031 2.703125 L 279.898438 2.703125 C 281.355469 2.703125 282.8125 2.738281 284.265625 2.808594 C 285.722656 2.878906 287.171875 2.988281 288.621094 3.128906 C 290.074219 3.273438 291.519531 3.449219 292.960938 3.664062 C 294.398438 3.878906 295.835938 4.128906 297.265625 4.410156 C 298.691406 4.695312 300.113281 5.015625 301.527344 5.367188 C 302.941406 5.722656 304.34375 6.113281 305.738281 6.535156 C 307.132812 6.957031 308.515625 7.414062 309.886719 7.90625 C 311.257812 8.394531 312.617188 8.917969 313.960938 9.476562 C 315.308594 10.035156 316.640625 10.625 317.957031 11.246094 C 319.273438 11.871094 320.574219 12.527344 321.859375 13.210938 C 323.144531 13.898438 324.410156 14.617188 325.660156 15.367188 C 326.910156 16.113281 328.140625 16.894531 329.351562 17.703125 C 330.5625 18.511719 331.753906 19.351562 332.925781 20.21875 C 334.09375 21.085938 335.242188 21.984375 336.367188 22.90625 C 337.496094 23.832031 338.597656 24.78125 339.675781 25.761719 C 340.757812 26.738281 341.8125 27.742188 342.839844 28.773438 C 343.871094 29.804688 344.875 30.859375 345.855469 31.9375 C 346.832031 33.015625 347.785156 34.121094 348.707031 35.246094 C 349.632812 36.371094 350.527344 37.519531 351.394531 38.691406 C 352.261719 39.859375 353.101562 41.050781 353.910156 42.261719 C 354.71875 43.472656 355.5 44.703125 356.25 45.953125 C 356.996094 47.203125 357.714844 48.46875 358.402344 49.753906 C 359.089844 51.039062 359.742188 52.339844 360.367188 53.65625 C 360.988281 54.972656 361.578125 56.304688 362.136719 57.652344 C 362.695312 58.996094 363.21875 60.355469 363.710938 61.726562 C 364.199219 63.101562 364.65625 64.484375 365.078125 65.875 C 365.503906 67.269531 365.890625 68.675781 366.246094 70.085938 C 366.597656 71.5 366.917969 72.921875 367.203125 74.351562 C 367.488281 75.78125 367.734375 77.214844 367.949219 78.65625 C 368.164062 80.097656 368.339844 81.542969 368.484375 82.992188 C 368.628906 84.441406 368.734375 85.894531 368.804688 87.347656 C 368.878906 88.804688 368.914062 90.257812 368.914062 91.714844 L 368.914062 279.535156 C 368.914062 280.992188 368.878906 282.445312 368.804688 283.902344 C 368.734375 285.355469 368.628906 286.808594 368.484375 288.257812 C 368.339844 289.707031 368.164062 291.152344 367.949219 292.59375 C 367.734375 294.035156 367.488281 295.46875 367.203125 296.898438 C 366.917969 298.328125 366.597656 299.75 366.246094 301.164062 C 365.890625 302.574219 365.503906 303.980469 365.078125 305.375 C 364.65625 306.765625 364.199219 308.148438 363.710938 309.523438 C 363.21875 310.894531 362.695312 312.253906 362.136719 313.597656 C 361.578125 314.945312 360.988281 316.273438 360.367188 317.59375 C 359.742188 318.910156 359.089844 320.210938 358.402344 321.496094 C 357.714844 322.78125 356.996094 324.046875 356.25 325.296875 C 355.5 326.546875 354.71875 327.777344 353.910156 328.988281 C 353.101562 330.199219 352.261719 331.390625 351.394531 332.558594 C 350.527344 333.730469 349.632812 334.878906 348.707031 336.003906 C 347.785156 337.128906 346.832031 338.234375 345.855469 339.3125 C 344.875 340.390625 343.871094 341.445312 342.839844 342.476562 C 341.8125 343.507812 340.757812 344.511719 339.675781 345.488281 C 338.597656 346.46875 337.496094 347.417969 336.367188 348.34375 C 335.242188 349.265625 334.09375 350.164062 332.925781 351.03125 C 331.753906 351.898438 330.5625 352.738281 329.351562 353.546875 C 328.140625 354.355469 326.910156 355.136719 325.660156 355.882812 C 324.410156 356.632812 323.144531 357.351562 321.859375 358.039062 C 320.574219 358.722656 319.273438 359.378906 317.957031 360.003906 C 316.640625 360.625 315.308594 361.214844 313.960938 361.773438 C 312.617188 362.332031 311.257812 362.855469 309.886719 363.34375 C 308.515625 363.835938 307.132812 364.292969 305.738281 364.714844 C 304.34375 365.136719 302.941406 365.527344 301.527344 365.878906 C 300.113281 366.234375 298.691406 366.554688 297.265625 366.839844 C 295.835938 367.121094 294.398438 367.371094 292.960938 367.585938 C 291.519531 367.800781 290.074219 367.976562 288.621094 368.121094 C 287.171875 368.261719 285.722656 368.371094 284.265625 368.441406 C 282.8125 368.511719 281.355469 368.546875 279.898438 368.546875 L 92.082031 368.546875 C 90.625 368.546875 89.167969 368.511719 87.714844 368.441406 C 86.257812 368.371094 84.804688 368.261719 83.355469 368.121094 C 81.90625 367.976562 80.460938 367.800781 79.019531 367.585938 C 77.578125 367.371094 76.144531 367.121094 74.714844 366.839844 C 73.285156 366.554688 71.863281 366.234375 70.453125 365.878906 C 69.039062 365.527344 67.636719 365.136719 66.242188 364.714844 C 64.847656 364.292969 63.464844 363.835938 62.09375 363.34375 C 60.722656 362.855469 59.363281 362.332031 58.015625 361.773438 C 56.671875 361.214844 55.339844 360.625 54.023438 360.003906 C 52.707031 359.378906 51.40625 358.722656 50.121094 358.039062 C 48.835938 357.351562 47.566406 356.632812 46.316406 355.882812 C 45.070312 355.136719 43.839844 354.355469 42.625 353.546875 C 41.414062 352.738281 40.226562 351.898438 39.054688 351.03125 C 37.882812 350.164062 36.738281 349.265625 35.609375 348.34375 C 34.484375 347.417969 33.382812 346.46875 32.300781 345.488281 C 31.222656 344.511719 30.167969 343.507812 29.136719 342.476562 C 28.109375 341.445312 27.101562 340.390625 26.125 339.3125 C 25.148438 338.234375 24.195312 337.128906 23.269531 336.003906 C 22.347656 334.878906 21.453125 333.730469 20.582031 332.558594 C 19.714844 331.390625 18.878906 330.199219 18.066406 328.988281 C 17.257812 327.777344 16.480469 326.546875 15.730469 325.296875 C 14.980469 324.046875 14.261719 322.78125 13.578125 321.496094 C 12.890625 320.210938 12.234375 318.910156 11.613281 317.59375 C 10.988281 316.273438 10.398438 314.945312 9.839844 313.597656 C 9.285156 312.253906 8.761719 310.894531 8.269531 309.523438 C 7.777344 308.148438 7.320312 306.765625 6.898438 305.375 C 6.476562 303.980469 6.085938 302.574219 5.734375 301.164062 C 5.378906 299.75 5.058594 298.328125 4.777344 296.898438 C 4.492188 295.46875 4.242188 294.035156 4.03125 292.59375 C 3.816406 291.152344 3.636719 289.707031 3.496094 288.257812 C 3.351562 286.808594 3.246094 285.355469 3.171875 283.902344 C 3.101562 282.445312 3.066406 280.992188 3.066406 279.535156 L 3.066406 91.714844 C 3.066406 90.257812 3.101562 88.804688 3.171875 87.347656 C 3.246094 85.894531 3.351562 84.441406 3.496094 82.992188 C 3.636719 81.542969 3.816406 80.097656 4.03125 78.65625 C 4.242188 77.214844 4.492188 75.78125 4.777344 74.351562 C 5.058594 72.921875 5.378906 71.5 5.734375 70.085938 C 6.085938 68.675781 6.476562 67.269531 6.898438 65.875 C 7.320312 64.484375 7.777344 63.101562 8.269531 61.726562 C 8.761719 60.355469 9.285156 58.996094 9.839844 57.652344 C 10.398438 56.304688 10.988281 54.972656 11.613281 53.65625 C 12.234375 52.339844 12.890625 51.039062 13.578125 49.753906 C 14.261719 48.46875 14.980469 47.203125 15.730469 45.953125 C 16.480469 44.703125 17.257812 43.472656 18.066406 42.261719 C 18.878906 41.050781 19.714844 39.859375 20.582031 38.691406 C 21.453125 37.519531 22.347656 36.371094 23.269531 35.246094 C 24.195312 34.121094 25.148438 33.015625 26.125 31.9375 C 27.101562 30.859375 28.109375 29.804688 29.136719 28.773438 C 30.167969 27.742188 31.222656 26.738281 32.300781 25.761719 C 33.382812 24.78125 34.484375 23.832031 35.609375 22.90625 C 36.738281 21.984375 37.882812 21.085938 39.054688 20.21875 C 40.226562 19.351562 41.414062 18.511719 42.625 17.703125 C 43.839844 16.894531 45.070312 16.113281 46.316406 15.367188 C 47.566406 14.617188 48.835938 13.898438 50.121094 13.210938 C 51.40625 12.527344 52.707031 11.871094 54.023438 11.246094 C 55.339844 10.625 56.671875 10.035156 58.015625 9.476562 C 59.363281 8.917969 60.722656 8.394531 62.09375 7.90625 C 63.464844 7.414062 64.847656 6.957031 66.242188 6.535156 C 67.636719 6.113281 69.039062 5.722656 70.453125 5.367188 C 71.863281 5.015625 73.285156 4.695312 74.714844 4.410156 C 76.144531 4.128906 77.578125 3.878906 79.019531 3.664062 C 80.460938 3.449219 81.90625 3.273438 83.355469 3.128906 C 84.804688 2.988281 86.257812 2.878906 87.714844 2.808594 C 89.167969 2.738281 90.625 2.703125 92.082031 2.703125 Z M 92.082031 2.703125 " fill-opacity="1" fill-rule="nonzero"/><path fill="#fcf0de" d="M 16.1875 279.535156 L 16.1875 91.714844 C 16.1875 42.757812 56.246094 2.703125 105.203125 2.703125 L 92.082031 2.703125 C 43.125 2.703125 3.066406 42.757812 3.066406 91.714844 L 3.066406 279.535156 C 3.066406 328.492188 43.125 368.546875 92.082031 368.546875 L 105.203125 368.546875 C 56.246094 368.546875 16.1875 328.492188 16.1875 279.535156 Z M 16.1875 279.535156 " fill-opacity="1" fill-rule="nonzero"/><path fill="#ceb797" d="M 308.710938 7.523438 C 310.449219 8.480469 312.15625 9.492188 313.824219 10.558594 C 315.496094 11.625 317.132812 12.75 318.726562 13.925781 C 320.324219 15.101562 321.878906 16.332031 323.394531 17.613281 C 324.910156 18.890625 326.378906 20.222656 327.804688 21.601562 C 329.234375 22.980469 330.609375 24.402344 331.941406 25.875 C 333.273438 27.34375 334.554688 28.859375 335.785156 30.414062 C 337.015625 31.96875 338.191406 33.566406 339.316406 35.199219 C 340.4375 36.832031 341.507812 38.503906 342.519531 40.210938 C 343.53125 41.914062 344.484375 43.652344 345.382812 45.421875 C 346.28125 47.191406 347.117188 48.988281 347.894531 50.8125 C 348.667969 52.636719 349.386719 54.488281 350.039062 56.359375 C 350.691406 58.234375 351.28125 60.125 351.808594 62.039062 C 352.335938 63.949219 352.800781 65.878906 353.199219 67.820312 C 353.597656 69.761719 353.929688 71.71875 354.199219 73.683594 C 354.46875 75.648438 354.671875 77.621094 354.808594 79.597656 C 354.945312 81.578125 355.015625 83.558594 355.019531 85.542969 L 355.019531 263.324219 C 355.019531 312.28125 314.960938 352.339844 266.003906 352.339844 L 88.222656 352.339844 C 49.238281 352.339844 15.902344 326.9375 3.929688 291.875 C 10.011719 335.050781 47.308594 368.546875 92.082031 368.546875 L 279.898438 368.546875 C 328.855469 368.546875 368.914062 328.492188 368.914062 279.535156 L 368.914062 91.714844 C 368.914062 52.871094 343.652344 19.574219 308.710938 7.523438 Z M 308.710938 7.523438 " fill-opacity="1" fill-rule="nonzero"/><g clip-path="url(#29a46ecc13)"><path stroke-linecap="butt" transform="matrix(0.771829, 0, 0, 0.771829, 0.364477, 0)" fill="none" stroke-linejoin="miter" d="M 118.831376 3.502231 L 362.170639 3.502231 C 364.058402 3.502231 365.946165 3.54778 367.828868 3.638879 C 369.716631 3.729977 371.594272 3.871686 373.471913 4.053883 C 375.354615 4.241141 377.227196 4.468887 379.094715 4.747244 C 380.957173 5.0256 382.819631 5.349506 384.671967 5.7139 C 386.519242 6.083355 388.361456 6.498359 390.193548 6.953852 C 392.02564 7.414405 393.842549 7.920508 395.649336 8.467099 C 397.456123 9.01369 399.247726 9.60583 401.024147 10.24352 C 402.800568 10.876148 404.561805 11.554326 406.302799 12.278053 C 408.048853 13.00178 409.774663 13.765995 411.48023 14.570698 C 413.185796 15.380463 414.871118 16.230715 416.536196 17.116395 C 418.201274 18.007136 419.841047 18.938365 421.460576 19.910082 C 423.080105 20.876738 424.674328 21.888944 426.243247 22.936577 C 427.812165 23.984209 429.355779 25.07233 430.874087 26.195878 C 432.387334 27.319426 433.875276 28.483463 435.332852 29.677865 C 436.795489 30.877329 438.222699 32.107158 439.619543 33.377476 C 441.021447 34.642733 442.387925 35.943417 443.718975 37.279528 C 445.055086 38.61564 446.35577 39.982117 447.626088 41.378961 C 448.891345 42.775804 450.126236 44.208075 451.320638 45.665651 C 452.520102 47.123227 453.679077 48.611169 454.802625 50.129477 C 455.926173 51.642725 457.014294 53.186338 458.061927 54.755256 C 459.109559 56.324175 460.121765 57.918399 461.093482 59.537927 C 462.060138 61.157456 462.991368 62.797229 463.882108 64.462307 C 464.772849 66.127385 465.618041 67.812707 466.427805 69.518274 C 467.232509 71.22384 467.996724 72.94965 468.720451 74.695705 C 469.444178 76.436698 470.122355 78.197936 470.760045 79.974356 C 471.392673 81.755838 471.984813 83.547442 472.531404 85.349168 C 473.083056 87.155954 473.584098 88.977924 474.044652 90.804955 C 474.500144 92.637047 474.915148 94.479261 475.284603 96.331597 C 475.654058 98.183933 475.972903 100.04133 476.25126 101.90885 C 476.529616 103.776369 476.757362 105.648949 476.94462 107.52659 C 477.131878 109.404231 477.268526 111.286933 477.359625 113.169636 C 477.455784 115.057399 477.501333 116.940101 477.501333 118.827864 L 477.501333 362.172188 C 477.501333 364.059951 477.455784 365.942654 477.359625 367.830417 C 477.268526 369.713119 477.131878 371.595821 476.94462 373.473463 C 476.757362 375.351104 476.529616 377.223684 476.25126 379.091203 C 475.972903 380.958722 475.654058 382.816119 475.284603 384.668455 C 474.915148 386.520791 474.500144 388.363005 474.044652 390.195097 C 473.584098 392.022128 473.083056 393.844098 472.531404 395.650885 C 471.984813 397.452611 471.392673 399.244215 470.760045 401.025696 C 470.122355 402.802117 469.444178 404.563354 468.720451 406.304348 C 467.996724 408.050402 467.232509 409.771152 466.427805 411.481779 C 465.618041 413.187345 464.772849 414.872667 463.882108 416.537746 C 462.991368 418.202824 462.060138 419.842596 461.093482 421.462125 C 460.121765 423.081654 459.109559 424.675878 458.061927 426.244796 C 457.014294 427.813715 455.926173 429.357328 454.802625 430.870575 C 453.679077 432.388884 452.520102 433.876826 451.320638 435.334402 C 450.126236 436.791978 448.891345 438.224248 447.626088 439.621092 C 446.35577 441.017935 445.055086 442.384413 443.718975 443.720524 C 442.387925 445.056635 441.021447 446.357319 439.619543 447.622576 C 438.222699 448.892894 436.795489 450.122724 435.332852 451.322187 C 433.875276 452.51659 432.387334 453.680626 430.874087 454.804174 C 429.355779 455.927722 427.812165 457.015843 426.243247 458.063476 C 424.674328 459.111109 423.080105 460.123314 421.460576 461.089971 C 419.841047 462.061688 418.201274 462.992917 416.536196 463.883658 C 414.871118 464.769338 413.185796 465.61959 411.48023 466.429355 C 409.774663 467.234058 408.048853 467.998273 406.302799 468.722 C 404.561805 469.445727 402.800568 470.123905 401.024147 470.756533 C 399.247726 471.394222 397.456123 471.986363 395.649336 472.532954 C 393.842549 473.079545 392.02564 473.585647 390.193548 474.04114 C 388.361456 474.501693 386.519242 474.916698 384.671967 475.286153 C 382.819631 475.650547 380.957173 475.974452 379.094715 476.252809 C 377.227196 476.531165 375.354615 476.758912 373.471913 476.94617 C 371.594272 477.128367 369.716631 477.270075 367.828868 477.361174 C 365.946165 477.452272 364.058402 477.497822 362.170639 477.497822 L 118.831376 477.497822 C 116.943613 477.497822 115.05585 477.452272 113.173147 477.361174 C 111.285384 477.270075 109.402682 477.128367 107.525041 476.94617 C 105.6474 476.758912 103.774819 476.531165 101.9073 476.252809 C 100.039781 475.974452 98.182384 475.650547 96.330048 475.286153 C 94.477712 474.916698 92.635498 474.501693 90.808467 474.04114 C 88.976375 473.585647 87.159466 473.079545 85.352679 472.532954 C 83.545892 471.986363 81.754289 471.394222 79.977868 470.756533 C 78.201447 470.123905 76.44021 469.445727 74.694155 468.722 C 72.953162 467.998273 71.227352 467.234058 69.521785 466.429355 C 67.816219 465.61959 66.130897 464.769338 64.465819 463.883658 C 62.800741 462.992917 61.155907 462.061688 59.536378 461.089971 C 57.92191 460.123314 56.327687 459.111109 54.753707 458.063476 C 53.184789 457.015843 51.646236 455.927722 50.127928 454.804174 C 48.60962 453.680626 47.126739 452.51659 45.664102 451.322187 C 44.206526 450.122724 42.779316 448.892894 41.377411 447.622576 C 39.980568 446.357319 38.61409 445.056635 37.277979 443.720524 C 35.946929 442.384413 34.641184 441.017935 33.375927 439.621092 C 32.11067 438.224248 30.875779 436.791978 29.676316 435.334402 C 28.481913 433.876826 27.322938 432.388884 26.194329 430.870575 C 25.070781 429.357328 23.987721 427.813715 22.935027 426.244796 C 21.887395 424.675878 20.88025 423.081654 19.908533 421.462125 C 18.936816 419.842596 18.005586 418.202824 17.119907 416.537746 C 16.229166 414.872667 15.378913 413.187345 14.57421 411.481779 C 13.764445 409.771152 13.00023 408.050402 12.276503 406.304348 C 11.557837 404.563354 10.87966 402.802117 10.24197 401.025696 C 9.604281 399.244215 9.012141 397.452611 8.46555 395.650885 C 7.918959 393.844098 7.412856 392.022128 6.957363 390.195097 C 6.49681 388.363005 6.081806 386.520791 5.717412 384.668455 C 5.347957 382.816119 5.024051 380.958722 4.750755 379.091203 C 4.472399 377.223684 4.239592 375.351104 4.057395 373.473463 C 3.870137 371.595821 3.733489 369.713119 3.637329 367.830417 C 3.546231 365.942654 3.500682 364.059951 3.500682 362.172188 L 3.500682 118.827864 C 3.500682 116.940101 3.546231 115.057399 3.637329 113.169636 C 3.733489 111.286933 3.870137 109.404231 4.057395 107.52659 C 4.239592 105.648949 4.472399 103.776369 4.750755 101.90885 C 5.024051 100.04133 5.347957 98.183933 5.717412 96.331597 C 6.081806 94.479261 6.49681 92.637047 6.957363 90.804955 C 7.412856 88.977924 7.918959 87.155954 8.46555 85.349168 C 9.012141 83.547442 9.604281 81.755838 10.24197 79.974356 C 10.87966 78.197936 11.557837 76.436698 12.276503 74.695705 C 13.00023 72.94965 13.764445 71.22384 14.57421 69.518274 C 15.378913 67.812707 16.229166 66.127385 17.119907 64.462307 C 18.005586 62.797229 18.936816 61.157456 19.908533 59.537927 C 20.88025 57.918399 21.887395 56.324175 22.935027 54.755256 C 23.987721 53.186338 25.070781 51.642725 26.194329 50.129477 C 27.322938 48.611169 28.481913 47.123227 29.676316 45.665651 C 30.875779 44.208075 32.11067 42.775804 33.375927 41.378961 C 34.641184 39.982117 35.946929 38.61564 37.277979 37.279528 C 38.61409 35.943417 39.980568 34.642733 41.377411 33.377476 C 42.779316 32.107158 44.206526 30.877329 45.664102 29.677865 C 47.126739 28.483463 48.60962 27.319426 50.127928 26.195878 C 51.646236 25.07233 53.184789 23.984209 54.753707 22.936577 C 56.327687 21.888944 57.92191 20.876738 59.536378 19.910082 C 61.155907 18.938365 62.800741 18.007136 64.465819 17.116395 C 66.130897 16.230715 67.816219 15.380463 69.521785 14.570698 C 71.227352 13.765995 72.953162 13.00178 74.694155 12.278053 C 76.44021 11.554326 78.201447 10.876148 79.977868 10.24352 C 81.754289 9.60583 83.545892 9.01369 85.352679 8.467099 C 87.159466 7.920508 88.976375 7.414405 90.808467 6.953852 C 92.635498 6.498359 94.477712 6.083355 96.330048 5.7139 C 98.182384 5.349506 100.039781 5.0256 101.9073 4.747244 C 103.774819 4.468887 105.6474 4.241141 107.525041 4.053883 C 109.402682 3.871686 111.285384 3.729977 113.173147 3.638879 C 115.05585 3.54778 116.943613 3.502231 118.831376 3.502231 Z M 118.831376 3.502231 " stroke="#846467" stroke-width="7" stroke-opacity="1" stroke-miterlimit="10"/></g><path fill="#541a0c" d="M 288.644531 98.585938 C 288.644531 99.671875 288.589844 100.757812 288.484375 101.84375 C 288.375 102.925781 288.214844 104 288.003906 105.066406 C 287.792969 106.132812 287.527344 107.1875 287.210938 108.230469 C 286.894531 109.269531 286.53125 110.292969 286.113281 111.296875 C 285.699219 112.304688 285.234375 113.285156 284.71875 114.246094 C 284.207031 115.203125 283.648438 116.136719 283.042969 117.042969 C 282.441406 117.945312 281.792969 118.820312 281.101562 119.660156 C 280.410156 120.5 279.683594 121.304688 278.914062 122.074219 C 278.144531 122.84375 277.339844 123.574219 276.496094 124.265625 C 275.65625 124.953125 274.785156 125.601562 273.878906 126.207031 C 272.972656 126.8125 272.042969 127.371094 271.082031 127.882812 C 270.125 128.394531 269.140625 128.859375 268.136719 129.277344 C 267.128906 129.691406 266.109375 130.058594 265.066406 130.375 C 264.023438 130.691406 262.972656 130.953125 261.902344 131.167969 C 260.835938 131.378906 259.761719 131.539062 258.679688 131.644531 C 257.597656 131.753906 256.511719 131.804688 255.421875 131.804688 C 254.335938 131.804688 253.25 131.753906 252.167969 131.644531 C 251.085938 131.539062 250.007812 131.378906 248.941406 131.167969 C 247.875 130.953125 246.820312 130.691406 245.78125 130.375 C 244.738281 130.058594 243.714844 129.691406 242.710938 129.277344 C 241.707031 128.859375 240.722656 128.394531 239.761719 127.882812 C 238.804688 127.371094 237.871094 126.8125 236.96875 126.207031 C 236.0625 125.601562 235.191406 124.953125 234.347656 124.265625 C 233.507812 123.574219 232.703125 122.84375 231.933594 122.074219 C 231.164062 121.304688 230.433594 120.5 229.746094 119.660156 C 229.054688 118.820312 228.40625 117.945312 227.800781 117.042969 C 227.199219 116.136719 226.640625 115.203125 226.125 114.246094 C 225.613281 113.285156 225.148438 112.304688 224.730469 111.296875 C 224.316406 110.292969 223.949219 109.269531 223.632812 108.230469 C 223.316406 107.1875 223.054688 106.132812 222.84375 105.066406 C 222.628906 104 222.46875 102.925781 222.363281 101.84375 C 222.257812 100.757812 222.203125 99.671875 222.203125 98.585938 C 222.203125 97.496094 222.257812 96.414062 222.363281 95.328125 C 222.46875 94.246094 222.628906 93.171875 222.84375 92.105469 C 223.054688 91.039062 223.316406 89.984375 223.632812 88.941406 C 223.949219 87.902344 224.316406 86.878906 224.730469 85.875 C 225.148438 84.867188 225.613281 83.886719 226.125 82.925781 C 226.640625 81.964844 227.199219 81.035156 227.800781 80.128906 C 228.40625 79.226562 229.054688 78.351562 229.746094 77.511719 C 230.433594 76.671875 231.164062 75.867188 231.933594 75.097656 C 232.703125 74.328125 233.507812 73.597656 234.347656 72.90625 C 235.191406 72.214844 236.0625 71.570312 236.96875 70.964844 C 237.871094 70.359375 238.804688 69.800781 239.761719 69.289062 C 240.722656 68.777344 241.707031 68.3125 242.710938 67.894531 C 243.714844 67.480469 244.738281 67.113281 245.78125 66.796875 C 246.820312 66.480469 247.875 66.214844 248.941406 66.003906 C 250.007812 65.792969 251.085938 65.632812 252.167969 65.527344 C 253.25 65.417969 254.335938 65.367188 255.421875 65.367188 C 256.511719 65.367188 257.597656 65.417969 258.679688 65.527344 C 259.761719 65.632812 260.835938 65.792969 261.902344 66.003906 C 262.972656 66.214844 264.023438 66.480469 265.066406 66.796875 C 266.109375 67.113281 267.128906 67.480469 268.136719 67.894531 C 269.140625 68.3125 270.125 68.777344 271.082031 69.289062 C 272.042969 69.800781 272.972656 70.359375 273.878906 70.964844 C 274.785156 71.570312 275.65625 72.214844 276.496094 72.90625 C 277.339844 73.597656 278.144531 74.328125 278.914062 75.097656 C 279.683594 75.867188 280.410156 76.671875 281.101562 77.511719 C 281.792969 78.351562 282.441406 79.226562 283.042969 80.128906 C 283.648438 81.035156 284.207031 81.964844 284.71875 82.925781 C 285.234375 83.886719 285.699219 84.867188 286.113281 85.875 C 286.53125 86.878906 286.898438 87.902344 287.210938 88.941406 C 287.527344 89.984375 287.792969 91.039062 288.003906 92.105469 C 288.214844 93.171875 288.375 94.246094 288.484375 95.328125 C 288.589844 96.414062 288.644531 97.496094 288.644531 98.585938 Z M 288.644531 98.585938 " fill-opacity="1" fill-rule="nonzero"/><path fill="#350802" d="M 275.183594 71.878906 C 275.777344 72.671875 276.332031 73.488281 276.855469 74.328125 C 277.375 75.167969 277.855469 76.03125 278.300781 76.914062 C 278.746094 77.800781 279.148438 78.699219 279.511719 79.621094 C 279.875 80.539062 280.195312 81.476562 280.476562 82.421875 C 280.753906 83.371094 280.992188 84.332031 281.1875 85.300781 C 281.378906 86.269531 281.53125 87.25 281.636719 88.230469 C 281.742188 89.214844 281.804688 90.199219 281.824219 91.191406 C 281.84375 92.179688 281.816406 93.167969 281.746094 94.152344 C 281.675781 95.140625 281.5625 96.121094 281.40625 97.097656 C 281.246094 98.074219 281.046875 99.042969 280.800781 100 C 280.558594 100.957031 280.273438 101.902344 279.945312 102.835938 C 279.613281 103.769531 279.246094 104.683594 278.835938 105.585938 C 278.425781 106.484375 277.972656 107.363281 277.484375 108.222656 C 276.996094 109.082031 276.46875 109.917969 275.90625 110.730469 C 275.339844 111.542969 274.742188 112.332031 274.109375 113.089844 C 273.472656 113.847656 272.804688 114.578125 272.105469 115.277344 C 271.40625 115.976562 270.679688 116.644531 269.917969 117.277344 C 269.160156 117.910156 268.375 118.511719 267.5625 119.074219 C 266.75 119.636719 265.914062 120.164062 265.054688 120.652344 C 264.195312 121.140625 263.3125 121.59375 262.414062 122.003906 C 261.515625 122.414062 260.597656 122.78125 259.664062 123.109375 C 258.734375 123.441406 257.785156 123.726562 256.828125 123.96875 C 255.871094 124.214844 254.902344 124.414062 253.925781 124.570312 C 252.949219 124.730469 251.96875 124.84375 250.980469 124.914062 C 249.996094 124.984375 249.007812 125.007812 248.019531 124.988281 C 247.03125 124.972656 246.042969 124.910156 245.058594 124.800781 C 244.078125 124.695312 243.101562 124.542969 242.128906 124.351562 C 241.160156 124.15625 240.203125 123.917969 239.253906 123.640625 C 238.304688 123.359375 237.371094 123.039062 236.449219 122.675781 C 235.53125 122.3125 234.628906 121.910156 233.746094 121.464844 C 232.859375 121.019531 232 120.539062 231.15625 120.015625 C 230.316406 119.496094 229.5 118.9375 228.710938 118.34375 C 229.421875 119.292969 230.183594 120.199219 230.992188 121.066406 C 231.796875 121.929688 232.652344 122.753906 233.546875 123.527344 C 234.445312 124.300781 235.378906 125.027344 236.355469 125.703125 C 237.328125 126.375 238.335938 126.996094 239.375 127.5625 C 240.417969 128.128906 241.484375 128.640625 242.578125 129.09375 C 243.675781 129.542969 244.789062 129.9375 245.929688 130.269531 C 247.066406 130.601562 248.214844 130.875 249.382812 131.082031 C 250.550781 131.292969 251.722656 131.441406 252.90625 131.523438 C 254.085938 131.609375 255.269531 131.628906 256.453125 131.585938 C 257.640625 131.542969 258.816406 131.4375 259.988281 131.265625 C 261.164062 131.097656 262.324219 130.867188 263.472656 130.574219 C 264.621094 130.28125 265.75 129.925781 266.859375 129.511719 C 267.96875 129.097656 269.054688 128.625 270.113281 128.09375 C 271.171875 127.5625 272.199219 126.976562 273.195312 126.335938 C 274.195312 125.695312 275.152344 125.003906 276.078125 124.261719 C 277 123.515625 277.878906 122.726562 278.71875 121.886719 C 279.554688 121.050781 280.347656 120.171875 281.089844 119.246094 C 281.832031 118.324219 282.527344 117.367188 283.167969 116.367188 C 283.808594 115.371094 284.394531 114.34375 284.925781 113.285156 C 285.453125 112.226562 285.925781 111.140625 286.34375 110.03125 C 286.757812 108.921875 287.109375 107.792969 287.40625 106.644531 C 287.699219 105.496094 287.929688 104.335938 288.097656 103.164062 C 288.269531 101.988281 288.375 100.8125 288.417969 99.628906 C 288.460938 98.441406 288.441406 97.261719 288.355469 96.078125 C 288.273438 94.894531 288.128906 93.722656 287.917969 92.554688 C 287.707031 91.390625 287.4375 90.238281 287.105469 89.101562 C 286.773438 87.960938 286.378906 86.847656 285.925781 85.75 C 285.476562 84.65625 284.964844 83.589844 284.398438 82.546875 C 283.832031 81.507812 283.210938 80.5 282.539062 79.523438 C 281.863281 78.550781 281.136719 77.617188 280.363281 76.71875 C 279.589844 75.824219 278.769531 74.96875 277.902344 74.160156 C 277.035156 73.351562 276.128906 72.59375 275.183594 71.878906 Z M 275.183594 71.878906 " fill-opacity="1" fill-rule="nonzero"/><path fill="#702a1c" d="M 258.015625 75.320312 C 258.503906 75.726562 258.96875 76.15625 259.410156 76.609375 C 259.855469 77.066406 260.277344 77.539062 260.671875 78.035156 C 261.070312 78.527344 261.441406 79.042969 261.789062 79.574219 C 262.136719 80.105469 262.457031 80.652344 262.75 81.214844 C 263.042969 81.777344 263.308594 82.351562 263.546875 82.941406 C 263.78125 83.53125 263.988281 84.128906 264.167969 84.738281 C 264.34375 85.347656 264.492188 85.960938 264.609375 86.585938 C 264.726562 87.210938 264.816406 87.835938 264.871094 88.46875 C 264.925781 89.101562 264.949219 89.734375 264.945312 90.367188 C 264.9375 91 264.902344 91.632812 264.832031 92.261719 C 264.765625 92.894531 264.664062 93.519531 264.535156 94.136719 C 264.40625 94.757812 264.246094 95.371094 264.054688 95.976562 C 263.863281 96.578125 263.644531 97.171875 263.394531 97.757812 C 263.148438 98.339844 262.871094 98.910156 262.566406 99.464844 C 262.261719 100.019531 261.929688 100.558594 261.574219 101.082031 C 261.214844 101.605469 260.832031 102.109375 260.425781 102.59375 C 260.019531 103.078125 259.585938 103.542969 259.136719 103.984375 C 258.683594 104.429688 258.207031 104.847656 257.714844 105.246094 C 257.21875 105.640625 256.707031 106.011719 256.175781 106.355469 C 255.644531 106.703125 255.097656 107.023438 254.535156 107.3125 C 253.972656 107.605469 253.398438 107.871094 252.808594 108.105469 C 252.222656 108.339844 251.625 108.546875 251.015625 108.722656 C 250.40625 108.902344 249.789062 109.046875 249.167969 109.164062 C 248.542969 109.28125 247.917969 109.363281 247.285156 109.417969 C 246.652344 109.472656 246.019531 109.496094 245.386719 109.488281 C 244.75 109.480469 244.117188 109.445312 243.488281 109.375 C 242.859375 109.304688 242.230469 109.203125 241.613281 109.074219 C 240.992188 108.941406 240.378906 108.78125 239.773438 108.589844 C 239.167969 108.398438 238.574219 108.175781 237.988281 107.925781 C 237.40625 107.675781 236.835938 107.398438 236.28125 107.09375 C 235.722656 106.789062 235.183594 106.457031 234.660156 106.097656 C 234.136719 105.738281 233.632812 105.355469 233.144531 104.949219 C 232.660156 104.539062 232.195312 104.109375 231.75 103.65625 C 231.304688 103.203125 230.886719 102.726562 230.488281 102.230469 C 230.089844 101.738281 229.71875 101.222656 229.371094 100.691406 C 229.023438 100.160156 228.703125 99.613281 228.410156 99.050781 C 228.117188 98.488281 227.851562 97.914062 227.617188 97.324219 C 227.378906 96.734375 227.171875 96.136719 226.996094 95.527344 C 226.816406 94.917969 226.667969 94.304688 226.550781 93.679688 C 226.433594 93.058594 226.347656 92.429688 226.292969 91.796875 C 226.234375 91.167969 226.210938 90.535156 226.21875 89.898438 C 226.222656 89.265625 226.261719 88.632812 226.328125 88.003906 C 226.398438 87.375 226.496094 86.75 226.628906 86.128906 C 226.757812 85.507812 226.917969 84.894531 227.109375 84.289062 C 227.296875 83.6875 227.515625 83.09375 227.765625 82.511719 C 228.015625 81.925781 228.292969 81.359375 228.597656 80.800781 C 228.902344 80.246094 229.230469 79.707031 229.589844 79.183594 C 229.945312 78.664062 230.328125 78.15625 230.738281 77.671875 C 231.144531 77.1875 231.574219 76.722656 232.027344 76.28125 C 232.480469 75.839844 232.953125 75.417969 233.449219 75.023438 C 233.941406 74.625 234.453125 74.253906 234.984375 73.910156 C 235.515625 73.5625 236.0625 73.246094 236.625 72.953125 C 237.1875 72.660156 237.761719 72.394531 238.351562 72.160156 C 238.941406 71.925781 239.539062 71.71875 240.148438 71.542969 C 240.757812 71.367188 241.371094 71.21875 241.996094 71.101562 C 242.617188 70.988281 243.246094 70.902344 243.878906 70.847656 C 244.507812 70.792969 245.140625 70.769531 245.777344 70.777344 C 246.410156 70.785156 247.042969 70.824219 247.671875 70.894531 C 248.304688 70.960938 248.929688 71.0625 249.550781 71.195312 C 250.171875 71.324219 250.785156 71.488281 251.390625 71.679688 C 251.996094 71.871094 252.589844 72.089844 253.171875 72.339844 C 253.753906 72.589844 254.324219 72.867188 254.882812 73.171875 C 255.4375 73.476562 255.976562 73.808594 256.5 74.167969 C 257.023438 74.527344 257.53125 74.910156 258.015625 75.320312 Z M 258.015625 75.320312 " fill-opacity="1" fill-rule="nonzero"/><path fill="#541a0c" d="M 138.136719 270.347656 C 138.136719 271.4375 138.082031 272.523438 137.976562 273.605469 C 137.871094 274.6875 137.710938 275.761719 137.496094 276.828125 C 137.285156 277.898438 137.019531 278.949219 136.707031 279.992188 C 136.390625 281.03125 136.023438 282.054688 135.605469 283.0625 C 135.191406 284.066406 134.726562 285.046875 134.214844 286.007812 C 133.699219 286.96875 133.140625 287.898438 132.539062 288.804688 C 131.933594 289.710938 131.285156 290.582031 130.59375 291.421875 C 129.90625 292.265625 129.175781 293.070312 128.40625 293.839844 C 127.636719 294.609375 126.832031 295.335938 125.992188 296.027344 C 125.148438 296.71875 124.277344 297.367188 123.371094 297.96875 C 122.46875 298.574219 121.535156 299.132812 120.574219 299.644531 C 119.617188 300.160156 118.632812 300.625 117.628906 301.039062 C 116.625 301.457031 115.601562 301.820312 114.558594 302.136719 C 113.519531 302.453125 112.464844 302.71875 111.398438 302.929688 C 110.332031 303.140625 109.253906 303.300781 108.171875 303.410156 C 107.089844 303.515625 106.003906 303.566406 104.917969 303.566406 C 103.828125 303.566406 102.742188 303.515625 101.660156 303.410156 C 100.578125 303.300781 99.503906 303.140625 98.4375 302.929688 C 97.367188 302.71875 96.316406 302.453125 95.273438 302.136719 C 94.230469 301.820312 93.210938 301.457031 92.203125 301.039062 C 91.199219 300.625 90.214844 300.160156 89.257812 299.644531 C 88.296875 299.132812 87.367188 298.574219 86.460938 297.96875 C 85.554688 297.367188 84.683594 296.71875 83.84375 296.027344 C 83 295.335938 82.195312 294.609375 81.425781 293.839844 C 80.65625 293.070312 79.925781 292.265625 79.238281 291.421875 C 78.546875 290.582031 77.898438 289.710938 77.296875 288.804688 C 76.691406 287.898438 76.132812 286.96875 75.621094 286.007812 C 75.105469 285.046875 74.640625 284.066406 74.226562 283.0625 C 73.808594 282.054688 73.441406 281.03125 73.128906 279.992188 C 72.8125 278.949219 72.546875 277.898438 72.335938 276.828125 C 72.121094 275.761719 71.964844 274.6875 71.855469 273.605469 C 71.75 272.523438 71.695312 271.4375 71.695312 270.347656 C 71.695312 269.261719 71.75 268.175781 71.855469 267.09375 C 71.964844 266.011719 72.121094 264.933594 72.335938 263.867188 C 72.546875 262.800781 72.8125 261.746094 73.128906 260.707031 C 73.441406 259.664062 73.808594 258.640625 74.226562 257.636719 C 74.640625 256.632812 75.105469 255.648438 75.621094 254.6875 C 76.132812 253.730469 76.691406 252.796875 77.296875 251.894531 C 77.898438 250.988281 78.546875 250.117188 79.238281 249.273438 C 79.925781 248.433594 80.65625 247.628906 81.425781 246.859375 C 82.195312 246.089844 83 245.359375 83.84375 244.667969 C 84.683594 243.980469 85.554688 243.332031 86.460938 242.726562 C 87.367188 242.125 88.296875 241.566406 89.257812 241.050781 C 90.214844 240.539062 91.199219 240.074219 92.203125 239.65625 C 93.210938 239.242188 94.230469 238.875 95.273438 238.558594 C 96.316406 238.242188 97.367188 237.980469 98.4375 237.765625 C 99.503906 237.554688 100.578125 237.394531 101.660156 237.289062 C 102.742188 237.183594 103.828125 237.128906 104.917969 237.128906 C 106.003906 237.128906 107.089844 237.183594 108.171875 237.289062 C 109.253906 237.394531 110.332031 237.554688 111.398438 237.765625 C 112.464844 237.980469 113.519531 238.242188 114.558594 238.558594 C 115.601562 238.875 116.625 239.242188 117.628906 239.65625 C 118.632812 240.074219 119.617188 240.539062 120.574219 241.050781 C 121.535156 241.566406 122.46875 242.125 123.371094 242.726562 C 124.277344 243.332031 125.148438 243.980469 125.992188 244.667969 C 126.832031 245.359375 127.636719 246.089844 128.40625 246.859375 C 129.175781 247.628906 129.90625 248.433594 130.59375 249.273438 C 131.285156 250.117188 131.933594 250.988281 132.539062 251.894531 C 133.140625 252.796875 133.699219 253.730469 134.214844 254.6875 C 134.726562 255.648438 135.191406 256.632812 135.605469 257.636719 C 136.023438 258.640625 136.390625 259.664062 136.707031 260.707031 C 137.019531 261.746094 137.285156 262.800781 137.496094 263.867188 C 137.710938 264.933594 137.871094 266.011719 137.976562 267.09375 C 138.082031 268.175781 138.136719 269.261719 138.136719 270.347656 Z M 138.136719 270.347656 " fill-opacity="1" fill-rule="nonzero"/><path fill="#350802" d="M 124.675781 243.644531 C 125.269531 244.433594 125.828125 245.25 126.347656 246.089844 C 126.867188 246.933594 127.351562 247.792969 127.792969 248.679688 C 128.238281 249.5625 128.640625 250.464844 129.003906 251.382812 C 129.367188 252.304688 129.6875 253.238281 129.96875 254.1875 C 130.25 255.136719 130.484375 256.09375 130.679688 257.066406 C 130.875 258.035156 131.023438 259.011719 131.128906 259.996094 C 131.238281 260.976562 131.300781 261.964844 131.316406 262.953125 C 131.335938 263.941406 131.308594 264.929688 131.238281 265.914062 C 131.171875 266.902344 131.054688 267.882812 130.898438 268.859375 C 130.742188 269.835938 130.539062 270.804688 130.296875 271.761719 C 130.050781 272.722656 129.765625 273.667969 129.4375 274.597656 C 129.109375 275.53125 128.738281 276.449219 128.328125 277.347656 C 127.917969 278.246094 127.46875 279.128906 126.976562 279.988281 C 126.488281 280.847656 125.960938 281.683594 125.398438 282.496094 C 124.835938 283.308594 124.234375 284.09375 123.601562 284.851562 C 122.964844 285.613281 122.300781 286.339844 121.601562 287.039062 C 120.902344 287.738281 120.171875 288.40625 119.414062 289.039062 C 118.652344 289.675781 117.867188 290.273438 117.054688 290.835938 C 116.242188 291.402344 115.40625 291.925781 114.546875 292.417969 C 113.6875 292.90625 112.808594 293.355469 111.90625 293.765625 C 111.007812 294.175781 110.089844 294.546875 109.160156 294.875 C 108.226562 295.203125 107.28125 295.488281 106.320312 295.734375 C 105.363281 295.976562 104.394531 296.175781 103.417969 296.335938 C 102.441406 296.492188 101.460938 296.605469 100.476562 296.675781 C 99.488281 296.746094 98.5 296.769531 97.511719 296.753906 C 96.523438 296.734375 95.535156 296.671875 94.554688 296.566406 C 93.570312 296.457031 92.59375 296.308594 91.625 296.113281 C 90.652344 295.917969 89.695312 295.683594 88.746094 295.402344 C 87.796875 295.125 86.863281 294.800781 85.941406 294.4375 C 85.023438 294.074219 84.121094 293.671875 83.238281 293.226562 C 82.355469 292.785156 81.492188 292.300781 80.652344 291.78125 C 79.808594 291.257812 78.996094 290.703125 78.203125 290.109375 C 78.914062 291.054688 79.675781 291.960938 80.484375 292.828125 C 81.292969 293.695312 82.144531 294.515625 83.042969 295.289062 C 83.9375 296.066406 84.871094 296.789062 85.847656 297.464844 C 86.820312 298.140625 87.828125 298.757812 88.867188 299.328125 C 89.910156 299.894531 90.976562 300.402344 92.074219 300.855469 C 93.167969 301.308594 94.285156 301.699219 95.421875 302.035156 C 96.558594 302.367188 97.710938 302.636719 98.875 302.847656 C 100.042969 303.054688 101.214844 303.203125 102.398438 303.285156 C 103.582031 303.371094 104.761719 303.390625 105.949219 303.347656 C 107.132812 303.304688 108.308594 303.199219 109.484375 303.03125 C 110.65625 302.859375 111.816406 302.628906 112.964844 302.335938 C 114.113281 302.042969 115.242188 301.6875 116.351562 301.273438 C 117.460938 300.859375 118.546875 300.386719 119.605469 299.855469 C 120.664062 299.324219 121.695312 298.738281 122.691406 298.097656 C 123.6875 297.457031 124.648438 296.765625 125.570312 296.023438 C 126.492188 295.28125 127.371094 294.488281 128.210938 293.652344 C 129.046875 292.8125 129.839844 291.933594 130.582031 291.011719 C 131.328125 290.089844 132.019531 289.128906 132.660156 288.132812 C 133.300781 287.136719 133.886719 286.105469 134.417969 285.046875 C 134.949219 283.988281 135.421875 282.902344 135.835938 281.792969 C 136.25 280.683594 136.605469 279.554688 136.898438 278.40625 C 137.191406 277.257812 137.421875 276.097656 137.59375 274.925781 C 137.761719 273.753906 137.867188 272.574219 137.910156 271.390625 C 137.953125 270.207031 137.933594 269.023438 137.851562 267.839844 C 137.765625 266.660156 137.621094 265.484375 137.410156 264.316406 C 137.203125 263.152344 136.929688 262 136.597656 260.863281 C 136.265625 259.726562 135.871094 258.609375 135.421875 257.515625 C 134.96875 256.417969 134.460938 255.351562 133.890625 254.308594 C 133.324219 253.269531 132.707031 252.261719 132.03125 251.289062 C 131.355469 250.3125 130.632812 249.378906 129.855469 248.480469 C 129.082031 247.585938 128.261719 246.734375 127.394531 245.925781 C 126.53125 245.113281 125.621094 244.355469 124.675781 243.644531 Z M 124.675781 243.644531 " fill-opacity="1" fill-rule="nonzero"/><path fill="#702a1c" d="M 109.816406 248.210938 C 110.300781 248.617188 110.765625 249.050781 111.210938 249.503906 C 111.65625 249.957031 112.074219 250.429688 112.472656 250.925781 C 112.871094 251.421875 113.242188 251.933594 113.589844 252.464844 C 113.9375 252.996094 114.257812 253.542969 114.550781 254.105469 C 114.84375 254.667969 115.109375 255.246094 115.34375 255.832031 C 115.582031 256.421875 115.789062 257.019531 115.96875 257.628906 C 116.144531 258.238281 116.292969 258.855469 116.410156 259.476562 C 116.527344 260.101562 116.613281 260.730469 116.671875 261.359375 C 116.726562 261.992188 116.75 262.625 116.742188 263.257812 C 116.738281 263.894531 116.699219 264.523438 116.632812 265.15625 C 116.5625 265.785156 116.464844 266.410156 116.332031 267.03125 C 116.203125 267.652344 116.042969 268.261719 115.851562 268.867188 C 115.664062 269.472656 115.445312 270.066406 115.195312 270.648438 C 114.945312 271.230469 114.671875 271.800781 114.367188 272.355469 C 114.0625 272.910156 113.730469 273.449219 113.371094 273.972656 C 113.015625 274.496094 112.632812 275 112.226562 275.484375 C 111.816406 275.972656 111.386719 276.433594 110.933594 276.878906 C 110.480469 277.320312 110.007812 277.742188 109.511719 278.136719 C 109.019531 278.53125 108.507812 278.902344 107.976562 279.25 C 107.445312 279.59375 106.898438 279.914062 106.335938 280.207031 C 105.773438 280.5 105.199219 280.761719 104.609375 281 C 104.019531 281.234375 103.421875 281.441406 102.8125 281.617188 C 102.207031 281.792969 101.589844 281.941406 100.964844 282.054688 C 100.34375 282.171875 99.714844 282.257812 99.082031 282.3125 C 98.453125 282.367188 97.820312 282.390625 97.183594 282.382812 C 96.550781 282.375 95.917969 282.335938 95.289062 282.265625 C 94.65625 282.195312 94.03125 282.097656 93.410156 281.964844 C 92.789062 281.832031 92.175781 281.671875 91.570312 281.480469 C 90.96875 281.289062 90.371094 281.070312 89.789062 280.820312 C 89.207031 280.570312 88.636719 280.292969 88.078125 279.988281 C 87.523438 279.679688 86.984375 279.347656 86.460938 278.992188 C 85.9375 278.632812 85.429688 278.25 84.945312 277.839844 C 84.457031 277.433594 83.992188 277 83.550781 276.546875 C 83.105469 276.09375 82.683594 275.621094 82.289062 275.125 C 81.890625 274.628906 81.519531 274.117188 81.171875 273.585938 C 80.824219 273.054688 80.503906 272.507812 80.210938 271.945312 C 79.917969 271.382812 79.652344 270.804688 79.414062 270.21875 C 79.179688 269.628906 78.972656 269.03125 78.792969 268.421875 C 78.617188 267.8125 78.46875 267.195312 78.351562 266.574219 C 78.234375 265.949219 78.148438 265.320312 78.089844 264.691406 C 78.035156 264.058594 78.011719 263.425781 78.015625 262.792969 C 78.023438 262.15625 78.0625 261.527344 78.128906 260.894531 C 78.199219 260.265625 78.296875 259.640625 78.425781 259.019531 C 78.558594 258.398438 78.71875 257.789062 78.90625 257.183594 C 79.097656 256.578125 79.316406 255.984375 79.566406 255.402344 C 79.8125 254.820312 80.089844 254.25 80.394531 253.695312 C 80.699219 253.140625 81.03125 252.601562 81.390625 252.078125 C 81.746094 251.554688 82.128906 251.050781 82.535156 250.566406 C 82.945312 250.082031 83.375 249.617188 83.828125 249.171875 C 84.28125 248.730469 84.753906 248.3125 85.246094 247.914062 C 85.742188 247.519531 86.253906 247.148438 86.785156 246.800781 C 87.316406 246.457031 87.863281 246.136719 88.425781 245.84375 C 88.988281 245.550781 89.5625 245.289062 90.152344 245.054688 C 90.738281 244.816406 91.335938 244.613281 91.945312 244.433594 C 92.554688 244.257812 93.171875 244.113281 93.792969 243.996094 C 94.417969 243.878906 95.046875 243.792969 95.675781 243.738281 C 96.308594 243.683594 96.941406 243.660156 97.574219 243.667969 C 98.210938 243.675781 98.84375 243.714844 99.472656 243.785156 C 100.105469 243.855469 100.730469 243.957031 101.351562 244.085938 C 101.96875 244.21875 102.582031 244.378906 103.1875 244.570312 C 103.792969 244.761719 104.386719 244.980469 104.972656 245.230469 C 105.554688 245.480469 106.125 245.757812 106.679688 246.066406 C 107.238281 246.371094 107.777344 246.703125 108.300781 247.0625 C 108.824219 247.417969 109.328125 247.804688 109.816406 248.210938 Z M 109.816406 248.210938 " fill-opacity="1" fill-rule="nonzero"/></svg>