<svg xmlns="http://www.w3.org/2000/svg" xmlns:xlink="http://www.w3.org/1999/xlink" width="500" zoomAndPan="magnify" viewBox="0 0 375 374.999991" height="500" preserveAspectRatio="xMidYMid meet" version="1.0"><defs><clipPath id="0241c1fe68"><path d="M 2 2 L 373.25 2 L 373.25 373.25 L 2 373.25 Z M 2 2 " clip-rule="nonzero"/></clipPath></defs><rect x="-37.5" width="450" fill="#ffffff" y="-37.499999" height="449.999989" fill-opacity="1"/><rect x="-37.5" width="450" fill="#000000" y="-37.499999" height="449.999989" fill-opacity="1"/><path fill="#e1d3b8" d="M 93.71875 4.703125 L 281.535156 4.703125 C 282.992188 4.703125 284.445312 4.738281 285.902344 4.808594 C 287.355469 4.878906 288.808594 4.988281 290.257812 5.128906 C 291.707031 5.273438 293.152344 5.453125 294.59375 5.664062 C 296.035156 5.878906 297.472656 6.128906 298.898438 6.414062 C 300.328125 6.695312 301.75 7.015625 303.164062 7.371094 C 304.574219 7.722656 305.980469 8.113281 307.375 8.535156 C 308.769531 8.957031 310.152344 9.414062 311.523438 9.90625 C 312.894531 10.394531 314.253906 10.921875 315.597656 11.476562 C 316.945312 12.035156 318.277344 12.625 319.59375 13.25 C 320.910156 13.871094 322.210938 14.527344 323.496094 15.210938 C 324.78125 15.898438 326.046875 16.617188 327.296875 17.367188 C 328.546875 18.113281 329.777344 18.894531 330.988281 19.703125 C 332.199219 20.511719 333.390625 21.351562 334.558594 22.21875 C 335.730469 23.085938 336.878906 23.984375 338.003906 24.90625 C 339.128906 25.832031 340.234375 26.78125 341.3125 27.761719 C 342.390625 28.738281 343.445312 29.742188 344.476562 30.773438 C 345.507812 31.804688 346.511719 32.859375 347.488281 33.9375 C 348.46875 35.015625 349.417969 36.121094 350.34375 37.246094 C 351.269531 38.371094 352.164062 39.519531 353.03125 40.691406 C 353.898438 41.859375 354.738281 43.050781 355.546875 44.261719 C 356.355469 45.472656 357.136719 46.703125 357.882812 47.953125 C 358.632812 49.203125 359.351562 50.472656 360.039062 51.753906 C 360.726562 53.039062 361.378906 54.339844 362.003906 55.65625 C 362.625 56.976562 363.214844 58.304688 363.773438 59.652344 C 364.332031 61 364.855469 62.355469 365.34375 63.730469 C 365.835938 65.101562 366.292969 66.484375 366.714844 67.878906 C 367.140625 69.269531 367.527344 70.675781 367.882812 72.089844 C 368.234375 73.5 368.554688 74.921875 368.839844 76.351562 C 369.121094 77.78125 369.371094 79.214844 369.585938 80.65625 C 369.800781 82.097656 369.976562 83.542969 370.121094 84.992188 C 370.261719 86.441406 370.371094 87.894531 370.441406 89.347656 C 370.511719 90.804688 370.550781 92.261719 370.550781 93.71875 L 370.550781 281.535156 C 370.550781 282.992188 370.511719 284.445312 370.441406 285.902344 C 370.371094 287.355469 370.261719 288.808594 370.121094 290.257812 C 369.976562 291.707031 369.800781 293.152344 369.585938 294.59375 C 369.371094 296.035156 369.121094 297.472656 368.839844 298.898438 C 368.554688 300.328125 368.234375 301.75 367.882812 303.164062 C 367.527344 304.574219 367.140625 305.980469 366.714844 307.375 C 366.292969 308.769531 365.835938 310.152344 365.34375 311.523438 C 364.855469 312.894531 364.332031 314.253906 363.773438 315.597656 C 363.214844 316.945312 362.625 318.277344 362.003906 319.59375 C 361.378906 320.910156 360.726562 322.210938 360.039062 323.496094 C 359.351562 324.78125 358.632812 326.046875 357.882812 327.296875 C 357.136719 328.546875 356.355469 329.777344 355.546875 330.988281 C 354.738281 332.199219 353.898438 333.390625 353.03125 334.558594 C 352.164062 335.730469 351.269531 336.878906 350.34375 338.003906 C 349.417969 339.128906 348.46875 340.234375 347.488281 341.3125 C 346.511719 342.390625 345.507812 343.445312 344.476562 344.476562 C 343.445312 345.507812 342.390625 346.511719 341.3125 347.488281 C 340.234375 348.46875 339.128906 349.417969 338.003906 350.34375 C 336.878906 351.269531 335.730469 352.164062 334.558594 353.03125 C 333.390625 353.898438 332.199219 354.738281 330.988281 355.546875 C 329.777344 356.355469 328.546875 357.136719 327.296875 357.882812 C 326.046875 358.632812 324.78125 359.351562 323.496094 360.039062 C 322.210938 360.726562 320.910156 361.378906 319.59375 362.003906 C 318.277344 362.625 316.945312 363.214844 315.597656 363.773438 C 314.253906 364.332031 312.894531 364.855469 311.523438 365.34375 C 310.152344 365.835938 308.769531 366.292969 307.375 366.714844 C 305.980469 367.140625 304.574219 367.527344 303.164062 367.882812 C 301.75 368.234375 300.328125 368.554688 298.898438 368.839844 C 297.472656 369.121094 296.035156 369.371094 294.59375 369.585938 C 293.152344 369.800781 291.707031 369.976562 290.257812 370.121094 C 288.808594 370.261719 287.355469 370.371094 285.902344 370.441406 C 284.445312 370.511719 282.992188 370.550781 281.535156 370.550781 L 93.71875 370.550781 C 92.261719 370.550781 90.804688 370.511719 89.347656 370.441406 C 87.894531 370.371094 86.441406 370.261719 84.992188 370.121094 C 83.542969 369.976562 82.097656 369.800781 80.65625 369.585938 C 79.214844 369.371094 77.78125 369.121094 76.351562 368.839844 C 74.921875 368.554688 73.5 368.234375 72.089844 367.882812 C 70.675781 367.527344 69.269531 367.140625 67.878906 366.714844 C 66.484375 366.292969 65.101562 365.835938 63.730469 365.34375 C 62.355469 364.855469 61 364.332031 59.652344 363.773438 C 58.304688 363.214844 56.976562 362.625 55.65625 362.003906 C 54.339844 361.378906 53.039062 360.726562 51.753906 360.039062 C 50.472656 359.351562 49.203125 358.632812 47.953125 357.882812 C 46.703125 357.136719 45.472656 356.355469 44.261719 355.546875 C 43.050781 354.738281 41.859375 353.898438 40.691406 353.03125 C 39.519531 352.164062 38.371094 351.269531 37.246094 350.34375 C 36.121094 349.417969 35.015625 348.46875 33.9375 347.488281 C 32.859375 346.511719 31.804688 345.507812 30.773438 344.476562 C 29.742188 343.445312 28.738281 342.390625 27.761719 341.3125 C 26.78125 340.234375 25.832031 339.128906 24.90625 338.003906 C 23.984375 336.878906 23.085938 335.730469 22.21875 334.558594 C 21.351562 333.390625 20.511719 332.199219 19.703125 330.988281 C 18.894531 329.777344 18.113281 328.546875 17.367188 327.296875 C 16.617188 326.046875 15.898438 324.78125 15.210938 323.496094 C 14.527344 322.210938 13.871094 320.910156 13.25 319.59375 C 12.625 318.277344 12.035156 316.945312 11.476562 315.597656 C 10.921875 314.253906 10.394531 312.894531 9.90625 311.523438 C 9.414062 310.152344 8.957031 308.769531 8.535156 307.375 C 8.113281 305.980469 7.722656 304.574219 7.371094 303.164062 C 7.015625 301.75 6.695312 300.328125 6.414062 298.898438 C 6.128906 297.472656 5.878906 296.035156 5.664062 294.59375 C 5.453125 293.152344 5.273438 291.707031 5.128906 290.257812 C 4.988281 288.808594 4.878906 287.355469 4.808594 285.902344 C 4.738281 284.445312 4.703125 282.992188 4.703125 281.535156 L 4.703125 93.71875 C 4.703125 92.261719 4.738281 90.804688 4.808594 89.347656 C 4.878906 87.894531 4.988281 86.441406 5.128906 84.992188 C 5.273438 83.542969 5.453125 82.097656 5.664062 80.65625 C 5.878906 79.214844 6.128906 77.78125 6.414062 76.351562 C 6.695312 74.921875 7.015625 73.5 7.371094 72.089844 C 7.722656 70.675781 8.113281 69.269531 8.535156 67.878906 C 8.957031 66.484375 9.414062 65.101562 9.90625 63.730469 C 10.394531 62.355469 10.921875 61 11.476562 59.652344 C 12.035156 58.304688 12.625 56.976562 13.25 55.65625 C 13.871094 54.339844 14.527344 53.039062 15.210938 51.753906 C 15.898438 50.472656 16.617188 49.203125 17.367188 47.953125 C 18.113281 46.703125 18.894531 45.472656 19.703125 44.261719 C 20.511719 43.050781 21.351562 41.859375 22.21875 40.691406 C 23.085938 39.519531 23.984375 38.371094 24.90625 37.246094 C 25.832031 36.121094 26.78125 35.015625 27.761719 33.9375 C 28.738281 32.859375 29.742188 31.804688 30.773438 30.773438 C 31.804688 29.742188 32.859375 28.738281 33.9375 27.761719 C 35.015625 26.78125 36.121094 25.832031 37.246094 24.90625 C 38.371094 23.984375 39.519531 23.085938 40.691406 22.21875 C 41.859375 21.351562 43.050781 20.511719 44.261719 19.703125 C 45.472656 18.894531 46.703125 18.113281 47.953125 17.367188 C 49.203125 16.617188 50.472656 15.898438 51.753906 15.210938 C 53.039062 14.527344 54.339844 13.871094 55.65625 13.25 C 56.976562 12.625 58.304688 12.035156 59.652344 11.476562 C 61 10.921875 62.355469 10.394531 63.730469 9.90625 C 65.101562 9.414062 66.484375 8.957031 67.878906 8.535156 C 69.269531 8.113281 70.675781 7.722656 72.089844 7.371094 C 73.5 7.015625 74.921875 6.695312 76.351562 6.414062 C 77.78125 6.128906 79.214844 5.878906 80.65625 5.664062 C 82.097656 5.453125 83.542969 5.273438 84.992188 5.128906 C 86.441406 4.988281 87.894531 4.878906 89.347656 4.808594 C 90.804688 4.738281 92.261719 4.703125 93.71875 4.703125 Z M 93.71875 4.703125 " fill-opacity="1" fill-rule="nonzero"/><path fill="#fcf0de" d="M 17.824219 281.535156 L 17.824219 93.71875 C 17.824219 44.761719 57.882812 4.703125 106.839844 4.703125 L 93.71875 4.703125 C 44.761719 4.703125 4.703125 44.761719 4.703125 93.71875 L 4.703125 281.535156 C 4.703125 330.492188 44.761719 370.550781 93.71875 370.550781 L 106.839844 370.550781 C 57.882812 370.550781 17.824219 330.492188 17.824219 281.535156 Z M 17.824219 281.535156 " fill-opacity="1" fill-rule="nonzero"/><path fill="#ceb797" d="M 310.347656 9.527344 C 312.085938 10.480469 313.789062 11.492188 315.460938 12.558594 C 317.132812 13.625 318.765625 14.75 320.363281 15.925781 C 321.960938 17.101562 323.515625 18.332031 325.03125 19.613281 C 326.546875 20.894531 328.015625 22.222656 329.441406 23.601562 C 330.867188 24.980469 332.246094 26.402344 333.578125 27.875 C 334.910156 29.34375 336.191406 30.859375 337.421875 32.414062 C 338.648438 33.96875 339.828125 35.566406 340.949219 37.199219 C 342.074219 38.835938 343.144531 40.503906 344.15625 42.210938 C 345.167969 43.914062 346.121094 45.652344 347.019531 47.421875 C 347.914062 49.191406 348.753906 50.988281 349.527344 52.8125 C 350.304688 54.640625 351.019531 56.488281 351.675781 58.359375 C 352.328125 60.234375 352.917969 62.125 353.445312 64.039062 C 353.972656 65.949219 354.4375 67.878906 354.835938 69.820312 C 355.234375 71.761719 355.566406 73.71875 355.835938 75.683594 C 356.105469 77.648438 356.304688 79.621094 356.445312 81.597656 C 356.582031 83.578125 356.652344 85.558594 356.65625 87.542969 L 356.65625 265.324219 C 356.65625 314.28125 316.597656 354.339844 267.640625 354.339844 L 89.859375 354.339844 C 50.871094 354.339844 17.539062 328.941406 5.566406 293.875 C 11.648438 337.050781 48.941406 370.550781 93.71875 370.550781 L 281.535156 370.550781 C 330.492188 370.550781 370.550781 330.492188 370.550781 281.535156 L 370.550781 93.71875 C 370.550781 54.871094 345.285156 21.574219 310.347656 9.527344 Z M 310.347656 9.527344 " fill-opacity="1" fill-rule="nonzero"/><g clip-path="url(#0241c1fe68)"><path stroke-linecap="butt" transform="matrix(0.77183, 0, 0, 0.77183, 2.000458, 2.000449)" fill="none" stroke-linejoin="miter" d="M 118.832313 3.501649 L 362.171538 3.501649 C 364.059301 3.501649 365.942003 3.547198 367.829766 3.638296 C 369.712468 3.729395 371.59517 3.871104 373.472811 4.053301 C 375.350452 4.240559 377.223031 4.473366 379.09055 4.746661 C 380.958069 5.025018 382.820527 5.348923 384.667802 5.718378 C 386.520137 6.082772 388.362351 6.497776 390.194443 6.95833 C 392.021474 7.413822 393.843443 7.919925 395.65023 8.466516 C 397.457016 9.013107 399.24862 9.605247 401.02504 10.242936 C 402.80146 10.875565 404.562698 11.558803 406.303691 12.277469 C 408.049745 13.001196 409.775555 13.765411 411.481121 14.575175 C 413.186687 15.379878 414.872009 16.230131 416.537087 17.11581 C 418.202165 18.006551 419.841937 18.93778 421.461466 19.909497 C 423.080994 20.876153 424.675218 21.888359 426.244136 22.935991 C 427.813054 23.983624 429.356667 25.071744 430.869914 26.195292 C 432.388222 27.31884 433.876164 28.482876 435.33374 29.677279 C 436.791316 30.876742 438.223586 32.106572 439.62043 33.376889 C 441.017273 34.642146 442.38375 35.94283 443.719861 37.278941 C 445.055972 38.615052 446.356656 39.981529 447.621913 41.378372 C 448.892231 42.775216 450.12206 44.207486 451.321523 45.665062 C 452.520987 47.122638 453.679962 48.61058 454.80351 50.128888 C 455.927058 51.642135 457.015178 53.185748 458.062811 54.754666 C 459.110443 56.323584 460.122649 57.917808 461.089305 59.537336 C 462.061022 61.156865 462.992251 62.801699 463.882992 64.461715 C 464.773732 66.126793 465.618924 67.812115 466.428688 69.517681 C 467.233391 71.228308 467.997606 72.949057 468.721333 74.695111 C 469.44506 76.441165 470.123238 78.197342 470.755866 79.978823 C 471.393555 81.755244 471.985695 83.546847 472.532286 85.353633 C 473.083938 87.155359 473.58498 88.977329 474.045533 90.80942 C 474.501026 92.636451 474.91603 94.478665 475.285485 96.331 C 475.649879 98.183336 475.973784 100.040733 476.252141 101.908252 C 476.530497 103.775771 476.758244 105.648351 476.945502 107.525991 C 477.127699 109.403632 477.269407 111.286334 477.360506 113.169036 C 477.451604 115.056799 477.502215 116.944562 477.502215 118.832325 L 477.502215 362.17155 C 477.502215 364.059313 477.451604 365.942015 477.360506 367.829778 C 477.269407 369.71248 477.127699 371.595182 476.945502 373.472823 C 476.758244 375.350464 476.530497 377.223043 476.252141 379.090562 C 475.973784 380.958081 475.649879 382.820539 475.285485 384.667814 C 474.91603 386.52015 474.501026 388.362363 474.045533 390.194455 C 473.58498 392.021486 473.083938 393.843455 472.532286 395.650242 C 471.985695 397.457028 471.393555 399.248632 470.755866 401.025052 C 470.123238 402.801472 469.44506 404.56271 468.721333 406.303703 C 467.997606 408.049757 467.233391 409.775567 466.428688 411.481133 C 465.618924 413.186699 464.773732 414.872021 463.882992 416.537099 C 462.992251 418.202177 462.061022 419.841949 461.089305 421.461478 C 460.122649 423.081006 459.110443 424.67523 458.062811 426.244148 C 457.015178 427.813066 455.927058 429.35668 454.80351 430.869927 C 453.679962 432.388235 452.520987 433.876176 451.321523 435.333752 C 450.12206 436.791328 448.892231 438.223598 447.621913 439.620442 C 446.356656 441.017285 445.055972 442.383762 443.719861 443.719873 C 442.38375 445.055984 441.017273 446.356668 439.62043 447.621925 C 438.223586 448.892243 436.791316 450.122072 435.33374 451.321535 C 433.876164 452.520999 432.388222 453.679974 430.869914 454.803522 C 429.356667 455.92707 427.813054 457.01519 426.244136 458.062823 C 424.675218 459.110456 423.080994 460.122661 421.461466 461.089317 C 419.841937 462.061034 418.202165 462.992263 416.537087 463.883004 C 414.872009 464.773744 413.186687 465.618936 411.481121 466.4287 C 409.775555 467.233403 408.049745 467.997618 406.303691 468.721345 C 404.562698 469.445072 402.80146 470.12325 401.02504 470.755878 C 399.24862 471.393567 397.457016 471.985707 395.65023 472.532298 C 393.843443 473.08395 392.021474 473.584992 390.194443 474.045545 C 388.362351 474.501038 386.520137 474.916042 384.667802 475.285497 C 382.820527 475.649891 380.958069 475.973797 379.09055 476.252153 C 377.223031 476.530509 375.350452 476.758256 373.472811 476.945514 C 371.59517 477.127711 369.712468 477.269419 367.829766 477.360518 C 365.942003 477.451616 364.059301 477.502227 362.171538 477.502227 L 118.832313 477.502227 C 116.94455 477.502227 115.056787 477.451616 113.169024 477.360518 C 111.286322 477.269419 109.40362 477.127711 107.525979 476.945514 C 105.648339 476.758256 103.775759 476.530509 101.90824 476.252153 C 100.040721 475.973797 98.183324 475.649891 96.330988 475.285497 C 94.478653 474.916042 92.636439 474.501038 90.809408 474.045545 C 88.977317 473.584992 87.155347 473.08395 85.353621 472.532298 C 83.546835 471.985707 81.755231 471.393567 79.978811 470.755878 C 78.19733 470.12325 76.441153 469.445072 74.695099 468.721345 C 72.949045 467.997618 71.228296 467.233403 69.517669 466.4287 C 67.812103 465.618936 66.126781 464.773744 64.461703 463.883004 C 62.801686 462.992263 61.156853 462.061034 59.537324 461.089317 C 57.917796 460.122661 56.323572 459.110456 54.754654 458.062823 C 53.185736 457.01519 51.642123 455.92707 50.128876 454.803522 C 48.610568 453.679974 47.122626 452.520999 45.66505 451.321535 C 44.207474 450.122072 42.775204 448.892243 41.37836 447.621925 C 39.981517 446.356668 38.61504 445.055984 37.278929 443.719873 C 35.942818 442.383762 34.642134 441.017285 33.376877 439.620442 C 32.10656 438.223598 30.87673 436.791328 29.677267 435.333752 C 28.482864 433.876176 27.318828 432.388235 26.19528 430.869927 C 25.071732 429.35668 23.983612 427.813066 22.935979 426.244148 C 21.888347 424.67523 20.876141 423.081006 19.909485 421.461478 C 18.937768 419.841949 18.006539 418.202177 17.115798 416.537099 C 16.230119 414.872021 15.379866 413.186699 14.575163 411.481133 C 13.765399 409.775567 13.001184 408.049757 12.277457 406.303703 C 11.558791 404.56271 10.875552 402.801472 10.242924 401.025052 C 9.605235 399.248632 9.013095 397.457028 8.466504 395.650242 C 7.919913 393.843455 7.41381 392.021486 6.958318 390.194455 C 6.497764 388.362363 6.08276 386.52015 5.718366 384.667814 C 5.348911 382.820539 5.025006 380.958081 4.746649 379.090562 C 4.473354 377.223043 4.240546 375.350464 4.053288 373.472823 C 3.871092 371.595182 3.729383 369.71248 3.638284 367.829778 C 3.547186 365.942015 3.501637 364.059313 3.501637 362.17155 L 3.501637 118.832325 C 3.501637 116.944562 3.547186 115.056799 3.638284 113.169036 C 3.729383 111.286334 3.871092 109.403632 4.053288 107.525991 C 4.240546 105.648351 4.473354 103.775771 4.746649 101.908252 C 5.025006 100.040733 5.348911 98.183336 5.718366 96.331 C 6.08276 94.478665 6.497764 92.636451 6.958318 90.80942 C 7.41381 88.977329 7.919913 87.155359 8.466504 85.353633 C 9.013095 83.546847 9.605235 81.755244 10.242924 79.978823 C 10.875552 78.197342 11.558791 76.441165 12.277457 74.695111 C 13.001184 72.949057 13.765399 71.228308 14.575163 69.517681 C 15.379866 67.812115 16.230119 66.126793 17.115798 64.461715 C 18.006539 62.801699 18.937768 61.156865 19.909485 59.537336 C 20.876141 57.917808 21.888347 56.323584 22.935979 54.754666 C 23.983612 53.185748 25.071732 51.642135 26.19528 50.128888 C 27.318828 48.61058 28.482864 47.122638 29.677267 45.665062 C 30.87673 44.207486 32.10656 42.775216 33.376877 41.378372 C 34.642134 39.981529 35.942818 38.615052 37.278929 37.278941 C 38.61504 35.94283 39.981517 34.642146 41.37836 33.376889 C 42.775204 32.106572 44.207474 30.876742 45.66505 29.677279 C 47.122626 28.482876 48.610568 27.31884 50.128876 26.195292 C 51.642123 25.071744 53.185736 23.983624 54.754654 22.935991 C 56.323572 21.888359 57.917796 20.876153 59.537324 19.909497 C 61.156853 18.93778 62.801686 18.006551 64.461703 17.11581 C 66.126781 16.230131 67.812103 15.379878 69.517669 14.575175 C 71.228296 13.765411 72.949045 13.001196 74.695099 12.277469 C 76.441153 11.558803 78.19733 10.875565 79.978811 10.242936 C 81.755231 9.605247 83.546835 9.013107 85.353621 8.466516 C 87.155347 7.919925 88.977317 7.413822 90.809408 6.95833 C 92.636439 6.497776 94.478653 6.082772 96.330988 5.718378 C 98.183324 5.348923 100.040721 5.025018 101.90824 4.746661 C 103.775759 4.473366 105.648339 4.240559 107.525979 4.053301 C 109.40362 3.871104 111.286322 3.729395 113.169024 3.638296 C 115.056787 3.547198 116.94455 3.501649 118.832313 3.501649 Z M 118.832313 3.501649 " stroke="#846467" stroke-width="7" stroke-opacity="1" stroke-miterlimit="10"/></g><path fill="#541a0c" d="M 312.660156 283.925781 C 312.660156 285.015625 312.609375 286.101562 312.5 287.183594 C 312.394531 288.265625 312.234375 289.339844 312.023438 290.40625 C 311.8125 291.472656 311.546875 292.527344 311.230469 293.570312 C 310.914062 294.609375 310.550781 295.632812 310.132812 296.640625 C 309.714844 297.644531 309.253906 298.625 308.738281 299.585938 C 308.226562 300.546875 307.667969 301.476562 307.0625 302.382812 C 306.457031 303.285156 305.8125 304.160156 305.121094 305 C 304.429688 305.84375 303.703125 306.648438 302.933594 307.417969 C 302.164062 308.1875 301.359375 308.914062 300.515625 309.605469 C 299.675781 310.296875 298.800781 310.941406 297.898438 311.546875 C 296.992188 312.152344 296.0625 312.710938 295.101562 313.222656 C 294.140625 313.738281 293.160156 314.199219 292.15625 314.617188 C 291.148438 315.035156 290.125 315.398438 289.085938 315.714844 C 288.042969 316.03125 286.988281 316.296875 285.921875 316.507812 C 284.855469 316.71875 283.78125 316.878906 282.699219 316.984375 C 281.617188 317.09375 280.53125 317.144531 279.441406 317.144531 C 278.355469 317.144531 277.269531 317.09375 276.1875 316.984375 C 275.101562 316.878906 274.027344 316.71875 272.960938 316.507812 C 271.894531 316.296875 270.839844 316.03125 269.800781 315.714844 C 268.757812 315.398438 267.734375 315.035156 266.730469 314.617188 C 265.722656 314.199219 264.742188 313.738281 263.78125 313.222656 C 262.824219 312.710938 261.890625 312.152344 260.988281 311.546875 C 260.082031 310.941406 259.210938 310.296875 258.367188 309.605469 C 257.527344 308.914062 256.722656 308.1875 255.953125 307.417969 C 255.183594 306.648438 254.453125 305.84375 253.761719 305 C 253.074219 304.160156 252.425781 303.285156 251.820312 302.382812 C 251.21875 301.476562 250.65625 300.546875 250.144531 299.585938 C 249.632812 298.625 249.167969 297.644531 248.75 296.640625 C 248.335938 295.632812 247.96875 294.609375 247.652344 293.570312 C 247.335938 292.527344 247.074219 291.472656 246.859375 290.40625 C 246.648438 289.339844 246.488281 288.265625 246.382812 287.183594 C 246.277344 286.101562 246.222656 285.015625 246.222656 283.925781 C 246.222656 282.839844 246.277344 281.753906 246.382812 280.671875 C 246.488281 279.585938 246.648438 278.511719 246.859375 277.445312 C 247.074219 276.378906 247.335938 275.324219 247.652344 274.285156 C 247.96875 273.242188 248.335938 272.21875 248.75 271.214844 C 249.167969 270.207031 249.632812 269.226562 250.144531 268.265625 C 250.65625 267.308594 251.21875 266.375 251.820312 265.472656 C 252.425781 264.566406 253.074219 263.691406 253.761719 262.851562 C 254.453125 262.011719 255.183594 261.207031 255.953125 260.4375 C 256.722656 259.667969 257.527344 258.9375 258.367188 258.246094 C 259.210938 257.558594 260.082031 256.910156 260.988281 256.304688 C 261.890625 255.699219 262.824219 255.140625 263.78125 254.628906 C 264.742188 254.117188 265.722656 253.652344 266.730469 253.234375 C 267.734375 252.820312 268.757812 252.453125 269.800781 252.136719 C 270.839844 251.820312 271.894531 251.558594 272.960938 251.34375 C 274.027344 251.132812 275.101562 250.972656 276.1875 250.867188 C 277.269531 250.761719 278.355469 250.707031 279.441406 250.707031 C 280.53125 250.707031 281.617188 250.761719 282.699219 250.867188 C 283.78125 250.972656 284.855469 251.132812 285.921875 251.34375 C 286.988281 251.558594 288.042969 251.820312 289.085938 252.136719 C 290.125 252.453125 291.148438 252.820312 292.15625 253.234375 C 293.160156 253.652344 294.140625 254.117188 295.101562 254.628906 C 296.0625 255.140625 296.992188 255.699219 297.898438 256.304688 C 298.800781 256.910156 299.675781 257.558594 300.515625 258.246094 C 301.359375 258.9375 302.164062 259.667969 302.933594 260.4375 C 303.703125 261.207031 304.429688 262.011719 305.121094 262.851562 C 305.8125 263.695312 306.457031 264.566406 307.0625 265.472656 C 307.667969 266.375 308.226562 267.308594 308.738281 268.265625 C 309.253906 269.226562 309.714844 270.207031 310.132812 271.214844 C 310.550781 272.21875 310.914062 273.242188 311.230469 274.285156 C 311.546875 275.324219 311.8125 276.378906 312.023438 277.445312 C 312.234375 278.511719 312.394531 279.585938 312.5 280.671875 C 312.609375 281.753906 312.660156 282.839844 312.660156 283.925781 Z M 312.660156 283.925781 " fill-opacity="1" fill-rule="nonzero"/><path fill="#350802" d="M 299.199219 257.222656 C 299.796875 258.011719 300.351562 258.828125 300.875 259.667969 C 301.394531 260.507812 301.875 261.371094 302.320312 262.257812 C 302.765625 263.140625 303.167969 264.042969 303.53125 264.960938 C 303.894531 265.882812 304.214844 266.816406 304.496094 267.765625 C 304.773438 268.714844 305.011719 269.671875 305.203125 270.640625 C 305.398438 271.613281 305.550781 272.589844 305.65625 273.570312 C 305.761719 274.554688 305.824219 275.542969 305.84375 276.53125 C 305.863281 277.519531 305.835938 278.507812 305.765625 279.492188 C 305.695312 280.480469 305.582031 281.460938 305.425781 282.4375 C 305.265625 283.414062 305.066406 284.382812 304.820312 285.339844 C 304.578125 286.296875 304.292969 287.246094 303.960938 288.175781 C 303.632812 289.109375 303.265625 290.027344 302.855469 290.925781 C 302.441406 291.824219 301.992188 292.707031 301.503906 293.566406 C 301.015625 294.425781 300.488281 295.261719 299.925781 296.074219 C 299.359375 296.886719 298.761719 297.671875 298.125 298.429688 C 297.492188 299.1875 296.824219 299.917969 296.125 300.617188 C 295.425781 301.316406 294.699219 301.984375 293.9375 302.617188 C 293.179688 303.25 292.394531 303.851562 291.582031 304.414062 C 290.769531 304.980469 289.933594 305.503906 289.074219 305.996094 C 288.214844 306.484375 287.332031 306.933594 286.433594 307.34375 C 285.535156 307.753906 284.617188 308.125 283.683594 308.453125 C 282.75 308.78125 281.804688 309.066406 280.847656 309.3125 C 279.890625 309.554688 278.921875 309.753906 277.945312 309.914062 C 276.96875 310.070312 275.988281 310.183594 275 310.253906 C 274.015625 310.324219 273.027344 310.347656 272.039062 310.332031 C 271.046875 310.3125 270.0625 310.25 269.078125 310.144531 C 268.097656 310.035156 267.121094 309.886719 266.148438 309.691406 C 265.179688 309.496094 264.21875 309.261719 263.273438 308.980469 C 262.324219 308.699219 261.390625 308.378906 260.46875 308.015625 C 259.550781 307.652344 258.648438 307.25 257.761719 306.804688 C 256.878906 306.363281 256.015625 305.878906 255.175781 305.359375 C 254.335938 304.835938 253.519531 304.28125 252.730469 303.683594 C 253.441406 304.632812 254.199219 305.539062 255.007812 306.40625 C 255.816406 307.273438 256.671875 308.09375 257.566406 308.867188 C 258.464844 309.644531 259.398438 310.367188 260.371094 311.042969 C 261.347656 311.714844 262.355469 312.335938 263.394531 312.90625 C 264.433594 313.472656 265.503906 313.980469 266.597656 314.433594 C 267.695312 314.886719 268.808594 315.277344 269.945312 315.609375 C 271.085938 315.945312 272.234375 316.214844 273.402344 316.425781 C 274.566406 316.632812 275.742188 316.78125 276.925781 316.863281 C 278.105469 316.949219 279.289062 316.96875 280.472656 316.925781 C 281.65625 316.882812 282.835938 316.777344 284.007812 316.609375 C 285.183594 316.4375 286.34375 316.207031 287.492188 315.914062 C 288.636719 315.621094 289.765625 315.265625 290.878906 314.851562 C 291.988281 314.4375 293.074219 313.964844 294.132812 313.433594 C 295.191406 312.902344 296.21875 312.316406 297.214844 311.675781 C 298.214844 311.035156 299.171875 310.34375 300.09375 309.601562 C 301.019531 308.855469 301.898438 308.066406 302.734375 307.230469 C 303.574219 306.390625 304.363281 305.511719 305.109375 304.589844 C 305.851562 303.664062 306.542969 302.707031 307.1875 301.710938 C 307.828125 300.714844 308.414062 299.683594 308.941406 298.625 C 309.472656 297.566406 309.945312 296.480469 310.359375 295.371094 C 310.777344 294.261719 311.128906 293.132812 311.421875 291.984375 C 311.71875 290.835938 311.949219 289.675781 312.117188 288.503906 C 312.289062 287.332031 312.394531 286.152344 312.4375 284.96875 C 312.480469 283.785156 312.460938 282.601562 312.375 281.417969 C 312.292969 280.238281 312.144531 279.0625 311.9375 277.894531 C 311.726562 276.730469 311.457031 275.578125 311.125 274.441406 C 310.792969 273.304688 310.398438 272.1875 309.945312 271.09375 C 309.496094 269.996094 308.984375 268.929688 308.417969 267.886719 C 307.851562 266.847656 307.230469 265.839844 306.554688 264.867188 C 305.882812 263.890625 305.15625 262.957031 304.382812 262.058594 C 303.609375 261.164062 302.789062 260.308594 301.921875 259.5 C 301.054688 258.691406 300.148438 257.933594 299.199219 257.222656 Z M 299.199219 257.222656 " fill-opacity="1" fill-rule="nonzero"/><path fill="#702a1c" d="M 282.03125 263.339844 C 282.515625 263.746094 282.980469 264.179688 283.425781 264.632812 C 283.871094 265.085938 284.289062 265.558594 284.6875 266.054688 C 285.085938 266.550781 285.457031 267.0625 285.804688 267.59375 C 286.152344 268.125 286.472656 268.671875 286.765625 269.234375 C 287.058594 269.796875 287.324219 270.375 287.558594 270.960938 C 287.796875 271.550781 288.003906 272.148438 288.183594 272.757812 C 288.359375 273.367188 288.507812 273.984375 288.625 274.605469 C 288.742188 275.230469 288.828125 275.855469 288.886719 276.488281 C 288.941406 277.121094 288.964844 277.753906 288.960938 278.386719 C 288.953125 279.019531 288.914062 279.652344 288.847656 280.285156 C 288.777344 280.914062 288.679688 281.539062 288.550781 282.160156 C 288.417969 282.78125 288.257812 283.390625 288.070312 283.996094 C 287.878906 284.601562 287.660156 285.195312 287.410156 285.777344 C 287.160156 286.359375 286.886719 286.929688 286.582031 287.484375 C 286.277344 288.039062 285.945312 288.578125 285.585938 289.101562 C 285.230469 289.625 284.847656 290.128906 284.441406 290.613281 C 284.03125 291.097656 283.601562 291.5625 283.148438 292.007812 C 282.695312 292.449219 282.222656 292.867188 281.730469 293.265625 C 281.234375 293.660156 280.722656 294.03125 280.191406 294.378906 C 279.660156 294.722656 279.113281 295.042969 278.550781 295.335938 C 277.988281 295.628906 277.414062 295.890625 276.824219 296.125 C 276.238281 296.363281 275.636719 296.566406 275.03125 296.746094 C 274.421875 296.921875 273.804688 297.066406 273.179688 297.183594 C 272.558594 297.300781 271.929688 297.386719 271.300781 297.441406 C 270.667969 297.496094 270.035156 297.519531 269.398438 297.511719 C 268.765625 297.503906 268.132812 297.464844 267.503906 297.394531 C 266.871094 297.324219 266.246094 297.222656 265.625 297.09375 C 265.003906 296.960938 264.390625 296.800781 263.789062 296.609375 C 263.183594 296.417969 262.589844 296.195312 262.003906 295.949219 C 261.421875 295.699219 260.851562 295.421875 260.296875 295.113281 C 259.738281 294.808594 259.199219 294.476562 258.675781 294.117188 C 258.152344 293.761719 257.644531 293.375 257.160156 292.96875 C 256.675781 292.558594 256.210938 292.128906 255.765625 291.675781 C 255.320312 291.222656 254.902344 290.746094 254.503906 290.253906 C 254.105469 289.757812 253.734375 289.246094 253.386719 288.714844 C 253.039062 288.183594 252.71875 287.636719 252.425781 287.074219 C 252.132812 286.507812 251.867188 285.933594 251.632812 285.34375 C 251.394531 284.757812 251.1875 284.15625 251.007812 283.550781 C 250.832031 282.941406 250.683594 282.324219 250.566406 281.699219 C 250.449219 281.078125 250.363281 280.449219 250.304688 279.820312 C 250.25 279.1875 250.226562 278.554688 250.230469 277.921875 C 250.238281 277.285156 250.277344 276.652344 250.34375 276.023438 C 250.414062 275.394531 250.511719 274.769531 250.640625 274.148438 C 250.773438 273.527344 250.933594 272.914062 251.121094 272.3125 C 251.3125 271.707031 251.53125 271.113281 251.78125 270.53125 C 252.03125 269.949219 252.304688 269.378906 252.609375 268.824219 C 252.914062 268.269531 253.246094 267.730469 253.605469 267.207031 C 253.960938 266.683594 254.34375 266.179688 254.75 265.695312 C 255.160156 265.207031 255.589844 264.746094 256.042969 264.300781 C 256.496094 263.859375 256.96875 263.4375 257.460938 263.042969 C 257.957031 262.648438 258.46875 262.277344 259 261.929688 C 259.53125 261.582031 260.078125 261.265625 260.640625 260.972656 C 261.203125 260.679688 261.777344 260.417969 262.367188 260.179688 C 262.953125 259.945312 263.554688 259.738281 264.160156 259.5625 C 264.769531 259.386719 265.386719 259.238281 266.011719 259.125 C 266.632812 259.007812 267.261719 258.921875 267.890625 258.867188 C 268.523438 258.8125 269.15625 258.789062 269.792969 258.796875 C 270.425781 258.804688 271.058594 258.84375 271.6875 258.914062 C 272.320312 258.984375 272.945312 259.082031 273.566406 259.214844 C 274.1875 259.347656 274.796875 259.507812 275.402344 259.699219 C 276.007812 259.890625 276.601562 260.109375 277.1875 260.359375 C 277.769531 260.609375 278.339844 260.886719 278.894531 261.191406 C 279.453125 261.5 279.992188 261.832031 280.515625 262.1875 C 281.039062 262.546875 281.546875 262.929688 282.03125 263.339844 Z M 282.03125 263.339844 " fill-opacity="1" fill-rule="nonzero"/><path fill="#541a0c" d="M 220.8125 187.71875 C 220.8125 188.804688 220.761719 189.890625 220.652344 190.972656 C 220.546875 192.058594 220.386719 193.132812 220.175781 194.199219 C 219.964844 195.265625 219.699219 196.320312 219.382812 197.359375 C 219.066406 198.402344 218.703125 199.425781 218.285156 200.429688 C 217.867188 201.4375 217.40625 202.417969 216.890625 203.378906 C 216.378906 204.335938 215.820312 205.269531 215.214844 206.171875 C 214.609375 207.078125 213.964844 207.953125 213.273438 208.792969 C 212.582031 209.632812 211.855469 210.4375 211.085938 211.207031 C 210.316406 211.976562 209.511719 212.707031 208.667969 213.398438 C 207.828125 214.085938 206.953125 214.734375 206.050781 215.339844 C 205.144531 215.945312 204.214844 216.503906 203.253906 217.015625 C 202.292969 217.527344 201.3125 217.992188 200.308594 218.410156 C 199.300781 218.824219 198.277344 219.191406 197.238281 219.507812 C 196.195312 219.824219 195.140625 220.085938 194.074219 220.300781 C 193.007812 220.511719 191.933594 220.671875 190.851562 220.777344 C 189.769531 220.882812 188.683594 220.9375 187.59375 220.9375 C 186.507812 220.9375 185.421875 220.882812 184.339844 220.777344 C 183.253906 220.671875 182.179688 220.511719 181.113281 220.300781 C 180.046875 220.085938 178.992188 219.824219 177.953125 219.507812 C 176.910156 219.191406 175.886719 218.824219 174.882812 218.410156 C 173.875 217.992188 172.894531 217.527344 171.933594 217.015625 C 170.976562 216.503906 170.042969 215.945312 169.140625 215.339844 C 168.234375 214.734375 167.363281 214.085938 166.519531 213.398438 C 165.679688 212.707031 164.875 211.976562 164.105469 211.207031 C 163.335938 210.4375 162.605469 209.632812 161.914062 208.792969 C 161.226562 207.953125 160.578125 207.078125 159.972656 206.171875 C 159.367188 205.269531 158.808594 204.335938 158.296875 203.378906 C 157.785156 202.417969 157.320312 201.4375 156.902344 200.429688 C 156.488281 199.425781 156.121094 198.402344 155.804688 197.359375 C 155.488281 196.320312 155.226562 195.265625 155.011719 194.199219 C 154.800781 193.132812 154.640625 192.058594 154.535156 190.972656 C 154.429688 189.890625 154.375 188.804688 154.375 187.71875 C 154.375 186.628906 154.429688 185.542969 154.535156 184.460938 C 154.640625 183.378906 154.800781 182.304688 155.011719 181.238281 C 155.226562 180.171875 155.488281 179.117188 155.804688 178.074219 C 156.121094 177.035156 156.488281 176.011719 156.902344 175.003906 C 157.320312 174 157.785156 173.019531 158.296875 172.058594 C 158.808594 171.097656 159.367188 170.167969 159.972656 169.261719 C 160.578125 168.359375 161.226562 167.484375 161.914062 166.644531 C 162.605469 165.804688 163.335938 164.996094 164.105469 164.226562 C 164.875 163.457031 165.679688 162.730469 166.519531 162.039062 C 167.363281 161.347656 168.234375 160.703125 169.140625 160.097656 C 170.042969 159.492188 170.976562 158.933594 171.933594 158.421875 C 172.894531 157.90625 173.875 157.445312 174.882812 157.027344 C 175.886719 156.609375 176.910156 156.246094 177.953125 155.929688 C 178.992188 155.613281 180.046875 155.347656 181.113281 155.136719 C 182.179688 154.925781 183.253906 154.765625 184.339844 154.660156 C 185.421875 154.550781 186.507812 154.5 187.59375 154.5 C 188.683594 154.5 189.769531 154.550781 190.851562 154.660156 C 191.933594 154.765625 193.007812 154.925781 194.074219 155.136719 C 195.140625 155.347656 196.195312 155.613281 197.238281 155.929688 C 198.277344 156.246094 199.300781 156.609375 200.308594 157.027344 C 201.3125 157.445312 202.292969 157.90625 203.253906 158.421875 C 204.214844 158.933594 205.144531 159.492188 206.050781 160.097656 C 206.953125 160.703125 207.828125 161.347656 208.667969 162.039062 C 209.511719 162.730469 210.316406 163.457031 211.085938 164.226562 C 211.855469 164.996094 212.582031 165.804688 213.273438 166.644531 C 213.964844 167.484375 214.609375 168.359375 215.214844 169.261719 C 215.820312 170.167969 216.378906 171.097656 216.890625 172.058594 C 217.40625 173.019531 217.867188 174 218.285156 175.003906 C 218.703125 176.011719 219.066406 177.035156 219.382812 178.074219 C 219.699219 179.117188 219.964844 180.171875 220.175781 181.238281 C 220.386719 182.304688 220.546875 183.378906 220.652344 184.460938 C 220.761719 185.542969 220.8125 186.628906 220.8125 187.71875 Z M 220.8125 187.71875 " fill-opacity="1" fill-rule="nonzero"/><path fill="#350802" d="M 207.351562 161.011719 C 207.945312 161.804688 208.503906 162.621094 209.027344 163.460938 C 209.546875 164.300781 210.027344 165.164062 210.472656 166.046875 C 210.917969 166.929688 211.320312 167.832031 211.683594 168.753906 C 212.046875 169.671875 212.367188 170.605469 212.648438 171.554688 C 212.925781 172.503906 213.164062 173.464844 213.355469 174.433594 C 213.550781 175.402344 213.703125 176.378906 213.808594 177.363281 C 213.914062 178.347656 213.976562 179.332031 213.996094 180.320312 C 214.015625 181.3125 213.988281 182.296875 213.917969 183.285156 C 213.847656 184.273438 213.734375 185.253906 213.578125 186.230469 C 213.417969 187.207031 213.21875 188.171875 212.972656 189.132812 C 212.730469 190.089844 212.445312 191.035156 212.113281 191.96875 C 211.785156 192.902344 211.417969 193.816406 211.007812 194.71875 C 210.59375 195.617188 210.144531 196.496094 209.65625 197.355469 C 209.167969 198.214844 208.640625 199.050781 208.078125 199.863281 C 207.511719 200.675781 206.914062 201.464844 206.277344 202.222656 C 205.644531 202.980469 204.976562 203.710938 204.277344 204.410156 C 203.578125 205.109375 202.851562 205.773438 202.089844 206.410156 C 201.332031 207.042969 200.546875 207.640625 199.734375 208.207031 C 198.921875 208.769531 198.085938 209.296875 197.226562 209.785156 C 196.367188 210.273438 195.484375 210.722656 194.585938 211.136719 C 193.6875 211.546875 192.769531 211.914062 191.835938 212.242188 C 190.902344 212.570312 189.957031 212.859375 189 213.101562 C 188.042969 213.347656 187.074219 213.546875 186.097656 213.703125 C 185.121094 213.863281 184.140625 213.976562 183.152344 214.046875 C 182.167969 214.113281 181.179688 214.140625 180.191406 214.121094 C 179.199219 214.101562 178.214844 214.039062 177.230469 213.933594 C 176.25 213.828125 175.273438 213.675781 174.300781 213.484375 C 173.332031 213.289062 172.371094 213.050781 171.425781 212.773438 C 170.476562 212.492188 169.542969 212.171875 168.621094 211.808594 C 167.703125 211.445312 166.800781 211.039062 165.914062 210.597656 C 165.03125 210.152344 164.167969 209.671875 163.328125 209.148438 C 162.488281 208.628906 161.671875 208.070312 160.882812 207.476562 C 161.59375 208.425781 162.351562 209.332031 163.160156 210.199219 C 163.96875 211.0625 164.824219 211.882812 165.71875 212.660156 C 166.617188 213.433594 167.550781 214.160156 168.523438 214.832031 C 169.5 215.507812 170.507812 216.128906 171.546875 216.695312 C 172.585938 217.261719 173.65625 217.773438 174.75 218.226562 C 175.847656 218.675781 176.960938 219.070312 178.097656 219.402344 C 179.238281 219.734375 180.386719 220.007812 181.554688 220.214844 C 182.71875 220.425781 183.894531 220.574219 185.078125 220.65625 C 186.257812 220.738281 187.441406 220.761719 188.625 220.71875 C 189.808594 220.675781 190.988281 220.566406 192.160156 220.398438 C 193.335938 220.230469 194.496094 220 195.644531 219.707031 C 196.789062 219.410156 197.917969 219.058594 199.03125 218.644531 C 200.140625 218.230469 201.226562 217.757812 202.285156 217.226562 C 203.34375 216.695312 204.371094 216.109375 205.367188 215.46875 C 206.367188 214.828125 207.324219 214.136719 208.246094 213.390625 C 209.171875 212.648438 210.050781 211.859375 210.886719 211.019531 C 211.726562 210.183594 212.515625 209.300781 213.261719 208.378906 C 214.003906 207.457031 214.695312 206.496094 215.335938 205.5 C 215.980469 204.503906 216.566406 203.476562 217.09375 202.417969 C 217.625 201.359375 218.097656 200.273438 218.511719 199.164062 C 218.929688 198.054688 219.28125 196.921875 219.574219 195.777344 C 219.871094 194.628906 220.101562 193.46875 220.269531 192.292969 C 220.441406 191.121094 220.546875 189.945312 220.589844 188.757812 C 220.632812 187.574219 220.613281 186.390625 220.527344 185.210938 C 220.445312 184.027344 220.296875 182.855469 220.089844 181.6875 C 219.878906 180.519531 219.609375 179.371094 219.277344 178.230469 C 218.945312 177.09375 218.550781 175.980469 218.097656 174.882812 C 217.648438 173.789062 217.136719 172.71875 216.570312 171.679688 C 216.003906 170.640625 215.382812 169.632812 214.707031 168.65625 C 214.035156 167.683594 213.308594 166.746094 212.535156 165.851562 C 211.761719 164.953125 210.941406 164.101562 210.074219 163.292969 C 209.207031 162.484375 208.300781 161.722656 207.351562 161.011719 Z M 207.351562 161.011719 " fill-opacity="1" fill-rule="nonzero"/><path fill="#702a1c" d="M 192.5 164.539062 C 192.988281 164.949219 193.453125 165.378906 193.894531 165.832031 C 194.339844 166.285156 194.761719 166.761719 195.15625 167.257812 C 195.554688 167.75 195.925781 168.265625 196.273438 168.796875 C 196.621094 169.328125 196.941406 169.875 197.234375 170.4375 C 197.527344 171 197.792969 171.574219 198.03125 172.164062 C 198.265625 172.753906 198.472656 173.351562 198.652344 173.960938 C 198.828125 174.570312 198.976562 175.183594 199.09375 175.808594 C 199.210938 176.429688 199.296875 177.058594 199.355469 177.691406 C 199.410156 178.320312 199.433594 178.953125 199.429688 179.589844 C 199.421875 180.222656 199.382812 180.855469 199.316406 181.484375 C 199.246094 182.113281 199.148438 182.742188 199.019531 183.359375 C 198.886719 183.980469 198.726562 184.59375 198.539062 185.199219 C 198.347656 185.800781 198.128906 186.394531 197.878906 186.976562 C 197.632812 187.5625 197.355469 188.128906 197.050781 188.6875 C 196.746094 189.242188 196.414062 189.78125 196.054688 190.304688 C 195.699219 190.824219 195.316406 191.332031 194.910156 191.816406 C 194.5 192.300781 194.070312 192.765625 193.617188 193.207031 C 193.164062 193.648438 192.691406 194.070312 192.199219 194.464844 C 191.703125 194.863281 191.191406 195.234375 190.660156 195.578125 C 190.128906 195.925781 189.582031 196.246094 189.019531 196.535156 C 188.457031 196.828125 187.882812 197.09375 187.292969 197.328125 C 186.707031 197.5625 186.105469 197.769531 185.5 197.945312 C 184.890625 198.121094 184.273438 198.269531 183.652344 198.386719 C 183.027344 198.5 182.398438 198.585938 181.769531 198.640625 C 181.136719 198.695312 180.503906 198.71875 179.871094 198.710938 C 179.234375 198.703125 178.601562 198.664062 177.972656 198.59375 C 177.339844 198.527344 176.714844 198.425781 176.09375 198.292969 C 175.472656 198.164062 174.863281 198 174.257812 197.808594 C 173.652344 197.621094 173.058594 197.398438 172.472656 197.148438 C 171.890625 196.898438 171.320312 196.621094 170.765625 196.316406 C 170.207031 196.011719 169.667969 195.679688 169.144531 195.320312 C 168.621094 194.960938 168.117188 194.578125 167.628906 194.167969 C 167.144531 193.761719 166.679688 193.332031 166.234375 192.878906 C 165.789062 192.421875 165.371094 191.949219 164.972656 191.453125 C 164.574219 190.960938 164.203125 190.445312 163.855469 189.914062 C 163.507812 189.382812 163.1875 188.835938 162.894531 188.273438 C 162.601562 187.710938 162.335938 187.136719 162.101562 186.546875 C 161.863281 185.957031 161.65625 185.359375 161.476562 184.75 C 161.300781 184.140625 161.152344 183.527344 161.035156 182.902344 C 160.917969 182.277344 160.832031 181.652344 160.773438 181.019531 C 160.71875 180.386719 160.695312 179.753906 160.699219 179.121094 C 160.707031 178.488281 160.746094 177.855469 160.8125 177.226562 C 160.882812 176.59375 160.980469 175.96875 161.113281 175.351562 C 161.242188 174.730469 161.402344 174.117188 161.589844 173.511719 C 161.78125 172.910156 162 172.316406 162.25 171.730469 C 162.5 171.148438 162.773438 170.578125 163.078125 170.023438 C 163.382812 169.46875 163.714844 168.929688 164.074219 168.40625 C 164.429688 167.882812 164.8125 167.378906 165.21875 166.894531 C 165.628906 166.410156 166.058594 165.945312 166.511719 165.503906 C 166.964844 165.058594 167.4375 164.640625 167.933594 164.246094 C 168.425781 163.847656 168.9375 163.476562 169.46875 163.132812 C 170 162.785156 170.546875 162.464844 171.109375 162.175781 C 171.671875 161.882812 172.246094 161.617188 172.835938 161.382812 C 173.421875 161.148438 174.023438 160.941406 174.632812 160.765625 C 175.238281 160.585938 175.855469 160.441406 176.480469 160.324219 C 177.101562 160.207031 177.730469 160.125 178.363281 160.070312 C 178.992188 160.015625 179.625 159.992188 180.261719 160 C 180.894531 160.007812 181.527344 160.042969 182.15625 160.113281 C 182.789062 160.183594 183.414062 160.285156 184.035156 160.417969 C 184.65625 160.546875 185.269531 160.707031 185.871094 160.898438 C 186.476562 161.089844 187.074219 161.3125 187.65625 161.5625 C 188.238281 161.8125 188.808594 162.089844 189.367188 162.394531 C 189.921875 162.699219 190.460938 163.03125 190.984375 163.390625 C 191.507812 163.75 192.015625 164.132812 192.5 164.539062 Z M 192.5 164.539062 " fill-opacity="1" fill-rule="nonzero"/><path fill="#541a0c" d="M 122.792969 85.921875 C 122.792969 87.007812 122.738281 88.09375 122.632812 89.175781 C 122.523438 90.261719 122.367188 91.335938 122.152344 92.402344 C 121.941406 93.46875 121.675781 94.523438 121.363281 95.566406 C 121.046875 96.605469 120.679688 97.628906 120.261719 98.632812 C 119.847656 99.640625 119.382812 100.621094 118.871094 101.582031 C 118.355469 102.539062 117.796875 103.472656 117.191406 104.378906 C 116.589844 105.28125 115.941406 106.15625 115.25 106.996094 C 114.5625 107.835938 113.832031 108.640625 113.0625 109.410156 C 112.292969 110.179688 111.488281 110.910156 110.644531 111.601562 C 109.804688 112.289062 108.933594 112.9375 108.027344 113.542969 C 107.125 114.148438 106.191406 114.707031 105.230469 115.21875 C 104.273438 115.730469 103.289062 116.195312 102.285156 116.613281 C 101.28125 117.027344 100.257812 117.394531 99.214844 117.710938 C 98.175781 118.027344 97.121094 118.289062 96.054688 118.503906 C 94.984375 118.714844 93.910156 118.875 92.828125 118.980469 C 91.746094 119.085938 90.660156 119.140625 89.570312 119.140625 C 88.484375 119.140625 87.398438 119.085938 86.316406 118.980469 C 85.234375 118.875 84.160156 118.714844 83.089844 118.503906 C 82.023438 118.289062 80.96875 118.027344 79.929688 117.710938 C 78.886719 117.394531 77.863281 117.027344 76.859375 116.613281 C 75.855469 116.195312 74.871094 115.730469 73.914062 115.21875 C 72.953125 114.707031 72.019531 114.148438 71.117188 113.542969 C 70.210938 112.9375 69.339844 112.289062 68.496094 111.601562 C 67.65625 110.910156 66.851562 110.179688 66.082031 109.410156 C 65.3125 108.640625 64.582031 107.835938 63.894531 106.996094 C 63.203125 106.15625 62.554688 105.28125 61.953125 104.378906 C 61.347656 103.472656 60.789062 102.539062 60.273438 101.582031 C 59.761719 100.621094 59.296875 99.640625 58.882812 98.632812 C 58.464844 97.628906 58.097656 96.605469 57.78125 95.566406 C 57.46875 94.523438 57.203125 93.46875 56.992188 92.402344 C 56.777344 91.335938 56.621094 90.261719 56.511719 89.175781 C 56.40625 88.09375 56.351562 87.007812 56.351562 85.921875 C 56.351562 84.832031 56.40625 83.75 56.511719 82.664062 C 56.621094 81.582031 56.777344 80.507812 56.992188 79.441406 C 57.203125 78.375 57.46875 77.320312 57.78125 76.277344 C 58.097656 75.238281 58.464844 74.214844 58.882812 73.207031 C 59.296875 72.203125 59.761719 71.222656 60.273438 70.261719 C 60.789062 69.300781 61.347656 68.371094 61.953125 67.464844 C 62.554688 66.5625 63.203125 65.6875 63.894531 64.847656 C 64.582031 64.007812 65.3125 63.199219 66.082031 62.433594 C 66.851562 61.664062 67.65625 60.933594 68.496094 60.242188 C 69.339844 59.550781 70.210938 58.90625 71.117188 58.300781 C 72.019531 57.695312 72.953125 57.136719 73.914062 56.625 C 74.871094 56.113281 75.855469 55.648438 76.859375 55.230469 C 77.863281 54.8125 78.886719 54.449219 79.929688 54.132812 C 80.96875 53.816406 82.023438 53.550781 83.089844 53.339844 C 84.160156 53.128906 85.234375 52.96875 86.316406 52.863281 C 87.398438 52.753906 88.484375 52.703125 89.570312 52.703125 C 90.660156 52.703125 91.746094 52.753906 92.828125 52.863281 C 93.910156 52.96875 94.984375 53.128906 96.054688 53.339844 C 97.121094 53.550781 98.175781 53.816406 99.214844 54.132812 C 100.257812 54.449219 101.28125 54.8125 102.285156 55.230469 C 103.289062 55.648438 104.273438 56.113281 105.230469 56.625 C 106.191406 57.136719 107.125 57.695312 108.027344 58.300781 C 108.933594 58.90625 109.804688 59.550781 110.648438 60.242188 C 111.488281 60.933594 112.292969 61.664062 113.0625 62.433594 C 113.832031 63.199219 114.5625 64.007812 115.25 64.847656 C 115.941406 65.6875 116.589844 66.5625 117.191406 67.464844 C 117.796875 68.371094 118.355469 69.300781 118.871094 70.261719 C 119.382812 71.222656 119.847656 72.203125 120.261719 73.207031 C 120.679688 74.214844 121.046875 75.238281 121.363281 76.277344 C 121.675781 77.320312 121.941406 78.375 122.152344 79.441406 C 122.367188 80.507812 122.523438 81.582031 122.632812 82.664062 C 122.738281 83.75 122.792969 84.832031 122.792969 85.921875 Z M 122.792969 85.921875 " fill-opacity="1" fill-rule="nonzero"/><path fill="#350802" d="M 109.332031 59.214844 C 109.925781 60.007812 110.480469 60.824219 111.003906 61.664062 C 111.523438 62.503906 112.007812 63.367188 112.449219 64.25 C 112.894531 65.132812 113.296875 66.035156 113.660156 66.957031 C 114.023438 67.875 114.34375 68.8125 114.625 69.757812 C 114.90625 70.707031 115.140625 71.667969 115.335938 72.636719 C 115.527344 73.605469 115.679688 74.582031 115.785156 75.566406 C 115.890625 76.550781 115.953125 77.535156 115.972656 78.523438 C 115.992188 79.515625 115.964844 80.5 115.894531 81.488281 C 115.824219 82.476562 115.710938 83.457031 115.554688 84.433594 C 115.398438 85.410156 115.195312 86.375 114.953125 87.335938 C 114.707031 88.292969 114.421875 89.238281 114.09375 90.171875 C 113.765625 91.105469 113.394531 92.019531 112.984375 92.921875 C 112.574219 93.820312 112.121094 94.699219 111.632812 95.558594 C 111.144531 96.417969 110.617188 97.253906 110.054688 98.066406 C 109.488281 98.878906 108.890625 99.667969 108.257812 100.425781 C 107.621094 101.183594 106.957031 101.914062 106.257812 102.613281 C 105.554688 103.3125 104.828125 103.980469 104.070312 104.613281 C 103.308594 105.246094 102.523438 105.847656 101.710938 106.410156 C 100.898438 106.972656 100.0625 107.5 99.203125 107.988281 C 98.34375 108.476562 97.464844 108.929688 96.5625 109.339844 C 95.664062 109.75 94.746094 110.117188 93.8125 110.445312 C 92.882812 110.773438 91.9375 111.0625 90.976562 111.304688 C 90.019531 111.550781 89.050781 111.75 88.074219 111.90625 C 87.097656 112.066406 86.117188 112.179688 85.128906 112.25 C 84.144531 112.320312 83.15625 112.34375 82.167969 112.324219 C 81.179688 112.308594 80.191406 112.246094 79.210938 112.136719 C 78.226562 112.03125 77.25 111.878906 76.28125 111.6875 C 75.308594 111.492188 74.351562 111.253906 73.402344 110.976562 C 72.453125 110.695312 71.519531 110.375 70.597656 110.011719 C 69.679688 109.648438 68.777344 109.246094 67.894531 108.800781 C 67.007812 108.355469 66.148438 107.875 65.304688 107.351562 C 64.464844 106.832031 63.648438 106.273438 62.859375 105.679688 C 63.570312 106.628906 64.332031 107.535156 65.140625 108.402344 C 65.949219 109.265625 66.800781 110.085938 67.695312 110.863281 C 68.59375 111.636719 69.527344 112.363281 70.503906 113.035156 C 71.476562 113.710938 72.484375 114.332031 73.523438 114.898438 C 74.566406 115.464844 75.632812 115.976562 76.726562 116.429688 C 77.824219 116.878906 78.941406 117.273438 80.078125 117.605469 C 81.214844 117.9375 82.367188 118.210938 83.53125 118.417969 C 84.699219 118.628906 85.871094 118.777344 87.054688 118.859375 C 88.238281 118.941406 89.417969 118.964844 90.605469 118.921875 C 91.789062 118.878906 92.964844 118.773438 94.140625 118.601562 C 95.3125 118.433594 96.472656 118.203125 97.621094 117.910156 C 98.769531 117.613281 99.898438 117.261719 101.007812 116.847656 C 102.117188 116.433594 103.203125 115.960938 104.261719 115.429688 C 105.320312 114.898438 106.347656 114.3125 107.347656 113.671875 C 108.34375 113.03125 109.300781 112.339844 110.226562 111.597656 C 111.148438 110.851562 112.027344 110.0625 112.867188 109.222656 C 113.703125 108.386719 114.496094 107.503906 115.238281 106.582031 C 115.980469 105.660156 116.675781 104.699219 117.316406 103.703125 C 117.957031 102.707031 118.542969 101.679688 119.074219 100.621094 C 119.605469 99.5625 120.078125 98.476562 120.492188 97.367188 C 120.90625 96.257812 121.261719 95.128906 121.554688 93.980469 C 121.847656 92.832031 122.078125 91.671875 122.246094 90.5 C 122.417969 89.324219 122.523438 88.148438 122.566406 86.960938 C 122.609375 85.777344 122.589844 84.59375 122.507812 83.414062 C 122.421875 82.230469 122.277344 81.058594 122.066406 79.890625 C 121.859375 78.726562 121.585938 77.574219 121.253906 76.4375 C 120.921875 75.296875 120.527344 74.183594 120.078125 73.085938 C 119.625 71.992188 119.113281 70.921875 118.546875 69.882812 C 117.980469 68.84375 117.359375 67.835938 116.6875 66.859375 C 116.011719 65.886719 115.289062 64.953125 114.511719 64.054688 C 113.738281 63.15625 112.917969 62.304688 112.050781 61.496094 C 111.183594 60.6875 110.277344 59.929688 109.332031 59.214844 Z M 109.332031 59.214844 " fill-opacity="1" fill-rule="nonzero"/><path fill="#702a1c" d="M 94.476562 62.648438 C 94.960938 63.058594 95.425781 63.488281 95.871094 63.941406 C 96.3125 64.394531 96.734375 64.871094 97.132812 65.363281 C 97.527344 65.859375 97.902344 66.375 98.25 66.90625 C 98.59375 67.4375 98.914062 67.984375 99.207031 68.546875 C 99.503906 69.109375 99.765625 69.683594 100.003906 70.273438 C 100.242188 70.859375 100.449219 71.460938 100.625 72.070312 C 100.804688 72.675781 100.953125 73.292969 101.070312 73.917969 C 101.1875 74.539062 101.273438 75.167969 101.328125 75.800781 C 101.386719 76.429688 101.410156 77.0625 101.402344 77.699219 C 101.398438 78.332031 101.359375 78.964844 101.289062 79.59375 C 101.222656 80.222656 101.121094 80.847656 100.992188 81.46875 C 100.863281 82.089844 100.703125 82.703125 100.511719 83.308594 C 100.320312 83.910156 100.101562 84.503906 99.855469 85.085938 C 99.605469 85.671875 99.328125 86.238281 99.023438 86.792969 C 98.71875 87.351562 98.390625 87.890625 98.03125 88.414062 C 97.671875 88.933594 97.289062 89.4375 96.882812 89.925781 C 96.476562 90.410156 96.046875 90.875 95.59375 91.316406 C 95.140625 91.757812 94.667969 92.179688 94.171875 92.574219 C 93.679688 92.972656 93.164062 93.34375 92.632812 93.6875 C 92.105469 94.035156 91.558594 94.351562 90.996094 94.644531 C 90.433594 94.9375 89.855469 95.203125 89.269531 95.4375 C 88.679688 95.671875 88.082031 95.878906 87.472656 96.054688 C 86.863281 96.230469 86.25 96.378906 85.625 96.496094 C 85 96.609375 84.375 96.695312 83.742188 96.75 C 83.109375 96.804688 82.476562 96.828125 81.84375 96.820312 C 81.210938 96.8125 80.578125 96.773438 79.945312 96.703125 C 79.316406 96.636719 78.691406 96.535156 78.070312 96.402344 C 77.449219 96.273438 76.835938 96.109375 76.230469 95.917969 C 75.625 95.726562 75.03125 95.507812 74.449219 95.257812 C 73.863281 95.007812 73.296875 94.730469 72.738281 94.425781 C 72.183594 94.121094 71.640625 93.789062 71.117188 93.429688 C 70.59375 93.070312 70.089844 92.6875 69.605469 92.277344 C 69.117188 91.871094 68.652344 91.441406 68.207031 90.984375 C 67.765625 90.53125 67.34375 90.058594 66.945312 89.5625 C 66.550781 89.070312 66.175781 88.554688 65.832031 88.023438 C 65.484375 87.492188 65.164062 86.945312 64.871094 86.382812 C 64.578125 85.820312 64.3125 85.246094 64.074219 84.65625 C 63.839844 84.066406 63.628906 83.46875 63.453125 82.859375 C 63.273438 82.25 63.128906 81.632812 63.007812 81.011719 C 62.890625 80.386719 62.804688 79.761719 62.75 79.128906 C 62.695312 78.496094 62.667969 77.863281 62.675781 77.230469 C 62.683594 76.597656 62.71875 75.964844 62.789062 75.335938 C 62.855469 74.703125 62.957031 74.078125 63.085938 73.457031 C 63.214844 72.839844 63.375 72.226562 63.566406 71.621094 C 63.757812 71.015625 63.976562 70.421875 64.222656 69.839844 C 64.472656 69.257812 64.75 68.6875 65.054688 68.132812 C 65.359375 67.578125 65.691406 67.039062 66.046875 66.515625 C 66.40625 65.992188 66.789062 65.488281 67.195312 65.003906 C 67.601562 64.519531 68.03125 64.054688 68.484375 63.613281 C 68.9375 63.167969 69.410156 62.75 69.90625 62.351562 C 70.402344 61.957031 70.914062 61.585938 71.445312 61.238281 C 71.976562 60.894531 72.523438 60.574219 73.082031 60.28125 C 73.644531 59.992188 74.222656 59.726562 74.808594 59.492188 C 75.398438 59.257812 75.996094 59.050781 76.605469 58.875 C 77.214844 58.695312 77.832031 58.550781 78.453125 58.433594 C 79.078125 58.316406 79.703125 58.234375 80.335938 58.179688 C 80.96875 58.125 81.601562 58.101562 82.234375 58.109375 C 82.867188 58.117188 83.5 58.152344 84.132812 58.222656 C 84.761719 58.292969 85.386719 58.394531 86.007812 58.523438 C 86.628906 58.65625 87.242188 58.816406 87.847656 59.007812 C 88.453125 59.199219 89.046875 59.421875 89.628906 59.671875 C 90.214844 59.921875 90.785156 60.199219 91.339844 60.503906 C 91.894531 60.808594 92.4375 61.140625 92.960938 61.5 C 93.484375 61.859375 93.988281 62.242188 94.476562 62.648438 Z M 94.476562 62.648438 " fill-opacity="1" fill-rule="nonzero"/></svg>