<svg xmlns="http://www.w3.org/2000/svg" xmlns:xlink="http://www.w3.org/1999/xlink" width="500" zoomAndPan="magnify" viewBox="0 0 375 374.999991" height="500" preserveAspectRatio="xMidYMid meet" version="1.0"><rect x="-37.5" width="450" fill="#ffffff" y="-37.499999" height="449.999989" fill-opacity="1"/><rect x="-37.5" width="450" fill="#000000" y="-37.499999" height="449.999989" fill-opacity="1"/><path fill="#e1d3b8" d="M 92.644531 2.730469 L 282.355469 2.730469 C 283.828125 2.730469 285.300781 2.765625 286.769531 2.835938 C 288.238281 2.910156 289.707031 3.015625 291.171875 3.160156 C 292.632812 3.304688 294.09375 3.484375 295.550781 3.703125 C 297.003906 3.917969 298.457031 4.167969 299.898438 4.457031 C 301.339844 4.742188 302.777344 5.066406 304.203125 5.421875 C 305.632812 5.78125 307.050781 6.171875 308.457031 6.601562 C 309.867188 7.027344 311.261719 7.488281 312.648438 7.984375 C 314.035156 8.480469 315.40625 9.011719 316.765625 9.574219 C 318.125 10.136719 319.46875 10.730469 320.800781 11.363281 C 322.128906 11.992188 323.445312 12.652344 324.742188 13.34375 C 326.039062 14.039062 327.320312 14.765625 328.582031 15.519531 C 329.84375 16.277344 331.085938 17.0625 332.3125 17.882812 C 333.535156 18.699219 334.738281 19.546875 335.917969 20.421875 C 337.101562 21.300781 338.261719 22.203125 339.398438 23.136719 C 340.535156 24.070312 341.648438 25.03125 342.738281 26.019531 C 343.832031 27.007812 344.894531 28.023438 345.9375 29.0625 C 346.976562 30.105469 347.992188 31.167969 348.980469 32.261719 C 349.96875 33.351562 350.929688 34.464844 351.863281 35.601562 C 352.796875 36.738281 353.699219 37.898438 354.578125 39.082031 C 355.453125 40.261719 356.300781 41.464844 357.117188 42.6875 C 357.933594 43.914062 358.722656 45.15625 359.480469 46.417969 C 360.234375 47.679688 360.960938 48.960938 361.652344 50.257812 C 362.347656 51.554688 363.007812 52.871094 363.636719 54.199219 C 364.269531 55.53125 364.863281 56.875 365.425781 58.234375 C 365.988281 59.59375 366.519531 60.964844 367.015625 62.351562 C 367.511719 63.738281 367.972656 65.132812 368.398438 66.542969 C 368.828125 67.949219 369.21875 69.367188 369.578125 70.796875 C 369.933594 72.222656 370.257812 73.660156 370.542969 75.101562 C 370.832031 76.542969 371.082031 77.996094 371.296875 79.449219 C 371.515625 80.90625 371.695312 82.367188 371.839844 83.828125 C 371.984375 85.292969 372.089844 86.761719 372.164062 88.230469 C 372.234375 89.699219 372.269531 91.171875 372.269531 92.644531 L 372.269531 282.355469 C 372.269531 283.828125 372.234375 285.300781 372.164062 286.769531 C 372.089844 288.238281 371.984375 289.707031 371.839844 291.171875 C 371.695312 292.632812 371.515625 294.09375 371.296875 295.550781 C 371.082031 297.003906 370.832031 298.457031 370.542969 299.898438 C 370.257812 301.339844 369.933594 302.777344 369.578125 304.203125 C 369.21875 305.632812 368.828125 307.050781 368.398438 308.457031 C 367.972656 309.867188 367.511719 311.261719 367.015625 312.648438 C 366.519531 314.035156 365.988281 315.40625 365.425781 316.765625 C 364.863281 318.125 364.269531 319.46875 363.636719 320.800781 C 363.007812 322.128906 362.347656 323.445312 361.65625 324.742188 C 360.960938 326.039062 360.234375 327.320312 359.480469 328.582031 C 358.722656 329.84375 357.933594 331.085938 357.117188 332.3125 C 356.300781 333.535156 355.453125 334.738281 354.578125 335.917969 C 353.699219 337.101562 352.796875 338.261719 351.863281 339.398438 C 350.929688 340.535156 349.96875 341.648438 348.980469 342.738281 C 347.992188 343.828125 346.976562 344.894531 345.9375 345.9375 C 344.894531 346.976562 343.832031 347.992188 342.738281 348.980469 C 341.648438 349.96875 340.535156 350.929688 339.398438 351.863281 C 338.261719 352.796875 337.101562 353.699219 335.917969 354.578125 C 334.738281 355.453125 333.535156 356.300781 332.3125 357.117188 C 331.085938 357.933594 329.84375 358.722656 328.582031 359.480469 C 327.320312 360.234375 326.039062 360.960938 324.742188 361.652344 C 323.445312 362.347656 322.128906 363.007812 320.800781 363.636719 C 319.46875 364.269531 318.125 364.863281 316.765625 365.425781 C 315.40625 365.988281 314.035156 366.519531 312.648438 367.015625 C 311.261719 367.511719 309.867188 367.972656 308.457031 368.398438 C 307.050781 368.828125 305.632812 369.21875 304.203125 369.578125 C 302.777344 369.933594 301.339844 370.257812 299.898438 370.542969 C 298.457031 370.832031 297.003906 371.082031 295.550781 371.296875 C 294.09375 371.515625 292.632812 371.695312 291.171875 371.839844 C 289.707031 371.984375 288.238281 372.089844 286.769531 372.164062 C 285.300781 372.234375 283.828125 372.269531 282.355469 372.269531 L 92.644531 372.269531 C 91.171875 372.269531 89.699219 372.234375 88.230469 372.164062 C 86.761719 372.089844 85.292969 371.984375 83.828125 371.839844 C 82.367188 371.695312 80.90625 371.515625 79.449219 371.296875 C 77.996094 371.082031 76.542969 370.832031 75.101562 370.542969 C 73.660156 370.257812 72.222656 369.933594 70.796875 369.578125 C 69.367188 369.21875 67.949219 368.828125 66.542969 368.398438 C 65.132812 367.972656 63.738281 367.511719 62.351562 367.015625 C 60.964844 366.519531 59.59375 365.988281 58.234375 365.425781 C 56.875 364.863281 55.53125 364.269531 54.199219 363.636719 C 52.871094 363.007812 51.554688 362.347656 50.257812 361.65625 C 48.960938 360.960938 47.679688 360.234375 46.417969 359.480469 C 45.15625 358.722656 43.914062 357.933594 42.6875 357.117188 C 41.464844 356.300781 40.261719 355.453125 39.082031 354.578125 C 37.898438 353.699219 36.738281 352.796875 35.601562 351.863281 C 34.464844 350.929688 33.351562 349.96875 32.261719 348.980469 C 31.167969 347.992188 30.105469 346.976562 29.0625 345.9375 C 28.023438 344.894531 27.007812 343.828125 26.019531 342.738281 C 25.03125 341.648438 24.070312 340.535156 23.136719 339.398438 C 22.203125 338.261719 21.300781 337.101562 20.421875 335.917969 C 19.546875 334.738281 18.699219 333.535156 17.882812 332.3125 C 17.0625 331.085938 16.277344 329.84375 15.519531 328.582031 C 14.765625 327.320312 14.039062 326.039062 13.34375 324.742188 C 12.652344 323.445312 11.992188 322.128906 11.363281 320.800781 C 10.730469 319.46875 10.136719 318.125 9.574219 316.765625 C 9.011719 315.40625 8.480469 314.035156 7.984375 312.648438 C 7.488281 311.261719 7.027344 309.867188 6.601562 308.457031 C 6.171875 307.050781 5.78125 305.632812 5.421875 304.203125 C 5.066406 302.777344 4.742188 301.339844 4.457031 299.898438 C 4.167969 298.457031 3.917969 297.003906 3.703125 295.550781 C 3.484375 294.09375 3.304688 292.632812 3.160156 291.171875 C 3.015625 289.707031 2.910156 288.238281 2.835938 286.769531 C 2.765625 285.300781 2.730469 283.828125 2.730469 282.355469 L 2.730469 92.644531 C 2.730469 91.171875 2.765625 89.699219 2.835938 88.230469 C 2.910156 86.761719 3.015625 85.292969 3.160156 83.828125 C 3.304688 82.367188 3.484375 80.90625 3.703125 79.449219 C 3.917969 77.996094 4.167969 76.542969 4.457031 75.101562 C 4.742188 73.660156 5.066406 72.222656 5.421875 70.796875 C 5.78125 69.367188 6.171875 67.949219 6.601562 66.542969 C 7.027344 65.132812 7.488281 63.738281 7.984375 62.351562 C 8.480469 60.964844 9.011719 59.59375 9.574219 58.234375 C 10.136719 56.875 10.730469 55.53125 11.363281 54.199219 C 11.992188 52.871094 12.652344 51.554688 13.34375 50.257812 C 14.039062 48.960938 14.765625 47.679688 15.519531 46.417969 C 16.277344 45.15625 17.0625 43.914062 17.882812 42.6875 C 18.699219 41.464844 19.546875 40.261719 20.421875 39.082031 C 21.300781 37.898438 22.203125 36.738281 23.136719 35.601562 C 24.070312 34.464844 25.03125 33.351562 26.019531 32.261719 C 27.007812 31.167969 28.023438 30.105469 29.0625 29.0625 C 30.105469 28.023438 31.167969 27.007812 32.261719 26.019531 C 33.351562 25.03125 34.464844 24.070312 35.601562 23.136719 C 36.738281 22.203125 37.898438 21.300781 39.082031 20.421875 C 40.261719 19.546875 41.464844 18.699219 42.6875 17.882812 C 43.914062 17.0625 45.15625 16.277344 46.417969 15.519531 C 47.679688 14.765625 48.960938 14.039062 50.257812 13.34375 C 51.554688 12.652344 52.871094 11.992188 54.199219 11.363281 C 55.53125 10.730469 56.875 10.136719 58.234375 9.574219 C 59.59375 9.011719 60.964844 8.480469 62.351562 7.984375 C 63.738281 7.488281 65.132812 7.027344 66.542969 6.601562 C 67.949219 6.171875 69.367188 5.78125 70.796875 5.421875 C 72.222656 5.066406 73.660156 4.742188 75.101562 4.457031 C 76.542969 4.167969 77.996094 3.917969 79.449219 3.703125 C 80.90625 3.484375 82.367188 3.304688 83.828125 3.160156 C 85.292969 3.015625 86.761719 2.910156 88.230469 2.835938 C 89.699219 2.765625 91.171875 2.730469 92.644531 2.730469 Z M 92.644531 2.730469 " fill-opacity="1" fill-rule="nonzero"/><path fill="#fcf0de" d="M 15.980469 282.355469 L 15.980469 92.644531 C 15.980469 43.191406 56.445312 2.730469 105.898438 2.730469 L 92.644531 2.730469 C 43.191406 2.730469 2.730469 43.191406 2.730469 92.644531 L 2.730469 282.355469 C 2.730469 331.808594 43.191406 372.269531 92.644531 372.269531 L 105.898438 372.269531 C 56.445312 372.269531 15.980469 331.808594 15.980469 282.355469 Z M 15.980469 282.355469 " fill-opacity="1" fill-rule="nonzero"/><path fill="#ceb797" d="M 311.460938 7.601562 C 313.21875 8.566406 314.9375 9.585938 316.628906 10.664062 C 318.316406 11.742188 319.964844 12.878906 321.578125 14.066406 C 323.191406 15.253906 324.761719 16.496094 326.292969 17.789062 C 327.824219 19.082031 329.308594 20.425781 330.75 21.820312 C 332.191406 23.210938 333.582031 24.648438 334.925781 26.136719 C 336.269531 27.621094 337.566406 29.148438 338.808594 30.722656 C 340.050781 32.292969 341.238281 33.902344 342.375 35.554688 C 343.507812 37.207031 344.589844 38.894531 345.609375 40.617188 C 346.632812 42.339844 347.597656 44.09375 348.503906 45.878906 C 349.410156 47.667969 350.253906 49.484375 351.039062 51.328125 C 351.824219 53.171875 352.546875 55.039062 353.207031 56.929688 C 353.867188 58.820312 354.460938 60.734375 354.996094 62.664062 C 355.527344 64.59375 355.996094 66.542969 356.398438 68.503906 C 356.800781 70.46875 357.136719 72.441406 357.410156 74.425781 C 357.679688 76.410156 357.886719 78.402344 358.023438 80.402344 C 358.160156 82.402344 358.234375 84.402344 358.238281 86.40625 L 358.238281 265.984375 C 358.238281 315.4375 317.777344 355.898438 268.324219 355.898438 L 88.746094 355.898438 C 49.367188 355.898438 15.695312 330.242188 3.601562 294.824219 C 9.746094 338.433594 47.417969 372.269531 92.644531 372.269531 L 282.355469 372.269531 C 331.808594 372.269531 372.269531 331.808594 372.269531 282.355469 L 372.269531 92.644531 C 372.269531 53.40625 346.753906 19.769531 311.460938 7.601562 Z M 311.460938 7.601562 " fill-opacity="1" fill-rule="nonzero"/><path stroke-linecap="butt" transform="matrix(0.779626, 0, 0, 0.779626, 0.0000045, 0)" fill="none" stroke-linejoin="miter" d="M 118.832056 3.502282 L 362.167971 3.502282 C 364.056899 3.502282 365.945826 3.547375 367.829743 3.637563 C 369.713659 3.732761 371.597576 3.868042 373.476483 4.053427 C 375.350379 4.238813 377.224275 4.469292 379.09316 4.749875 C 380.957035 5.025448 382.82091 5.346115 384.669754 5.716886 C 386.518598 6.082646 388.362432 6.498511 390.191234 6.954459 C 392.025047 7.415417 393.843828 7.916459 395.647578 8.467605 C 397.456339 9.01374 399.245058 9.60497 401.023756 10.241292 C 402.802454 10.877615 404.56111 11.559032 406.304735 12.280532 C 408.04836 13.002032 409.771944 13.763616 411.480496 14.575303 C 413.184038 15.38198 414.872548 16.228741 416.536007 17.115585 C 418.199465 18.007439 419.842882 18.939377 421.461247 19.906387 C 423.079612 20.878408 424.672924 21.885502 426.246195 22.937689 C 427.814456 23.984867 429.357664 25.072127 430.87081 26.19446 C 432.388967 27.321804 433.87706 28.479211 435.335092 29.6767 C 436.793123 30.87419 438.221092 32.106753 439.618998 33.374388 C 441.021915 34.642024 442.384749 35.944732 443.72253 37.277503 C 445.055301 38.615284 446.358009 39.978118 447.625645 41.381035 C 448.89328 42.778941 450.125843 44.20691 451.323333 45.664941 C 452.520822 47.122973 453.678229 48.611066 454.805573 50.129223 C 455.927906 51.642369 457.015166 53.185577 458.062344 54.753838 C 459.109521 56.327109 460.121625 57.920421 461.093646 59.538786 C 462.060656 61.157151 462.992594 62.800568 463.879438 64.464026 C 464.771292 66.127484 465.618053 67.815995 466.42473 69.519537 C 467.236417 71.228089 467.998001 72.951673 468.719501 74.695298 C 469.441001 76.438923 470.122418 78.197579 470.75874 79.976277 C 471.395063 81.754975 471.986293 83.543694 472.532428 85.352455 C 473.083574 87.156205 473.584616 88.974986 474.045574 90.808799 C 474.501522 92.637601 474.917387 94.481435 475.283147 96.330279 C 475.653918 98.179122 475.974585 100.042998 476.250158 101.906873 C 476.530741 103.775758 476.76122 105.649654 476.946606 107.52355 C 477.131991 109.402457 477.267272 111.286374 477.36247 113.17029 C 477.452658 115.054207 477.497751 116.943134 477.497751 118.832062 L 477.497751 362.167977 C 477.497751 364.056904 477.452658 365.945832 477.36247 367.829748 C 477.267272 369.713665 477.131991 371.597582 476.946606 373.476488 C 476.76122 375.350384 476.530741 377.22428 476.250158 379.093166 C 475.974585 380.957041 475.653918 382.820916 475.283147 384.66976 C 474.917387 386.518604 474.501522 388.362438 474.045574 390.19124 C 473.584616 392.025052 473.083574 393.843834 472.532428 395.647584 C 471.986293 397.456345 471.395063 399.245063 470.75874 401.023761 C 470.122418 402.80246 469.441001 404.561116 468.719501 406.304741 C 467.998001 408.048366 467.236417 409.77195 466.42473 411.480502 C 465.618053 413.184044 464.771292 414.872554 463.884448 416.536013 C 462.992594 418.199471 462.060656 419.842888 461.093646 421.461253 C 460.121625 423.079617 459.109521 424.67293 458.062344 426.246201 C 457.015166 427.814462 455.927906 429.35767 454.805573 430.870816 C 453.678229 432.388972 452.520822 433.877066 451.323333 435.335098 C 450.125843 436.793129 448.89328 438.221098 447.625645 439.619004 C 446.358009 441.016911 445.055301 442.384754 443.72253 443.722536 C 442.384749 445.055307 441.021915 446.358015 439.618998 447.625651 C 438.221092 448.893286 436.793123 450.125849 435.335092 451.323338 C 433.87706 452.520828 432.388967 453.678234 430.87081 454.805578 C 429.357664 455.927912 427.814456 457.015172 426.246195 458.062349 C 424.672924 459.109527 423.079612 460.121631 421.461247 461.093652 C 419.842882 462.060662 418.199465 462.9926 416.536007 463.879444 C 414.872548 464.771298 413.184038 465.618058 411.480496 466.424736 C 409.771944 467.236423 408.04836 467.998006 406.304735 468.719507 C 404.56111 469.441007 402.802454 470.122423 401.023756 470.758746 C 399.245058 471.395069 397.456339 471.986298 395.647578 472.532434 C 393.843828 473.08358 392.025047 473.584621 390.191234 474.04558 C 388.362432 474.501528 386.518598 474.917392 384.669754 475.283153 C 382.82091 475.653924 380.957035 475.97459 379.09316 476.250163 C 377.224275 476.530747 375.350379 476.761226 373.476483 476.946611 C 371.597576 477.131997 369.713659 477.267278 367.829743 477.362476 C 365.945826 477.452663 364.056899 477.497757 362.167971 477.497757 L 118.832056 477.497757 C 116.943129 477.497757 115.054201 477.452663 113.170285 477.362476 C 111.286368 477.267278 109.402451 477.131997 107.523545 476.946611 C 105.649649 476.761226 103.775753 476.530747 101.906867 476.250163 C 100.042992 475.97459 98.179117 475.653924 96.330273 475.283153 C 94.481429 474.917392 92.637595 474.501528 90.808793 474.04558 C 88.974981 473.584621 87.156199 473.08358 85.352449 472.532434 C 83.543688 471.986298 81.75497 471.395069 79.976272 470.758746 C 78.197573 470.122423 76.438917 469.441007 74.695292 468.719507 C 72.951667 467.998006 71.228083 467.236423 69.519531 466.424736 C 67.815989 465.618058 66.127479 464.771298 64.46402 463.884454 C 62.800562 462.9926 61.157145 462.060662 59.53878 461.093652 C 57.920416 460.121631 56.327103 459.109527 54.753832 458.062349 C 53.185571 457.015172 51.642363 455.927912 50.129217 454.805578 C 48.611061 453.678234 47.122967 452.520828 45.664935 451.323338 C 44.206904 450.125849 42.778935 448.893286 41.381029 447.625651 C 39.978112 446.358015 38.615279 445.055307 37.277497 443.722536 C 35.944726 442.384754 34.642018 441.016911 33.374382 439.619004 C 32.106747 438.221098 30.874184 436.793129 29.676695 435.335098 C 28.479205 433.877066 27.321799 432.388972 26.194455 430.870816 C 25.072121 429.35767 23.984861 427.814462 22.937684 426.246201 C 21.885496 424.67293 20.878402 423.079617 19.906381 421.461253 C 18.939371 419.842888 18.007433 418.199471 17.115579 416.536013 C 16.228735 414.872554 15.381975 413.184044 14.575297 411.480502 C 13.76361 409.77195 13.002027 408.048366 12.280526 406.304741 C 11.559026 404.561116 10.87761 402.80246 10.241287 401.023761 C 9.604964 399.245063 9.013735 397.456345 8.467599 395.647584 C 7.916453 393.843834 7.415411 392.025052 6.954453 390.19124 C 6.498505 388.362438 6.082641 386.518604 5.71688 384.66976 C 5.346109 382.820916 5.025443 380.957041 4.74987 379.093166 C 4.469286 377.22428 4.238807 375.350384 4.053422 373.476488 C 3.868036 371.597582 3.732755 369.713665 3.637557 367.829748 C 3.54737 365.945832 3.502276 364.056904 3.502276 362.167977 L 3.502276 118.832062 C 3.502276 116.943134 3.54737 115.054207 3.637557 113.17029 C 3.732755 111.286374 3.868036 109.402457 4.053422 107.52355 C 4.238807 105.649654 4.469286 103.775758 4.74987 101.906873 C 5.025443 100.042998 5.346109 98.179122 5.71688 96.330279 C 6.082641 94.481435 6.498505 92.637601 6.954453 90.808799 C 7.415411 88.974986 7.916453 87.156205 8.467599 85.352455 C 9.013735 83.543694 9.604964 81.754975 10.241287 79.976277 C 10.87761 78.197579 11.559026 76.438923 12.280526 74.695298 C 13.002027 72.951673 13.76361 71.228089 14.575297 69.519537 C 15.381975 67.815995 16.228735 66.127484 17.115579 64.464026 C 18.007433 62.800568 18.939371 61.157151 19.906381 59.538786 C 20.878402 57.920421 21.885496 56.327109 22.937684 54.753838 C 23.984861 53.185577 25.072121 51.642369 26.194455 50.129223 C 27.321799 48.611066 28.479205 47.122973 29.676695 45.664941 C 30.874184 44.20691 32.106747 42.778941 33.374382 41.381035 C 34.642018 39.978118 35.944726 38.615284 37.277497 37.277503 C 38.615279 35.944732 39.978112 34.642024 41.381029 33.374388 C 42.778935 32.106753 44.206904 30.87419 45.664935 29.6767 C 47.122967 28.479211 48.611061 27.321804 50.129217 26.19446 C 51.642363 25.072127 53.185571 23.984867 54.753832 22.937689 C 56.327103 21.885502 57.920416 20.878408 59.53878 19.906387 C 61.157145 18.939377 62.800562 18.007439 64.46402 17.115585 C 66.127479 16.228741 67.815989 15.38198 69.519531 14.575303 C 71.228083 13.763616 72.951667 13.002032 74.695292 12.280532 C 76.438917 11.559032 78.197573 10.877615 79.976272 10.241292 C 81.75497 9.60497 83.543688 9.01374 85.352449 8.467605 C 87.156199 7.916459 88.974981 7.415417 90.808793 6.954459 C 92.637595 6.498511 94.481429 6.082646 96.330273 5.716886 C 98.179117 5.346115 100.042992 5.025448 101.906867 4.749875 C 103.775753 4.469292 105.649649 4.238813 107.523545 4.053427 C 109.402451 3.868042 111.286368 3.732761 113.170285 3.637563 C 115.054201 3.547375 116.943129 3.502282 118.832056 3.502282 Z M 118.832056 3.502282 " stroke="#846467" stroke-width="7" stroke-opacity="1" stroke-miterlimit="10"/><path fill="#541a0c" d="M 313.800781 84.769531 C 313.800781 85.867188 313.746094 86.964844 313.636719 88.058594 C 313.53125 89.152344 313.367188 90.238281 313.15625 91.316406 C 312.941406 92.394531 312.671875 93.457031 312.355469 94.507812 C 312.035156 95.5625 311.664062 96.59375 311.246094 97.609375 C 310.824219 98.625 310.355469 99.617188 309.835938 100.585938 C 309.320312 101.554688 308.753906 102.496094 308.144531 103.410156 C 307.535156 104.324219 306.878906 105.207031 306.183594 106.054688 C 305.484375 106.90625 304.75 107.71875 303.972656 108.496094 C 303.195312 109.273438 302.382812 110.011719 301.53125 110.707031 C 300.683594 111.40625 299.800781 112.058594 298.886719 112.667969 C 297.972656 113.277344 297.03125 113.84375 296.0625 114.363281 C 295.09375 114.878906 294.101562 115.347656 293.085938 115.769531 C 292.070312 116.191406 291.035156 116.558594 289.984375 116.878906 C 288.933594 117.199219 287.867188 117.464844 286.789062 117.679688 C 285.710938 117.894531 284.625 118.054688 283.535156 118.164062 C 282.441406 118.269531 281.34375 118.324219 280.246094 118.324219 C 279.144531 118.324219 278.050781 118.269531 276.957031 118.164062 C 275.863281 118.054688 274.777344 117.894531 273.699219 117.679688 C 272.621094 117.464844 271.554688 117.199219 270.503906 116.878906 C 269.453125 116.558594 268.417969 116.191406 267.402344 115.769531 C 266.386719 115.347656 265.394531 114.878906 264.425781 114.363281 C 263.457031 113.84375 262.515625 113.277344 261.601562 112.667969 C 260.6875 112.058594 259.808594 111.40625 258.957031 110.707031 C 258.109375 110.011719 257.292969 109.273438 256.515625 108.496094 C 255.738281 107.71875 255.003906 106.90625 254.304688 106.054688 C 253.609375 105.207031 252.953125 104.324219 252.34375 103.410156 C 251.734375 102.496094 251.167969 101.554688 250.652344 100.585938 C 250.132812 99.617188 249.664062 98.625 249.242188 97.609375 C 248.824219 96.59375 248.453125 95.5625 248.132812 94.507812 C 247.816406 93.457031 247.546875 92.394531 247.332031 91.316406 C 247.121094 90.238281 246.957031 89.152344 246.851562 88.058594 C 246.742188 86.964844 246.6875 85.867188 246.6875 84.769531 C 246.6875 83.667969 246.742188 82.574219 246.851562 81.480469 C 246.957031 80.386719 247.121094 79.300781 247.332031 78.222656 C 247.546875 77.144531 247.816406 76.078125 248.132812 75.027344 C 248.453125 73.976562 248.824219 72.941406 249.242188 71.925781 C 249.664062 70.914062 250.132812 69.921875 250.652344 68.949219 C 251.167969 67.980469 251.734375 67.039062 252.34375 66.125 C 252.953125 65.210938 253.609375 64.332031 254.304688 63.480469 C 255.003906 62.632812 255.738281 61.820312 256.515625 61.042969 C 257.292969 60.265625 258.109375 59.527344 258.957031 58.832031 C 259.804688 58.132812 260.6875 57.480469 261.601562 56.867188 C 262.515625 56.257812 263.457031 55.695312 264.425781 55.175781 C 265.394531 54.65625 266.386719 54.1875 267.402344 53.769531 C 268.417969 53.347656 269.453125 52.976562 270.503906 52.660156 C 271.554688 52.339844 272.621094 52.074219 273.699219 51.859375 C 274.777344 51.644531 275.863281 51.484375 276.957031 51.375 C 278.050781 51.265625 279.144531 51.214844 280.246094 51.214844 C 281.34375 51.214844 282.441406 51.265625 283.535156 51.375 C 284.625 51.484375 285.710938 51.644531 286.789062 51.859375 C 287.867188 52.074219 288.933594 52.339844 289.984375 52.660156 C 291.035156 52.976562 292.070312 53.347656 293.085938 53.769531 C 294.101562 54.1875 295.09375 54.65625 296.0625 55.175781 C 297.03125 55.695312 297.972656 56.257812 298.886719 56.867188 C 299.800781 57.480469 300.683594 58.132812 301.53125 58.832031 C 302.382812 59.527344 303.195312 60.265625 303.972656 61.042969 C 304.75 61.820312 305.484375 62.632812 306.183594 63.480469 C 306.878906 64.332031 307.535156 65.210938 308.144531 66.125 C 308.753906 67.039062 309.320312 67.980469 309.835938 68.949219 C 310.355469 69.921875 310.824219 70.914062 311.246094 71.925781 C 311.664062 72.941406 312.035156 73.976562 312.355469 75.027344 C 312.671875 76.078125 312.941406 77.144531 313.15625 78.222656 C 313.367188 79.300781 313.53125 80.386719 313.636719 81.480469 C 313.746094 82.574219 313.800781 83.667969 313.800781 84.769531 Z M 313.800781 84.769531 " fill-opacity="1" fill-rule="nonzero"/><path fill="#350802" d="M 300.203125 57.792969 C 300.800781 58.59375 301.367188 59.417969 301.890625 60.265625 C 302.417969 61.113281 302.90625 61.984375 303.351562 62.878906 C 303.800781 63.773438 304.210938 64.683594 304.574219 65.613281 C 304.941406 66.542969 305.265625 67.484375 305.550781 68.445312 C 305.832031 69.402344 306.070312 70.371094 306.265625 71.351562 C 306.464844 72.328125 306.613281 73.316406 306.722656 74.308594 C 306.828125 75.304688 306.894531 76.300781 306.910156 77.296875 C 306.929688 78.296875 306.902344 79.292969 306.832031 80.289062 C 306.761719 81.289062 306.648438 82.277344 306.488281 83.265625 C 306.328125 84.25 306.125 85.230469 305.878906 86.195312 C 305.632812 87.164062 305.34375 88.121094 305.011719 89.0625 C 304.679688 90.003906 304.308594 90.929688 303.890625 91.839844 C 303.476562 92.746094 303.023438 93.636719 302.527344 94.503906 C 302.035156 95.371094 301.503906 96.21875 300.933594 97.039062 C 300.363281 97.859375 299.757812 98.652344 299.117188 99.417969 C 298.476562 100.183594 297.804688 100.921875 297.097656 101.628906 C 296.390625 102.335938 295.652344 103.007812 294.886719 103.648438 C 294.121094 104.289062 293.328125 104.894531 292.503906 105.464844 C 291.683594 106.035156 290.839844 106.566406 289.972656 107.058594 C 289.105469 107.554688 288.214844 108.007812 287.304688 108.421875 C 286.398438 108.835938 285.472656 109.210938 284.527344 109.542969 C 283.585938 109.875 282.632812 110.164062 281.664062 110.410156 C 280.695312 110.65625 279.71875 110.859375 278.730469 111.015625 C 277.746094 111.175781 276.753906 111.292969 275.757812 111.363281 C 274.761719 111.433594 273.761719 111.457031 272.765625 111.4375 C 271.765625 111.421875 270.769531 111.355469 269.777344 111.25 C 268.78125 111.140625 267.796875 110.988281 266.816406 110.792969 C 265.835938 110.597656 264.867188 110.359375 263.910156 110.074219 C 262.953125 109.792969 262.007812 109.46875 261.078125 109.101562 C 260.148438 108.734375 259.238281 108.328125 258.347656 107.878906 C 257.453125 107.429688 256.582031 106.941406 255.734375 106.417969 C 254.882812 105.890625 254.058594 105.328125 253.261719 104.726562 C 253.980469 105.683594 254.746094 106.601562 255.5625 107.476562 C 256.382812 108.351562 257.242188 109.179688 258.148438 109.960938 C 259.054688 110.746094 260 111.476562 260.980469 112.15625 C 261.964844 112.839844 262.984375 113.464844 264.035156 114.039062 C 265.085938 114.613281 266.164062 115.125 267.269531 115.582031 C 268.375 116.039062 269.503906 116.4375 270.652344 116.773438 C 271.800781 117.109375 272.964844 117.382812 274.144531 117.59375 C 275.320312 117.808594 276.507812 117.953125 277.699219 118.039062 C 278.894531 118.125 280.089844 118.144531 281.285156 118.101562 C 282.480469 118.058594 283.671875 117.949219 284.855469 117.78125 C 286.042969 117.609375 287.214844 117.375 288.375 117.078125 C 289.53125 116.78125 290.671875 116.425781 291.796875 116.007812 C 292.917969 115.585938 294.011719 115.109375 295.082031 114.574219 C 296.152344 114.039062 297.191406 113.445312 298.199219 112.800781 C 299.203125 112.152344 300.175781 111.453125 301.105469 110.703125 C 302.039062 109.953125 302.925781 109.152344 303.773438 108.304688 C 304.621094 107.460938 305.417969 106.570312 306.171875 105.640625 C 306.921875 104.707031 307.621094 103.738281 308.269531 102.730469 C 308.914062 101.726562 309.507812 100.6875 310.042969 99.617188 C 310.578125 98.546875 311.054688 97.449219 311.476562 96.328125 C 311.894531 95.207031 312.25 94.066406 312.546875 92.90625 C 312.84375 91.75 313.078125 90.578125 313.25 89.390625 C 313.421875 88.207031 313.527344 87.015625 313.570312 85.820312 C 313.617188 84.625 313.59375 83.429688 313.511719 82.234375 C 313.425781 81.042969 313.277344 79.855469 313.066406 78.675781 C 312.855469 77.5 312.582031 76.335938 312.246094 75.1875 C 311.910156 74.039062 311.511719 72.910156 311.058594 71.804688 C 310.601562 70.699219 310.085938 69.621094 309.511719 68.566406 C 308.941406 67.515625 308.3125 66.5 307.632812 65.515625 C 306.949219 64.53125 306.21875 63.585938 305.4375 62.679688 C 304.652344 61.773438 303.824219 60.914062 302.949219 60.097656 C 302.074219 59.28125 301.160156 58.511719 300.203125 57.792969 Z M 300.203125 57.792969 " fill-opacity="1" fill-rule="nonzero"/><path fill="#702a1c" d="M 282.863281 61.269531 C 283.355469 61.679688 283.824219 62.117188 284.273438 62.574219 C 284.722656 63.03125 285.148438 63.511719 285.550781 64.011719 C 285.949219 64.511719 286.328125 65.03125 286.675781 65.566406 C 287.027344 66.101562 287.351562 66.65625 287.648438 67.222656 C 287.941406 67.792969 288.210938 68.375 288.449219 68.96875 C 288.6875 69.5625 288.898438 70.167969 289.078125 70.78125 C 289.257812 71.398438 289.40625 72.019531 289.527344 72.648438 C 289.644531 73.277344 289.730469 73.914062 289.789062 74.550781 C 289.84375 75.1875 289.871094 75.828125 289.863281 76.46875 C 289.855469 77.109375 289.820312 77.746094 289.75 78.382812 C 289.679688 79.019531 289.582031 79.652344 289.449219 80.277344 C 289.316406 80.90625 289.15625 81.523438 288.964844 82.132812 C 288.773438 82.746094 288.550781 83.34375 288.300781 83.933594 C 288.046875 84.523438 287.769531 85.097656 287.460938 85.65625 C 287.152344 86.21875 286.820312 86.761719 286.457031 87.292969 C 286.097656 87.820312 285.710938 88.328125 285.296875 88.820312 C 284.886719 89.308594 284.453125 89.777344 283.996094 90.226562 C 283.539062 90.671875 283.058594 91.097656 282.558594 91.496094 C 282.058594 91.898438 281.542969 92.269531 281.007812 92.621094 C 280.46875 92.96875 279.917969 93.292969 279.351562 93.585938 C 278.78125 93.882812 278.199219 94.148438 277.605469 94.386719 C 277.011719 94.625 276.40625 94.832031 275.792969 95.011719 C 275.179688 95.191406 274.554688 95.335938 273.925781 95.457031 C 273.296875 95.574219 272.664062 95.660156 272.023438 95.714844 C 271.386719 95.769531 270.746094 95.792969 270.105469 95.785156 C 269.464844 95.777344 268.828125 95.738281 268.191406 95.667969 C 267.554688 95.597656 266.921875 95.496094 266.292969 95.363281 C 265.667969 95.230469 265.046875 95.066406 264.4375 94.875 C 263.824219 94.679688 263.226562 94.457031 262.636719 94.207031 C 262.046875 93.953125 261.472656 93.671875 260.910156 93.363281 C 260.347656 93.054688 259.800781 92.722656 259.273438 92.359375 C 258.746094 91.996094 258.234375 91.609375 257.742188 91.195312 C 257.253906 90.785156 256.78125 90.347656 256.332031 89.890625 C 255.886719 89.433594 255.460938 88.953125 255.058594 88.453125 C 254.65625 87.953125 254.28125 87.4375 253.929688 86.898438 C 253.582031 86.363281 253.257812 85.808594 252.960938 85.242188 C 252.664062 84.671875 252.398438 84.089844 252.15625 83.496094 C 251.917969 82.902344 251.710938 82.296875 251.53125 81.683594 C 251.351562 81.066406 251.199219 80.445312 251.082031 79.816406 C 250.964844 79.1875 250.875 78.550781 250.820312 77.914062 C 250.761719 77.277344 250.738281 76.636719 250.746094 75.996094 C 250.75 75.355469 250.789062 74.71875 250.859375 74.082031 C 250.925781 73.445312 251.027344 72.8125 251.160156 72.1875 C 251.289062 71.558594 251.453125 70.941406 251.644531 70.332031 C 251.835938 69.71875 252.058594 69.121094 252.308594 68.53125 C 252.558594 67.945312 252.839844 67.367188 253.148438 66.808594 C 253.457031 66.246094 253.789062 65.703125 254.152344 65.175781 C 254.511719 64.644531 254.898438 64.136719 255.308594 63.648438 C 255.722656 63.15625 256.15625 62.6875 256.613281 62.242188 C 257.070312 61.792969 257.550781 61.371094 258.046875 60.96875 C 258.546875 60.570312 259.066406 60.195312 259.601562 59.84375 C 260.136719 59.496094 260.691406 59.171875 261.257812 58.878906 C 261.824219 58.582031 262.40625 58.316406 263 58.078125 C 263.597656 57.839844 264.199219 57.632812 264.816406 57.453125 C 265.429688 57.277344 266.050781 57.128906 266.683594 57.011719 C 267.3125 56.894531 267.945312 56.808594 268.582031 56.75 C 269.222656 56.695312 269.859375 56.671875 270.5 56.679688 C 271.140625 56.6875 271.78125 56.726562 272.417969 56.796875 C 273.054688 56.867188 273.6875 56.96875 274.3125 57.101562 C 274.941406 57.234375 275.558594 57.398438 276.171875 57.589844 C 276.78125 57.785156 277.382812 58.007812 277.972656 58.257812 C 278.5625 58.511719 279.136719 58.792969 279.699219 59.101562 C 280.261719 59.410156 280.804688 59.746094 281.335938 60.105469 C 281.863281 60.46875 282.375 60.855469 282.863281 61.269531 Z M 282.863281 61.269531 " fill-opacity="1" fill-rule="nonzero"/><path fill="#541a0c" d="M 313.800781 284.773438 C 313.800781 285.871094 313.746094 286.96875 313.636719 288.0625 C 313.53125 289.15625 313.367188 290.242188 313.15625 291.320312 C 312.941406 292.398438 312.671875 293.460938 312.355469 294.515625 C 312.035156 295.566406 311.664062 296.597656 311.246094 297.613281 C 310.824219 298.628906 310.355469 299.621094 309.835938 300.589844 C 309.320312 301.5625 308.753906 302.503906 308.144531 303.417969 C 307.535156 304.328125 306.878906 305.210938 306.183594 306.0625 C 305.484375 306.910156 304.75 307.722656 303.972656 308.5 C 303.195312 309.277344 302.382812 310.015625 301.53125 310.710938 C 300.683594 311.410156 299.800781 312.0625 298.886719 312.675781 C 297.972656 313.285156 297.03125 313.847656 296.0625 314.367188 C 295.09375 314.886719 294.101562 315.355469 293.085938 315.773438 C 292.070312 316.195312 291.035156 316.566406 289.984375 316.882812 C 288.933594 317.203125 287.867188 317.46875 286.789062 317.683594 C 285.710938 317.898438 284.625 318.058594 283.535156 318.167969 C 282.441406 318.273438 281.34375 318.328125 280.246094 318.328125 C 279.144531 318.328125 278.050781 318.273438 276.957031 318.167969 C 275.863281 318.058594 274.777344 317.898438 273.699219 317.683594 C 272.621094 317.46875 271.554688 317.203125 270.503906 316.882812 C 269.453125 316.566406 268.417969 316.195312 267.402344 315.773438 C 266.386719 315.355469 265.394531 314.886719 264.425781 314.367188 C 263.457031 313.847656 262.515625 313.285156 261.601562 312.675781 C 260.6875 312.0625 259.808594 311.410156 258.957031 310.710938 C 258.109375 310.015625 257.292969 309.277344 256.515625 308.5 C 255.738281 307.722656 255.003906 306.910156 254.304688 306.0625 C 253.609375 305.210938 252.953125 304.328125 252.34375 303.417969 C 251.734375 302.503906 251.167969 301.5625 250.652344 300.589844 C 250.132812 299.621094 249.664062 298.628906 249.242188 297.613281 C 248.824219 296.597656 248.453125 295.566406 248.132812 294.515625 C 247.816406 293.460938 247.546875 292.398438 247.332031 291.320312 C 247.121094 290.242188 246.957031 289.15625 246.851562 288.0625 C 246.742188 286.96875 246.6875 285.871094 246.6875 284.773438 C 246.6875 283.675781 246.742188 282.578125 246.851562 281.484375 C 246.957031 280.390625 247.121094 279.304688 247.332031 278.226562 C 247.546875 277.148438 247.816406 276.085938 248.132812 275.035156 C 248.453125 273.980469 248.824219 272.949219 249.242188 271.933594 C 249.664062 270.917969 250.132812 269.925781 250.652344 268.957031 C 251.167969 267.988281 251.734375 267.046875 252.34375 266.132812 C 252.953125 265.21875 253.609375 264.335938 254.304688 263.488281 C 255.003906 262.636719 255.738281 261.824219 256.515625 261.046875 C 257.292969 260.269531 258.109375 259.53125 258.957031 258.835938 C 259.804688 258.136719 260.6875 257.484375 261.601562 256.875 C 262.515625 256.261719 263.457031 255.699219 264.425781 255.179688 C 265.394531 254.664062 266.386719 254.195312 267.402344 253.773438 C 268.417969 253.351562 269.453125 252.984375 270.503906 252.664062 C 271.554688 252.34375 272.621094 252.078125 273.699219 251.863281 C 274.777344 251.648438 275.863281 251.488281 276.957031 251.378906 C 278.050781 251.273438 279.144531 251.21875 280.246094 251.21875 C 281.34375 251.21875 282.441406 251.273438 283.535156 251.378906 C 284.625 251.488281 285.710938 251.648438 286.789062 251.863281 C 287.867188 252.078125 288.933594 252.34375 289.984375 252.664062 C 291.035156 252.984375 292.070312 253.351562 293.085938 253.773438 C 294.101562 254.195312 295.09375 254.664062 296.0625 255.179688 C 297.03125 255.699219 297.972656 256.261719 298.886719 256.875 C 299.800781 257.484375 300.683594 258.136719 301.53125 258.835938 C 302.382812 259.53125 303.195312 260.269531 303.972656 261.046875 C 304.75 261.824219 305.484375 262.636719 306.183594 263.488281 C 306.878906 264.335938 307.535156 265.21875 308.144531 266.132812 C 308.753906 267.046875 309.320312 267.988281 309.835938 268.957031 C 310.355469 269.925781 310.824219 270.917969 311.246094 271.933594 C 311.664062 272.949219 312.035156 273.980469 312.355469 275.035156 C 312.671875 276.085938 312.941406 277.148438 313.15625 278.226562 C 313.367188 279.304688 313.53125 280.390625 313.636719 281.484375 C 313.746094 282.578125 313.800781 283.675781 313.800781 284.773438 Z M 313.800781 284.773438 " fill-opacity="1" fill-rule="nonzero"/><path fill="#350802" d="M 300.203125 257.800781 C 300.800781 258.597656 301.367188 259.421875 301.890625 260.269531 C 302.417969 261.121094 302.90625 261.992188 303.351562 262.882812 C 303.800781 263.777344 304.210938 264.6875 304.574219 265.617188 C 304.941406 266.546875 305.265625 267.492188 305.550781 268.449219 C 305.832031 269.40625 306.070312 270.375 306.265625 271.355469 C 306.464844 272.335938 306.613281 273.320312 306.722656 274.316406 C 306.828125 275.308594 306.894531 276.304688 306.910156 277.304688 C 306.929688 278.300781 306.90625 279.300781 306.832031 280.296875 C 306.761719 281.292969 306.648438 282.285156 306.488281 283.269531 C 306.328125 284.257812 306.125 285.234375 305.878906 286.203125 C 305.632812 287.171875 305.34375 288.125 305.011719 289.066406 C 304.679688 290.007812 304.308594 290.933594 303.890625 291.84375 C 303.476562 292.753906 303.023438 293.640625 302.527344 294.511719 C 302.035156 295.378906 301.503906 296.222656 300.933594 297.042969 C 300.363281 297.863281 299.757812 298.65625 299.117188 299.425781 C 298.476562 300.191406 297.804688 300.925781 297.097656 301.632812 C 296.390625 302.339844 295.652344 303.011719 294.886719 303.652344 C 294.121094 304.292969 293.328125 304.898438 292.503906 305.46875 C 291.683594 306.039062 290.839844 306.570312 289.972656 307.0625 C 289.105469 307.558594 288.214844 308.011719 287.304688 308.425781 C 286.398438 308.84375 285.472656 309.214844 284.527344 309.546875 C 283.585938 309.878906 282.632812 310.167969 281.664062 310.414062 C 280.695312 310.660156 279.71875 310.863281 278.730469 311.023438 C 277.746094 311.183594 276.753906 311.296875 275.757812 311.367188 C 274.761719 311.4375 273.761719 311.464844 272.765625 311.445312 C 271.765625 311.425781 270.769531 311.363281 269.777344 311.253906 C 268.78125 311.148438 267.796875 310.996094 266.816406 310.800781 C 265.835938 310.601562 264.867188 310.363281 263.910156 310.082031 C 262.953125 309.796875 262.007812 309.472656 261.078125 309.105469 C 260.148438 308.738281 259.238281 308.332031 258.347656 307.882812 C 257.453125 307.433594 256.582031 306.949219 255.734375 306.421875 C 254.882812 305.894531 254.058594 305.332031 253.261719 304.730469 C 253.980469 305.691406 254.746094 306.605469 255.5625 307.480469 C 256.382812 308.355469 257.242188 309.183594 258.148438 309.96875 C 259.054688 310.75 260 311.480469 260.980469 312.164062 C 261.964844 312.84375 262.984375 313.472656 264.035156 314.042969 C 265.085938 314.617188 266.164062 315.132812 267.269531 315.589844 C 268.375 316.046875 269.503906 316.441406 270.652344 316.777344 C 271.800781 317.113281 272.964844 317.386719 274.144531 317.601562 C 275.320312 317.8125 276.507812 317.960938 277.699219 318.042969 C 278.894531 318.128906 280.089844 318.148438 281.285156 318.105469 C 282.480469 318.0625 283.671875 317.957031 284.855469 317.785156 C 286.042969 317.613281 287.214844 317.378906 288.375 317.082031 C 289.53125 316.789062 290.671875 316.429688 291.792969 316.011719 C 292.917969 315.59375 294.011719 315.117188 295.082031 314.578125 C 296.152344 314.042969 297.191406 313.453125 298.199219 312.804688 C 299.203125 312.15625 300.175781 311.457031 301.105469 310.707031 C 302.039062 309.957031 302.925781 309.15625 303.773438 308.3125 C 304.621094 307.464844 305.417969 306.578125 306.167969 305.644531 C 306.921875 304.710938 307.621094 303.742188 308.269531 302.738281 C 308.914062 301.730469 309.507812 300.691406 310.042969 299.621094 C 310.578125 298.550781 311.054688 297.457031 311.476562 296.335938 C 311.894531 295.214844 312.25 294.074219 312.546875 292.914062 C 312.84375 291.753906 313.078125 290.582031 313.25 289.398438 C 313.421875 288.210938 313.527344 287.023438 313.570312 285.824219 C 313.617188 284.628906 313.59375 283.433594 313.511719 282.242188 C 313.425781 281.046875 313.277344 279.859375 313.066406 278.683594 C 312.855469 277.503906 312.582031 276.339844 312.246094 275.191406 C 311.910156 274.042969 311.511719 272.917969 311.058594 271.808594 C 310.601562 270.703125 310.085938 269.625 309.511719 268.574219 C 308.941406 267.523438 308.3125 266.503906 307.632812 265.519531 C 306.949219 264.535156 306.21875 263.589844 305.4375 262.6875 C 304.652344 261.78125 303.824219 260.917969 302.949219 260.101562 C 302.074219 259.285156 301.160156 258.519531 300.203125 257.800781 Z M 300.203125 257.800781 " fill-opacity="1" fill-rule="nonzero"/><path fill="#702a1c" d="M 282.859375 263.976562 C 283.351562 264.390625 283.820312 264.824219 284.269531 265.285156 C 284.71875 265.742188 285.140625 266.222656 285.542969 266.722656 C 285.945312 267.222656 286.320312 267.738281 286.671875 268.277344 C 287.019531 268.8125 287.34375 269.367188 287.640625 269.933594 C 287.9375 270.503906 288.203125 271.082031 288.445312 271.679688 C 288.683594 272.273438 288.894531 272.878906 289.074219 273.492188 C 289.253906 274.109375 289.402344 274.730469 289.519531 275.359375 C 289.640625 275.988281 289.726562 276.621094 289.78125 277.261719 C 289.839844 277.898438 289.863281 278.539062 289.859375 279.179688 C 289.851562 279.820312 289.8125 280.457031 289.742188 281.09375 C 289.675781 281.730469 289.574219 282.363281 289.441406 282.988281 C 289.3125 283.613281 289.148438 284.234375 288.957031 284.84375 C 288.765625 285.453125 288.542969 286.054688 288.292969 286.644531 C 288.042969 287.230469 287.761719 287.804688 287.453125 288.367188 C 287.148438 288.929688 286.8125 289.472656 286.453125 290 C 286.089844 290.53125 285.703125 291.039062 285.292969 291.527344 C 284.882812 292.019531 284.445312 292.488281 283.988281 292.933594 C 283.53125 293.382812 283.054688 293.804688 282.554688 294.207031 C 282.054688 294.605469 281.535156 294.980469 281 295.332031 C 280.464844 295.679688 279.910156 296.003906 279.34375 296.296875 C 278.777344 296.59375 278.195312 296.859375 277.601562 297.097656 C 277.007812 297.335938 276.402344 297.542969 275.785156 297.722656 C 275.171875 297.898438 274.550781 298.046875 273.921875 298.164062 C 273.289062 298.28125 272.65625 298.367188 272.019531 298.425781 C 271.378906 298.480469 270.742188 298.503906 270.101562 298.496094 C 269.460938 298.488281 268.820312 298.449219 268.183594 298.378906 C 267.546875 298.308594 266.914062 298.207031 266.289062 298.074219 C 265.660156 297.941406 265.042969 297.777344 264.429688 297.585938 C 263.820312 297.390625 263.21875 297.167969 262.628906 296.917969 C 262.042969 296.664062 261.464844 296.382812 260.902344 296.074219 C 260.34375 295.765625 259.796875 295.429688 259.265625 295.070312 C 258.738281 294.707031 258.226562 294.320312 257.738281 293.90625 C 257.246094 293.496094 256.777344 293.058594 256.328125 292.601562 C 255.878906 292.144531 255.453125 291.664062 255.054688 291.164062 C 254.652344 290.664062 254.277344 290.144531 253.925781 289.609375 C 253.574219 289.074219 253.25 288.519531 252.957031 287.953125 C 252.660156 287.382812 252.390625 286.800781 252.152344 286.207031 C 251.914062 285.613281 251.703125 285.007812 251.523438 284.394531 C 251.34375 283.777344 251.195312 283.15625 251.074219 282.527344 C 250.957031 281.894531 250.871094 281.261719 250.8125 280.625 C 250.757812 279.988281 250.730469 279.347656 250.738281 278.707031 C 250.746094 278.066406 250.78125 277.429688 250.851562 276.792969 C 250.921875 276.15625 251.023438 275.523438 251.152344 274.898438 C 251.285156 274.269531 251.445312 273.652344 251.636719 273.042969 C 251.832031 272.429688 252.050781 271.832031 252.304688 271.242188 C 252.554688 270.652344 252.832031 270.078125 253.140625 269.519531 C 253.449219 268.957031 253.785156 268.414062 254.144531 267.882812 C 254.507812 267.355469 254.894531 266.847656 255.304688 266.355469 C 255.714844 265.867188 256.148438 265.398438 256.605469 264.949219 C 257.066406 264.503906 257.542969 264.078125 258.042969 263.679688 C 258.542969 263.277344 259.058594 262.902344 259.597656 262.554688 C 260.132812 262.207031 260.683594 261.882812 261.253906 261.589844 C 261.820312 261.292969 262.402344 261.027344 262.996094 260.789062 C 263.589844 260.550781 264.195312 260.34375 264.808594 260.164062 C 265.425781 259.984375 266.046875 259.835938 266.675781 259.71875 C 267.304688 259.601562 267.941406 259.515625 268.578125 259.460938 C 269.214844 259.40625 269.855469 259.382812 270.496094 259.390625 C 271.136719 259.398438 271.773438 259.4375 272.410156 259.507812 C 273.046875 259.578125 273.679688 259.679688 274.308594 259.8125 C 274.933594 259.945312 275.554688 260.109375 276.164062 260.300781 C 276.777344 260.496094 277.375 260.71875 277.964844 260.96875 C 278.554688 261.222656 279.128906 261.5 279.691406 261.808594 C 280.253906 262.121094 280.800781 262.453125 281.328125 262.816406 C 281.859375 263.179688 282.367188 263.566406 282.859375 263.976562 Z M 282.859375 263.976562 " fill-opacity="1" fill-rule="nonzero"/><path fill="#541a0c" d="M 122.011719 84.769531 C 122.011719 85.867188 121.957031 86.964844 121.851562 88.058594 C 121.742188 89.152344 121.582031 90.238281 121.367188 91.316406 C 121.152344 92.394531 120.886719 93.457031 120.566406 94.507812 C 120.246094 95.5625 119.878906 96.59375 119.457031 97.609375 C 119.035156 98.625 118.566406 99.617188 118.050781 100.585938 C 117.53125 101.554688 116.96875 102.496094 116.355469 103.410156 C 115.746094 104.324219 115.09375 105.207031 114.394531 106.054688 C 113.699219 106.90625 112.960938 107.71875 112.183594 108.496094 C 111.40625 109.273438 110.59375 110.011719 109.742188 110.707031 C 108.894531 111.40625 108.011719 112.058594 107.097656 112.667969 C 106.183594 113.277344 105.242188 113.84375 104.273438 114.363281 C 103.304688 114.878906 102.3125 115.347656 101.296875 115.769531 C 100.28125 116.191406 99.25 116.558594 98.195312 116.878906 C 97.144531 117.199219 96.082031 117.464844 95.003906 117.679688 C 93.925781 117.894531 92.839844 118.054688 91.746094 118.164062 C 90.652344 118.269531 89.554688 118.324219 88.457031 118.324219 C 87.355469 118.324219 86.261719 118.269531 85.167969 118.164062 C 84.074219 118.054688 82.988281 117.894531 81.910156 117.679688 C 80.832031 117.464844 79.765625 117.199219 78.714844 116.878906 C 77.664062 116.558594 76.628906 116.191406 75.617188 115.769531 C 74.601562 115.347656 73.609375 114.878906 72.636719 114.363281 C 71.667969 113.84375 70.726562 113.277344 69.8125 112.667969 C 68.898438 112.058594 68.019531 111.40625 67.167969 110.707031 C 66.320312 110.011719 65.507812 109.273438 64.730469 108.496094 C 63.953125 107.71875 63.214844 106.90625 62.519531 106.054688 C 61.820312 105.207031 61.167969 104.324219 60.554688 103.410156 C 59.945312 102.496094 59.382812 101.554688 58.863281 100.585938 C 58.34375 99.617188 57.875 98.625 57.457031 97.609375 C 57.035156 96.59375 56.664062 95.5625 56.347656 94.507812 C 56.027344 93.457031 55.761719 92.394531 55.546875 91.316406 C 55.332031 90.238281 55.171875 89.152344 55.0625 88.058594 C 54.957031 86.964844 54.902344 85.867188 54.902344 84.769531 C 54.902344 83.667969 54.957031 82.574219 55.0625 81.480469 C 55.171875 80.386719 55.332031 79.300781 55.546875 78.222656 C 55.761719 77.144531 56.027344 76.078125 56.347656 75.027344 C 56.664062 73.976562 57.035156 72.941406 57.457031 71.925781 C 57.875 70.914062 58.34375 69.921875 58.863281 68.949219 C 59.382812 67.980469 59.945312 67.039062 60.554688 66.125 C 61.167969 65.210938 61.820312 64.332031 62.519531 63.480469 C 63.214844 62.632812 63.953125 61.820312 64.730469 61.042969 C 65.507812 60.265625 66.320312 59.527344 67.167969 58.832031 C 68.019531 58.132812 68.898438 57.480469 69.8125 56.867188 C 70.726562 56.257812 71.667969 55.695312 72.636719 55.175781 C 73.609375 54.65625 74.601562 54.1875 75.617188 53.769531 C 76.628906 53.347656 77.664062 52.976562 78.714844 52.660156 C 79.765625 52.339844 80.832031 52.074219 81.910156 51.859375 C 82.988281 51.644531 84.074219 51.484375 85.167969 51.375 C 86.261719 51.265625 87.355469 51.214844 88.457031 51.214844 C 89.554688 51.214844 90.652344 51.265625 91.746094 51.375 C 92.839844 51.484375 93.925781 51.644531 95.003906 51.859375 C 96.082031 52.074219 97.144531 52.339844 98.195312 52.660156 C 99.25 52.976562 100.28125 53.347656 101.296875 53.769531 C 102.3125 54.1875 103.304688 54.65625 104.273438 55.175781 C 105.242188 55.695312 106.183594 56.257812 107.097656 56.867188 C 108.011719 57.480469 108.894531 58.132812 109.742188 58.832031 C 110.59375 59.527344 111.40625 60.265625 112.183594 61.042969 C 112.960938 61.820312 113.699219 62.632812 114.394531 63.480469 C 115.09375 64.332031 115.746094 65.210938 116.355469 66.125 C 116.96875 67.039062 117.53125 67.980469 118.050781 68.949219 C 118.566406 69.921875 119.035156 70.914062 119.457031 71.925781 C 119.878906 72.941406 120.246094 73.976562 120.566406 75.027344 C 120.886719 76.078125 121.152344 77.144531 121.367188 78.222656 C 121.582031 79.300781 121.742188 80.386719 121.851562 81.480469 C 121.957031 82.574219 122.011719 83.667969 122.011719 84.769531 Z M 122.011719 84.769531 " fill-opacity="1" fill-rule="nonzero"/><path fill="#350802" d="M 108.414062 57.792969 C 109.015625 58.59375 109.578125 59.417969 110.105469 60.265625 C 110.628906 61.113281 111.117188 61.984375 111.566406 62.878906 C 112.011719 63.773438 112.421875 64.683594 112.789062 65.613281 C 113.15625 66.542969 113.480469 67.484375 113.761719 68.445312 C 114.042969 69.402344 114.285156 70.371094 114.480469 71.351562 C 114.675781 72.328125 114.828125 73.316406 114.933594 74.308594 C 115.042969 75.304688 115.105469 76.300781 115.125 77.296875 C 115.140625 78.296875 115.117188 79.292969 115.046875 80.289062 C 114.976562 81.289062 114.859375 82.277344 114.699219 83.265625 C 114.542969 84.25 114.339844 85.230469 114.09375 86.195312 C 113.84375 87.164062 113.554688 88.121094 113.222656 89.0625 C 112.890625 90.003906 112.519531 90.929688 112.105469 91.839844 C 111.6875 92.746094 111.234375 93.636719 110.742188 94.503906 C 110.246094 95.371094 109.714844 96.21875 109.144531 97.039062 C 108.574219 97.859375 107.96875 98.652344 107.328125 99.417969 C 106.6875 100.183594 106.015625 100.921875 105.308594 101.628906 C 104.601562 102.335938 103.867188 103.007812 103.097656 103.648438 C 102.332031 104.289062 101.539062 104.894531 100.71875 105.464844 C 99.898438 106.035156 99.050781 106.566406 98.183594 107.058594 C 97.316406 107.554688 96.425781 108.007812 95.519531 108.421875 C 94.609375 108.835938 93.683594 109.210938 92.742188 109.542969 C 91.800781 109.875 90.84375 110.164062 89.875 110.410156 C 88.90625 110.65625 87.929688 110.859375 86.945312 111.015625 C 85.957031 111.175781 84.964844 111.292969 83.96875 111.363281 C 82.972656 111.433594 81.976562 111.457031 80.976562 111.4375 C 79.976562 111.421875 78.980469 111.355469 77.988281 111.25 C 76.996094 111.140625 76.007812 110.988281 75.027344 110.792969 C 74.050781 110.597656 73.082031 110.359375 72.121094 110.074219 C 71.164062 109.792969 70.21875 109.46875 69.292969 109.101562 C 68.363281 108.734375 67.449219 108.328125 66.558594 107.878906 C 65.664062 107.429688 64.792969 106.941406 63.945312 106.417969 C 63.097656 105.890625 62.273438 105.328125 61.472656 104.726562 C 62.191406 105.683594 62.960938 106.601562 63.777344 107.476562 C 64.59375 108.351562 65.453125 109.179688 66.359375 109.960938 C 67.265625 110.746094 68.210938 111.476562 69.195312 112.15625 C 70.179688 112.839844 71.195312 113.464844 72.246094 114.039062 C 73.296875 114.613281 74.375 115.125 75.484375 115.582031 C 76.589844 116.039062 77.714844 116.4375 78.863281 116.773438 C 80.015625 117.109375 81.175781 117.382812 82.355469 117.59375 C 83.53125 117.808594 84.71875 117.953125 85.914062 118.039062 C 87.105469 118.125 88.300781 118.144531 89.5 118.101562 C 90.695312 118.058594 91.882812 117.949219 93.070312 117.78125 C 94.253906 117.609375 95.425781 117.375 96.585938 117.078125 C 97.746094 116.78125 98.886719 116.425781 100.007812 116.007812 C 101.128906 115.585938 102.222656 115.109375 103.292969 114.574219 C 104.363281 114.039062 105.402344 113.445312 106.410156 112.800781 C 107.417969 112.152344 108.386719 111.453125 109.316406 110.703125 C 110.25 109.953125 111.140625 109.152344 111.984375 108.304688 C 112.832031 107.460938 113.628906 106.570312 114.382812 105.640625 C 115.132812 104.707031 115.832031 103.738281 116.480469 102.730469 C 117.128906 101.722656 117.71875 100.6875 118.253906 99.617188 C 118.792969 98.546875 119.269531 97.449219 119.6875 96.328125 C 120.105469 95.207031 120.464844 94.066406 120.761719 92.90625 C 121.058594 91.75 121.292969 90.578125 121.460938 89.390625 C 121.632812 88.207031 121.742188 87.015625 121.785156 85.820312 C 121.828125 84.625 121.808594 83.429688 121.722656 82.234375 C 121.636719 81.042969 121.492188 79.855469 121.277344 78.675781 C 121.066406 77.5 120.792969 76.335938 120.457031 75.1875 C 120.121094 74.039062 119.726562 72.910156 119.269531 71.804688 C 118.8125 70.699219 118.296875 69.621094 117.726562 68.566406 C 117.152344 67.515625 116.527344 66.5 115.84375 65.515625 C 115.164062 64.53125 114.429688 63.585938 113.648438 62.679688 C 112.867188 61.773438 112.039062 60.914062 111.164062 60.097656 C 110.289062 59.28125 109.371094 58.511719 108.414062 57.792969 Z M 108.414062 57.792969 " fill-opacity="1" fill-rule="nonzero"/><path fill="#702a1c" d="M 93.410156 61.261719 C 93.898438 61.675781 94.371094 62.109375 94.816406 62.566406 C 95.265625 63.027344 95.691406 63.503906 96.09375 64.003906 C 96.492188 64.503906 96.871094 65.023438 97.21875 65.558594 C 97.570312 66.097656 97.894531 66.648438 98.191406 67.21875 C 98.488281 67.785156 98.753906 68.367188 98.992188 68.960938 C 99.234375 69.554688 99.441406 70.160156 99.621094 70.777344 C 99.800781 71.390625 99.949219 72.011719 100.070312 72.644531 C 100.1875 73.273438 100.277344 73.90625 100.332031 74.542969 C 100.386719 75.183594 100.414062 75.820312 100.40625 76.460938 C 100.398438 77.101562 100.363281 77.742188 100.292969 78.378906 C 100.222656 79.015625 100.125 79.644531 99.992188 80.273438 C 99.859375 80.898438 99.699219 81.515625 99.507812 82.128906 C 99.316406 82.738281 99.09375 83.335938 98.84375 83.925781 C 98.589844 84.515625 98.3125 85.089844 98.003906 85.652344 C 97.695312 86.210938 97.363281 86.757812 97 87.285156 C 96.640625 87.8125 96.253906 88.320312 95.839844 88.8125 C 95.429688 89.300781 94.996094 89.769531 94.539062 90.21875 C 94.082031 90.664062 93.601562 91.089844 93.101562 91.488281 C 92.605469 91.890625 92.085938 92.265625 91.550781 92.613281 C 91.011719 92.964844 90.460938 93.285156 89.894531 93.582031 C 89.324219 93.875 88.746094 94.140625 88.148438 94.378906 C 87.554688 94.617188 86.949219 94.828125 86.335938 95.003906 C 85.722656 95.183594 85.097656 95.332031 84.46875 95.449219 C 83.839844 95.566406 83.207031 95.652344 82.566406 95.707031 C 81.929688 95.761719 81.289062 95.785156 80.648438 95.777344 C 80.007812 95.769531 79.371094 95.730469 78.734375 95.660156 C 78.097656 95.589844 77.464844 95.488281 76.835938 95.355469 C 76.210938 95.222656 75.589844 95.0625 74.980469 94.867188 C 74.371094 94.675781 73.769531 94.453125 73.179688 94.199219 C 72.589844 93.949219 72.015625 93.667969 71.453125 93.359375 C 70.890625 93.050781 70.34375 92.714844 69.816406 92.351562 C 69.289062 91.988281 68.777344 91.601562 68.285156 91.191406 C 67.796875 90.777344 67.324219 90.34375 66.878906 89.882812 C 66.429688 89.425781 66.003906 88.949219 65.601562 88.449219 C 65.199219 87.949219 64.824219 87.429688 64.476562 86.890625 C 64.125 86.355469 63.800781 85.804688 63.503906 85.234375 C 63.207031 84.667969 62.941406 84.085938 62.703125 83.492188 C 62.460938 82.894531 62.253906 82.292969 62.074219 81.675781 C 61.894531 81.0625 61.742188 80.4375 61.625 79.808594 C 61.507812 79.179688 61.417969 78.546875 61.363281 77.90625 C 61.304688 77.269531 61.28125 76.628906 61.289062 75.988281 C 61.292969 75.351562 61.332031 74.710938 61.402344 74.074219 C 61.472656 73.4375 61.570312 72.808594 61.703125 72.179688 C 61.832031 71.554688 61.996094 70.933594 62.1875 70.324219 C 62.378906 69.714844 62.601562 69.113281 62.851562 68.527344 C 63.105469 67.9375 63.382812 67.363281 63.691406 66.800781 C 64 66.238281 64.332031 65.695312 64.695312 65.167969 C 65.054688 64.640625 65.441406 64.128906 65.851562 63.640625 C 66.265625 63.148438 66.699219 62.679688 67.15625 62.234375 C 67.613281 61.785156 68.09375 61.363281 68.59375 60.960938 C 69.089844 60.5625 69.609375 60.1875 70.144531 59.839844 C 70.679688 59.488281 71.234375 59.167969 71.800781 58.871094 C 72.371094 58.578125 72.949219 58.308594 73.542969 58.070312 C 74.140625 57.835938 74.742188 57.625 75.359375 57.449219 C 75.972656 57.269531 76.597656 57.121094 77.226562 57.003906 C 77.855469 56.886719 78.488281 56.800781 79.125 56.746094 C 79.765625 56.691406 80.40625 56.667969 81.046875 56.675781 C 81.683594 56.683594 82.324219 56.722656 82.960938 56.792969 C 83.597656 56.863281 84.230469 56.964844 84.855469 57.09375 C 85.484375 57.226562 86.101562 57.390625 86.714844 57.585938 C 87.324219 57.777344 87.925781 58 88.515625 58.253906 C 89.105469 58.503906 89.679688 58.785156 90.242188 59.09375 C 90.804688 59.402344 91.347656 59.738281 91.878906 60.101562 C 92.40625 60.460938 92.917969 60.847656 93.410156 61.261719 Z M 93.410156 61.261719 " fill-opacity="1" fill-rule="nonzero"/><path fill="#541a0c" d="M 122.011719 287.890625 C 122.011719 288.992188 121.957031 290.085938 121.851562 291.179688 C 121.742188 292.273438 121.582031 293.359375 121.367188 294.4375 C 121.152344 295.515625 120.886719 296.582031 120.566406 297.632812 C 120.246094 298.683594 119.878906 299.71875 119.457031 300.734375 C 119.035156 301.75 118.566406 302.742188 118.050781 303.710938 C 117.53125 304.679688 116.96875 305.621094 116.355469 306.535156 C 115.746094 307.449219 115.09375 308.328125 114.394531 309.179688 C 113.699219 310.027344 112.960938 310.84375 112.183594 311.621094 C 111.40625 312.398438 110.59375 313.132812 109.742188 313.832031 C 108.894531 314.527344 108.011719 315.183594 107.097656 315.792969 C 106.183594 316.402344 105.242188 316.96875 104.273438 317.484375 C 103.304688 318.003906 102.3125 318.472656 101.296875 318.894531 C 100.28125 319.3125 99.25 319.683594 98.195312 320.003906 C 97.144531 320.320312 96.082031 320.589844 95.003906 320.800781 C 93.925781 321.015625 92.839844 321.179688 91.746094 321.285156 C 90.652344 321.394531 89.554688 321.449219 88.457031 321.449219 C 87.355469 321.449219 86.261719 321.394531 85.167969 321.285156 C 84.074219 321.179688 82.988281 321.015625 81.910156 320.800781 C 80.832031 320.589844 79.765625 320.320312 78.714844 320.003906 C 77.664062 319.683594 76.628906 319.3125 75.617188 318.894531 C 74.601562 318.472656 73.609375 318.003906 72.636719 317.484375 C 71.667969 316.96875 70.726562 316.402344 69.8125 315.792969 C 68.898438 315.183594 68.019531 314.527344 67.167969 313.832031 C 66.320312 313.132812 65.507812 312.398438 64.730469 311.621094 C 63.953125 310.84375 63.214844 310.027344 62.519531 309.179688 C 61.820312 308.328125 61.167969 307.449219 60.554688 306.535156 C 59.945312 305.621094 59.382812 304.679688 58.863281 303.710938 C 58.34375 302.742188 57.875 301.75 57.457031 300.734375 C 57.035156 299.71875 56.664062 298.683594 56.347656 297.632812 C 56.027344 296.582031 55.761719 295.515625 55.546875 294.4375 C 55.332031 293.359375 55.171875 292.273438 55.0625 291.179688 C 54.957031 290.085938 54.902344 288.992188 54.902344 287.890625 C 54.902344 286.792969 54.957031 285.695312 55.0625 284.601562 C 55.171875 283.507812 55.332031 282.425781 55.546875 281.347656 C 55.761719 280.269531 56.027344 279.203125 56.347656 278.152344 C 56.664062 277.101562 57.035156 276.066406 57.457031 275.050781 C 57.875 274.035156 58.34375 273.042969 58.863281 272.074219 C 59.382812 271.105469 59.945312 270.164062 60.554688 269.25 C 61.167969 268.335938 61.820312 267.453125 62.519531 266.605469 C 63.214844 265.753906 63.953125 264.941406 64.730469 264.164062 C 65.507812 263.386719 66.320312 262.652344 67.167969 261.953125 C 68.019531 261.257812 68.898438 260.601562 69.8125 259.992188 C 70.726562 259.382812 71.667969 258.816406 72.636719 258.300781 C 73.609375 257.78125 74.601562 257.3125 75.617188 256.890625 C 76.628906 256.472656 77.664062 256.101562 78.714844 255.78125 C 79.765625 255.464844 80.832031 255.195312 81.910156 254.980469 C 82.988281 254.769531 84.074219 254.605469 85.167969 254.5 C 86.261719 254.390625 87.355469 254.335938 88.457031 254.335938 C 89.554688 254.335938 90.652344 254.390625 91.746094 254.5 C 92.839844 254.605469 93.925781 254.769531 95.003906 254.980469 C 96.082031 255.195312 97.144531 255.464844 98.195312 255.78125 C 99.25 256.101562 100.28125 256.472656 101.296875 256.890625 C 102.3125 257.3125 103.304688 257.78125 104.273438 258.300781 C 105.242188 258.816406 106.183594 259.382812 107.097656 259.992188 C 108.011719 260.601562 108.894531 261.257812 109.742188 261.953125 C 110.59375 262.652344 111.40625 263.386719 112.183594 264.164062 C 112.960938 264.941406 113.699219 265.753906 114.394531 266.605469 C 115.09375 267.453125 115.746094 268.335938 116.355469 269.25 C 116.96875 270.164062 117.53125 271.105469 118.050781 272.074219 C 118.566406 273.042969 119.035156 274.035156 119.457031 275.050781 C 119.878906 276.066406 120.246094 277.101562 120.566406 278.152344 C 120.886719 279.203125 121.152344 280.269531 121.367188 281.347656 C 121.582031 282.425781 121.742188 283.507812 121.851562 284.601562 C 121.957031 285.695312 122.011719 286.792969 122.011719 287.890625 Z M 122.011719 287.890625 " fill-opacity="1" fill-rule="nonzero"/><path fill="#350802" d="M 108.414062 260.917969 C 109.015625 261.714844 109.578125 262.539062 110.105469 263.390625 C 110.628906 264.238281 111.117188 265.109375 111.566406 266.003906 C 112.011719 266.894531 112.421875 267.804688 112.789062 268.734375 C 113.15625 269.664062 113.480469 270.609375 113.761719 271.566406 C 114.042969 272.527344 114.285156 273.496094 114.480469 274.472656 C 114.675781 275.453125 114.828125 276.441406 114.933594 277.433594 C 115.042969 278.425781 115.105469 279.421875 115.125 280.421875 C 115.140625 281.421875 115.117188 282.417969 115.046875 283.414062 C 114.976562 284.410156 114.859375 285.402344 114.699219 286.390625 C 114.542969 287.375 114.339844 288.351562 114.09375 289.320312 C 113.84375 290.289062 113.554688 291.242188 113.222656 292.1875 C 112.890625 293.128906 112.519531 294.054688 112.105469 294.960938 C 111.6875 295.871094 111.234375 296.761719 110.742188 297.628906 C 110.246094 298.496094 109.714844 299.339844 109.144531 300.160156 C 108.574219 300.984375 107.96875 301.777344 107.328125 302.542969 C 106.6875 303.308594 106.015625 304.046875 105.308594 304.753906 C 104.601562 305.457031 103.867188 306.132812 103.097656 306.773438 C 102.332031 307.414062 101.539062 308.019531 100.71875 308.585938 C 99.898438 309.15625 99.050781 309.6875 98.183594 310.183594 C 97.316406 310.675781 96.425781 311.132812 95.519531 311.546875 C 94.609375 311.960938 93.683594 312.332031 92.742188 312.664062 C 91.800781 312.996094 90.84375 313.285156 89.875 313.53125 C 88.90625 313.78125 87.929688 313.980469 86.945312 314.140625 C 85.957031 314.300781 84.964844 314.414062 83.96875 314.484375 C 82.972656 314.554688 81.976562 314.582031 80.976562 314.5625 C 79.976562 314.542969 78.980469 314.480469 77.988281 314.375 C 76.996094 314.265625 76.007812 314.113281 75.027344 313.917969 C 74.050781 313.722656 73.082031 313.480469 72.121094 313.199219 C 71.164062 312.917969 70.21875 312.59375 69.292969 312.226562 C 68.363281 311.859375 67.449219 311.449219 66.558594 311.003906 C 65.664062 310.554688 64.792969 310.066406 63.945312 309.539062 C 63.097656 309.015625 62.273438 308.449219 61.472656 307.851562 C 62.191406 308.808594 62.960938 309.722656 63.777344 310.597656 C 64.59375 311.472656 65.453125 312.304688 66.359375 313.085938 C 67.265625 313.867188 68.210938 314.601562 69.195312 315.28125 C 70.179688 315.964844 71.195312 316.589844 72.246094 317.164062 C 73.296875 317.734375 74.375 318.25 75.484375 318.707031 C 76.589844 319.164062 77.714844 319.5625 78.863281 319.898438 C 80.015625 320.234375 81.175781 320.507812 82.355469 320.71875 C 83.53125 320.929688 84.71875 321.078125 85.914062 321.164062 C 87.105469 321.246094 88.300781 321.269531 89.5 321.226562 C 90.695312 321.179688 91.882812 321.074219 93.070312 320.902344 C 94.253906 320.734375 95.425781 320.5 96.585938 320.203125 C 97.746094 319.90625 98.886719 319.546875 100.007812 319.128906 C 101.128906 318.710938 102.222656 318.234375 103.292969 317.699219 C 104.363281 317.164062 105.402344 316.570312 106.410156 315.921875 C 107.417969 315.277344 108.386719 314.578125 109.316406 313.824219 C 110.25 313.074219 111.140625 312.277344 111.984375 311.429688 C 112.832031 310.582031 113.628906 309.695312 114.382812 308.761719 C 115.132812 307.832031 115.832031 306.863281 116.480469 305.855469 C 117.128906 304.847656 117.71875 303.808594 118.253906 302.738281 C 118.792969 301.667969 119.269531 300.574219 119.6875 299.453125 C 120.105469 298.332031 120.464844 297.191406 120.761719 296.03125 C 121.058594 294.871094 121.292969 293.699219 121.460938 292.515625 C 121.632812 291.332031 121.742188 290.140625 121.785156 288.945312 C 121.828125 287.75 121.808594 286.554688 121.722656 285.359375 C 121.636719 284.164062 121.492188 282.980469 121.277344 281.800781 C 121.066406 280.625 120.792969 279.460938 120.457031 278.3125 C 120.121094 277.160156 119.726562 276.035156 119.269531 274.929688 C 118.8125 273.820312 118.296875 272.742188 117.726562 271.691406 C 117.152344 270.640625 116.527344 269.625 115.84375 268.640625 C 115.164062 267.65625 114.429688 266.710938 113.648438 265.804688 C 112.867188 264.898438 112.039062 264.039062 111.164062 263.222656 C 110.289062 262.402344 109.371094 261.636719 108.414062 260.917969 Z M 108.414062 260.917969 " fill-opacity="1" fill-rule="nonzero"/><path fill="#702a1c" d="M 93.402344 265.535156 C 93.894531 265.949219 94.363281 266.382812 94.8125 266.839844 C 95.261719 267.300781 95.6875 267.777344 96.085938 268.277344 C 96.488281 268.777344 96.863281 269.296875 97.214844 269.832031 C 97.566406 270.371094 97.890625 270.921875 98.1875 271.492188 C 98.480469 272.058594 98.75 272.640625 98.988281 273.234375 C 99.226562 273.832031 99.4375 274.433594 99.617188 275.050781 C 99.796875 275.664062 99.945312 276.289062 100.066406 276.917969 C 100.183594 277.546875 100.269531 278.179688 100.328125 278.816406 C 100.382812 279.457031 100.410156 280.09375 100.402344 280.734375 C 100.394531 281.375 100.359375 282.015625 100.289062 282.652344 C 100.21875 283.289062 100.117188 283.917969 99.988281 284.546875 C 99.855469 285.171875 99.695312 285.789062 99.503906 286.402344 C 99.308594 287.011719 99.089844 287.613281 98.835938 288.199219 C 98.585938 288.789062 98.308594 289.363281 98 289.925781 C 97.691406 290.484375 97.355469 291.03125 96.996094 291.558594 C 96.636719 292.085938 96.25 292.597656 95.835938 293.085938 C 95.425781 293.574219 94.992188 294.042969 94.535156 294.492188 C 94.074219 294.941406 93.597656 295.363281 93.097656 295.761719 C 92.597656 296.164062 92.082031 296.539062 91.546875 296.886719 C 91.007812 297.238281 90.457031 297.558594 89.890625 297.855469 C 89.320312 298.148438 88.738281 298.417969 88.144531 298.652344 C 87.550781 298.890625 86.945312 299.101562 86.332031 299.277344 C 85.714844 299.457031 85.09375 299.605469 84.464844 299.722656 C 83.835938 299.839844 83.203125 299.925781 82.5625 299.980469 C 81.925781 300.035156 81.285156 300.058594 80.644531 300.050781 C 80.003906 300.042969 79.367188 300.003906 78.730469 299.933594 C 78.09375 299.863281 77.460938 299.761719 76.832031 299.628906 C 76.207031 299.496094 75.585938 299.335938 74.976562 299.140625 C 74.363281 298.949219 73.765625 298.726562 73.175781 298.472656 C 72.585938 298.222656 72.011719 297.941406 71.449219 297.632812 C 70.886719 297.324219 70.339844 296.988281 69.8125 296.625 C 69.28125 296.265625 68.773438 295.875 68.28125 295.464844 C 67.789062 295.050781 67.320312 294.617188 66.871094 294.160156 C 66.425781 293.699219 66 293.222656 65.597656 292.722656 C 65.195312 292.222656 64.820312 291.703125 64.46875 291.167969 C 64.121094 290.628906 63.796875 290.078125 63.5 289.507812 C 63.203125 288.941406 62.9375 288.359375 62.695312 287.765625 C 62.457031 287.167969 62.25 286.566406 62.070312 285.949219 C 61.890625 285.335938 61.738281 284.710938 61.621094 284.082031 C 61.503906 283.453125 61.414062 282.820312 61.359375 282.183594 C 61.300781 281.542969 61.277344 280.90625 61.285156 280.265625 C 61.289062 279.625 61.328125 278.984375 61.398438 278.347656 C 61.464844 277.710938 61.566406 277.082031 61.699219 276.453125 C 61.828125 275.828125 61.992188 275.210938 62.183594 274.597656 C 62.375 273.988281 62.597656 273.386719 62.847656 272.800781 C 63.097656 272.210938 63.378906 271.636719 63.6875 271.074219 C 63.992188 270.515625 64.328125 269.96875 64.691406 269.441406 C 65.050781 268.914062 65.4375 268.402344 65.847656 267.914062 C 66.261719 267.421875 66.695312 266.957031 67.152344 266.507812 C 67.609375 266.058594 68.089844 265.636719 68.585938 265.238281 C 69.085938 264.835938 69.605469 264.460938 70.140625 264.113281 C 70.675781 263.761719 71.230469 263.441406 71.796875 263.144531 C 72.363281 262.851562 72.945312 262.582031 73.539062 262.347656 C 74.132812 262.109375 74.738281 261.898438 75.355469 261.722656 C 75.96875 261.542969 76.589844 261.394531 77.222656 261.277344 C 77.851562 261.160156 78.484375 261.074219 79.121094 261.019531 C 79.761719 260.964844 80.398438 260.941406 81.039062 260.949219 C 81.679688 260.957031 82.320312 260.996094 82.957031 261.066406 C 83.59375 261.136719 84.226562 261.238281 84.851562 261.371094 C 85.480469 261.503906 86.097656 261.664062 86.710938 261.859375 C 87.320312 262.050781 87.921875 262.273438 88.511719 262.527344 C 89.101562 262.777344 89.675781 263.058594 90.238281 263.367188 C 90.800781 263.675781 91.34375 264.011719 91.875 264.375 C 92.402344 264.734375 92.914062 265.125 93.402344 265.535156 Z M 93.402344 265.535156 " fill-opacity="1" fill-rule="nonzero"/></svg>