<svg xmlns="http://www.w3.org/2000/svg" xmlns:xlink="http://www.w3.org/1999/xlink" width="500" zoomAndPan="magnify" viewBox="0 0 375 374.999991" height="500" preserveAspectRatio="xMidYMid meet" version="1.0"><defs><clipPath id="0b5909c833"><path d="M 3.324219 6.644531 L 371.574219 6.644531 L 371.574219 374.894531 L 3.324219 374.894531 Z M 3.324219 6.644531 " clip-rule="nonzero"/></clipPath></defs><rect x="-37.5" width="450" fill="#ffffff" y="-37.499999" height="449.999989" fill-opacity="1"/><rect x="-37.5" width="450" fill="#000000" y="-37.499999" height="449.999989" fill-opacity="1"/><path fill="#e1d3b8" d="M 94.296875 9.324219 L 280.597656 9.324219 C 282.042969 9.324219 283.488281 9.359375 284.929688 9.429688 C 286.375 9.503906 287.8125 9.609375 289.25 9.75 C 290.691406 9.890625 292.125 10.070312 293.554688 10.28125 C 294.984375 10.492188 296.40625 10.738281 297.824219 11.023438 C 299.242188 11.304688 300.648438 11.621094 302.050781 11.972656 C 303.453125 12.324219 304.84375 12.707031 306.226562 13.128906 C 307.609375 13.546875 308.984375 14 310.34375 14.488281 C 311.703125 14.972656 313.050781 15.492188 314.386719 16.046875 C 315.722656 16.597656 317.042969 17.183594 318.347656 17.800781 C 319.65625 18.421875 320.945312 19.070312 322.21875 19.75 C 323.492188 20.433594 324.75 21.144531 325.992188 21.886719 C 327.230469 22.628906 328.449219 23.402344 329.652344 24.207031 C 330.851562 25.007812 332.035156 25.839844 333.195312 26.699219 C 334.355469 27.5625 335.496094 28.449219 336.613281 29.367188 C 337.730469 30.285156 338.824219 31.226562 339.894531 32.199219 C 340.964844 33.167969 342.011719 34.164062 343.03125 35.1875 C 344.054688 36.207031 345.050781 37.253906 346.019531 38.324219 C 346.992188 39.394531 347.933594 40.488281 348.851562 41.605469 C 349.769531 42.722656 350.65625 43.863281 351.515625 45.023438 C 352.378906 46.183594 353.210938 47.363281 354.011719 48.566406 C 354.816406 49.769531 355.589844 50.988281 356.332031 52.226562 C 357.074219 53.46875 357.785156 54.722656 358.46875 56 C 359.148438 57.273438 359.796875 58.5625 360.414062 59.871094 C 361.035156 61.175781 361.617188 62.496094 362.171875 63.832031 C 362.726562 65.167969 363.246094 66.515625 363.730469 67.875 C 364.21875 69.234375 364.671875 70.605469 365.089844 71.988281 C 365.511719 73.371094 365.894531 74.765625 366.246094 76.167969 C 366.597656 77.570312 366.914062 78.976562 367.195312 80.394531 C 367.476562 81.8125 367.726562 83.234375 367.9375 84.664062 C 368.148438 86.09375 368.328125 87.527344 368.46875 88.964844 C 368.609375 90.40625 368.714844 91.84375 368.785156 93.289062 C 368.859375 94.730469 368.894531 96.175781 368.894531 97.621094 L 368.894531 283.921875 C 368.894531 285.363281 368.859375 286.808594 368.785156 288.253906 C 368.714844 289.695312 368.609375 291.136719 368.46875 292.574219 C 368.328125 294.011719 368.148438 295.445312 367.9375 296.875 C 367.726562 298.304688 367.476562 299.730469 367.195312 301.144531 C 366.914062 302.5625 366.597656 303.972656 366.246094 305.375 C 365.894531 306.777344 365.511719 308.167969 365.089844 309.550781 C 364.671875 310.933594 364.21875 312.304688 363.730469 313.667969 C 363.246094 315.027344 362.726562 316.375 362.171875 317.710938 C 361.617188 319.042969 361.035156 320.363281 360.414062 321.671875 C 359.796875 322.976562 359.148438 324.269531 358.46875 325.542969 C 357.785156 326.816406 357.074219 328.074219 356.332031 329.3125 C 355.589844 330.550781 354.816406 331.773438 354.011719 332.976562 C 353.210938 334.175781 352.378906 335.355469 351.515625 336.519531 C 350.65625 337.679688 349.769531 338.816406 348.851562 339.933594 C 347.933594 341.050781 346.992188 342.144531 346.019531 343.214844 C 345.050781 344.285156 344.054688 345.332031 343.03125 346.355469 C 342.011719 347.375 340.964844 348.371094 339.894531 349.34375 C 338.824219 350.3125 337.730469 351.257812 336.613281 352.171875 C 335.496094 353.089844 334.355469 353.980469 333.195312 354.839844 C 332.035156 355.699219 330.851562 356.53125 329.652344 357.335938 C 328.449219 358.136719 327.230469 358.910156 325.992188 359.652344 C 324.75 360.398438 323.492188 361.109375 322.21875 361.789062 C 320.945312 362.472656 319.65625 363.121094 318.347656 363.738281 C 317.042969 364.355469 315.722656 364.941406 314.386719 365.496094 C 313.050781 366.046875 311.703125 366.566406 310.34375 367.054688 C 308.984375 367.542969 307.609375 367.996094 306.226562 368.414062 C 304.84375 368.832031 303.453125 369.21875 302.050781 369.570312 C 300.648438 369.921875 299.242188 370.238281 297.824219 370.519531 C 296.40625 370.800781 294.980469 371.046875 293.554688 371.261719 C 292.125 371.472656 290.691406 371.648438 289.25 371.789062 C 287.8125 371.933594 286.375 372.039062 284.929688 372.109375 C 283.488281 372.179688 282.042969 372.214844 280.597656 372.214844 L 94.296875 372.214844 C 92.851562 372.214844 91.410156 372.179688 89.964844 372.109375 C 88.523438 372.039062 87.082031 371.933594 85.644531 371.789062 C 84.207031 371.648438 82.773438 371.472656 81.34375 371.261719 C 79.914062 371.046875 78.488281 370.800781 77.074219 370.519531 C 75.65625 370.238281 74.246094 369.921875 72.84375 369.570312 C 71.441406 369.21875 70.050781 368.832031 68.667969 368.414062 C 67.285156 367.996094 65.914062 367.542969 64.550781 367.054688 C 63.191406 366.566406 61.84375 366.046875 60.507812 365.496094 C 59.171875 364.941406 57.851562 364.355469 56.546875 363.738281 C 55.242188 363.121094 53.949219 362.472656 52.675781 361.789062 C 51.402344 361.109375 50.144531 360.398438 48.90625 359.652344 C 47.664062 358.910156 46.445312 358.136719 45.242188 357.335938 C 44.042969 356.53125 42.859375 355.699219 41.699219 354.839844 C 40.539062 353.980469 39.402344 353.089844 38.285156 352.171875 C 37.167969 351.257812 36.074219 350.3125 35.003906 349.34375 C 33.929688 348.371094 32.886719 347.375 31.863281 346.355469 C 30.84375 345.332031 29.84375 344.285156 28.875 343.214844 C 27.90625 342.144531 26.960938 341.050781 26.042969 339.933594 C 25.128906 338.816406 24.238281 337.679688 23.378906 336.519531 C 22.515625 335.355469 21.6875 334.175781 20.882812 332.976562 C 20.078125 331.773438 19.308594 330.550781 18.5625 329.3125 C 17.820312 328.074219 17.109375 326.816406 16.429688 325.542969 C 15.746094 324.269531 15.097656 322.976562 14.480469 321.671875 C 13.863281 320.363281 13.277344 319.042969 12.722656 317.710938 C 12.171875 316.375 11.652344 315.027344 11.164062 313.667969 C 10.675781 312.304688 10.222656 310.933594 9.804688 309.550781 C 9.386719 308.167969 9 306.777344 8.648438 305.375 C 8.296875 303.972656 7.980469 302.5625 7.699219 301.144531 C 7.417969 299.726562 7.171875 298.304688 6.957031 296.875 C 6.746094 295.445312 6.570312 294.011719 6.425781 292.574219 C 6.285156 291.136719 6.179688 289.695312 6.109375 288.253906 C 6.039062 286.808594 6.003906 285.363281 6.003906 283.921875 L 6.003906 97.621094 C 6.003906 96.175781 6.039062 94.730469 6.109375 93.289062 C 6.179688 91.84375 6.285156 90.40625 6.425781 88.964844 C 6.570312 87.527344 6.746094 86.09375 6.957031 84.664062 C 7.171875 83.234375 7.417969 81.8125 7.699219 80.394531 C 7.980469 78.976562 8.296875 77.570312 8.648438 76.167969 C 9 74.765625 9.386719 73.371094 9.804688 71.988281 C 10.222656 70.605469 10.675781 69.234375 11.164062 67.875 C 11.652344 66.515625 12.171875 65.167969 12.722656 63.832031 C 13.277344 62.496094 13.863281 61.175781 14.480469 59.871094 C 15.097656 58.5625 15.746094 57.273438 16.429688 56 C 17.109375 54.722656 17.820312 53.46875 18.5625 52.226562 C 19.308594 50.988281 20.078125 49.769531 20.882812 48.566406 C 21.6875 47.363281 22.515625 46.183594 23.378906 45.023438 C 24.238281 43.863281 25.128906 42.722656 26.042969 41.605469 C 26.960938 40.488281 27.90625 39.394531 28.875 38.324219 C 29.84375 37.253906 30.84375 36.207031 31.863281 35.1875 C 32.886719 34.164062 33.929688 33.167969 35.003906 32.199219 C 36.074219 31.226562 37.167969 30.285156 38.285156 29.367188 C 39.402344 28.449219 40.539062 27.5625 41.699219 26.699219 C 42.859375 25.839844 44.042969 25.007812 45.242188 24.207031 C 46.445312 23.402344 47.664062 22.628906 48.90625 21.886719 C 50.144531 21.144531 51.402344 20.433594 52.675781 19.75 C 53.949219 19.070312 55.242188 18.421875 56.546875 17.800781 C 57.851562 17.183594 59.171875 16.597656 60.507812 16.046875 C 61.84375 15.492188 63.191406 14.972656 64.550781 14.488281 C 65.914062 14 67.285156 13.546875 68.667969 13.128906 C 70.050781 12.707031 71.441406 12.324219 72.84375 11.972656 C 74.246094 11.621094 75.65625 11.304688 77.074219 11.023438 C 78.488281 10.738281 79.914062 10.492188 81.34375 10.28125 C 82.773438 10.070312 84.207031 9.890625 85.644531 9.75 C 87.082031 9.609375 88.523438 9.503906 89.964844 9.429688 C 91.410156 9.359375 92.851562 9.324219 94.296875 9.324219 Z M 94.296875 9.324219 " fill-opacity="1" fill-rule="nonzero"/><path fill="#fcf0de" d="M 19.015625 283.921875 L 19.015625 97.621094 C 19.015625 49.058594 58.75 9.324219 107.3125 9.324219 L 94.296875 9.324219 C 45.738281 9.324219 6.003906 49.058594 6.003906 97.621094 L 6.003906 283.921875 C 6.003906 332.480469 45.738281 372.214844 94.296875 372.214844 L 107.3125 372.214844 C 58.75 372.214844 19.015625 332.480469 19.015625 283.921875 Z M 19.015625 283.921875 " fill-opacity="1" fill-rule="nonzero"/><path fill="#ceb797" d="M 309.175781 14.109375 C 310.902344 15.054688 312.59375 16.058594 314.25 17.117188 C 315.910156 18.179688 317.53125 19.292969 319.113281 20.457031 C 320.699219 21.625 322.242188 22.84375 323.742188 24.113281 C 325.246094 25.386719 326.703125 26.703125 328.117188 28.070312 C 329.535156 29.4375 330.902344 30.851562 332.222656 32.3125 C 333.542969 33.769531 334.8125 35.269531 336.03125 36.8125 C 337.253906 38.355469 338.417969 39.9375 339.535156 41.558594 C 340.648438 43.183594 341.707031 44.839844 342.710938 46.53125 C 343.71875 48.222656 344.664062 49.945312 345.554688 51.699219 C 346.441406 53.457031 347.273438 55.238281 348.042969 57.046875 C 348.8125 58.859375 349.523438 60.691406 350.171875 62.550781 C 350.820312 64.40625 351.40625 66.285156 351.929688 68.183594 C 352.449219 70.078125 352.910156 71.992188 353.304688 73.917969 C 353.699219 75.84375 354.03125 77.785156 354.296875 79.734375 C 354.566406 81.683594 354.765625 83.636719 354.902344 85.601562 C 355.039062 87.5625 355.109375 89.527344 355.113281 91.496094 L 355.113281 267.84375 C 355.113281 316.402344 315.378906 356.136719 266.816406 356.136719 L 90.46875 356.136719 C 51.800781 356.136719 18.734375 330.941406 6.859375 296.160156 C 12.894531 338.988281 49.886719 372.214844 94.296875 372.214844 L 280.597656 372.214844 C 329.160156 372.214844 368.894531 332.480469 368.894531 283.921875 L 368.894531 97.621094 C 368.894531 59.089844 343.835938 26.0625 309.175781 14.109375 Z M 309.175781 14.109375 " fill-opacity="1" fill-rule="nonzero"/><g clip-path="url(#0b5909c833)"><path stroke-linecap="butt" transform="matrix(0.765592, 0, 0, 0.765592, 3.32279, 6.645585)" fill="none" stroke-linejoin="miter" d="M 118.828352 3.498772 L 362.170342 3.498772 C 364.058177 3.498772 365.946013 3.544692 367.828746 3.636533 C 369.716581 3.733476 371.594212 3.871237 373.471843 4.054918 C 375.354576 4.238599 377.227105 4.473303 379.094531 4.748825 C 380.961958 5.024347 382.81918 5.345789 384.671299 5.718254 C 386.523419 6.085617 388.360232 6.4989 390.191943 6.958103 C 392.023653 7.417306 393.840057 7.917327 395.646256 8.468371 C 397.452456 9.014313 399.24845 9.606175 401.024036 10.243957 C 402.799622 10.876637 404.559901 11.555237 406.304873 12.279758 C 408.049845 12.999176 409.774409 13.764515 411.478563 14.570672 C 413.187819 15.381931 414.871564 16.228906 416.5349 17.116699 C 418.198237 18.009594 419.841164 18.938205 421.463682 19.907634 C 423.081097 20.877063 424.673002 21.88731 426.244497 22.938375 C 427.810891 23.984338 429.356875 25.071119 430.872245 26.193616 C 432.387616 27.321215 433.877475 28.479427 435.336721 29.678458 C 436.795967 30.877488 438.224599 32.107133 439.622618 33.377595 C 441.020637 34.642955 442.388042 35.944031 443.719731 37.280822 C 445.056523 38.612511 446.357598 39.979917 447.622958 41.377935 C 448.893421 42.775954 450.123065 44.204586 451.322095 45.663832 C 452.521126 47.123078 453.679339 48.612937 454.801835 50.128308 C 455.929434 51.643678 457.016215 53.18456 458.062178 54.756056 C 459.113243 56.327551 460.12349 57.919456 461.092919 59.536871 C 462.062348 61.159389 462.990959 62.797214 463.883854 64.465653 C 464.771647 66.128989 465.618622 67.812734 466.424779 69.52199 C 467.236038 71.226144 467.996274 72.950708 468.720795 74.69568 C 469.445316 76.440652 470.123916 78.200931 470.756596 79.976517 C 471.394378 81.752103 471.98624 83.542995 472.532182 85.349195 C 473.083226 87.155394 473.583247 88.9769 474.04245 90.808611 C 474.501653 92.640321 474.914936 94.477134 475.282299 96.329254 C 475.649661 98.181373 475.976206 100.038595 476.251728 101.906022 C 476.52725 103.773448 476.761954 105.645977 476.945635 107.523608 C 477.129316 109.406341 477.267077 111.283972 477.358918 113.171807 C 477.455861 115.05454 477.501781 116.942376 477.501781 118.830211 L 477.501781 362.172201 C 477.501781 364.054934 477.455861 365.94277 477.358918 367.830605 C 477.267077 369.713338 477.129316 371.596072 476.945635 373.473702 C 476.761954 375.351333 476.52725 377.223862 476.251728 379.091289 C 475.976206 380.958715 475.649661 382.821039 475.282299 384.668056 C 474.914936 386.520176 474.501653 388.362091 474.04245 390.193802 C 473.583247 392.025512 473.083226 393.841916 472.532182 395.648116 C 471.98624 397.454315 471.394378 399.245208 470.756596 401.025896 C 470.123916 402.801481 469.445316 404.56176 468.720795 406.306733 C 467.996274 408.046603 467.236038 409.771166 466.424779 411.480422 C 465.618622 413.184576 464.771647 414.873424 463.883854 416.53676 C 462.990959 418.200096 462.062348 419.843023 461.092919 421.460439 C 460.12349 423.077855 459.113243 424.674861 458.062178 426.246357 C 457.016215 427.81275 455.929434 429.353632 454.801835 430.874105 C 453.679339 432.389475 452.521126 433.874232 451.322095 435.333478 C 450.123065 436.792724 448.893421 438.221356 447.622958 439.619375 C 446.357598 441.017394 445.056523 442.384799 443.719731 443.72159 C 442.388042 445.05328 441.020637 446.354355 439.622618 447.624818 C 438.224599 448.890178 436.795967 450.124924 435.336721 451.318852 C 433.877475 452.517883 432.387616 453.681198 430.872245 454.803695 C 429.356875 455.926191 427.810891 457.012972 426.244497 458.064037 C 424.673002 459.11 423.081097 460.120247 421.463682 461.089676 C 419.841164 462.064208 418.198237 462.992819 416.5349 463.880612 C 414.871564 464.773507 413.187819 465.620482 411.478563 466.426638 C 409.774409 467.232795 408.049845 467.998134 406.304873 468.722654 C 404.559901 469.442073 402.799622 470.120673 401.024036 470.758455 C 399.24845 471.396238 397.452456 471.9881 395.646256 472.534041 C 393.840057 473.079983 392.023653 473.585106 390.191943 474.044309 C 388.360232 474.503513 386.523419 474.916796 384.671299 475.284158 C 382.81918 475.651521 380.956856 475.972963 379.094531 476.253587 C 377.227105 476.529109 375.354576 476.758711 373.471843 476.942392 C 371.594212 477.131176 369.716581 477.268937 367.828746 477.360777 C 365.946013 477.452618 364.058177 477.498538 362.170342 477.498538 L 118.828352 477.498538 C 116.940517 477.498538 115.057783 477.452618 113.169948 477.360777 C 111.287215 477.268937 109.404482 477.131176 107.526851 476.942392 C 105.64922 476.758711 103.776691 476.529109 101.909265 476.253587 C 100.041838 475.972963 98.179514 475.651521 96.332497 475.284158 C 94.480377 474.916796 92.638462 474.503513 90.806751 474.044309 C 88.975041 473.585106 87.158637 473.079983 85.352437 472.534041 C 83.546238 471.9881 81.755346 471.396238 79.974658 470.758455 C 78.199072 470.120673 76.438793 469.442073 74.693821 468.722654 C 72.948848 467.998134 71.224285 467.232795 69.520131 466.426638 C 67.815977 465.620482 66.127129 464.773507 64.463793 463.880612 C 62.800457 462.992819 61.15753 462.064208 59.540114 461.089676 C 57.917596 460.120247 56.325692 459.11 54.754196 458.064037 C 53.187803 457.012972 51.641819 455.926191 50.126448 454.803695 C 48.611078 453.681198 47.126321 452.517883 45.667075 451.318852 C 44.207829 450.124924 42.779197 448.890178 41.381178 447.624818 C 39.978057 446.354355 38.615754 445.05328 37.278963 443.72159 C 35.947273 442.384799 34.641095 441.017394 33.375735 439.619375 C 32.110375 438.221356 30.875629 436.792724 29.676598 435.333478 C 28.48267 433.874232 27.319355 432.389475 26.196858 430.874105 C 25.069259 429.353632 23.987581 427.81275 22.936516 426.246357 C 21.88545 424.674861 20.880306 423.077855 19.905774 421.460439 C 18.936345 419.843023 18.007734 418.200096 17.119942 416.53676 C 16.227046 414.873424 15.380072 413.184576 14.573915 411.480422 C 13.767758 409.771166 13.002419 408.046603 12.277899 406.306733 C 11.55848 404.56176 10.87988 402.801481 10.242098 401.025896 C 9.604316 399.245208 9.012454 397.454315 8.466512 395.648116 C 7.92057 393.841916 7.415447 392.025512 6.956244 390.193802 C 6.49704 388.362091 6.083758 386.520176 5.716395 384.668056 C 5.349032 382.815937 5.02759 380.958715 4.746966 379.091289 C 4.471444 377.223862 4.241842 375.351333 4.053059 373.473702 C 3.869378 371.596072 3.731617 369.713338 3.639776 367.830605 C 3.547935 365.94277 3.502015 364.054934 3.502015 362.172201 L 3.502015 118.830211 C 3.502015 116.942376 3.547935 115.05454 3.639776 113.171807 C 3.731617 111.283972 3.869378 109.406341 4.053059 107.523608 C 4.241842 105.645977 4.471444 103.773448 4.746966 101.906022 C 5.02759 100.038595 5.349032 98.181373 5.716395 96.329254 C 6.083758 94.477134 6.49704 92.640321 6.956244 90.808611 C 7.415447 88.9769 7.92057 87.155394 8.466512 85.349195 C 9.012454 83.542995 9.604316 81.752103 10.242098 79.976517 C 10.87988 78.200931 11.55848 76.440652 12.277899 74.69568 C 13.002419 72.950708 13.767758 71.226144 14.573915 69.52199 C 15.380072 67.812734 16.227046 66.128989 17.119942 64.465653 C 18.007734 62.797214 18.936345 61.159389 19.905774 59.536871 C 20.880306 57.919456 21.88545 56.327551 22.936516 54.756056 C 23.987581 53.18456 25.069259 51.643678 26.196858 50.128308 C 27.319355 48.612937 28.48267 47.123078 29.676598 45.663832 C 30.875629 44.204586 32.110375 42.775954 33.375735 41.377935 C 34.641095 39.979917 35.947273 38.612511 37.278963 37.280822 C 38.615754 35.944031 39.978057 34.642955 41.381178 33.377595 C 42.779197 32.107133 44.207829 30.877488 45.667075 29.678458 C 47.126321 28.479427 48.611078 27.321215 50.126448 26.193616 C 51.641819 25.071119 53.187803 23.984338 54.754196 22.938375 C 56.325692 21.88731 57.917596 20.877063 59.540114 19.907634 C 61.15753 18.938205 62.800457 18.009594 64.463793 17.116699 C 66.127129 16.228906 67.815977 15.381931 69.520131 14.570672 C 71.224285 13.764515 72.948848 12.999176 74.693821 12.279758 C 76.438793 11.555237 78.199072 10.876637 79.974658 10.243957 C 81.755346 9.606175 83.546238 9.014313 85.352437 8.468371 C 87.158637 7.917327 88.975041 7.417306 90.806751 6.958103 C 92.638462 6.4989 94.480377 6.085617 96.332497 5.718254 C 98.179514 5.345789 100.041838 5.024347 101.909265 4.748825 C 103.776691 4.473303 105.64922 4.238599 107.526851 4.054918 C 109.404482 3.871237 111.287215 3.733476 113.169948 3.636533 C 115.057783 3.544692 116.940517 3.498772 118.828352 3.498772 Z M 118.828352 3.498772 " stroke="#846467" stroke-width="7" stroke-opacity="1" stroke-miterlimit="10"/></g><path fill="#541a0c" d="M 311.472656 89.886719 C 311.472656 90.96875 311.421875 92.042969 311.316406 93.117188 C 311.210938 94.191406 311.050781 95.257812 310.839844 96.316406 C 310.628906 97.375 310.367188 98.421875 310.054688 99.453125 C 309.742188 100.488281 309.378906 101.5 308.964844 102.5 C 308.550781 103.496094 308.089844 104.46875 307.582031 105.421875 C 307.074219 106.375 306.519531 107.296875 305.921875 108.195312 C 305.320312 109.09375 304.679688 109.957031 303.996094 110.792969 C 303.308594 111.625 302.585938 112.425781 301.824219 113.1875 C 301.058594 113.953125 300.261719 114.675781 299.425781 115.359375 C 298.59375 116.042969 297.726562 116.6875 296.828125 117.285156 C 295.933594 117.886719 295.007812 118.441406 294.054688 118.949219 C 293.105469 119.457031 292.128906 119.917969 291.132812 120.332031 C 290.136719 120.746094 289.121094 121.105469 288.085938 121.421875 C 287.054688 121.734375 286.007812 121.996094 284.949219 122.207031 C 283.894531 122.417969 282.828125 122.574219 281.753906 122.679688 C 280.679688 122.785156 279.601562 122.839844 278.523438 122.839844 C 277.445312 122.839844 276.367188 122.785156 275.292969 122.679688 C 274.21875 122.574219 273.152344 122.417969 272.09375 122.207031 C 271.035156 121.996094 269.988281 121.734375 268.957031 121.421875 C 267.925781 121.105469 266.910156 120.746094 265.914062 120.332031 C 264.914062 119.917969 263.941406 119.457031 262.988281 118.949219 C 262.039062 118.441406 261.113281 117.886719 260.214844 117.285156 C 259.320312 116.6875 258.453125 116.042969 257.617188 115.359375 C 256.785156 114.675781 255.984375 113.953125 255.222656 113.1875 C 254.460938 112.425781 253.734375 111.625 253.050781 110.792969 C 252.367188 109.957031 251.722656 109.09375 251.125 108.195312 C 250.523438 107.296875 249.972656 106.375 249.460938 105.421875 C 248.953125 104.46875 248.492188 103.496094 248.078125 102.5 C 247.667969 101.5 247.304688 100.488281 246.992188 99.453125 C 246.675781 98.421875 246.414062 97.375 246.203125 96.316406 C 245.992188 95.257812 245.835938 94.191406 245.730469 93.117188 C 245.625 92.042969 245.570312 90.96875 245.570312 89.886719 C 245.570312 88.808594 245.625 87.734375 245.730469 86.660156 C 245.835938 85.585938 245.992188 84.519531 246.203125 83.460938 C 246.414062 82.402344 246.675781 81.355469 246.992188 80.324219 C 247.304688 79.289062 247.667969 78.277344 248.078125 77.277344 C 248.492188 76.28125 248.953125 75.308594 249.460938 74.355469 C 249.972656 73.402344 250.523438 72.480469 251.125 71.582031 C 251.722656 70.683594 252.367188 69.820312 253.050781 68.984375 C 253.734375 68.148438 254.460938 67.351562 255.222656 66.589844 C 255.984375 65.824219 256.785156 65.101562 257.617188 64.417969 C 258.453125 63.730469 259.320312 63.089844 260.214844 62.492188 C 261.113281 61.890625 262.039062 61.335938 262.988281 60.828125 C 263.941406 60.320312 264.914062 59.859375 265.914062 59.445312 C 266.910156 59.03125 267.925781 58.667969 268.957031 58.355469 C 269.988281 58.042969 271.035156 57.78125 272.09375 57.570312 C 273.152344 57.359375 274.21875 57.203125 275.292969 57.097656 C 276.367188 56.992188 277.445312 56.9375 278.523438 56.9375 C 279.601562 56.9375 280.679688 56.992188 281.753906 57.097656 C 282.828125 57.203125 283.894531 57.359375 284.949219 57.570312 C 286.007812 57.78125 287.054688 58.042969 288.085938 58.355469 C 289.121094 58.667969 290.136719 59.03125 291.132812 59.445312 C 292.128906 59.859375 293.105469 60.320312 294.054688 60.828125 C 295.007812 61.335938 295.933594 61.890625 296.828125 62.492188 C 297.726562 63.089844 298.59375 63.730469 299.425781 64.417969 C 300.261719 65.101562 301.058594 65.824219 301.824219 66.589844 C 302.585938 67.351562 303.308594 68.148438 303.996094 68.984375 C 304.679688 69.820312 305.320312 70.683594 305.921875 71.582031 C 306.519531 72.480469 307.074219 73.402344 307.582031 74.355469 C 308.089844 75.308594 308.550781 76.28125 308.964844 77.277344 C 309.378906 78.277344 309.742188 79.289062 310.054688 80.324219 C 310.367188 81.355469 310.628906 82.402344 310.839844 83.460938 C 311.050781 84.519531 311.210938 85.585938 311.316406 86.660156 C 311.421875 87.734375 311.472656 88.808594 311.472656 89.886719 Z M 311.472656 89.886719 " fill-opacity="1" fill-rule="nonzero"/><path fill="#350802" d="M 298.121094 63.398438 C 298.710938 64.183594 299.261719 64.992188 299.78125 65.828125 C 300.296875 66.660156 300.777344 67.515625 301.214844 68.394531 C 301.65625 69.269531 302.054688 70.164062 302.417969 71.078125 C 302.777344 71.988281 303.09375 72.917969 303.371094 73.855469 C 303.648438 74.796875 303.886719 75.75 304.078125 76.710938 C 304.269531 77.671875 304.417969 78.640625 304.523438 79.617188 C 304.628906 80.59375 304.691406 81.570312 304.710938 82.550781 C 304.726562 83.53125 304.703125 84.511719 304.632812 85.492188 C 304.5625 86.46875 304.453125 87.445312 304.292969 88.410156 C 304.136719 89.378906 303.9375 90.339844 303.695312 91.289062 C 303.453125 92.242188 303.171875 93.179688 302.84375 94.105469 C 302.519531 95.03125 302.152344 95.9375 301.746094 96.832031 C 301.335938 97.722656 300.890625 98.597656 300.40625 99.449219 C 299.921875 100.300781 299.398438 101.132812 298.839844 101.9375 C 298.28125 102.742188 297.683594 103.523438 297.054688 104.273438 C 296.425781 105.027344 295.765625 105.75 295.070312 106.445312 C 294.378906 107.136719 293.65625 107.800781 292.902344 108.429688 C 292.148438 109.058594 291.371094 109.652344 290.5625 110.210938 C 289.757812 110.769531 288.929688 111.292969 288.074219 111.777344 C 287.222656 112.261719 286.351562 112.707031 285.457031 113.117188 C 284.566406 113.523438 283.65625 113.890625 282.730469 114.214844 C 281.804688 114.542969 280.867188 114.824219 279.917969 115.066406 C 278.964844 115.308594 278.007812 115.507812 277.039062 115.664062 C 276.070312 115.820312 275.09375 115.933594 274.117188 116.003906 C 273.136719 116.070312 272.160156 116.097656 271.175781 116.078125 C 270.195312 116.0625 269.21875 116 268.242188 115.894531 C 267.269531 115.785156 266.300781 115.636719 265.335938 115.445312 C 264.375 115.253906 263.421875 115.019531 262.484375 114.738281 C 261.542969 114.460938 260.613281 114.144531 259.703125 113.785156 C 258.789062 113.421875 257.894531 113.023438 257.019531 112.582031 C 256.140625 112.140625 255.285156 111.664062 254.453125 111.148438 C 253.617188 110.628906 252.808594 110.078125 252.027344 109.488281 C 252.730469 110.425781 253.484375 111.328125 254.285156 112.1875 C 255.089844 113.046875 255.933594 113.859375 256.824219 114.628906 C 257.714844 115.398438 258.640625 116.117188 259.605469 116.785156 C 260.574219 117.453125 261.574219 118.070312 262.605469 118.632812 C 263.636719 119.195312 264.695312 119.699219 265.78125 120.148438 C 266.867188 120.597656 267.976562 120.988281 269.105469 121.316406 C 270.230469 121.648438 271.375 121.917969 272.53125 122.125 C 273.6875 122.332031 274.851562 122.476562 276.023438 122.558594 C 277.199219 122.644531 278.371094 122.664062 279.546875 122.621094 C 280.71875 122.578125 281.890625 122.472656 283.050781 122.304688 C 284.214844 122.136719 285.367188 121.90625 286.503906 121.617188 C 287.644531 121.324219 288.765625 120.976562 289.867188 120.5625 C 290.964844 120.152344 292.042969 119.683594 293.09375 119.15625 C 294.144531 118.632812 295.164062 118.050781 296.152344 117.414062 C 297.140625 116.777344 298.09375 116.09375 299.007812 115.355469 C 299.925781 114.617188 300.796875 113.832031 301.628906 113.003906 C 302.460938 112.171875 303.242188 111.296875 303.980469 110.382812 C 304.71875 109.46875 305.40625 108.515625 306.042969 107.527344 C 306.675781 106.539062 307.257812 105.519531 307.785156 104.46875 C 308.3125 103.417969 308.78125 102.34375 309.191406 101.242188 C 309.601562 100.140625 309.953125 99.019531 310.246094 97.882812 C 310.535156 96.742188 310.765625 95.589844 310.933594 94.429688 C 311.101562 93.265625 311.207031 92.097656 311.25 90.921875 C 311.292969 89.746094 311.273438 88.574219 311.191406 87.402344 C 311.109375 86.226562 310.960938 85.0625 310.753906 83.90625 C 310.546875 82.75 310.277344 81.609375 309.949219 80.480469 C 309.617188 79.351562 309.230469 78.242188 308.78125 77.15625 C 308.332031 76.070312 307.828125 75.011719 307.265625 73.980469 C 306.703125 72.949219 306.085938 71.949219 305.417969 70.980469 C 304.75 70.015625 304.03125 69.085938 303.261719 68.199219 C 302.492188 67.308594 301.679688 66.464844 300.820312 65.660156 C 299.960938 64.859375 299.0625 64.105469 298.121094 63.398438 Z M 298.121094 63.398438 " fill-opacity="1" fill-rule="nonzero"/><path fill="#702a1c" d="M 281.097656 66.8125 C 281.578125 67.214844 282.039062 67.644531 282.480469 68.09375 C 282.921875 68.542969 283.335938 69.015625 283.730469 69.503906 C 284.125 69.996094 284.496094 70.503906 284.839844 71.03125 C 285.183594 71.558594 285.5 72.101562 285.792969 72.660156 C 286.082031 73.21875 286.347656 73.789062 286.582031 74.371094 C 286.816406 74.957031 287.019531 75.550781 287.199219 76.152344 C 287.375 76.757812 287.519531 77.371094 287.636719 77.988281 C 287.753906 78.605469 287.839844 79.226562 287.894531 79.855469 C 287.949219 80.480469 287.976562 81.109375 287.96875 81.738281 C 287.960938 82.367188 287.925781 82.992188 287.855469 83.617188 C 287.789062 84.242188 287.691406 84.863281 287.5625 85.480469 C 287.433594 86.09375 287.273438 86.703125 287.085938 87.300781 C 286.898438 87.902344 286.679688 88.488281 286.433594 89.066406 C 286.1875 89.644531 285.910156 90.210938 285.609375 90.761719 C 285.308594 91.3125 284.980469 91.847656 284.625 92.367188 C 284.269531 92.882812 283.890625 93.382812 283.484375 93.867188 C 283.082031 94.347656 282.65625 94.808594 282.207031 95.246094 C 281.757812 95.6875 281.285156 96.101562 280.796875 96.496094 C 280.304688 96.886719 279.796875 97.257812 279.269531 97.597656 C 278.746094 97.941406 278.203125 98.257812 277.644531 98.546875 C 277.085938 98.839844 276.515625 99.101562 275.933594 99.332031 C 275.347656 99.566406 274.753906 99.769531 274.152344 99.945312 C 273.546875 100.121094 272.9375 100.265625 272.316406 100.382812 C 271.699219 100.496094 271.078125 100.582031 270.449219 100.636719 C 269.824219 100.691406 269.195312 100.714844 268.566406 100.707031 C 267.9375 100.699219 267.3125 100.660156 266.6875 100.589844 C 266.058594 100.523438 265.441406 100.421875 264.824219 100.292969 C 264.207031 100.160156 263.601562 100.003906 263 99.8125 C 262.398438 99.621094 261.8125 99.402344 261.230469 99.15625 C 260.652344 98.910156 260.085938 98.632812 259.535156 98.328125 C 258.984375 98.027344 258.449219 97.699219 257.929688 97.339844 C 257.410156 96.984375 256.910156 96.605469 256.425781 96.199219 C 255.945312 95.796875 255.484375 95.367188 255.042969 94.917969 C 254.601562 94.46875 254.183594 94 253.789062 93.507812 C 253.398438 93.015625 253.027344 92.507812 252.683594 91.980469 C 252.339844 91.453125 252.023438 90.910156 251.730469 90.351562 C 251.441406 89.792969 251.175781 89.222656 250.941406 88.640625 C 250.707031 88.054688 250.5 87.460938 250.324219 86.859375 C 250.148438 86.253906 250 85.644531 249.886719 85.023438 C 249.769531 84.40625 249.683594 83.785156 249.628906 83.15625 C 249.574219 82.53125 249.546875 81.902344 249.554688 81.273438 C 249.5625 80.644531 249.597656 80.019531 249.664062 79.394531 C 249.734375 78.769531 249.832031 78.148438 249.960938 77.53125 C 250.089844 76.917969 250.25 76.308594 250.4375 75.710938 C 250.625 75.109375 250.84375 74.523438 251.089844 73.945312 C 251.335938 73.367188 251.613281 72.800781 251.914062 72.25 C 252.214844 71.699219 252.542969 71.164062 252.898438 70.644531 C 253.253906 70.128906 253.632812 69.628906 254.039062 69.148438 C 254.441406 68.664062 254.867188 68.203125 255.316406 67.765625 C 255.765625 67.328125 256.234375 66.910156 256.726562 66.515625 C 257.214844 66.125 257.726562 65.757812 258.25 65.414062 C 258.777344 65.070312 259.320312 64.753906 259.878906 64.464844 C 260.4375 64.175781 261.007812 63.914062 261.589844 63.679688 C 262.175781 63.445312 262.769531 63.242188 263.371094 63.066406 C 263.976562 62.890625 264.585938 62.746094 265.203125 62.628906 C 265.824219 62.515625 266.445312 62.429688 267.070312 62.375 C 267.699219 62.320312 268.328125 62.296875 268.957031 62.304688 C 269.585938 62.3125 270.210938 62.351562 270.835938 62.421875 C 271.460938 62.492188 272.082031 62.589844 272.699219 62.71875 C 273.316406 62.851562 273.921875 63.011719 274.523438 63.199219 C 275.121094 63.390625 275.710938 63.609375 276.289062 63.855469 C 276.871094 64.105469 277.433594 64.378906 277.988281 64.683594 C 278.539062 64.984375 279.074219 65.316406 279.59375 65.671875 C 280.113281 66.027344 280.613281 66.40625 281.097656 66.8125 Z M 281.097656 66.8125 " fill-opacity="1" fill-rule="nonzero"/><path fill="#541a0c" d="M 311.472656 286.292969 C 311.472656 287.371094 311.421875 288.449219 311.316406 289.523438 C 311.210938 290.597656 311.050781 291.664062 310.839844 292.722656 C 310.628906 293.78125 310.367188 294.824219 310.054688 295.859375 C 309.742188 296.890625 309.378906 297.90625 308.964844 298.902344 C 308.550781 299.902344 308.089844 300.875 307.582031 301.828125 C 307.074219 302.777344 306.519531 303.703125 305.921875 304.601562 C 305.320312 305.496094 304.679688 306.363281 303.996094 307.199219 C 303.308594 308.03125 302.585938 308.832031 301.824219 309.59375 C 301.058594 310.355469 300.261719 311.082031 299.425781 311.765625 C 298.59375 312.449219 297.726562 313.089844 296.828125 313.691406 C 295.933594 314.289062 295.007812 314.84375 294.054688 315.355469 C 293.105469 315.863281 292.128906 316.324219 291.132812 316.738281 C 290.136719 317.148438 289.121094 317.511719 288.085938 317.824219 C 287.054688 318.140625 286.007812 318.402344 284.949219 318.613281 C 283.894531 318.820312 282.828125 318.980469 281.753906 319.085938 C 280.679688 319.191406 279.601562 319.246094 278.523438 319.246094 C 277.445312 319.246094 276.367188 319.191406 275.292969 319.085938 C 274.21875 318.980469 273.152344 318.820312 272.09375 318.613281 C 271.035156 318.402344 269.988281 318.140625 268.957031 317.824219 C 267.925781 317.511719 266.910156 317.148438 265.914062 316.738281 C 264.914062 316.324219 263.941406 315.863281 262.988281 315.355469 C 262.039062 314.84375 261.113281 314.289062 260.214844 313.691406 C 259.320312 313.09375 258.453125 312.449219 257.617188 311.765625 C 256.785156 311.082031 255.984375 310.355469 255.222656 309.59375 C 254.460938 308.832031 253.734375 308.03125 253.050781 307.199219 C 252.367188 306.363281 251.722656 305.496094 251.125 304.601562 C 250.523438 303.703125 249.972656 302.777344 249.460938 301.828125 C 248.953125 300.875 248.492188 299.902344 248.078125 298.902344 C 247.667969 297.90625 247.304688 296.890625 246.992188 295.859375 C 246.675781 294.824219 246.414062 293.78125 246.203125 292.722656 C 245.992188 291.664062 245.835938 290.597656 245.730469 289.523438 C 245.625 288.449219 245.570312 287.371094 245.570312 286.292969 C 245.570312 285.214844 245.625 284.136719 245.730469 283.0625 C 245.835938 281.988281 245.992188 280.921875 246.203125 279.863281 C 246.414062 278.804688 246.675781 277.761719 246.992188 276.726562 C 247.304688 275.695312 247.667969 274.679688 248.078125 273.683594 C 248.492188 272.6875 248.953125 271.710938 249.460938 270.761719 C 249.972656 269.808594 250.523438 268.882812 251.125 267.988281 C 251.722656 267.089844 252.367188 266.222656 253.050781 265.390625 C 253.734375 264.554688 254.460938 263.757812 255.222656 262.992188 C 255.984375 262.230469 256.785156 261.507812 257.617188 260.820312 C 258.453125 260.136719 259.320312 259.496094 260.214844 258.894531 C 261.113281 258.296875 262.039062 257.742188 262.988281 257.234375 C 263.941406 256.722656 264.914062 256.261719 265.914062 255.851562 C 266.910156 255.4375 267.925781 255.074219 268.957031 254.761719 C 269.988281 254.449219 271.035156 254.1875 272.09375 253.976562 C 273.152344 253.765625 274.21875 253.605469 275.292969 253.5 C 276.367188 253.394531 277.445312 253.34375 278.523438 253.34375 C 279.601562 253.34375 280.679688 253.394531 281.753906 253.5 C 282.828125 253.605469 283.894531 253.765625 284.949219 253.976562 C 286.007812 254.1875 287.054688 254.449219 288.085938 254.761719 C 289.121094 255.074219 290.136719 255.4375 291.132812 255.851562 C 292.128906 256.261719 293.105469 256.722656 294.054688 257.234375 C 295.007812 257.742188 295.933594 258.296875 296.828125 258.894531 C 297.726562 259.496094 298.59375 260.136719 299.425781 260.820312 C 300.261719 261.507812 301.058594 262.230469 301.824219 262.992188 C 302.585938 263.757812 303.308594 264.554688 303.996094 265.390625 C 304.679688 266.222656 305.320312 267.089844 305.921875 267.988281 C 306.519531 268.882812 307.074219 269.808594 307.582031 270.761719 C 308.089844 271.710938 308.550781 272.6875 308.964844 273.683594 C 309.378906 274.679688 309.742188 275.695312 310.054688 276.726562 C 310.367188 277.761719 310.628906 278.804688 310.839844 279.863281 C 311.050781 280.921875 311.210938 281.988281 311.316406 283.0625 C 311.421875 284.136719 311.472656 285.214844 311.472656 286.292969 Z M 311.472656 286.292969 " fill-opacity="1" fill-rule="nonzero"/><path fill="#350802" d="M 298.121094 259.804688 C 298.710938 260.589844 299.261719 261.398438 299.78125 262.230469 C 300.296875 263.066406 300.777344 263.921875 301.214844 264.796875 C 301.65625 265.675781 302.054688 266.570312 302.417969 267.480469 C 302.777344 268.394531 303.09375 269.320312 303.371094 270.261719 C 303.648438 271.203125 303.886719 272.15625 304.078125 273.117188 C 304.269531 274.078125 304.417969 275.046875 304.523438 276.023438 C 304.628906 277 304.691406 277.976562 304.710938 278.957031 C 304.726562 279.9375 304.703125 280.917969 304.632812 281.894531 C 304.5625 282.875 304.453125 283.847656 304.292969 284.816406 C 304.136719 285.785156 303.9375 286.746094 303.695312 287.695312 C 303.453125 288.644531 303.171875 289.585938 302.84375 290.511719 C 302.519531 291.433594 302.152344 292.34375 301.746094 293.238281 C 301.335938 294.128906 300.890625 295 300.40625 295.855469 C 299.921875 296.707031 299.398438 297.535156 298.839844 298.34375 C 298.28125 299.148438 297.683594 299.925781 297.054688 300.679688 C 296.425781 301.433594 295.765625 302.15625 295.070312 302.851562 C 294.378906 303.542969 293.65625 304.203125 292.902344 304.832031 C 292.148438 305.460938 291.371094 306.058594 290.5625 306.617188 C 289.757812 307.175781 288.929688 307.699219 288.074219 308.183594 C 287.222656 308.667969 286.351562 309.113281 285.457031 309.519531 C 284.566406 309.929688 283.65625 310.292969 282.730469 310.621094 C 281.804688 310.945312 280.867188 311.230469 279.917969 311.472656 C 278.964844 311.714844 278.007812 311.914062 277.039062 312.070312 C 276.070312 312.226562 275.09375 312.339844 274.117188 312.40625 C 273.136719 312.476562 272.160156 312.503906 271.175781 312.484375 C 270.195312 312.464844 269.21875 312.402344 268.242188 312.296875 C 267.269531 312.191406 266.300781 312.042969 265.335938 311.851562 C 264.375 311.65625 263.421875 311.421875 262.484375 311.144531 C 261.542969 310.867188 260.613281 310.550781 259.703125 310.1875 C 258.789062 309.828125 257.894531 309.429688 257.019531 308.988281 C 256.140625 308.546875 255.285156 308.070312 254.453125 307.550781 C 253.617188 307.035156 252.808594 306.480469 252.027344 305.894531 C 252.730469 306.832031 253.484375 307.730469 254.285156 308.589844 C 255.089844 309.449219 255.933594 310.265625 256.824219 311.03125 C 257.714844 311.800781 258.640625 312.519531 259.605469 313.191406 C 260.574219 313.859375 261.574219 314.476562 262.605469 315.035156 C 263.636719 315.597656 264.695312 316.105469 265.78125 316.554688 C 266.867188 317.003906 267.976562 317.390625 269.105469 317.722656 C 270.230469 318.050781 271.375 318.320312 272.53125 318.527344 C 273.6875 318.738281 274.851562 318.882812 276.023438 318.964844 C 277.199219 319.046875 278.371094 319.070312 279.546875 319.027344 C 280.71875 318.984375 281.890625 318.878906 283.050781 318.710938 C 284.214844 318.542969 285.367188 318.3125 286.503906 318.023438 C 287.644531 317.730469 288.765625 317.378906 289.867188 316.96875 C 290.964844 316.558594 292.042969 316.089844 293.09375 315.5625 C 294.144531 315.035156 295.164062 314.457031 296.152344 313.820312 C 297.140625 313.183594 298.09375 312.496094 299.007812 311.761719 C 299.925781 311.023438 300.796875 310.238281 301.628906 309.40625 C 302.460938 308.578125 303.242188 307.703125 303.980469 306.789062 C 304.71875 305.875 305.40625 304.921875 306.042969 303.933594 C 306.675781 302.945312 307.257812 301.925781 307.785156 300.875 C 308.3125 299.824219 308.78125 298.746094 309.191406 297.644531 C 309.601562 296.542969 309.953125 295.425781 310.246094 294.285156 C 310.535156 293.148438 310.765625 291.996094 310.933594 290.832031 C 311.101562 289.667969 311.207031 288.5 311.25 287.328125 C 311.292969 286.152344 311.273438 284.976562 311.191406 283.804688 C 311.109375 282.632812 310.960938 281.46875 310.753906 280.3125 C 310.546875 279.15625 310.277344 278.011719 309.949219 276.882812 C 309.617188 275.757812 309.230469 274.648438 308.78125 273.5625 C 308.332031 272.476562 307.828125 271.417969 307.265625 270.386719 C 306.703125 269.351562 306.085938 268.351562 305.417969 267.386719 C 304.75 266.421875 304.03125 265.492188 303.261719 264.601562 C 302.492188 263.714844 301.679688 262.867188 300.820312 262.066406 C 299.960938 261.265625 299.0625 260.511719 298.121094 259.804688 Z M 298.121094 259.804688 " fill-opacity="1" fill-rule="nonzero"/><path fill="#702a1c" d="M 281.089844 265.871094 C 281.574219 266.277344 282.035156 266.703125 282.472656 267.15625 C 282.914062 267.605469 283.332031 268.074219 283.726562 268.566406 C 284.121094 269.058594 284.488281 269.566406 284.832031 270.09375 C 285.179688 270.621094 285.496094 271.164062 285.785156 271.722656 C 286.078125 272.277344 286.339844 272.851562 286.574219 273.433594 C 286.808594 274.019531 287.015625 274.613281 287.191406 275.214844 C 287.367188 275.820312 287.515625 276.429688 287.632812 277.046875 C 287.75 277.667969 287.832031 278.289062 287.890625 278.914062 C 287.945312 279.542969 287.96875 280.171875 287.960938 280.800781 C 287.957031 281.429688 287.917969 282.054688 287.851562 282.679688 C 287.785156 283.304688 287.683594 283.925781 287.554688 284.539062 C 287.425781 285.15625 287.269531 285.761719 287.078125 286.363281 C 286.890625 286.960938 286.671875 287.550781 286.425781 288.128906 C 286.179688 288.707031 285.90625 289.273438 285.601562 289.824219 C 285.300781 290.375 284.972656 290.910156 284.617188 291.425781 C 284.261719 291.945312 283.882812 292.445312 283.480469 292.925781 C 283.074219 293.40625 282.648438 293.867188 282.199219 294.308594 C 281.75 294.746094 281.28125 295.164062 280.789062 295.554688 C 280.300781 295.949219 279.792969 296.316406 279.265625 296.660156 C 278.738281 297.003906 278.195312 297.320312 277.636719 297.609375 C 277.082031 297.898438 276.511719 298.160156 275.925781 298.394531 C 275.34375 298.628906 274.75 298.832031 274.144531 299.007812 C 273.542969 299.183594 272.929688 299.328125 272.3125 299.445312 C 271.695312 299.558594 271.070312 299.644531 270.445312 299.699219 C 269.820312 299.75 269.191406 299.773438 268.5625 299.765625 C 267.933594 299.761719 267.304688 299.722656 266.679688 299.652344 C 266.054688 299.582031 265.433594 299.484375 264.816406 299.351562 C 264.203125 299.222656 263.59375 299.0625 262.996094 298.875 C 262.394531 298.683594 261.804688 298.464844 261.226562 298.21875 C 260.648438 297.96875 260.082031 297.695312 259.53125 297.390625 C 258.976562 297.089844 258.441406 296.757812 257.921875 296.402344 C 257.402344 296.046875 256.902344 295.667969 256.421875 295.261719 C 255.9375 294.859375 255.476562 294.429688 255.035156 293.980469 C 254.597656 293.53125 254.179688 293.058594 253.785156 292.570312 C 253.390625 292.078125 253.023438 291.570312 252.675781 291.042969 C 252.332031 290.515625 252.015625 289.972656 251.726562 289.414062 C 251.433594 288.855469 251.171875 288.285156 250.9375 287.699219 C 250.703125 287.117188 250.496094 286.523438 250.320312 285.917969 C 250.140625 285.316406 249.996094 284.703125 249.878906 284.085938 C 249.761719 283.46875 249.675781 282.84375 249.621094 282.21875 C 249.566406 281.59375 249.542969 280.964844 249.546875 280.335938 C 249.554688 279.707031 249.59375 279.078125 249.660156 278.453125 C 249.726562 277.828125 249.828125 277.210938 249.957031 276.59375 C 250.085938 275.980469 250.242188 275.371094 250.433594 274.773438 C 250.621094 274.171875 250.839844 273.582031 251.085938 273.003906 C 251.332031 272.425781 251.605469 271.863281 251.90625 271.3125 C 252.210938 270.761719 252.539062 270.226562 252.894531 269.707031 C 253.246094 269.1875 253.628906 268.6875 254.03125 268.207031 C 254.433594 267.726562 254.863281 267.265625 255.3125 266.828125 C 255.761719 266.386719 256.230469 265.972656 256.71875 265.578125 C 257.210938 265.183594 257.71875 264.816406 258.246094 264.472656 C 258.773438 264.132812 259.316406 263.816406 259.871094 263.523438 C 260.429688 263.234375 261 262.972656 261.585938 262.738281 C 262.167969 262.507812 262.761719 262.300781 263.367188 262.125 C 263.96875 261.953125 264.582031 261.804688 265.199219 261.691406 C 265.816406 261.574219 266.4375 261.492188 267.066406 261.4375 C 267.691406 261.382812 268.320312 261.359375 268.949219 261.367188 C 269.578125 261.375 270.207031 261.414062 270.832031 261.480469 C 271.457031 261.550781 272.078125 261.652344 272.691406 261.78125 C 273.308594 261.910156 273.917969 262.070312 274.515625 262.261719 C 275.117188 262.449219 275.707031 262.667969 276.285156 262.917969 C 276.863281 263.164062 277.429688 263.441406 277.980469 263.742188 C 278.53125 264.046875 279.070312 264.375 279.589844 264.730469 C 280.109375 265.085938 280.609375 265.46875 281.089844 265.871094 Z M 281.089844 265.871094 " fill-opacity="1" fill-rule="nonzero"/><path fill="#541a0c" d="M 220.367188 190.863281 C 220.367188 191.941406 220.316406 193.019531 220.210938 194.09375 C 220.105469 195.167969 219.945312 196.230469 219.734375 197.289062 C 219.523438 198.347656 219.261719 199.394531 218.949219 200.425781 C 218.636719 201.460938 218.273438 202.476562 217.859375 203.472656 C 217.445312 204.46875 216.984375 205.445312 216.476562 206.394531 C 215.96875 207.347656 215.414062 208.273438 214.816406 209.167969 C 214.214844 210.066406 213.574219 210.933594 212.886719 211.765625 C 212.203125 212.601562 211.480469 213.398438 210.71875 214.164062 C 209.953125 214.925781 209.15625 215.648438 208.320312 216.332031 C 207.488281 217.019531 206.621094 217.660156 205.722656 218.261719 C 204.828125 218.859375 203.902344 219.414062 202.949219 219.921875 C 202 220.429688 201.023438 220.890625 200.027344 221.304688 C 199.03125 221.71875 198.015625 222.082031 196.980469 222.394531 C 195.949219 222.707031 194.902344 222.96875 193.84375 223.179688 C 192.789062 223.390625 191.722656 223.550781 190.648438 223.65625 C 189.574219 223.761719 188.496094 223.8125 187.417969 223.8125 C 186.339844 223.8125 185.261719 223.761719 184.1875 223.65625 C 183.113281 223.550781 182.046875 223.390625 180.988281 223.179688 C 179.929688 222.96875 178.882812 222.707031 177.851562 222.394531 C 176.820312 222.082031 175.804688 221.71875 174.808594 221.304688 C 173.808594 220.890625 172.835938 220.429688 171.882812 219.921875 C 170.933594 219.414062 170.007812 218.859375 169.109375 218.261719 C 168.214844 217.660156 167.347656 217.019531 166.511719 216.332031 C 165.679688 215.648438 164.878906 214.925781 164.117188 214.164062 C 163.355469 213.398438 162.628906 212.601562 161.945312 211.765625 C 161.261719 210.933594 160.617188 210.066406 160.019531 209.167969 C 159.417969 208.273438 158.867188 207.347656 158.355469 206.394531 C 157.847656 205.445312 157.386719 204.46875 156.972656 203.472656 C 156.5625 202.476562 156.199219 201.460938 155.886719 200.425781 C 155.570312 199.394531 155.308594 198.347656 155.097656 197.289062 C 154.886719 196.230469 154.730469 195.167969 154.625 194.09375 C 154.519531 193.019531 154.464844 191.941406 154.464844 190.863281 C 154.464844 189.785156 154.519531 188.707031 154.625 187.632812 C 154.730469 186.558594 154.886719 185.492188 155.097656 184.433594 C 155.308594 183.375 155.570312 182.328125 155.886719 181.296875 C 156.199219 180.265625 156.5625 179.25 156.972656 178.253906 C 157.386719 177.253906 157.847656 176.28125 158.355469 175.328125 C 158.867188 174.378906 159.417969 173.453125 160.019531 172.554688 C 160.617188 171.660156 161.261719 170.792969 161.945312 169.957031 C 162.628906 169.125 163.355469 168.324219 164.117188 167.5625 C 164.878906 166.800781 165.679688 166.074219 166.511719 165.390625 C 167.347656 164.707031 168.214844 164.0625 169.109375 163.464844 C 170.007812 162.863281 170.933594 162.3125 171.882812 161.800781 C 172.835938 161.292969 173.808594 160.832031 174.808594 160.417969 C 175.804688 160.007812 176.820312 159.644531 177.851562 159.332031 C 178.882812 159.015625 179.929688 158.753906 180.988281 158.542969 C 182.046875 158.332031 183.113281 158.175781 184.1875 158.070312 C 185.261719 157.964844 186.339844 157.910156 187.417969 157.910156 C 188.496094 157.910156 189.574219 157.964844 190.648438 158.070312 C 191.722656 158.175781 192.789062 158.332031 193.84375 158.542969 C 194.902344 158.753906 195.949219 159.015625 196.980469 159.332031 C 198.015625 159.644531 199.03125 160.007812 200.027344 160.417969 C 201.023438 160.832031 202 161.292969 202.949219 161.800781 C 203.902344 162.3125 204.828125 162.863281 205.722656 163.464844 C 206.621094 164.0625 207.488281 164.707031 208.320312 165.390625 C 209.15625 166.074219 209.953125 166.800781 210.71875 167.5625 C 211.480469 168.324219 212.203125 169.125 212.886719 169.957031 C 213.574219 170.792969 214.214844 171.660156 214.816406 172.554688 C 215.414062 173.453125 215.96875 174.378906 216.476562 175.328125 C 216.984375 176.28125 217.445312 177.253906 217.859375 178.253906 C 218.273438 179.25 218.636719 180.265625 218.949219 181.296875 C 219.261719 182.328125 219.523438 183.375 219.734375 184.433594 C 219.945312 185.492188 220.105469 186.558594 220.210938 187.632812 C 220.316406 188.707031 220.367188 189.785156 220.367188 190.863281 Z M 220.367188 190.863281 " fill-opacity="1" fill-rule="nonzero"/><path fill="#350802" d="M 207.015625 164.371094 C 207.605469 165.15625 208.15625 165.964844 208.675781 166.800781 C 209.191406 167.632812 209.671875 168.488281 210.109375 169.367188 C 210.550781 170.242188 210.949219 171.136719 211.3125 172.050781 C 211.671875 172.964844 211.988281 173.890625 212.265625 174.832031 C 212.542969 175.773438 212.78125 176.722656 212.972656 177.6875 C 213.164062 178.648438 213.3125 179.617188 213.417969 180.589844 C 213.523438 181.566406 213.585938 182.546875 213.605469 183.527344 C 213.621094 184.507812 213.597656 185.488281 213.527344 186.464844 C 213.457031 187.445312 213.347656 188.417969 213.1875 189.386719 C 213.03125 190.355469 212.832031 191.3125 212.589844 192.265625 C 212.347656 193.214844 212.066406 194.152344 211.738281 195.078125 C 211.414062 196.003906 211.046875 196.914062 210.640625 197.804688 C 210.230469 198.699219 209.785156 199.570312 209.300781 200.421875 C 208.816406 201.277344 208.292969 202.105469 207.734375 202.910156 C 207.171875 203.71875 206.578125 204.496094 205.949219 205.25 C 205.320312 206 204.660156 206.726562 203.964844 207.417969 C 203.273438 208.113281 202.550781 208.773438 201.796875 209.402344 C 201.042969 210.03125 200.265625 210.625 199.457031 211.183594 C 198.652344 211.746094 197.824219 212.265625 196.96875 212.75 C 196.117188 213.238281 195.246094 213.683594 194.351562 214.089844 C 193.460938 214.496094 192.550781 214.863281 191.625 215.191406 C 190.699219 215.515625 189.761719 215.800781 188.8125 216.042969 C 187.859375 216.285156 186.902344 216.484375 185.933594 216.640625 C 184.964844 216.796875 183.988281 216.90625 183.011719 216.976562 C 182.03125 217.046875 181.054688 217.070312 180.070312 217.054688 C 179.089844 217.035156 178.113281 216.972656 177.136719 216.867188 C 176.164062 216.761719 175.195312 216.613281 174.230469 216.417969 C 173.269531 216.226562 172.316406 215.992188 171.378906 215.714844 C 170.4375 215.4375 169.507812 215.117188 168.597656 214.757812 C 167.683594 214.398438 166.789062 213.996094 165.914062 213.554688 C 165.035156 213.117188 164.179688 212.636719 163.347656 212.121094 C 162.511719 211.605469 161.703125 211.050781 160.921875 210.460938 C 161.625 211.402344 162.378906 212.300781 163.179688 213.160156 C 163.984375 214.019531 164.828125 214.832031 165.71875 215.601562 C 166.609375 216.371094 167.535156 217.089844 168.5 217.757812 C 169.46875 218.429688 170.46875 219.042969 171.5 219.605469 C 172.53125 220.167969 173.589844 220.671875 174.675781 221.121094 C 175.761719 221.570312 176.871094 221.960938 178 222.289062 C 179.125 222.621094 180.269531 222.890625 181.425781 223.097656 C 182.582031 223.304688 183.746094 223.453125 184.917969 223.535156 C 186.09375 223.617188 187.265625 223.636719 188.441406 223.59375 C 189.613281 223.550781 190.785156 223.445312 191.945312 223.28125 C 193.109375 223.113281 194.261719 222.882812 195.398438 222.589844 C 196.539062 222.300781 197.660156 221.949219 198.761719 221.539062 C 199.859375 221.125 200.9375 220.65625 201.988281 220.132812 C 203.039062 219.605469 204.058594 219.023438 205.046875 218.390625 C 206.035156 217.753906 206.988281 217.066406 207.902344 216.328125 C 208.820312 215.589844 209.691406 214.808594 210.523438 213.976562 C 211.355469 213.144531 212.136719 212.273438 212.875 211.355469 C 213.613281 210.441406 214.300781 209.492188 214.9375 208.5 C 215.570312 207.511719 216.152344 206.492188 216.679688 205.441406 C 217.207031 204.390625 217.675781 203.316406 218.085938 202.214844 C 218.496094 201.113281 218.847656 199.992188 219.140625 198.855469 C 219.429688 197.714844 219.660156 196.566406 219.828125 195.402344 C 219.996094 194.238281 220.101562 193.070312 220.144531 191.894531 C 220.1875 190.722656 220.167969 189.546875 220.085938 188.375 C 220.003906 187.203125 219.855469 186.039062 219.648438 184.878906 C 219.441406 183.722656 219.171875 182.582031 218.84375 181.453125 C 218.511719 180.324219 218.125 179.21875 217.675781 178.132812 C 217.226562 177.046875 216.722656 175.984375 216.160156 174.953125 C 215.597656 173.921875 214.980469 172.921875 214.3125 171.957031 C 213.644531 170.988281 212.925781 170.0625 212.15625 169.171875 C 211.386719 168.28125 210.574219 167.4375 209.714844 166.636719 C 208.855469 165.832031 207.957031 165.078125 207.015625 164.371094 Z M 207.015625 164.371094 " fill-opacity="1" fill-rule="nonzero"/><path fill="#702a1c" d="M 192.28125 167.871094 C 192.765625 168.277344 193.226562 168.703125 193.667969 169.15625 C 194.105469 169.605469 194.523438 170.074219 194.917969 170.566406 C 195.3125 171.058594 195.683594 171.566406 196.027344 172.09375 C 196.371094 172.621094 196.6875 173.164062 196.980469 173.71875 C 197.269531 174.277344 197.53125 174.851562 197.769531 175.433594 C 198.003906 176.015625 198.207031 176.613281 198.382812 177.214844 C 198.5625 177.820312 198.707031 178.429688 198.824219 179.046875 C 198.941406 179.667969 199.027344 180.289062 199.082031 180.914062 C 199.136719 181.542969 199.160156 182.171875 199.15625 182.796875 C 199.148438 183.425781 199.113281 184.054688 199.042969 184.679688 C 198.976562 185.304688 198.878906 185.925781 198.75 186.539062 C 198.621094 187.15625 198.460938 187.761719 198.273438 188.363281 C 198.082031 188.960938 197.867188 189.550781 197.621094 190.128906 C 197.371094 190.707031 197.097656 191.269531 196.796875 191.824219 C 196.492188 192.375 196.164062 192.90625 195.8125 193.425781 C 195.457031 193.945312 195.078125 194.445312 194.671875 194.925781 C 194.269531 195.40625 193.84375 195.867188 193.394531 196.308594 C 192.941406 196.746094 192.472656 197.164062 191.984375 197.554688 C 191.492188 197.949219 190.984375 198.316406 190.457031 198.660156 C 189.929688 199.003906 189.390625 199.320312 188.832031 199.609375 C 188.273438 199.898438 187.703125 200.160156 187.121094 200.394531 C 186.535156 200.628906 185.941406 200.832031 185.339844 201.007812 C 184.734375 201.183594 184.125 201.328125 183.503906 201.445312 C 182.886719 201.558594 182.265625 201.644531 181.636719 201.699219 C 181.011719 201.75 180.382812 201.773438 179.753906 201.765625 C 179.125 201.757812 178.496094 201.722656 177.871094 201.652344 C 177.246094 201.582031 176.625 201.484375 176.011719 201.351562 C 175.394531 201.222656 174.789062 201.0625 174.1875 200.875 C 173.585938 200.683594 172.996094 200.464844 172.417969 200.21875 C 171.839844 199.96875 171.273438 199.695312 170.722656 199.390625 C 170.171875 199.085938 169.636719 198.757812 169.117188 198.402344 C 168.597656 198.046875 168.09375 197.667969 167.613281 197.261719 C 167.132812 196.855469 166.667969 196.429688 166.230469 195.980469 C 165.789062 195.53125 165.371094 195.058594 164.976562 194.570312 C 164.582031 194.078125 164.214844 193.570312 163.871094 193.042969 C 163.527344 192.515625 163.207031 191.972656 162.917969 191.414062 C 162.625 190.855469 162.363281 190.285156 162.128906 189.699219 C 161.894531 189.117188 161.6875 188.523438 161.511719 187.917969 C 161.335938 187.316406 161.1875 186.703125 161.070312 186.085938 C 160.957031 185.46875 160.871094 184.84375 160.816406 184.21875 C 160.757812 183.59375 160.734375 182.964844 160.742188 182.335938 C 160.746094 181.707031 160.785156 181.078125 160.851562 180.453125 C 160.921875 179.828125 161.019531 179.210938 161.148438 178.59375 C 161.277344 177.980469 161.4375 177.371094 161.625 176.773438 C 161.8125 176.171875 162.03125 175.582031 162.277344 175.003906 C 162.523438 174.425781 162.796875 173.863281 163.101562 173.3125 C 163.402344 172.761719 163.730469 172.226562 164.085938 171.707031 C 164.441406 171.1875 164.820312 170.6875 165.222656 170.207031 C 165.628906 169.726562 166.054688 169.265625 166.503906 168.828125 C 166.953125 168.386719 167.421875 167.972656 167.914062 167.578125 C 168.402344 167.183594 168.910156 166.816406 169.4375 166.472656 C 169.964844 166.132812 170.507812 165.816406 171.066406 165.523438 C 171.621094 165.234375 172.195312 164.972656 172.777344 164.738281 C 173.359375 164.507812 173.953125 164.300781 174.558594 164.125 C 175.164062 163.949219 175.773438 163.804688 176.390625 163.691406 C 177.007812 163.574219 177.632812 163.492188 178.257812 163.4375 C 178.886719 163.382812 179.511719 163.359375 180.140625 163.367188 C 180.769531 163.375 181.398438 163.414062 182.023438 163.480469 C 182.648438 163.550781 183.269531 163.652344 183.886719 163.78125 C 184.5 163.910156 185.109375 164.070312 185.710938 164.261719 C 186.308594 164.449219 186.898438 164.667969 187.476562 164.917969 C 188.054688 165.164062 188.621094 165.441406 189.171875 165.742188 C 189.726562 166.046875 190.261719 166.375 190.78125 166.730469 C 191.300781 167.085938 191.800781 167.46875 192.28125 167.871094 Z M 192.28125 167.871094 " fill-opacity="1" fill-rule="nonzero"/><path fill="#541a0c" d="M 123.136719 89.886719 C 123.136719 90.96875 123.085938 92.042969 122.980469 93.117188 C 122.875 94.191406 122.714844 95.257812 122.503906 96.316406 C 122.292969 97.375 122.03125 98.421875 121.71875 99.453125 C 121.40625 100.488281 121.042969 101.5 120.628906 102.5 C 120.214844 103.496094 119.757812 104.46875 119.246094 105.421875 C 118.738281 106.375 118.183594 107.296875 117.585938 108.195312 C 116.984375 109.09375 116.34375 109.957031 115.660156 110.792969 C 114.972656 111.625 114.25 112.425781 113.488281 113.1875 C 112.722656 113.953125 111.925781 114.675781 111.089844 115.359375 C 110.257812 116.042969 109.390625 116.6875 108.492188 117.285156 C 107.597656 117.886719 106.671875 118.441406 105.71875 118.949219 C 104.769531 119.457031 103.792969 119.917969 102.796875 120.332031 C 101.800781 120.746094 100.785156 121.105469 99.753906 121.421875 C 98.71875 121.734375 97.671875 121.996094 96.617188 122.207031 C 95.558594 122.417969 94.492188 122.574219 93.417969 122.679688 C 92.34375 122.785156 91.265625 122.839844 90.1875 122.839844 C 89.109375 122.839844 88.03125 122.785156 86.957031 122.679688 C 85.882812 122.574219 84.816406 122.417969 83.757812 122.207031 C 82.699219 121.996094 81.65625 121.734375 80.621094 121.421875 C 79.589844 121.105469 78.574219 120.746094 77.578125 120.332031 C 76.578125 119.917969 75.605469 119.457031 74.652344 118.949219 C 73.703125 118.441406 72.777344 117.886719 71.878906 117.285156 C 70.984375 116.6875 70.117188 116.042969 69.28125 115.359375 C 68.449219 114.675781 67.648438 113.953125 66.886719 113.1875 C 66.125 112.425781 65.398438 111.625 64.714844 110.792969 C 64.03125 109.957031 63.386719 109.09375 62.789062 108.195312 C 62.191406 107.296875 61.636719 106.375 61.125 105.421875 C 60.617188 104.46875 60.15625 103.496094 59.742188 102.5 C 59.332031 101.5 58.96875 100.488281 58.65625 99.453125 C 58.339844 98.421875 58.078125 97.375 57.867188 96.316406 C 57.660156 95.257812 57.5 94.191406 57.394531 93.117188 C 57.289062 92.042969 57.234375 90.96875 57.234375 89.886719 C 57.234375 88.808594 57.289062 87.734375 57.394531 86.660156 C 57.5 85.585938 57.660156 84.519531 57.867188 83.460938 C 58.078125 82.402344 58.339844 81.355469 58.65625 80.324219 C 58.96875 79.289062 59.332031 78.277344 59.742188 77.277344 C 60.15625 76.28125 60.617188 75.308594 61.125 74.355469 C 61.636719 73.402344 62.191406 72.480469 62.789062 71.582031 C 63.386719 70.683594 64.03125 69.820312 64.714844 68.984375 C 65.398438 68.148438 66.125 67.351562 66.886719 66.589844 C 67.648438 65.824219 68.449219 65.101562 69.28125 64.417969 C 70.117188 63.730469 70.984375 63.089844 71.878906 62.492188 C 72.777344 61.890625 73.703125 61.335938 74.652344 60.828125 C 75.605469 60.320312 76.578125 59.859375 77.578125 59.445312 C 78.574219 59.03125 79.589844 58.667969 80.621094 58.355469 C 81.65625 58.042969 82.699219 57.78125 83.757812 57.570312 C 84.816406 57.359375 85.882812 57.203125 86.957031 57.097656 C 88.03125 56.992188 89.109375 56.9375 90.1875 56.9375 C 91.265625 56.9375 92.34375 56.992188 93.417969 57.097656 C 94.492188 57.203125 95.558594 57.359375 96.617188 57.570312 C 97.671875 57.78125 98.71875 58.042969 99.753906 58.355469 C 100.785156 58.667969 101.800781 59.03125 102.796875 59.445312 C 103.792969 59.859375 104.769531 60.320312 105.71875 60.828125 C 106.671875 61.335938 107.597656 61.890625 108.492188 62.492188 C 109.390625 63.089844 110.257812 63.730469 111.089844 64.417969 C 111.925781 65.101562 112.722656 65.824219 113.488281 66.589844 C 114.25 67.351562 114.972656 68.148438 115.660156 68.984375 C 116.34375 69.820312 116.984375 70.683594 117.585938 71.582031 C 118.183594 72.480469 118.738281 73.402344 119.246094 74.355469 C 119.757812 75.308594 120.214844 76.28125 120.628906 77.277344 C 121.042969 78.277344 121.40625 79.289062 121.71875 80.324219 C 122.03125 81.355469 122.292969 82.402344 122.503906 83.460938 C 122.714844 84.519531 122.875 85.585938 122.980469 86.660156 C 123.085938 87.734375 123.136719 88.808594 123.136719 89.886719 Z M 123.136719 89.886719 " fill-opacity="1" fill-rule="nonzero"/><path fill="#350802" d="M 109.785156 63.398438 C 110.375 64.183594 110.929688 64.992188 111.445312 65.828125 C 111.960938 66.660156 112.441406 67.515625 112.878906 68.394531 C 113.320312 69.269531 113.71875 70.164062 114.082031 71.078125 C 114.441406 71.988281 114.757812 72.917969 115.035156 73.855469 C 115.3125 74.796875 115.550781 75.75 115.742188 76.710938 C 115.933594 77.671875 116.082031 78.640625 116.1875 79.617188 C 116.292969 80.59375 116.355469 81.570312 116.375 82.550781 C 116.390625 83.53125 116.367188 84.511719 116.296875 85.492188 C 116.226562 86.46875 116.117188 87.445312 115.960938 88.410156 C 115.800781 89.378906 115.601562 90.339844 115.359375 91.289062 C 115.117188 92.242188 114.835938 93.179688 114.507812 94.105469 C 114.183594 95.03125 113.816406 95.9375 113.410156 96.832031 C 113 97.722656 112.554688 98.597656 112.070312 99.449219 C 111.585938 100.300781 111.0625 101.132812 110.503906 101.9375 C 109.945312 102.742188 109.347656 103.523438 108.71875 104.273438 C 108.089844 105.027344 107.429688 105.75 106.734375 106.445312 C 106.042969 107.136719 105.320312 107.800781 104.566406 108.429688 C 103.8125 109.058594 103.035156 109.652344 102.226562 110.210938 C 101.421875 110.769531 100.59375 111.292969 99.738281 111.777344 C 98.886719 112.261719 98.015625 112.707031 97.121094 113.117188 C 96.230469 113.523438 95.320312 113.890625 94.394531 114.214844 C 93.46875 114.542969 92.53125 114.824219 91.582031 115.066406 C 90.628906 115.308594 89.671875 115.507812 88.703125 115.664062 C 87.734375 115.820312 86.757812 115.933594 85.78125 116.003906 C 84.800781 116.070312 83.824219 116.097656 82.839844 116.078125 C 81.859375 116.0625 80.882812 116 79.90625 115.894531 C 78.933594 115.785156 77.964844 115.636719 77 115.445312 C 76.039062 115.253906 75.089844 115.019531 74.148438 114.738281 C 73.207031 114.460938 72.277344 114.144531 71.367188 113.785156 C 70.453125 113.421875 69.558594 113.023438 68.683594 112.582031 C 67.804688 112.140625 66.949219 111.664062 66.117188 111.148438 C 65.285156 110.628906 64.472656 110.078125 63.691406 109.488281 C 64.394531 110.425781 65.148438 111.328125 65.953125 112.1875 C 66.753906 113.046875 67.597656 113.859375 68.488281 114.628906 C 69.378906 115.398438 70.304688 116.117188 71.269531 116.785156 C 72.238281 117.453125 73.238281 118.070312 74.269531 118.632812 C 75.300781 119.195312 76.359375 119.699219 77.445312 120.148438 C 78.53125 120.597656 79.640625 120.988281 80.769531 121.316406 C 81.894531 121.648438 83.039062 121.917969 84.195312 122.125 C 85.351562 122.332031 86.515625 122.476562 87.6875 122.558594 C 88.863281 122.644531 90.035156 122.664062 91.210938 122.621094 C 92.382812 122.578125 93.554688 122.472656 94.714844 122.304688 C 95.878906 122.136719 97.03125 121.90625 98.167969 121.617188 C 99.308594 121.324219 100.429688 120.976562 101.53125 120.5625 C 102.628906 120.152344 103.707031 119.683594 104.757812 119.15625 C 105.808594 118.632812 106.828125 118.050781 107.816406 117.414062 C 108.804688 116.777344 109.757812 116.09375 110.671875 115.355469 C 111.589844 114.617188 112.460938 113.832031 113.292969 113.003906 C 114.125 112.171875 114.910156 111.296875 115.644531 110.382812 C 116.382812 109.46875 117.070312 108.515625 117.707031 107.527344 C 118.339844 106.539062 118.921875 105.519531 119.449219 104.46875 C 119.976562 103.417969 120.445312 102.339844 120.855469 101.242188 C 121.265625 100.140625 121.617188 99.019531 121.910156 97.882812 C 122.199219 96.742188 122.429688 95.589844 122.597656 94.429688 C 122.765625 93.265625 122.871094 92.097656 122.914062 90.921875 C 122.957031 89.746094 122.9375 88.574219 122.855469 87.402344 C 122.773438 86.226562 122.625 85.0625 122.417969 83.90625 C 122.210938 82.75 121.941406 81.609375 121.613281 80.480469 C 121.28125 79.351562 120.894531 78.242188 120.445312 77.15625 C 119.996094 76.070312 119.492188 75.011719 118.929688 73.980469 C 118.367188 72.949219 117.75 71.949219 117.082031 70.980469 C 116.414062 70.015625 115.695312 69.085938 114.925781 68.199219 C 114.15625 67.308594 113.34375 66.464844 112.484375 65.660156 C 111.625 64.859375 110.726562 64.105469 109.785156 63.398438 Z M 109.785156 63.398438 " fill-opacity="1" fill-rule="nonzero"/><path fill="#702a1c" d="M 95.050781 66.804688 C 95.53125 67.210938 95.992188 67.636719 96.433594 68.085938 C 96.875 68.535156 97.292969 69.007812 97.683594 69.5 C 98.078125 69.988281 98.449219 70.5 98.792969 71.023438 C 99.136719 71.550781 99.453125 72.09375 99.746094 72.652344 C 100.035156 73.210938 100.300781 73.78125 100.535156 74.367188 C 100.769531 74.949219 100.976562 75.542969 101.152344 76.148438 C 101.328125 76.75 101.472656 77.363281 101.589844 77.980469 C 101.707031 78.597656 101.792969 79.222656 101.847656 79.847656 C 101.902344 80.476562 101.929688 81.101562 101.921875 81.730469 C 101.914062 82.359375 101.878906 82.988281 101.8125 83.613281 C 101.742188 84.238281 101.644531 84.855469 101.515625 85.472656 C 101.386719 86.085938 101.226562 86.695312 101.039062 87.292969 C 100.851562 87.894531 100.632812 88.484375 100.386719 89.0625 C 100.140625 89.640625 99.863281 90.203125 99.5625 90.753906 C 99.261719 91.304688 98.933594 91.839844 98.578125 92.359375 C 98.222656 92.878906 97.84375 93.378906 97.4375 93.859375 C 97.035156 94.339844 96.609375 94.800781 96.160156 95.238281 C 95.710938 95.679688 95.238281 96.09375 94.75 96.488281 C 94.257812 96.882812 93.75 97.25 93.222656 97.59375 C 92.699219 97.9375 92.15625 98.253906 91.597656 98.542969 C 91.039062 98.832031 90.46875 99.09375 89.886719 99.328125 C 89.300781 99.558594 88.707031 99.765625 88.105469 99.941406 C 87.5 100.117188 86.890625 100.261719 86.273438 100.375 C 85.652344 100.492188 85.03125 100.574219 84.40625 100.628906 C 83.777344 100.683594 83.148438 100.707031 82.519531 100.699219 C 81.890625 100.691406 81.265625 100.652344 80.640625 100.585938 C 80.015625 100.515625 79.394531 100.414062 78.777344 100.285156 C 78.160156 100.15625 77.554688 99.996094 76.953125 99.804688 C 76.355469 99.617188 75.765625 99.398438 75.183594 99.148438 C 74.605469 98.902344 74.042969 98.625 73.488281 98.324219 C 72.9375 98.019531 72.402344 97.691406 71.882812 97.335938 C 71.363281 96.980469 70.863281 96.597656 70.378906 96.195312 C 69.898438 95.789062 69.4375 95.363281 68.996094 94.914062 C 68.554688 94.460938 68.136719 93.992188 67.746094 93.5 C 67.351562 93.011719 66.980469 92.5 66.636719 91.972656 C 66.292969 91.445312 65.976562 90.90625 65.683594 90.347656 C 65.394531 89.789062 65.128906 89.21875 64.894531 88.632812 C 64.660156 88.050781 64.453125 87.457031 64.277344 86.851562 C 64.101562 86.246094 63.957031 85.636719 63.839844 85.019531 C 63.722656 84.398438 63.636719 83.777344 63.582031 83.152344 C 63.527344 82.523438 63.5 81.898438 63.507812 81.269531 C 63.515625 80.640625 63.550781 80.011719 63.621094 79.386719 C 63.6875 78.761719 63.785156 78.140625 63.914062 77.527344 C 64.042969 76.910156 64.203125 76.304688 64.390625 75.703125 C 64.578125 75.105469 64.796875 74.515625 65.042969 73.9375 C 65.289062 73.359375 65.566406 72.796875 65.867188 72.246094 C 66.167969 71.695312 66.496094 71.160156 66.851562 70.640625 C 67.207031 70.121094 67.585938 69.621094 67.992188 69.140625 C 68.394531 68.660156 68.820312 68.199219 69.269531 67.757812 C 69.71875 67.320312 70.191406 66.902344 70.679688 66.511719 C 71.171875 66.117188 71.679688 65.75 72.207031 65.40625 C 72.730469 65.0625 73.273438 64.746094 73.832031 64.457031 C 74.390625 64.167969 74.960938 63.90625 75.542969 63.671875 C 76.128906 63.4375 76.722656 63.234375 77.324219 63.058594 C 77.929688 62.882812 78.539062 62.738281 79.15625 62.625 C 79.777344 62.507812 80.398438 62.421875 81.023438 62.371094 C 81.652344 62.316406 82.28125 62.292969 82.910156 62.300781 C 83.539062 62.308594 84.164062 62.34375 84.789062 62.414062 C 85.417969 62.484375 86.035156 62.582031 86.652344 62.714844 C 87.269531 62.84375 87.875 63.003906 88.476562 63.195312 C 89.078125 63.382812 89.664062 63.601562 90.246094 63.847656 C 90.824219 64.097656 91.386719 64.371094 91.941406 64.675781 C 92.492188 64.980469 93.027344 65.308594 93.546875 65.664062 C 94.066406 66.019531 94.566406 66.398438 95.050781 66.804688 Z M 95.050781 66.804688 " fill-opacity="1" fill-rule="nonzero"/><path fill="#541a0c" d="M 123.136719 289.355469 C 123.136719 290.433594 123.085938 291.511719 122.980469 292.585938 C 122.875 293.660156 122.714844 294.726562 122.503906 295.785156 C 122.292969 296.84375 122.03125 297.886719 121.71875 298.921875 C 121.40625 299.953125 121.042969 300.96875 120.628906 301.964844 C 120.214844 302.960938 119.757812 303.9375 119.246094 304.890625 C 118.738281 305.839844 118.183594 306.765625 117.585938 307.664062 C 116.984375 308.558594 116.34375 309.425781 115.660156 310.261719 C 114.972656 311.09375 114.25 311.894531 113.488281 312.65625 C 112.722656 313.417969 111.925781 314.144531 111.089844 314.828125 C 110.257812 315.511719 109.390625 316.152344 108.492188 316.753906 C 107.597656 317.351562 106.671875 317.90625 105.71875 318.417969 C 104.769531 318.925781 103.792969 319.386719 102.796875 319.796875 C 101.800781 320.210938 100.785156 320.574219 99.753906 320.886719 C 98.71875 321.203125 97.671875 321.464844 96.617188 321.671875 C 95.558594 321.882812 94.492188 322.042969 93.417969 322.148438 C 92.34375 322.253906 91.265625 322.308594 90.1875 322.308594 C 89.109375 322.308594 88.03125 322.253906 86.957031 322.148438 C 85.882812 322.042969 84.816406 321.882812 83.757812 321.671875 C 82.699219 321.464844 81.65625 321.203125 80.621094 320.886719 C 79.589844 320.574219 78.574219 320.210938 77.578125 319.796875 C 76.578125 319.386719 75.605469 318.925781 74.652344 318.417969 C 73.703125 317.90625 72.777344 317.351562 71.878906 316.753906 C 70.984375 316.152344 70.117188 315.511719 69.28125 314.828125 C 68.449219 314.144531 67.648438 313.417969 66.886719 312.65625 C 66.125 311.894531 65.398438 311.09375 64.714844 310.261719 C 64.03125 309.425781 63.386719 308.558594 62.789062 307.664062 C 62.191406 306.765625 61.636719 305.839844 61.125 304.890625 C 60.617188 303.9375 60.15625 302.960938 59.742188 301.964844 C 59.332031 300.96875 58.96875 299.953125 58.65625 298.921875 C 58.339844 297.886719 58.078125 296.84375 57.867188 295.785156 C 57.660156 294.726562 57.5 293.660156 57.394531 292.585938 C 57.289062 291.511719 57.234375 290.433594 57.234375 289.355469 C 57.234375 288.277344 57.289062 287.199219 57.394531 286.125 C 57.5 285.050781 57.660156 283.984375 57.867188 282.925781 C 58.078125 281.867188 58.339844 280.824219 58.65625 279.789062 C 58.96875 278.757812 59.332031 277.742188 59.742188 276.746094 C 60.15625 275.75 60.617188 274.773438 61.125 273.824219 C 61.636719 272.871094 62.191406 271.945312 62.789062 271.050781 C 63.386719 270.152344 64.03125 269.285156 64.714844 268.453125 C 65.398438 267.617188 66.125 266.820312 66.886719 266.054688 C 67.648438 265.292969 68.449219 264.570312 69.28125 263.882812 C 70.117188 263.199219 70.984375 262.558594 71.878906 261.957031 C 72.777344 261.359375 73.703125 260.804688 74.652344 260.296875 C 75.605469 259.785156 76.578125 259.324219 77.578125 258.914062 C 78.574219 258.5 79.589844 258.136719 80.621094 257.824219 C 81.65625 257.511719 82.699219 257.25 83.757812 257.039062 C 84.816406 256.828125 85.882812 256.667969 86.957031 256.5625 C 88.03125 256.457031 89.109375 256.40625 90.1875 256.40625 C 91.265625 256.40625 92.34375 256.457031 93.417969 256.5625 C 94.492188 256.667969 95.558594 256.828125 96.617188 257.039062 C 97.671875 257.25 98.71875 257.511719 99.753906 257.824219 C 100.785156 258.136719 101.800781 258.5 102.796875 258.914062 C 103.792969 259.324219 104.769531 259.785156 105.71875 260.296875 C 106.671875 260.804688 107.597656 261.359375 108.492188 261.957031 C 109.390625 262.558594 110.257812 263.199219 111.089844 263.882812 C 111.925781 264.570312 112.722656 265.292969 113.488281 266.054688 C 114.25 266.820312 114.972656 267.617188 115.660156 268.453125 C 116.34375 269.285156 116.984375 270.152344 117.585938 271.050781 C 118.183594 271.945312 118.738281 272.871094 119.246094 273.824219 C 119.757812 274.773438 120.214844 275.75 120.628906 276.746094 C 121.042969 277.742188 121.40625 278.757812 121.71875 279.789062 C 122.03125 280.824219 122.292969 281.867188 122.503906 282.925781 C 122.714844 283.984375 122.875 285.050781 122.980469 286.125 C 123.085938 287.199219 123.136719 288.277344 123.136719 289.355469 Z M 123.136719 289.355469 " fill-opacity="1" fill-rule="nonzero"/><path fill="#350802" d="M 109.785156 262.867188 C 110.375 263.652344 110.929688 264.460938 111.445312 265.292969 C 111.960938 266.128906 112.441406 266.984375 112.878906 267.859375 C 113.320312 268.738281 113.71875 269.632812 114.082031 270.542969 C 114.441406 271.457031 114.757812 272.382812 115.035156 273.324219 C 115.3125 274.265625 115.550781 275.21875 115.742188 276.179688 C 115.933594 277.140625 116.082031 278.109375 116.1875 279.085938 C 116.292969 280.058594 116.355469 281.039062 116.375 282.019531 C 116.394531 283 116.367188 283.980469 116.296875 284.957031 C 116.226562 285.9375 116.117188 286.910156 115.960938 287.878906 C 115.804688 288.847656 115.601562 289.808594 115.359375 290.757812 C 115.121094 291.707031 114.835938 292.648438 114.507812 293.570312 C 114.183594 294.496094 113.816406 295.40625 113.410156 296.300781 C 113 297.191406 112.554688 298.0625 112.070312 298.917969 C 111.585938 299.769531 111.0625 300.597656 110.503906 301.40625 C 109.945312 302.210938 109.347656 302.988281 108.71875 303.742188 C 108.089844 304.496094 107.429688 305.21875 106.734375 305.914062 C 106.042969 306.605469 105.320312 307.265625 104.566406 307.894531 C 103.8125 308.523438 103.035156 309.121094 102.226562 309.679688 C 101.421875 310.238281 100.59375 310.761719 99.738281 311.246094 C 98.886719 311.730469 98.015625 312.175781 97.121094 312.582031 C 96.230469 312.992188 95.320312 313.355469 94.394531 313.683594 C 93.46875 314.007812 92.53125 314.292969 91.582031 314.535156 C 90.628906 314.777344 89.671875 314.976562 88.703125 315.132812 C 87.734375 315.289062 86.757812 315.402344 85.78125 315.46875 C 84.800781 315.539062 83.824219 315.566406 82.839844 315.546875 C 81.859375 315.527344 80.882812 315.464844 79.90625 315.359375 C 78.933594 315.253906 77.964844 315.105469 77 314.914062 C 76.039062 314.71875 75.089844 314.484375 74.148438 314.207031 C 73.207031 313.929688 72.277344 313.609375 71.367188 313.25 C 70.453125 312.890625 69.558594 312.488281 68.683594 312.050781 C 67.804688 311.609375 66.949219 311.132812 66.117188 310.613281 C 65.285156 310.097656 64.472656 309.542969 63.691406 308.957031 C 64.394531 309.894531 65.148438 310.792969 65.953125 311.652344 C 66.753906 312.511719 67.597656 313.328125 68.488281 314.09375 C 69.378906 314.863281 70.304688 315.582031 71.269531 316.253906 C 72.238281 316.921875 73.238281 317.539062 74.269531 318.097656 C 75.300781 318.660156 76.359375 319.167969 77.445312 319.617188 C 78.53125 320.066406 79.640625 320.453125 80.769531 320.785156 C 81.894531 321.113281 83.039062 321.382812 84.195312 321.589844 C 85.351562 321.800781 86.515625 321.945312 87.6875 322.027344 C 88.863281 322.109375 90.035156 322.132812 91.210938 322.089844 C 92.382812 322.046875 93.554688 321.941406 94.714844 321.773438 C 95.878906 321.605469 97.03125 321.375 98.167969 321.085938 C 99.308594 320.792969 100.429688 320.441406 101.53125 320.03125 C 102.628906 319.621094 103.707031 319.152344 104.757812 318.625 C 105.808594 318.097656 106.828125 317.519531 107.816406 316.882812 C 108.804688 316.246094 109.757812 315.558594 110.671875 314.824219 C 111.589844 314.085938 112.460938 313.300781 113.292969 312.46875 C 114.125 311.640625 114.90625 310.765625 115.644531 309.851562 C 116.382812 308.9375 117.070312 307.984375 117.707031 306.996094 C 118.339844 306.007812 118.921875 304.988281 119.449219 303.9375 C 119.976562 302.886719 120.445312 301.808594 120.855469 300.707031 C 121.265625 299.605469 121.617188 298.488281 121.910156 297.347656 C 122.199219 296.210938 122.429688 295.058594 122.597656 293.894531 C 122.765625 292.730469 122.871094 291.5625 122.914062 290.390625 C 122.957031 289.214844 122.9375 288.039062 122.855469 286.867188 C 122.773438 285.695312 122.625 284.53125 122.417969 283.375 C 122.210938 282.21875 121.941406 281.074219 121.613281 279.945312 C 121.28125 278.820312 120.894531 277.710938 120.445312 276.625 C 119.996094 275.539062 119.492188 274.480469 118.929688 273.445312 C 118.367188 272.414062 117.75 271.414062 117.082031 270.449219 C 116.414062 269.484375 115.695312 268.554688 114.925781 267.664062 C 114.15625 266.777344 113.34375 265.929688 112.484375 265.128906 C 111.625 264.328125 110.726562 263.570312 109.785156 262.867188 Z M 109.785156 262.867188 " fill-opacity="1" fill-rule="nonzero"/><path fill="#702a1c" d="M 95.046875 267.402344 C 95.527344 267.804688 95.988281 268.234375 96.429688 268.683594 C 96.871094 269.132812 97.285156 269.605469 97.679688 270.09375 C 98.074219 270.585938 98.445312 271.09375 98.789062 271.621094 C 99.132812 272.148438 99.449219 272.691406 99.742188 273.25 C 100.03125 273.808594 100.296875 274.378906 100.53125 274.964844 C 100.765625 275.546875 100.96875 276.140625 101.148438 276.746094 C 101.324219 277.347656 101.46875 277.960938 101.585938 278.578125 C 101.703125 279.195312 101.789062 279.820312 101.84375 280.445312 C 101.898438 281.070312 101.925781 281.699219 101.917969 282.328125 C 101.910156 282.957031 101.875 283.582031 101.804688 284.210938 C 101.738281 284.835938 101.640625 285.453125 101.511719 286.070312 C 101.382812 286.683594 101.222656 287.292969 101.035156 287.890625 C 100.84375 288.492188 100.628906 289.082031 100.382812 289.65625 C 100.136719 290.234375 99.859375 290.800781 99.558594 291.351562 C 99.257812 291.902344 98.925781 292.4375 98.574219 292.957031 C 98.21875 293.476562 97.839844 293.976562 97.433594 294.457031 C 97.03125 294.9375 96.605469 295.398438 96.15625 295.835938 C 95.707031 296.277344 95.234375 296.691406 94.746094 297.085938 C 94.253906 297.476562 93.746094 297.847656 93.21875 298.191406 C 92.695312 298.53125 92.152344 298.847656 91.59375 299.140625 C 91.035156 299.429688 90.464844 299.691406 89.882812 299.925781 C 89.296875 300.15625 88.703125 300.363281 88.101562 300.539062 C 87.496094 300.710938 86.886719 300.859375 86.265625 300.972656 C 85.648438 301.089844 85.027344 301.171875 84.398438 301.226562 C 83.773438 301.28125 83.144531 301.304688 82.515625 301.296875 C 81.886719 301.289062 81.261719 301.25 80.632812 301.179688 C 80.007812 301.113281 79.390625 301.011719 78.773438 300.882812 C 78.15625 300.753906 77.550781 300.59375 76.949219 300.402344 C 76.347656 300.214844 75.757812 299.996094 75.179688 299.746094 C 74.601562 299.5 74.035156 299.222656 73.484375 298.921875 C 72.933594 298.617188 72.398438 298.289062 71.878906 297.933594 C 71.359375 297.578125 70.859375 297.195312 70.375 296.792969 C 69.894531 296.386719 69.433594 295.960938 68.992188 295.507812 C 68.550781 295.058594 68.132812 294.589844 67.738281 294.097656 C 67.347656 293.605469 66.976562 293.097656 66.632812 292.570312 C 66.289062 292.042969 65.972656 291.5 65.679688 290.941406 C 65.390625 290.386719 65.125 289.8125 64.890625 289.230469 C 64.65625 288.644531 64.449219 288.050781 64.273438 287.449219 C 64.097656 286.84375 63.949219 286.234375 63.835938 285.613281 C 63.71875 284.996094 63.632812 284.375 63.578125 283.746094 C 63.519531 283.121094 63.496094 282.492188 63.503906 281.863281 C 63.507812 281.234375 63.546875 280.609375 63.613281 279.984375 C 63.683594 279.359375 63.78125 278.738281 63.910156 278.125 C 64.039062 277.507812 64.199219 276.902344 64.386719 276.300781 C 64.574219 275.703125 64.792969 275.113281 65.039062 274.535156 C 65.285156 273.957031 65.5625 273.390625 65.863281 272.839844 C 66.164062 272.289062 66.492188 271.753906 66.847656 271.238281 C 67.203125 270.71875 67.582031 270.21875 67.984375 269.738281 C 68.390625 269.253906 68.816406 268.796875 69.265625 268.355469 C 69.714844 267.917969 70.183594 267.5 70.675781 267.109375 C 71.164062 266.714844 71.675781 266.347656 72.199219 266.003906 C 72.726562 265.660156 73.269531 265.34375 73.828125 265.054688 C 74.386719 264.765625 74.957031 264.503906 75.539062 264.269531 C 76.125 264.035156 76.71875 263.832031 77.320312 263.65625 C 77.925781 263.480469 78.535156 263.335938 79.152344 263.21875 C 79.773438 263.105469 80.394531 263.019531 81.019531 262.964844 C 81.648438 262.910156 82.277344 262.890625 82.90625 262.894531 C 83.535156 262.902344 84.160156 262.941406 84.785156 263.011719 C 85.410156 263.082031 86.03125 263.179688 86.648438 263.308594 C 87.265625 263.441406 87.871094 263.601562 88.472656 263.789062 C 89.070312 263.980469 89.660156 264.199219 90.238281 264.445312 C 90.820312 264.695312 91.382812 264.96875 91.9375 265.273438 C 92.488281 265.574219 93.023438 265.90625 93.542969 266.261719 C 94.0625 266.617188 94.5625 266.996094 95.046875 267.402344 Z M 95.046875 267.402344 " fill-opacity="1" fill-rule="nonzero"/></svg>