<svg xmlns="http://www.w3.org/2000/svg" xmlns:xlink="http://www.w3.org/1999/xlink" width="500" zoomAndPan="magnify" viewBox="0 0 375 374.999991" height="500" preserveAspectRatio="xMidYMid meet" version="1.0"><rect x="-37.5" width="450" fill="#ffffff" y="-37.499999" height="449.999989" fill-opacity="1"/><rect x="-37.5" width="450" fill="#000000" y="-37.499999" height="449.999989" fill-opacity="1"/><path fill="#e1d3b8" d="M 92.644531 2.730469 L 282.355469 2.730469 C 283.828125 2.730469 285.300781 2.765625 286.769531 2.835938 C 288.238281 2.910156 289.707031 3.015625 291.171875 3.160156 C 292.632812 3.304688 294.09375 3.484375 295.550781 3.703125 C 297.003906 3.917969 298.457031 4.167969 299.898438 4.457031 C 301.339844 4.742188 302.777344 5.066406 304.203125 5.421875 C 305.632812 5.78125 307.050781 6.171875 308.457031 6.601562 C 309.867188 7.027344 311.261719 7.488281 312.648438 7.984375 C 314.035156 8.480469 315.40625 9.011719 316.765625 9.574219 C 318.125 10.136719 319.46875 10.730469 320.800781 11.363281 C 322.128906 11.992188 323.445312 12.652344 324.742188 13.34375 C 326.039062 14.039062 327.320312 14.765625 328.582031 15.519531 C 329.84375 16.277344 331.085938 17.0625 332.3125 17.882812 C 333.535156 18.699219 334.738281 19.546875 335.917969 20.421875 C 337.101562 21.300781 338.261719 22.203125 339.398438 23.136719 C 340.535156 24.070312 341.648438 25.03125 342.738281 26.019531 C 343.832031 27.007812 344.894531 28.023438 345.9375 29.0625 C 346.976562 30.105469 347.992188 31.167969 348.980469 32.261719 C 349.96875 33.351562 350.929688 34.464844 351.863281 35.601562 C 352.796875 36.738281 353.699219 37.898438 354.578125 39.082031 C 355.453125 40.261719 356.300781 41.464844 357.117188 42.6875 C 357.933594 43.914062 358.722656 45.15625 359.480469 46.417969 C 360.234375 47.679688 360.960938 48.960938 361.652344 50.257812 C 362.347656 51.554688 363.007812 52.871094 363.636719 54.199219 C 364.269531 55.53125 364.863281 56.875 365.425781 58.234375 C 365.988281 59.59375 366.519531 60.964844 367.015625 62.351562 C 367.511719 63.738281 367.972656 65.132812 368.398438 66.542969 C 368.828125 67.949219 369.21875 69.367188 369.578125 70.796875 C 369.933594 72.222656 370.257812 73.660156 370.542969 75.101562 C 370.832031 76.542969 371.082031 77.996094 371.296875 79.449219 C 371.515625 80.90625 371.695312 82.367188 371.839844 83.828125 C 371.984375 85.292969 372.089844 86.761719 372.164062 88.230469 C 372.234375 89.699219 372.269531 91.171875 372.269531 92.644531 L 372.269531 282.355469 C 372.269531 283.828125 372.234375 285.300781 372.164062 286.769531 C 372.089844 288.238281 371.984375 289.707031 371.839844 291.171875 C 371.695312 292.632812 371.515625 294.09375 371.296875 295.550781 C 371.082031 297.003906 370.832031 298.457031 370.542969 299.898438 C 370.257812 301.339844 369.933594 302.777344 369.578125 304.203125 C 369.21875 305.632812 368.828125 307.050781 368.398438 308.457031 C 367.972656 309.867188 367.511719 311.261719 367.015625 312.648438 C 366.519531 314.035156 365.988281 315.40625 365.425781 316.765625 C 364.863281 318.125 364.269531 319.46875 363.636719 320.800781 C 363.007812 322.128906 362.347656 323.445312 361.65625 324.742188 C 360.960938 326.039062 360.234375 327.320312 359.480469 328.582031 C 358.722656 329.84375 357.933594 331.085938 357.117188 332.3125 C 356.300781 333.535156 355.453125 334.738281 354.578125 335.917969 C 353.699219 337.101562 352.796875 338.261719 351.863281 339.398438 C 350.929688 340.535156 349.96875 341.648438 348.980469 342.738281 C 347.992188 343.828125 346.976562 344.894531 345.9375 345.9375 C 344.894531 346.976562 343.832031 347.992188 342.738281 348.980469 C 341.648438 349.96875 340.535156 350.929688 339.398438 351.863281 C 338.261719 352.796875 337.101562 353.699219 335.917969 354.578125 C 334.738281 355.453125 333.535156 356.300781 332.3125 357.117188 C 331.085938 357.933594 329.84375 358.722656 328.582031 359.480469 C 327.320312 360.234375 326.039062 360.960938 324.742188 361.652344 C 323.445312 362.347656 322.128906 363.007812 320.800781 363.636719 C 319.46875 364.269531 318.125 364.863281 316.765625 365.425781 C 315.40625 365.988281 314.035156 366.519531 312.648438 367.015625 C 311.261719 367.511719 309.867188 367.972656 308.457031 368.398438 C 307.050781 368.828125 305.632812 369.21875 304.203125 369.578125 C 302.777344 369.933594 301.339844 370.257812 299.898438 370.542969 C 298.457031 370.832031 297.003906 371.082031 295.550781 371.296875 C 294.09375 371.515625 292.632812 371.695312 291.171875 371.839844 C 289.707031 371.984375 288.238281 372.089844 286.769531 372.164062 C 285.300781 372.234375 283.828125 372.269531 282.355469 372.269531 L 92.644531 372.269531 C 91.171875 372.269531 89.699219 372.234375 88.230469 372.164062 C 86.761719 372.089844 85.292969 371.984375 83.828125 371.839844 C 82.367188 371.695312 80.90625 371.515625 79.449219 371.296875 C 77.996094 371.082031 76.542969 370.832031 75.101562 370.542969 C 73.660156 370.257812 72.222656 369.933594 70.796875 369.578125 C 69.367188 369.21875 67.949219 368.828125 66.542969 368.398438 C 65.132812 367.972656 63.738281 367.511719 62.351562 367.015625 C 60.964844 366.519531 59.59375 365.988281 58.234375 365.425781 C 56.875 364.863281 55.53125 364.269531 54.199219 363.636719 C 52.871094 363.007812 51.554688 362.347656 50.257812 361.65625 C 48.960938 360.960938 47.679688 360.234375 46.417969 359.480469 C 45.15625 358.722656 43.914062 357.933594 42.6875 357.117188 C 41.464844 356.300781 40.261719 355.453125 39.082031 354.578125 C 37.898438 353.699219 36.738281 352.796875 35.601562 351.863281 C 34.464844 350.929688 33.351562 349.96875 32.261719 348.980469 C 31.167969 347.992188 30.105469 346.976562 29.0625 345.9375 C 28.023438 344.894531 27.007812 343.828125 26.019531 342.738281 C 25.03125 341.648438 24.070312 340.535156 23.136719 339.398438 C 22.203125 338.261719 21.300781 337.101562 20.421875 335.917969 C 19.546875 334.738281 18.699219 333.535156 17.882812 332.3125 C 17.0625 331.085938 16.277344 329.84375 15.519531 328.582031 C 14.765625 327.320312 14.039062 326.039062 13.34375 324.742188 C 12.652344 323.445312 11.992188 322.128906 11.363281 320.800781 C 10.730469 319.46875 10.136719 318.125 9.574219 316.765625 C 9.011719 315.40625 8.480469 314.035156 7.984375 312.648438 C 7.488281 311.261719 7.027344 309.867188 6.601562 308.457031 C 6.171875 307.050781 5.78125 305.632812 5.421875 304.203125 C 5.066406 302.777344 4.742188 301.339844 4.457031 299.898438 C 4.167969 298.457031 3.917969 297.003906 3.703125 295.550781 C 3.484375 294.09375 3.304688 292.632812 3.160156 291.171875 C 3.015625 289.707031 2.910156 288.238281 2.835938 286.769531 C 2.765625 285.300781 2.730469 283.828125 2.730469 282.355469 L 2.730469 92.644531 C 2.730469 91.171875 2.765625 89.699219 2.835938 88.230469 C 2.910156 86.761719 3.015625 85.292969 3.160156 83.828125 C 3.304688 82.367188 3.484375 80.90625 3.703125 79.449219 C 3.917969 77.996094 4.167969 76.542969 4.457031 75.101562 C 4.742188 73.660156 5.066406 72.222656 5.421875 70.796875 C 5.78125 69.367188 6.171875 67.949219 6.601562 66.542969 C 7.027344 65.132812 7.488281 63.738281 7.984375 62.351562 C 8.480469 60.964844 9.011719 59.59375 9.574219 58.234375 C 10.136719 56.875 10.730469 55.53125 11.363281 54.199219 C 11.992188 52.871094 12.652344 51.554688 13.34375 50.257812 C 14.039062 48.960938 14.765625 47.679688 15.519531 46.417969 C 16.277344 45.15625 17.0625 43.914062 17.882812 42.6875 C 18.699219 41.464844 19.546875 40.261719 20.421875 39.082031 C 21.300781 37.898438 22.203125 36.738281 23.136719 35.601562 C 24.070312 34.464844 25.03125 33.351562 26.019531 32.261719 C 27.007812 31.167969 28.023438 30.105469 29.0625 29.0625 C 30.105469 28.023438 31.167969 27.007812 32.261719 26.019531 C 33.351562 25.03125 34.464844 24.070312 35.601562 23.136719 C 36.738281 22.203125 37.898438 21.300781 39.082031 20.421875 C 40.261719 19.546875 41.464844 18.699219 42.6875 17.882812 C 43.914062 17.0625 45.15625 16.277344 46.417969 15.519531 C 47.679688 14.765625 48.960938 14.039062 50.257812 13.34375 C 51.554688 12.652344 52.871094 11.992188 54.199219 11.363281 C 55.53125 10.730469 56.875 10.136719 58.234375 9.574219 C 59.59375 9.011719 60.964844 8.480469 62.351562 7.984375 C 63.738281 7.488281 65.132812 7.027344 66.542969 6.601562 C 67.949219 6.171875 69.367188 5.78125 70.796875 5.421875 C 72.222656 5.066406 73.660156 4.742188 75.101562 4.457031 C 76.542969 4.167969 77.996094 3.917969 79.449219 3.703125 C 80.90625 3.484375 82.367188 3.304688 83.828125 3.160156 C 85.292969 3.015625 86.761719 2.910156 88.230469 2.835938 C 89.699219 2.765625 91.171875 2.730469 92.644531 2.730469 Z M 92.644531 2.730469 " fill-opacity="1" fill-rule="nonzero"/><path fill="#fcf0de" d="M 15.980469 282.355469 L 15.980469 92.644531 C 15.980469 43.191406 56.445312 2.730469 105.898438 2.730469 L 92.644531 2.730469 C 43.191406 2.730469 2.730469 43.191406 2.730469 92.644531 L 2.730469 282.355469 C 2.730469 331.808594 43.191406 372.269531 92.644531 372.269531 L 105.898438 372.269531 C 56.445312 372.269531 15.980469 331.808594 15.980469 282.355469 Z M 15.980469 282.355469 " fill-opacity="1" fill-rule="nonzero"/><path fill="#ceb797" d="M 311.460938 7.601562 C 313.21875 8.566406 314.9375 9.585938 316.628906 10.664062 C 318.316406 11.742188 319.964844 12.878906 321.578125 14.066406 C 323.191406 15.253906 324.761719 16.496094 326.292969 17.789062 C 327.824219 19.082031 329.308594 20.425781 330.75 21.820312 C 332.191406 23.210938 333.582031 24.648438 334.925781 26.136719 C 336.269531 27.621094 337.566406 29.148438 338.808594 30.722656 C 340.050781 32.292969 341.238281 33.902344 342.375 35.554688 C 343.507812 37.207031 344.589844 38.894531 345.609375 40.617188 C 346.632812 42.339844 347.597656 44.09375 348.503906 45.878906 C 349.410156 47.667969 350.253906 49.484375 351.039062 51.328125 C 351.824219 53.171875 352.546875 55.039062 353.207031 56.929688 C 353.867188 58.820312 354.460938 60.734375 354.996094 62.664062 C 355.527344 64.59375 355.996094 66.542969 356.398438 68.503906 C 356.800781 70.46875 357.136719 72.441406 357.410156 74.425781 C 357.679688 76.410156 357.886719 78.402344 358.023438 80.402344 C 358.160156 82.402344 358.234375 84.402344 358.238281 86.40625 L 358.238281 265.984375 C 358.238281 315.4375 317.777344 355.898438 268.324219 355.898438 L 88.746094 355.898438 C 49.367188 355.898438 15.695312 330.242188 3.601562 294.824219 C 9.746094 338.433594 47.417969 372.269531 92.644531 372.269531 L 282.355469 372.269531 C 331.808594 372.269531 372.269531 331.808594 372.269531 282.355469 L 372.269531 92.644531 C 372.269531 53.40625 346.753906 19.769531 311.460938 7.601562 Z M 311.460938 7.601562 " fill-opacity="1" fill-rule="nonzero"/><path stroke-linecap="butt" transform="matrix(0.779626, 0, 0, 0.779626, 0.0000045, 0)" fill="none" stroke-linejoin="miter" d="M 118.832056 3.502282 L 362.167971 3.502282 C 364.056899 3.502282 365.945826 3.547375 367.829743 3.637563 C 369.713659 3.732761 371.597576 3.868042 373.476483 4.053427 C 375.350379 4.238813 377.224275 4.469292 379.09316 4.749875 C 380.957035 5.025448 382.82091 5.346115 384.669754 5.716886 C 386.518598 6.082646 388.362432 6.498511 390.191234 6.954459 C 392.025047 7.415417 393.843828 7.916459 395.647578 8.467605 C 397.456339 9.01374 399.245058 9.60497 401.023756 10.241292 C 402.802454 10.877615 404.56111 11.559032 406.304735 12.280532 C 408.04836 13.002032 409.771944 13.763616 411.480496 14.575303 C 413.184038 15.38198 414.872548 16.228741 416.536007 17.115585 C 418.199465 18.007439 419.842882 18.939377 421.461247 19.906387 C 423.079612 20.878408 424.672924 21.885502 426.246195 22.937689 C 427.814456 23.984867 429.357664 25.072127 430.87081 26.19446 C 432.388967 27.321804 433.87706 28.479211 435.335092 29.6767 C 436.793123 30.87419 438.221092 32.106753 439.618998 33.374388 C 441.021915 34.642024 442.384749 35.944732 443.72253 37.277503 C 445.055301 38.615284 446.358009 39.978118 447.625645 41.381035 C 448.89328 42.778941 450.125843 44.20691 451.323333 45.664941 C 452.520822 47.122973 453.678229 48.611066 454.805573 50.129223 C 455.927906 51.642369 457.015166 53.185577 458.062344 54.753838 C 459.109521 56.327109 460.121625 57.920421 461.093646 59.538786 C 462.060656 61.157151 462.992594 62.800568 463.879438 64.464026 C 464.771292 66.127484 465.618053 67.815995 466.42473 69.519537 C 467.236417 71.228089 467.998001 72.951673 468.719501 74.695298 C 469.441001 76.438923 470.122418 78.197579 470.75874 79.976277 C 471.395063 81.754975 471.986293 83.543694 472.532428 85.352455 C 473.083574 87.156205 473.584616 88.974986 474.045574 90.808799 C 474.501522 92.637601 474.917387 94.481435 475.283147 96.330279 C 475.653918 98.179122 475.974585 100.042998 476.250158 101.906873 C 476.530741 103.775758 476.76122 105.649654 476.946606 107.52355 C 477.131991 109.402457 477.267272 111.286374 477.36247 113.17029 C 477.452658 115.054207 477.497751 116.943134 477.497751 118.832062 L 477.497751 362.167977 C 477.497751 364.056904 477.452658 365.945832 477.36247 367.829748 C 477.267272 369.713665 477.131991 371.597582 476.946606 373.476488 C 476.76122 375.350384 476.530741 377.22428 476.250158 379.093166 C 475.974585 380.957041 475.653918 382.820916 475.283147 384.66976 C 474.917387 386.518604 474.501522 388.362438 474.045574 390.19124 C 473.584616 392.025052 473.083574 393.843834 472.532428 395.647584 C 471.986293 397.456345 471.395063 399.245063 470.75874 401.023761 C 470.122418 402.80246 469.441001 404.561116 468.719501 406.304741 C 467.998001 408.048366 467.236417 409.77195 466.42473 411.480502 C 465.618053 413.184044 464.771292 414.872554 463.884448 416.536013 C 462.992594 418.199471 462.060656 419.842888 461.093646 421.461253 C 460.121625 423.079617 459.109521 424.67293 458.062344 426.246201 C 457.015166 427.814462 455.927906 429.35767 454.805573 430.870816 C 453.678229 432.388972 452.520822 433.877066 451.323333 435.335098 C 450.125843 436.793129 448.89328 438.221098 447.625645 439.619004 C 446.358009 441.016911 445.055301 442.384754 443.72253 443.722536 C 442.384749 445.055307 441.021915 446.358015 439.618998 447.625651 C 438.221092 448.893286 436.793123 450.125849 435.335092 451.323338 C 433.87706 452.520828 432.388967 453.678234 430.87081 454.805578 C 429.357664 455.927912 427.814456 457.015172 426.246195 458.062349 C 424.672924 459.109527 423.079612 460.121631 421.461247 461.093652 C 419.842882 462.060662 418.199465 462.9926 416.536007 463.879444 C 414.872548 464.771298 413.184038 465.618058 411.480496 466.424736 C 409.771944 467.236423 408.04836 467.998006 406.304735 468.719507 C 404.56111 469.441007 402.802454 470.122423 401.023756 470.758746 C 399.245058 471.395069 397.456339 471.986298 395.647578 472.532434 C 393.843828 473.08358 392.025047 473.584621 390.191234 474.04558 C 388.362432 474.501528 386.518598 474.917392 384.669754 475.283153 C 382.82091 475.653924 380.957035 475.97459 379.09316 476.250163 C 377.224275 476.530747 375.350379 476.761226 373.476483 476.946611 C 371.597576 477.131997 369.713659 477.267278 367.829743 477.362476 C 365.945826 477.452663 364.056899 477.497757 362.167971 477.497757 L 118.832056 477.497757 C 116.943129 477.497757 115.054201 477.452663 113.170285 477.362476 C 111.286368 477.267278 109.402451 477.131997 107.523545 476.946611 C 105.649649 476.761226 103.775753 476.530747 101.906867 476.250163 C 100.042992 475.97459 98.179117 475.653924 96.330273 475.283153 C 94.481429 474.917392 92.637595 474.501528 90.808793 474.04558 C 88.974981 473.584621 87.156199 473.08358 85.352449 472.532434 C 83.543688 471.986298 81.75497 471.395069 79.976272 470.758746 C 78.197573 470.122423 76.438917 469.441007 74.695292 468.719507 C 72.951667 467.998006 71.228083 467.236423 69.519531 466.424736 C 67.815989 465.618058 66.127479 464.771298 64.46402 463.884454 C 62.800562 462.9926 61.157145 462.060662 59.53878 461.093652 C 57.920416 460.121631 56.327103 459.109527 54.753832 458.062349 C 53.185571 457.015172 51.642363 455.927912 50.129217 454.805578 C 48.611061 453.678234 47.122967 452.520828 45.664935 451.323338 C 44.206904 450.125849 42.778935 448.893286 41.381029 447.625651 C 39.978112 446.358015 38.615279 445.055307 37.277497 443.722536 C 35.944726 442.384754 34.642018 441.016911 33.374382 439.619004 C 32.106747 438.221098 30.874184 436.793129 29.676695 435.335098 C 28.479205 433.877066 27.321799 432.388972 26.194455 430.870816 C 25.072121 429.35767 23.984861 427.814462 22.937684 426.246201 C 21.885496 424.67293 20.878402 423.079617 19.906381 421.461253 C 18.939371 419.842888 18.007433 418.199471 17.115579 416.536013 C 16.228735 414.872554 15.381975 413.184044 14.575297 411.480502 C 13.76361 409.77195 13.002027 408.048366 12.280526 406.304741 C 11.559026 404.561116 10.87761 402.80246 10.241287 401.023761 C 9.604964 399.245063 9.013735 397.456345 8.467599 395.647584 C 7.916453 393.843834 7.415411 392.025052 6.954453 390.19124 C 6.498505 388.362438 6.082641 386.518604 5.71688 384.66976 C 5.346109 382.820916 5.025443 380.957041 4.74987 379.093166 C 4.469286 377.22428 4.238807 375.350384 4.053422 373.476488 C 3.868036 371.597582 3.732755 369.713665 3.637557 367.829748 C 3.54737 365.945832 3.502276 364.056904 3.502276 362.167977 L 3.502276 118.832062 C 3.502276 116.943134 3.54737 115.054207 3.637557 113.17029 C 3.732755 111.286374 3.868036 109.402457 4.053422 107.52355 C 4.238807 105.649654 4.469286 103.775758 4.74987 101.906873 C 5.025443 100.042998 5.346109 98.179122 5.71688 96.330279 C 6.082641 94.481435 6.498505 92.637601 6.954453 90.808799 C 7.415411 88.974986 7.916453 87.156205 8.467599 85.352455 C 9.013735 83.543694 9.604964 81.754975 10.241287 79.976277 C 10.87761 78.197579 11.559026 76.438923 12.280526 74.695298 C 13.002027 72.951673 13.76361 71.228089 14.575297 69.519537 C 15.381975 67.815995 16.228735 66.127484 17.115579 64.464026 C 18.007433 62.800568 18.939371 61.157151 19.906381 59.538786 C 20.878402 57.920421 21.885496 56.327109 22.937684 54.753838 C 23.984861 53.185577 25.072121 51.642369 26.194455 50.129223 C 27.321799 48.611066 28.479205 47.122973 29.676695 45.664941 C 30.874184 44.20691 32.106747 42.778941 33.374382 41.381035 C 34.642018 39.978118 35.944726 38.615284 37.277497 37.277503 C 38.615279 35.944732 39.978112 34.642024 41.381029 33.374388 C 42.778935 32.106753 44.206904 30.87419 45.664935 29.6767 C 47.122967 28.479211 48.611061 27.321804 50.129217 26.19446 C 51.642363 25.072127 53.185571 23.984867 54.753832 22.937689 C 56.327103 21.885502 57.920416 20.878408 59.53878 19.906387 C 61.157145 18.939377 62.800562 18.007439 64.46402 17.115585 C 66.127479 16.228741 67.815989 15.38198 69.519531 14.575303 C 71.228083 13.763616 72.951667 13.002032 74.695292 12.280532 C 76.438917 11.559032 78.197573 10.877615 79.976272 10.241292 C 81.75497 9.60497 83.543688 9.01374 85.352449 8.467605 C 87.156199 7.916459 88.974981 7.415417 90.808793 6.954459 C 92.637595 6.498511 94.481429 6.082646 96.330273 5.716886 C 98.179117 5.346115 100.042992 5.025448 101.906867 4.749875 C 103.775753 4.469292 105.649649 4.238813 107.523545 4.053427 C 109.402451 3.868042 111.286368 3.732761 113.170285 3.637563 C 115.054201 3.547375 116.943129 3.502282 118.832056 3.502282 Z M 118.832056 3.502282 " stroke="#846467" stroke-width="7" stroke-opacity="1" stroke-miterlimit="10"/><path fill="#541a0c" d="M 295.867188 88.667969 C 295.867188 89.765625 295.8125 90.863281 295.707031 91.957031 C 295.597656 93.050781 295.4375 94.136719 295.222656 95.214844 C 295.007812 96.289062 294.742188 97.355469 294.421875 98.40625 C 294.105469 99.460938 293.734375 100.492188 293.3125 101.507812 C 292.894531 102.523438 292.425781 103.515625 291.90625 104.484375 C 291.386719 105.453125 290.824219 106.394531 290.210938 107.308594 C 289.601562 108.222656 288.949219 109.105469 288.25 109.953125 C 287.554688 110.804688 286.816406 111.617188 286.039062 112.394531 C 285.261719 113.171875 284.449219 113.90625 283.601562 114.605469 C 282.75 115.300781 281.867188 115.957031 280.953125 116.566406 C 280.042969 117.175781 279.101562 117.742188 278.128906 118.261719 C 277.160156 118.777344 276.167969 119.246094 275.152344 119.667969 C 274.136719 120.089844 273.105469 120.457031 272.054688 120.777344 C 271 121.097656 269.9375 121.363281 268.859375 121.578125 C 267.78125 121.792969 266.695312 121.953125 265.601562 122.058594 C 264.507812 122.167969 263.410156 122.222656 262.3125 122.222656 C 261.214844 122.222656 260.117188 122.167969 259.023438 122.058594 C 257.929688 121.953125 256.84375 121.792969 255.765625 121.578125 C 254.6875 121.363281 253.625 121.097656 252.574219 120.777344 C 251.519531 120.457031 250.488281 120.089844 249.472656 119.667969 C 248.457031 119.246094 247.464844 118.777344 246.496094 118.261719 C 245.527344 117.742188 244.585938 117.175781 243.671875 116.566406 C 242.757812 115.957031 241.875 115.300781 241.027344 114.605469 C 240.175781 113.90625 239.363281 113.171875 238.585938 112.394531 C 237.808594 111.617188 237.070312 110.804688 236.375 109.953125 C 235.675781 109.105469 235.023438 108.222656 234.414062 107.308594 C 233.800781 106.394531 233.238281 105.453125 232.71875 104.484375 C 232.203125 103.515625 231.734375 102.523438 231.3125 101.507812 C 230.890625 100.492188 230.523438 99.460938 230.203125 98.40625 C 229.882812 97.355469 229.617188 96.289062 229.402344 95.214844 C 229.1875 94.136719 229.027344 93.050781 228.917969 91.957031 C 228.8125 90.863281 228.757812 89.765625 228.757812 88.667969 C 228.757812 87.566406 228.8125 86.472656 228.917969 85.378906 C 229.027344 84.285156 229.1875 83.199219 229.402344 82.121094 C 229.617188 81.042969 229.882812 79.976562 230.203125 78.925781 C 230.523438 77.875 230.890625 76.839844 231.3125 75.824219 C 231.734375 74.808594 232.203125 73.816406 232.71875 72.847656 C 233.238281 71.878906 233.800781 70.9375 234.414062 70.023438 C 235.023438 69.109375 235.675781 68.230469 236.375 67.378906 C 237.070312 66.53125 237.808594 65.71875 238.585938 64.941406 C 239.363281 64.164062 240.175781 63.425781 241.027344 62.726562 C 241.875 62.03125 242.757812 61.378906 243.671875 60.765625 C 244.585938 60.15625 245.527344 59.59375 246.496094 59.074219 C 247.464844 58.554688 248.457031 58.085938 249.472656 57.664062 C 250.488281 57.246094 251.519531 56.875 252.574219 56.554688 C 253.625 56.238281 254.6875 55.972656 255.765625 55.757812 C 256.84375 55.542969 257.929688 55.382812 259.023438 55.273438 C 260.117188 55.164062 261.214844 55.113281 262.3125 55.113281 C 263.410156 55.113281 264.507812 55.164062 265.601562 55.273438 C 266.695312 55.382812 267.78125 55.542969 268.859375 55.757812 C 269.9375 55.972656 271 56.238281 272.054688 56.554688 C 273.105469 56.875 274.136719 57.246094 275.152344 57.664062 C 276.167969 58.085938 277.160156 58.554688 278.128906 59.074219 C 279.101562 59.59375 280.042969 60.15625 280.953125 60.765625 C 281.867188 61.378906 282.75 62.03125 283.601562 62.726562 C 284.449219 63.425781 285.261719 64.164062 286.039062 64.941406 C 286.816406 65.71875 287.554688 66.53125 288.25 67.378906 C 288.949219 68.230469 289.601562 69.109375 290.214844 70.023438 C 290.824219 70.9375 291.386719 71.878906 291.90625 72.847656 C 292.425781 73.816406 292.894531 74.808594 293.3125 75.824219 C 293.734375 76.839844 294.105469 77.875 294.421875 78.925781 C 294.742188 79.976562 295.007812 81.042969 295.222656 82.121094 C 295.4375 83.199219 295.597656 84.285156 295.707031 85.378906 C 295.8125 86.472656 295.867188 87.566406 295.867188 88.667969 Z M 295.867188 88.667969 " fill-opacity="1" fill-rule="nonzero"/><path fill="#350802" d="M 282.269531 61.691406 C 282.871094 62.492188 283.433594 63.316406 283.960938 64.164062 C 284.488281 65.011719 284.972656 65.882812 285.421875 66.777344 C 285.871094 67.671875 286.277344 68.582031 286.644531 69.511719 C 287.011719 70.441406 287.335938 71.382812 287.617188 72.339844 C 287.902344 73.300781 288.140625 74.269531 288.335938 75.25 C 288.53125 76.226562 288.683594 77.214844 288.789062 78.207031 C 288.898438 79.199219 288.960938 80.195312 288.980469 81.195312 C 289 82.195312 288.972656 83.191406 288.902344 84.1875 C 288.832031 85.1875 288.714844 86.175781 288.558594 87.164062 C 288.398438 88.148438 288.195312 89.125 287.949219 90.09375 C 287.703125 91.0625 287.414062 92.019531 287.082031 92.960938 C 286.75 93.902344 286.375 94.828125 285.960938 95.738281 C 285.546875 96.644531 285.089844 97.535156 284.597656 98.402344 C 284.101562 99.269531 283.570312 100.117188 283 100.9375 C 282.433594 101.757812 281.828125 102.550781 281.1875 103.316406 C 280.546875 104.082031 279.871094 104.820312 279.164062 105.527344 C 278.457031 106.234375 277.722656 106.90625 276.957031 107.546875 C 276.1875 108.1875 275.394531 108.792969 274.574219 109.363281 C 273.753906 109.929688 272.910156 110.464844 272.039062 110.957031 C 271.171875 111.453125 270.285156 111.90625 269.375 112.320312 C 268.464844 112.734375 267.539062 113.109375 266.597656 113.441406 C 265.65625 113.773438 264.699219 114.0625 263.730469 114.308594 C 262.765625 114.554688 261.785156 114.757812 260.800781 114.914062 C 259.8125 115.074219 258.824219 115.191406 257.828125 115.261719 C 256.828125 115.332031 255.832031 115.355469 254.832031 115.335938 C 253.835938 115.320312 252.839844 115.253906 251.84375 115.148438 C 250.851562 115.039062 249.867188 114.886719 248.886719 114.691406 C 247.90625 114.496094 246.9375 114.257812 245.980469 113.972656 C 245.019531 113.691406 244.078125 113.367188 243.148438 113 C 242.21875 112.632812 241.308594 112.226562 240.414062 111.777344 C 239.523438 111.328125 238.652344 110.839844 237.800781 110.316406 C 236.953125 109.789062 236.128906 109.226562 235.328125 108.625 C 236.046875 109.582031 236.816406 110.5 237.632812 111.375 C 238.449219 112.25 239.3125 113.078125 240.214844 113.859375 C 241.121094 114.644531 242.066406 115.375 243.050781 116.054688 C 244.035156 116.738281 245.050781 117.363281 246.101562 117.9375 C 247.152344 118.511719 248.234375 119.023438 249.339844 119.480469 C 250.445312 119.9375 251.574219 120.335938 252.722656 120.671875 C 253.871094 121.007812 255.035156 121.28125 256.210938 121.492188 C 257.390625 121.703125 258.574219 121.851562 259.769531 121.9375 C 260.964844 122.023438 262.160156 122.042969 263.355469 122 C 264.550781 121.957031 265.742188 121.847656 266.925781 121.679688 C 268.109375 121.507812 269.28125 121.273438 270.441406 120.976562 C 271.601562 120.679688 272.742188 120.324219 273.863281 119.90625 C 274.984375 119.484375 276.082031 119.007812 277.152344 118.472656 C 278.222656 117.9375 279.257812 117.34375 280.265625 116.699219 C 281.273438 116.050781 282.242188 115.351562 283.175781 114.601562 C 284.105469 113.847656 284.996094 113.050781 285.84375 112.203125 C 286.6875 111.359375 287.488281 110.46875 288.238281 109.539062 C 288.988281 108.605469 289.6875 107.636719 290.335938 106.628906 C 290.984375 105.621094 291.574219 104.585938 292.113281 103.515625 C 292.648438 102.445312 293.125 101.347656 293.542969 100.226562 C 293.960938 99.105469 294.320312 97.964844 294.617188 96.804688 C 294.914062 95.644531 295.148438 94.472656 295.320312 93.289062 C 295.488281 92.105469 295.597656 90.914062 295.640625 89.71875 C 295.683594 88.523438 295.664062 87.328125 295.578125 86.132812 C 295.496094 84.941406 295.347656 83.753906 295.136719 82.574219 C 294.925781 81.398438 294.652344 80.234375 294.316406 79.085938 C 293.980469 77.9375 293.582031 76.808594 293.125 75.703125 C 292.667969 74.597656 292.152344 73.519531 291.582031 72.464844 C 291.007812 71.414062 290.382812 70.398438 289.699219 69.414062 C 289.019531 68.429688 288.289062 67.484375 287.503906 66.578125 C 286.722656 65.671875 285.894531 64.8125 285.019531 63.996094 C 284.144531 63.179688 283.226562 62.410156 282.269531 61.691406 Z M 282.269531 61.691406 " fill-opacity="1" fill-rule="nonzero"/><path fill="#702a1c" d="M 264.9375 65.167969 C 265.425781 65.578125 265.898438 66.015625 266.34375 66.472656 C 266.792969 66.929688 267.21875 67.410156 267.621094 67.910156 C 268.019531 68.410156 268.398438 68.929688 268.746094 69.464844 C 269.097656 70 269.421875 70.554688 269.71875 71.121094 C 270.015625 71.691406 270.28125 72.273438 270.519531 72.867188 C 270.761719 73.460938 270.96875 74.066406 271.148438 74.683594 C 271.328125 75.296875 271.476562 75.917969 271.597656 76.546875 C 271.714844 77.179688 271.804688 77.8125 271.859375 78.449219 C 271.914062 79.089844 271.941406 79.726562 271.933594 80.367188 C 271.925781 81.007812 271.890625 81.644531 271.820312 82.28125 C 271.75 82.917969 271.652344 83.550781 271.519531 84.175781 C 271.386719 84.804688 271.226562 85.421875 271.035156 86.03125 C 270.84375 86.644531 270.621094 87.242188 270.371094 87.832031 C 270.117188 88.421875 269.839844 88.996094 269.53125 89.554688 C 269.222656 90.117188 268.890625 90.664062 268.527344 91.191406 C 268.167969 91.71875 267.78125 92.226562 267.367188 92.71875 C 266.957031 93.207031 266.523438 93.675781 266.066406 94.125 C 265.609375 94.570312 265.128906 94.996094 264.628906 95.394531 C 264.132812 95.796875 263.613281 96.171875 263.078125 96.519531 C 262.539062 96.867188 261.988281 97.191406 261.421875 97.484375 C 260.851562 97.78125 260.269531 98.046875 259.675781 98.285156 C 259.082031 98.523438 258.476562 98.730469 257.863281 98.910156 C 257.25 99.089844 256.625 99.238281 255.996094 99.355469 C 255.367188 99.472656 254.734375 99.558594 254.09375 99.613281 C 253.457031 99.667969 252.816406 99.691406 252.175781 99.683594 C 251.535156 99.675781 250.898438 99.636719 250.261719 99.566406 C 249.625 99.496094 248.992188 99.394531 248.363281 99.261719 C 247.738281 99.128906 247.117188 98.964844 246.507812 98.773438 C 245.898438 98.578125 245.296875 98.355469 244.707031 98.105469 C 244.117188 97.851562 243.542969 97.574219 242.980469 97.265625 C 242.417969 96.957031 241.871094 96.621094 241.34375 96.257812 C 240.816406 95.894531 240.304688 95.507812 239.8125 95.097656 C 239.324219 94.683594 238.851562 94.25 238.40625 93.789062 C 237.957031 93.332031 237.53125 92.851562 237.128906 92.351562 C 236.726562 91.851562 236.351562 91.335938 236 90.796875 C 235.652344 90.261719 235.328125 89.707031 235.03125 89.140625 C 234.734375 88.570312 234.46875 87.992188 234.230469 87.394531 C 233.988281 86.800781 233.78125 86.195312 233.601562 85.582031 C 233.421875 84.964844 233.269531 84.34375 233.152344 83.714844 C 233.035156 83.085938 232.945312 82.453125 232.890625 81.8125 C 232.832031 81.175781 232.808594 80.535156 232.816406 79.894531 C 232.820312 79.253906 232.859375 78.617188 232.929688 77.980469 C 233 77.34375 233.097656 76.710938 233.230469 76.085938 C 233.359375 75.460938 233.523438 74.839844 233.714844 74.230469 C 233.90625 73.621094 234.128906 73.019531 234.378906 72.429688 C 234.632812 71.84375 234.910156 71.269531 235.21875 70.707031 C 235.527344 70.144531 235.859375 69.601562 236.222656 69.074219 C 236.582031 68.542969 236.96875 68.035156 237.378906 67.546875 C 237.792969 67.054688 238.226562 66.585938 238.683594 66.140625 C 239.140625 65.691406 239.621094 65.269531 240.117188 64.867188 C 240.617188 64.46875 241.136719 64.09375 241.671875 63.742188 C 242.207031 63.394531 242.761719 63.070312 243.328125 62.777344 C 243.898438 62.480469 244.476562 62.214844 245.070312 61.976562 C 245.667969 61.738281 246.269531 61.53125 246.886719 61.351562 C 247.5 61.175781 248.125 61.027344 248.753906 60.910156 C 249.382812 60.792969 250.015625 60.707031 250.652344 60.652344 C 251.292969 60.59375 251.933594 60.570312 252.574219 60.578125 C 253.210938 60.585938 253.851562 60.625 254.488281 60.695312 C 255.125 60.765625 255.757812 60.867188 256.382812 61 C 257.011719 61.132812 257.628906 61.296875 258.242188 61.488281 C 258.851562 61.683594 259.453125 61.90625 260.042969 62.15625 C 260.632812 62.410156 261.207031 62.691406 261.769531 63 C 262.332031 63.308594 262.875 63.644531 263.40625 64.003906 C 263.933594 64.367188 264.445312 64.753906 264.9375 65.167969 Z M 264.9375 65.167969 " fill-opacity="1" fill-rule="nonzero"/><path fill="#541a0c" d="M 295.867188 186.8125 C 295.867188 187.914062 295.8125 189.007812 295.707031 190.101562 C 295.597656 191.195312 295.4375 192.28125 295.222656 193.359375 C 295.007812 194.4375 294.742188 195.503906 294.421875 196.554688 C 294.105469 197.605469 293.734375 198.640625 293.3125 199.65625 C 292.894531 200.671875 292.425781 201.664062 291.90625 202.632812 C 291.386719 203.601562 290.824219 204.542969 290.210938 205.457031 C 289.601562 206.371094 288.949219 207.25 288.25 208.101562 C 287.554688 208.949219 286.816406 209.765625 286.039062 210.539062 C 285.261719 211.316406 284.449219 212.054688 283.601562 212.753906 C 282.75 213.449219 281.867188 214.101562 280.953125 214.714844 C 280.042969 215.324219 279.101562 215.890625 278.128906 216.40625 C 277.160156 216.925781 276.167969 217.394531 275.152344 217.816406 C 274.136719 218.234375 273.105469 218.605469 272.054688 218.925781 C 271 219.242188 269.9375 219.511719 268.859375 219.722656 C 267.78125 219.9375 266.695312 220.101562 265.601562 220.207031 C 264.507812 220.316406 263.410156 220.367188 262.3125 220.367188 C 261.214844 220.367188 260.117188 220.316406 259.023438 220.207031 C 257.929688 220.101562 256.84375 219.9375 255.765625 219.722656 C 254.6875 219.511719 253.625 219.242188 252.574219 218.925781 C 251.519531 218.605469 250.488281 218.234375 249.472656 217.816406 C 248.457031 217.394531 247.464844 216.925781 246.496094 216.40625 C 245.527344 215.890625 244.585938 215.324219 243.671875 214.714844 C 242.757812 214.101562 241.875 213.449219 241.027344 212.753906 C 240.175781 212.054688 239.363281 211.316406 238.585938 210.539062 C 237.808594 209.765625 237.070312 208.949219 236.375 208.101562 C 235.675781 207.25 235.023438 206.371094 234.414062 205.457031 C 233.800781 204.542969 233.238281 203.601562 232.71875 202.632812 C 232.203125 201.664062 231.734375 200.671875 231.3125 199.65625 C 230.890625 198.640625 230.523438 197.605469 230.203125 196.554688 C 229.882812 195.503906 229.617188 194.4375 229.402344 193.359375 C 229.1875 192.28125 229.027344 191.195312 228.917969 190.101562 C 228.8125 189.007812 228.757812 187.914062 228.757812 186.8125 C 228.757812 185.714844 228.8125 184.617188 228.917969 183.523438 C 229.027344 182.429688 229.1875 181.34375 229.402344 180.269531 C 229.617188 179.191406 229.882812 178.125 230.203125 177.074219 C 230.523438 176.023438 230.890625 174.988281 231.3125 173.972656 C 231.734375 172.957031 232.203125 171.964844 232.71875 170.996094 C 233.238281 170.027344 233.800781 169.085938 234.414062 168.171875 C 235.023438 167.257812 235.675781 166.375 236.375 165.527344 C 237.070312 164.675781 237.808594 163.863281 238.585938 163.085938 C 239.363281 162.308594 240.175781 161.574219 241.027344 160.875 C 241.875 160.179688 242.757812 159.523438 243.671875 158.914062 C 244.585938 158.304688 245.527344 157.738281 246.496094 157.222656 C 247.464844 156.703125 248.457031 156.234375 249.472656 155.8125 C 250.488281 155.390625 251.519531 155.023438 252.574219 154.703125 C 253.625 154.382812 254.6875 154.117188 255.765625 153.902344 C 256.84375 153.6875 257.929688 153.527344 259.023438 153.421875 C 260.117188 153.3125 261.214844 153.257812 262.3125 153.257812 C 263.410156 153.257812 264.507812 153.3125 265.601562 153.421875 C 266.695312 153.527344 267.78125 153.6875 268.859375 153.902344 C 269.9375 154.117188 271 154.382812 272.054688 154.703125 C 273.105469 155.023438 274.136719 155.390625 275.152344 155.8125 C 276.167969 156.234375 277.160156 156.703125 278.128906 157.222656 C 279.101562 157.738281 280.042969 158.304688 280.953125 158.914062 C 281.867188 159.523438 282.75 160.179688 283.601562 160.875 C 284.449219 161.574219 285.261719 162.308594 286.039062 163.085938 C 286.816406 163.863281 287.554688 164.675781 288.25 165.527344 C 288.949219 166.375 289.601562 167.257812 290.214844 168.171875 C 290.824219 169.085938 291.386719 170.027344 291.90625 170.996094 C 292.425781 171.964844 292.894531 172.957031 293.3125 173.972656 C 293.734375 174.988281 294.105469 176.023438 294.421875 177.074219 C 294.742188 178.125 295.007812 179.191406 295.222656 180.269531 C 295.4375 181.34375 295.597656 182.429688 295.707031 183.523438 C 295.8125 184.617188 295.867188 185.714844 295.867188 186.8125 Z M 295.867188 186.8125 " fill-opacity="1" fill-rule="nonzero"/><path fill="#350802" d="M 282.269531 159.839844 C 282.871094 160.636719 283.433594 161.460938 283.960938 162.3125 C 284.488281 163.160156 284.972656 164.03125 285.421875 164.925781 C 285.871094 165.816406 286.277344 166.726562 286.644531 167.65625 C 287.011719 168.585938 287.335938 169.53125 287.617188 170.488281 C 287.902344 171.445312 288.140625 172.414062 288.335938 173.394531 C 288.53125 174.375 288.683594 175.363281 288.789062 176.355469 C 288.898438 177.347656 288.960938 178.34375 288.980469 179.34375 C 289 180.34375 288.972656 181.339844 288.902344 182.335938 C 288.832031 183.332031 288.714844 184.324219 288.558594 185.308594 C 288.398438 186.296875 288.195312 187.273438 287.949219 188.242188 C 287.703125 189.210938 287.414062 190.164062 287.082031 191.109375 C 286.75 192.050781 286.375 192.976562 285.960938 193.882812 C 285.546875 194.792969 285.089844 195.679688 284.597656 196.550781 C 284.101562 197.417969 283.570312 198.261719 283 199.082031 C 282.433594 199.902344 281.828125 200.699219 281.1875 201.464844 C 280.546875 202.230469 279.871094 202.96875 279.164062 203.671875 C 278.457031 204.378906 277.722656 205.054688 276.957031 205.695312 C 276.1875 206.335938 275.394531 206.9375 274.574219 207.507812 C 273.753906 208.078125 272.910156 208.609375 272.039062 209.105469 C 271.171875 209.597656 270.285156 210.050781 269.375 210.46875 C 268.464844 210.882812 267.539062 211.253906 266.597656 211.585938 C 265.65625 211.917969 264.699219 212.207031 263.730469 212.453125 C 262.765625 212.699219 261.785156 212.902344 260.800781 213.0625 C 259.8125 213.222656 258.824219 213.335938 257.824219 213.40625 C 256.828125 213.476562 255.832031 213.503906 254.832031 213.484375 C 253.835938 213.464844 252.839844 213.402344 251.84375 213.292969 C 250.851562 213.1875 249.867188 213.035156 248.886719 212.839844 C 247.90625 212.644531 246.9375 212.402344 245.980469 212.121094 C 245.019531 211.839844 244.078125 211.515625 243.148438 211.148438 C 242.21875 210.78125 241.308594 210.371094 240.414062 209.921875 C 239.523438 209.476562 238.652344 208.988281 237.800781 208.460938 C 236.953125 207.933594 236.128906 207.371094 235.328125 206.773438 C 236.046875 207.730469 236.816406 208.644531 237.632812 209.519531 C 238.449219 210.394531 239.3125 211.222656 240.214844 212.007812 C 241.121094 212.789062 242.066406 213.523438 243.050781 214.203125 C 244.035156 214.886719 245.050781 215.511719 246.101562 216.085938 C 247.152344 216.65625 248.234375 217.171875 249.339844 217.628906 C 250.445312 218.085938 251.574219 218.480469 252.722656 218.820312 C 253.871094 219.15625 255.035156 219.429688 256.210938 219.640625 C 257.390625 219.851562 258.574219 220 259.769531 220.085938 C 260.964844 220.167969 262.160156 220.191406 263.355469 220.144531 C 264.550781 220.101562 265.742188 219.996094 266.925781 219.824219 C 268.109375 219.652344 269.28125 219.421875 270.441406 219.125 C 271.601562 218.828125 272.742188 218.46875 273.863281 218.050781 C 274.984375 217.632812 276.082031 217.15625 277.152344 216.621094 C 278.222656 216.082031 279.257812 215.492188 280.265625 214.84375 C 281.273438 214.199219 282.242188 213.5 283.175781 212.746094 C 284.105469 211.996094 284.996094 211.199219 285.84375 210.351562 C 286.6875 209.503906 287.488281 208.617188 288.238281 207.683594 C 288.988281 206.753906 289.6875 205.785156 290.335938 204.777344 C 290.984375 203.769531 291.574219 202.730469 292.113281 201.660156 C 292.648438 200.589844 293.125 199.496094 293.542969 198.375 C 293.960938 197.253906 294.320312 196.113281 294.617188 194.953125 C 294.914062 193.792969 295.148438 192.621094 295.320312 191.4375 C 295.488281 190.253906 295.597656 189.0625 295.640625 187.867188 C 295.683594 186.667969 295.664062 185.472656 295.578125 184.28125 C 295.496094 183.085938 295.347656 181.902344 295.136719 180.722656 C 294.925781 179.542969 294.652344 178.382812 294.316406 177.230469 C 293.980469 176.082031 293.582031 174.957031 293.125 173.851562 C 292.667969 172.742188 292.152344 171.664062 291.582031 170.613281 C 291.007812 169.5625 290.382812 168.542969 289.699219 167.5625 C 289.019531 166.578125 288.289062 165.632812 287.503906 164.726562 C 286.722656 163.820312 285.894531 162.960938 285.019531 162.140625 C 284.144531 161.324219 283.226562 160.558594 282.269531 159.839844 Z M 282.269531 159.839844 " fill-opacity="1" fill-rule="nonzero"/><path fill="#702a1c" d="M 264.933594 163.398438 C 265.425781 163.8125 265.894531 164.246094 266.34375 164.703125 C 266.792969 165.164062 267.214844 165.640625 267.617188 166.140625 C 268.019531 166.640625 268.394531 167.160156 268.746094 167.695312 C 269.097656 168.234375 269.417969 168.785156 269.714844 169.355469 C 270.011719 169.921875 270.28125 170.503906 270.519531 171.097656 C 270.757812 171.691406 270.96875 172.296875 271.148438 172.914062 C 271.328125 173.527344 271.476562 174.148438 271.59375 174.78125 C 271.714844 175.410156 271.800781 176.042969 271.855469 176.679688 C 271.914062 177.320312 271.9375 177.957031 271.933594 178.597656 C 271.925781 179.238281 271.886719 179.878906 271.820312 180.515625 C 271.75 181.152344 271.648438 181.78125 271.519531 182.410156 C 271.386719 183.035156 271.222656 183.652344 271.03125 184.265625 C 270.839844 184.875 270.617188 185.472656 270.367188 186.0625 C 270.117188 186.652344 269.835938 187.226562 269.53125 187.789062 C 269.222656 188.347656 268.886719 188.894531 268.527344 189.421875 C 268.164062 189.949219 267.777344 190.457031 267.367188 190.949219 C 266.957031 191.4375 266.519531 191.90625 266.0625 192.355469 C 265.605469 192.800781 265.128906 193.226562 264.628906 193.625 C 264.128906 194.027344 263.609375 194.402344 263.074219 194.75 C 262.539062 195.101562 261.988281 195.421875 261.417969 195.71875 C 260.851562 196.011719 260.269531 196.277344 259.675781 196.515625 C 259.082031 196.753906 258.476562 196.964844 257.863281 197.140625 C 257.246094 197.320312 256.625 197.46875 255.996094 197.585938 C 255.363281 197.703125 254.730469 197.789062 254.09375 197.84375 C 253.457031 197.898438 252.816406 197.921875 252.175781 197.914062 C 251.535156 197.90625 250.894531 197.867188 250.257812 197.796875 C 249.621094 197.726562 248.988281 197.625 248.363281 197.492188 C 247.734375 197.359375 247.117188 197.199219 246.503906 197.003906 C 245.894531 196.8125 245.292969 196.589844 244.707031 196.335938 C 244.117188 196.085938 243.539062 195.804688 242.976562 195.496094 C 242.417969 195.1875 241.871094 194.851562 241.34375 194.488281 C 240.8125 194.125 240.304688 193.738281 239.8125 193.328125 C 239.320312 192.914062 238.851562 192.480469 238.402344 192.023438 C 237.953125 191.5625 237.527344 191.085938 237.128906 190.585938 C 236.726562 190.085938 236.351562 189.566406 236 189.03125 C 235.648438 188.492188 235.324219 187.941406 235.03125 187.371094 C 234.734375 186.804688 234.464844 186.222656 234.226562 185.628906 C 233.988281 185.03125 233.777344 184.429688 233.597656 183.8125 C 233.417969 183.199219 233.269531 182.574219 233.152344 181.945312 C 233.03125 181.316406 232.945312 180.683594 232.886719 180.042969 C 232.832031 179.40625 232.808594 178.765625 232.8125 178.128906 C 232.820312 177.488281 232.859375 176.847656 232.925781 176.210938 C 232.996094 175.574219 233.097656 174.945312 233.226562 174.316406 C 233.359375 173.691406 233.519531 173.070312 233.714844 172.460938 C 233.90625 171.851562 234.125 171.25 234.378906 170.664062 C 234.628906 170.074219 234.910156 169.5 235.214844 168.9375 C 235.523438 168.378906 235.859375 167.832031 236.21875 167.304688 C 236.582031 166.777344 236.96875 166.265625 237.378906 165.777344 C 237.789062 165.285156 238.222656 164.816406 238.683594 164.371094 C 239.140625 163.921875 239.617188 163.5 240.117188 163.097656 C 240.617188 162.699219 241.132812 162.324219 241.671875 161.976562 C 242.207031 161.625 242.757812 161.304688 243.328125 161.007812 C 243.894531 160.714844 244.476562 160.445312 245.070312 160.207031 C 245.664062 159.972656 246.269531 159.761719 246.882812 159.585938 C 247.5 159.40625 248.121094 159.257812 248.75 159.140625 C 249.378906 159.023438 250.015625 158.9375 250.652344 158.882812 C 251.289062 158.828125 251.929688 158.804688 252.570312 158.8125 C 253.210938 158.820312 253.847656 158.859375 254.488281 158.929688 C 255.125 159 255.753906 159.101562 256.382812 159.234375 C 257.007812 159.363281 257.628906 159.527344 258.238281 159.722656 C 258.851562 159.914062 259.449219 160.136719 260.039062 160.390625 C 260.628906 160.640625 261.207031 160.921875 261.765625 161.230469 C 262.328125 161.539062 262.875 161.875 263.402344 162.238281 C 263.933594 162.597656 264.441406 162.988281 264.933594 163.398438 Z M 264.933594 163.398438 " fill-opacity="1" fill-rule="nonzero"/><path fill="#541a0c" d="M 295.867188 284.773438 C 295.867188 285.871094 295.8125 286.96875 295.707031 288.0625 C 295.597656 289.15625 295.4375 290.242188 295.222656 291.320312 C 295.007812 292.398438 294.742188 293.460938 294.421875 294.515625 C 294.105469 295.566406 293.734375 296.597656 293.3125 297.613281 C 292.894531 298.628906 292.425781 299.621094 291.90625 300.589844 C 291.386719 301.5625 290.824219 302.503906 290.210938 303.417969 C 289.601562 304.328125 288.949219 305.210938 288.25 306.0625 C 287.554688 306.910156 286.816406 307.722656 286.039062 308.5 C 285.261719 309.277344 284.449219 310.015625 283.601562 310.710938 C 282.75 311.410156 281.867188 312.0625 280.953125 312.675781 C 280.042969 313.285156 279.101562 313.847656 278.128906 314.367188 C 277.160156 314.886719 276.167969 315.355469 275.152344 315.773438 C 274.136719 316.195312 273.105469 316.566406 272.054688 316.882812 C 271 317.203125 269.9375 317.46875 268.859375 317.683594 C 267.78125 317.898438 266.695312 318.058594 265.601562 318.167969 C 264.507812 318.273438 263.410156 318.328125 262.3125 318.328125 C 261.214844 318.328125 260.117188 318.273438 259.023438 318.167969 C 257.929688 318.058594 256.84375 317.898438 255.765625 317.683594 C 254.6875 317.46875 253.625 317.203125 252.574219 316.882812 C 251.519531 316.566406 250.488281 316.195312 249.472656 315.773438 C 248.457031 315.355469 247.464844 314.886719 246.496094 314.367188 C 245.527344 313.847656 244.585938 313.285156 243.671875 312.675781 C 242.757812 312.0625 241.875 311.410156 241.027344 310.710938 C 240.175781 310.015625 239.363281 309.277344 238.585938 308.5 C 237.808594 307.722656 237.070312 306.910156 236.375 306.0625 C 235.675781 305.210938 235.023438 304.328125 234.414062 303.417969 C 233.800781 302.503906 233.238281 301.5625 232.71875 300.589844 C 232.203125 299.621094 231.734375 298.628906 231.3125 297.613281 C 230.890625 296.597656 230.523438 295.566406 230.203125 294.515625 C 229.882812 293.460938 229.617188 292.398438 229.402344 291.320312 C 229.1875 290.242188 229.027344 289.15625 228.917969 288.0625 C 228.8125 286.96875 228.757812 285.871094 228.757812 284.773438 C 228.757812 283.675781 228.8125 282.578125 228.917969 281.484375 C 229.027344 280.390625 229.1875 279.304688 229.402344 278.226562 C 229.617188 277.148438 229.882812 276.085938 230.203125 275.035156 C 230.523438 273.980469 230.890625 272.949219 231.3125 271.933594 C 231.734375 270.917969 232.203125 269.925781 232.71875 268.957031 C 233.238281 267.988281 233.800781 267.046875 234.414062 266.132812 C 235.023438 265.21875 235.675781 264.335938 236.375 263.488281 C 237.070312 262.636719 237.808594 261.824219 238.585938 261.046875 C 239.363281 260.269531 240.175781 259.53125 241.027344 258.835938 C 241.875 258.136719 242.757812 257.484375 243.671875 256.875 C 244.585938 256.261719 245.527344 255.699219 246.496094 255.179688 C 247.464844 254.664062 248.457031 254.195312 249.472656 253.773438 C 250.488281 253.351562 251.519531 252.984375 252.574219 252.664062 C 253.625 252.34375 254.6875 252.078125 255.765625 251.863281 C 256.84375 251.648438 257.929688 251.488281 259.023438 251.378906 C 260.117188 251.273438 261.214844 251.21875 262.3125 251.21875 C 263.410156 251.21875 264.507812 251.273438 265.601562 251.378906 C 266.695312 251.488281 267.78125 251.648438 268.859375 251.863281 C 269.9375 252.078125 271 252.34375 272.054688 252.664062 C 273.105469 252.984375 274.136719 253.351562 275.152344 253.773438 C 276.167969 254.195312 277.160156 254.664062 278.128906 255.179688 C 279.101562 255.699219 280.042969 256.261719 280.953125 256.875 C 281.867188 257.484375 282.75 258.136719 283.601562 258.835938 C 284.449219 259.53125 285.261719 260.269531 286.039062 261.046875 C 286.816406 261.824219 287.554688 262.636719 288.25 263.488281 C 288.949219 264.335938 289.601562 265.21875 290.214844 266.132812 C 290.824219 267.046875 291.386719 267.988281 291.90625 268.957031 C 292.425781 269.925781 292.894531 270.917969 293.3125 271.933594 C 293.734375 272.949219 294.105469 273.980469 294.421875 275.035156 C 294.742188 276.085938 295.007812 277.148438 295.222656 278.226562 C 295.4375 279.304688 295.597656 280.390625 295.707031 281.484375 C 295.8125 282.578125 295.867188 283.675781 295.867188 284.773438 Z M 295.867188 284.773438 " fill-opacity="1" fill-rule="nonzero"/><path fill="#350802" d="M 282.269531 257.800781 C 282.871094 258.597656 283.433594 259.421875 283.960938 260.269531 C 284.488281 261.121094 284.972656 261.992188 285.421875 262.882812 C 285.871094 263.777344 286.277344 264.6875 286.644531 265.617188 C 287.011719 266.546875 287.335938 267.492188 287.617188 268.449219 C 287.902344 269.40625 288.140625 270.375 288.335938 271.355469 C 288.53125 272.335938 288.683594 273.320312 288.789062 274.316406 C 288.898438 275.308594 288.960938 276.304688 288.980469 277.304688 C 289 278.300781 288.972656 279.300781 288.902344 280.296875 C 288.832031 281.292969 288.714844 282.285156 288.558594 283.269531 C 288.398438 284.257812 288.195312 285.234375 287.949219 286.203125 C 287.703125 287.171875 287.414062 288.125 287.082031 289.066406 C 286.75 290.007812 286.375 290.933594 285.960938 291.84375 C 285.546875 292.753906 285.089844 293.640625 284.597656 294.511719 C 284.101562 295.378906 283.570312 296.222656 283 297.042969 C 282.433594 297.863281 281.828125 298.65625 281.1875 299.425781 C 280.546875 300.191406 279.871094 300.925781 279.164062 301.632812 C 278.457031 302.339844 277.722656 303.011719 276.957031 303.652344 C 276.1875 304.292969 275.394531 304.898438 274.574219 305.46875 C 273.753906 306.039062 272.910156 306.570312 272.039062 307.0625 C 271.171875 307.558594 270.285156 308.011719 269.375 308.425781 C 268.464844 308.84375 267.539062 309.214844 266.597656 309.546875 C 265.65625 309.878906 264.699219 310.167969 263.730469 310.414062 C 262.765625 310.660156 261.785156 310.863281 260.800781 311.023438 C 259.8125 311.183594 258.824219 311.296875 257.828125 311.367188 C 256.828125 311.4375 255.832031 311.464844 254.832031 311.445312 C 253.835938 311.425781 252.839844 311.363281 251.84375 311.253906 C 250.851562 311.148438 249.867188 310.996094 248.886719 310.800781 C 247.90625 310.601562 246.9375 310.363281 245.980469 310.082031 C 245.019531 309.796875 244.078125 309.472656 243.148438 309.105469 C 242.21875 308.738281 241.308594 308.332031 240.414062 307.882812 C 239.523438 307.433594 238.652344 306.949219 237.800781 306.421875 C 236.953125 305.894531 236.128906 305.332031 235.328125 304.730469 C 236.046875 305.691406 236.816406 306.605469 237.632812 307.480469 C 238.449219 308.355469 239.3125 309.183594 240.214844 309.96875 C 241.121094 310.75 242.066406 311.480469 243.050781 312.164062 C 244.035156 312.84375 245.050781 313.472656 246.101562 314.042969 C 247.152344 314.617188 248.234375 315.132812 249.339844 315.589844 C 250.445312 316.046875 251.574219 316.441406 252.722656 316.777344 C 253.871094 317.113281 255.035156 317.386719 256.210938 317.601562 C 257.390625 317.8125 258.574219 317.960938 259.769531 318.042969 C 260.964844 318.128906 262.160156 318.148438 263.355469 318.105469 C 264.550781 318.0625 265.742188 317.957031 266.925781 317.785156 C 268.109375 317.613281 269.28125 317.378906 270.441406 317.082031 C 271.601562 316.789062 272.742188 316.429688 273.863281 316.011719 C 274.984375 315.59375 276.082031 315.117188 277.152344 314.578125 C 278.222656 314.042969 279.257812 313.453125 280.265625 312.804688 C 281.273438 312.15625 282.242188 311.457031 283.175781 310.707031 C 284.105469 309.957031 284.996094 309.15625 285.84375 308.3125 C 286.6875 307.464844 287.488281 306.578125 288.238281 305.644531 C 288.988281 304.710938 289.6875 303.742188 290.335938 302.738281 C 290.984375 301.730469 291.574219 300.691406 292.113281 299.621094 C 292.648438 298.550781 293.125 297.457031 293.542969 296.335938 C 293.960938 295.214844 294.320312 294.074219 294.617188 292.914062 C 294.914062 291.753906 295.148438 290.582031 295.320312 289.398438 C 295.488281 288.210938 295.597656 287.023438 295.640625 285.824219 C 295.683594 284.628906 295.664062 283.433594 295.578125 282.242188 C 295.496094 281.046875 295.347656 279.859375 295.136719 278.683594 C 294.925781 277.503906 294.652344 276.339844 294.316406 275.191406 C 293.980469 274.042969 293.582031 272.917969 293.125 271.808594 C 292.667969 270.703125 292.152344 269.625 291.582031 268.574219 C 291.007812 267.523438 290.382812 266.503906 289.699219 265.519531 C 289.019531 264.535156 288.289062 263.589844 287.503906 262.6875 C 286.722656 261.78125 285.894531 260.917969 285.019531 260.101562 C 284.144531 259.285156 283.226562 258.519531 282.269531 257.800781 Z M 282.269531 257.800781 " fill-opacity="1" fill-rule="nonzero"/><path fill="#702a1c" d="M 264.929688 263.976562 C 265.421875 264.386719 265.890625 264.824219 266.339844 265.28125 C 266.789062 265.738281 267.210938 266.21875 267.613281 266.71875 C 268.015625 267.21875 268.390625 267.738281 268.742188 268.273438 C 269.09375 268.808594 269.414062 269.363281 269.710938 269.929688 C 270.007812 270.5 270.277344 271.082031 270.515625 271.675781 C 270.753906 272.269531 270.964844 272.875 271.144531 273.488281 C 271.324219 274.105469 271.472656 274.726562 271.589844 275.355469 C 271.710938 275.988281 271.796875 276.621094 271.851562 277.257812 C 271.910156 277.894531 271.933594 278.535156 271.929688 279.175781 C 271.921875 279.816406 271.882812 280.453125 271.816406 281.089844 C 271.746094 281.726562 271.644531 282.359375 271.515625 282.984375 C 271.382812 283.613281 271.222656 284.230469 271.027344 284.839844 C 270.835938 285.453125 270.613281 286.050781 270.363281 286.640625 C 270.113281 287.230469 269.832031 287.804688 269.527344 288.363281 C 269.21875 288.925781 268.882812 289.46875 268.523438 290 C 268.160156 290.527344 267.773438 291.035156 267.363281 291.527344 C 266.953125 292.015625 266.515625 292.484375 266.058594 292.933594 C 265.601562 293.378906 265.125 293.804688 264.625 294.203125 C 264.125 294.605469 263.609375 294.980469 263.070312 295.328125 C 262.535156 295.675781 261.984375 296 261.414062 296.292969 C 260.847656 296.589844 260.265625 296.855469 259.671875 297.09375 C 259.078125 297.332031 258.472656 297.539062 257.859375 297.71875 C 257.242188 297.898438 256.621094 298.046875 255.992188 298.164062 C 255.363281 298.28125 254.726562 298.367188 254.089844 298.421875 C 253.453125 298.476562 252.8125 298.5 252.171875 298.492188 C 251.53125 298.484375 250.890625 298.445312 250.253906 298.375 C 249.617188 298.304688 248.988281 298.203125 248.359375 298.070312 C 247.730469 297.9375 247.113281 297.773438 246.503906 297.582031 C 245.890625 297.386719 245.289062 297.164062 244.703125 296.914062 C 244.113281 296.660156 243.535156 296.382812 242.972656 296.070312 C 242.414062 295.761719 241.867188 295.429688 241.339844 295.066406 C 240.808594 294.703125 240.300781 294.316406 239.808594 293.90625 C 239.316406 293.492188 238.847656 293.058594 238.398438 292.597656 C 237.949219 292.140625 237.527344 291.660156 237.125 291.160156 C 236.722656 290.660156 236.347656 290.144531 235.996094 289.605469 C 235.644531 289.070312 235.324219 288.515625 235.027344 287.949219 C 234.730469 287.378906 234.460938 286.800781 234.222656 286.203125 C 233.984375 285.609375 233.773438 285.003906 233.59375 284.390625 C 233.414062 283.773438 233.265625 283.152344 233.148438 282.523438 C 233.027344 281.894531 232.941406 281.257812 232.882812 280.621094 C 232.828125 279.984375 232.804688 279.34375 232.808594 278.703125 C 232.816406 278.0625 232.855469 277.425781 232.921875 276.789062 C 232.992188 276.152344 233.09375 275.519531 233.222656 274.894531 C 233.355469 274.269531 233.515625 273.648438 233.710938 273.039062 C 233.902344 272.429688 234.121094 271.828125 234.375 271.238281 C 234.625 270.652344 234.90625 270.078125 235.210938 269.515625 C 235.519531 268.953125 235.855469 268.410156 236.214844 267.882812 C 236.578125 267.351562 236.964844 266.84375 237.375 266.355469 C 237.785156 265.863281 238.21875 265.394531 238.679688 264.949219 C 239.136719 264.5 239.613281 264.078125 240.113281 263.675781 C 240.613281 263.277344 241.128906 262.902344 241.667969 262.550781 C 242.203125 262.203125 242.753906 261.878906 243.324219 261.585938 C 243.890625 261.289062 244.472656 261.023438 245.066406 260.785156 C 245.660156 260.546875 246.265625 260.339844 246.878906 260.160156 C 247.496094 259.984375 248.117188 259.835938 248.746094 259.71875 C 249.375 259.601562 250.011719 259.515625 250.648438 259.457031 C 251.285156 259.402344 251.925781 259.378906 252.566406 259.386719 C 253.207031 259.394531 253.847656 259.433594 254.484375 259.503906 C 255.121094 259.574219 255.75 259.675781 256.378906 259.808594 C 257.003906 259.941406 257.625 260.105469 258.234375 260.296875 C 258.847656 260.492188 259.445312 260.714844 260.035156 260.964844 C 260.625 261.21875 261.203125 261.5 261.761719 261.808594 C 262.324219 262.117188 262.871094 262.453125 263.398438 262.8125 C 263.929688 263.175781 264.4375 263.5625 264.929688 263.976562 Z M 264.929688 263.976562 " fill-opacity="1" fill-rule="nonzero"/><path fill="#541a0c" d="M 139.164062 186.8125 C 139.164062 187.914062 139.109375 189.007812 139 190.101562 C 138.894531 191.195312 138.734375 192.28125 138.519531 193.359375 C 138.304688 194.4375 138.039062 195.503906 137.71875 196.554688 C 137.398438 197.605469 137.03125 198.640625 136.609375 199.65625 C 136.1875 200.671875 135.71875 201.664062 135.199219 202.632812 C 134.683594 203.601562 134.117188 204.542969 133.507812 205.457031 C 132.898438 206.371094 132.242188 207.25 131.546875 208.101562 C 130.847656 208.949219 130.113281 209.765625 129.335938 210.539062 C 128.558594 211.316406 127.746094 212.054688 126.894531 212.753906 C 126.046875 213.449219 125.164062 214.101562 124.25 214.714844 C 123.335938 215.324219 122.394531 215.890625 121.425781 216.40625 C 120.457031 216.925781 119.464844 217.394531 118.449219 217.816406 C 117.433594 218.234375 116.398438 218.605469 115.347656 218.925781 C 114.296875 219.242188 113.230469 219.511719 112.15625 219.722656 C 111.078125 219.9375 109.992188 220.101562 108.898438 220.207031 C 107.804688 220.316406 106.707031 220.367188 105.609375 220.367188 C 104.507812 220.367188 103.414062 220.316406 102.320312 220.207031 C 101.226562 220.101562 100.140625 219.9375 99.0625 219.722656 C 97.984375 219.511719 96.917969 219.242188 95.867188 218.925781 C 94.816406 218.605469 93.78125 218.234375 92.765625 217.816406 C 91.75 217.394531 90.757812 216.925781 89.789062 216.40625 C 88.820312 215.890625 87.878906 215.324219 86.964844 214.714844 C 86.050781 214.101562 85.171875 213.449219 84.320312 212.753906 C 83.472656 212.054688 82.65625 211.316406 81.882812 210.539062 C 81.105469 209.765625 80.367188 208.949219 79.667969 208.101562 C 78.972656 207.25 78.320312 206.371094 77.707031 205.457031 C 77.097656 204.542969 76.535156 203.601562 76.015625 202.632812 C 75.496094 201.664062 75.027344 200.671875 74.605469 199.65625 C 74.1875 198.640625 73.816406 197.605469 73.496094 196.554688 C 73.179688 195.503906 72.914062 194.4375 72.699219 193.359375 C 72.484375 192.28125 72.324219 191.195312 72.214844 190.101562 C 72.105469 189.007812 72.054688 187.914062 72.054688 186.8125 C 72.054688 185.714844 72.105469 184.617188 72.214844 183.523438 C 72.324219 182.429688 72.484375 181.34375 72.699219 180.269531 C 72.914062 179.191406 73.179688 178.125 73.496094 177.074219 C 73.816406 176.023438 74.1875 174.988281 74.605469 173.972656 C 75.027344 172.957031 75.496094 171.964844 76.015625 170.996094 C 76.535156 170.027344 77.097656 169.085938 77.707031 168.171875 C 78.320312 167.257812 78.972656 166.375 79.667969 165.527344 C 80.367188 164.675781 81.105469 163.863281 81.882812 163.085938 C 82.65625 162.308594 83.472656 161.574219 84.320312 160.875 C 85.171875 160.179688 86.050781 159.523438 86.964844 158.914062 C 87.878906 158.304688 88.820312 157.738281 89.789062 157.222656 C 90.757812 156.703125 91.75 156.234375 92.765625 155.8125 C 93.78125 155.390625 94.816406 155.023438 95.867188 154.703125 C 96.917969 154.382812 97.984375 154.117188 99.0625 153.902344 C 100.140625 153.6875 101.226562 153.527344 102.320312 153.421875 C 103.414062 153.3125 104.507812 153.257812 105.609375 153.257812 C 106.707031 153.257812 107.804688 153.3125 108.898438 153.421875 C 109.992188 153.527344 111.078125 153.6875 112.15625 153.902344 C 113.230469 154.117188 114.296875 154.382812 115.347656 154.703125 C 116.398438 155.023438 117.433594 155.390625 118.449219 155.8125 C 119.464844 156.234375 120.457031 156.703125 121.425781 157.222656 C 122.394531 157.738281 123.335938 158.304688 124.25 158.914062 C 125.164062 159.523438 126.046875 160.179688 126.894531 160.875 C 127.746094 161.574219 128.558594 162.308594 129.335938 163.085938 C 130.113281 163.863281 130.847656 164.675781 131.546875 165.527344 C 132.242188 166.375 132.898438 167.257812 133.507812 168.171875 C 134.117188 169.085938 134.683594 170.027344 135.199219 170.996094 C 135.71875 171.964844 136.1875 172.957031 136.609375 173.972656 C 137.03125 174.988281 137.398438 176.023438 137.71875 177.074219 C 138.039062 178.125 138.304688 179.191406 138.519531 180.269531 C 138.734375 181.34375 138.894531 182.429688 139 183.523438 C 139.109375 184.617188 139.164062 185.714844 139.164062 186.8125 Z M 139.164062 186.8125 " fill-opacity="1" fill-rule="nonzero"/><path fill="#350802" d="M 125.566406 159.839844 C 126.167969 160.636719 126.730469 161.460938 127.253906 162.3125 C 127.78125 163.160156 128.269531 164.03125 128.71875 164.925781 C 129.164062 165.816406 129.574219 166.726562 129.941406 167.65625 C 130.304688 168.585938 130.632812 169.53125 130.914062 170.488281 C 131.195312 171.445312 131.433594 172.414062 131.632812 173.394531 C 131.828125 174.375 131.980469 175.363281 132.085938 176.355469 C 132.195312 177.347656 132.257812 178.34375 132.277344 179.34375 C 132.292969 180.34375 132.269531 181.339844 132.199219 182.335938 C 132.125 183.332031 132.011719 184.324219 131.851562 185.308594 C 131.695312 186.296875 131.492188 187.273438 131.242188 188.242188 C 130.996094 189.210938 130.707031 190.164062 130.375 191.109375 C 130.042969 192.050781 129.671875 192.976562 129.257812 193.882812 C 128.839844 194.792969 128.386719 195.679688 127.890625 196.550781 C 127.398438 197.417969 126.867188 198.261719 126.296875 199.082031 C 125.726562 199.902344 125.121094 200.699219 124.480469 201.464844 C 123.839844 202.230469 123.167969 202.96875 122.460938 203.671875 C 121.753906 204.378906 121.015625 205.054688 120.25 205.695312 C 119.484375 206.335938 118.691406 206.941406 117.871094 207.507812 C 117.046875 208.078125 116.203125 208.609375 115.335938 209.105469 C 114.46875 209.597656 113.578125 210.054688 112.671875 210.46875 C 111.761719 210.882812 110.835938 211.253906 109.894531 211.585938 C 108.949219 211.917969 107.996094 212.207031 107.027344 212.453125 C 106.058594 212.699219 105.082031 212.902344 104.09375 213.0625 C 103.109375 213.222656 102.117188 213.335938 101.121094 213.40625 C 100.125 213.476562 99.128906 213.503906 98.128906 213.484375 C 97.128906 213.464844 96.132812 213.402344 95.140625 213.292969 C 94.148438 213.1875 93.160156 213.035156 92.179688 212.839844 C 91.203125 212.644531 90.230469 212.402344 89.273438 212.121094 C 88.316406 211.839844 87.371094 211.515625 86.441406 211.148438 C 85.515625 210.78125 84.601562 210.371094 83.710938 209.921875 C 82.816406 209.476562 81.945312 208.988281 81.097656 208.460938 C 80.25 207.933594 79.425781 207.371094 78.625 206.773438 C 79.34375 207.730469 80.113281 208.644531 80.929688 209.519531 C 81.746094 210.394531 82.605469 211.222656 83.511719 212.007812 C 84.417969 212.789062 85.363281 213.523438 86.347656 214.203125 C 87.328125 214.886719 88.347656 215.511719 89.398438 216.085938 C 90.449219 216.65625 91.527344 217.171875 92.632812 217.628906 C 93.742188 218.085938 94.867188 218.480469 96.015625 218.820312 C 97.164062 219.15625 98.328125 219.429688 99.507812 219.640625 C 100.683594 219.851562 101.871094 220 103.066406 220.085938 C 104.257812 220.167969 105.453125 220.191406 106.648438 220.144531 C 107.847656 220.101562 109.035156 219.996094 110.222656 219.824219 C 111.40625 219.652344 112.578125 219.421875 113.738281 219.125 C 114.898438 218.828125 116.039062 218.46875 117.160156 218.050781 C 118.28125 217.632812 119.375 217.15625 120.445312 216.621094 C 121.515625 216.082031 122.554688 215.492188 123.5625 214.84375 C 124.570312 214.199219 125.539062 213.5 126.46875 212.746094 C 127.402344 211.996094 128.289062 211.199219 129.136719 210.351562 C 129.984375 209.503906 130.78125 208.617188 131.535156 207.683594 C 132.285156 206.753906 132.984375 205.785156 133.632812 204.777344 C 134.277344 203.769531 134.871094 202.730469 135.40625 201.660156 C 135.941406 200.589844 136.421875 199.496094 136.839844 198.375 C 137.257812 197.253906 137.617188 196.113281 137.914062 194.953125 C 138.207031 193.792969 138.441406 192.621094 138.613281 191.4375 C 138.785156 190.253906 138.890625 189.0625 138.9375 187.867188 C 138.980469 186.667969 138.960938 185.472656 138.875 184.28125 C 138.789062 183.085938 138.640625 181.902344 138.429688 180.722656 C 138.21875 179.542969 137.945312 178.382812 137.609375 177.230469 C 137.273438 176.082031 136.878906 174.957031 136.421875 173.851562 C 135.964844 172.742188 135.449219 171.664062 134.875 170.613281 C 134.304688 169.5625 133.675781 168.542969 132.996094 167.5625 C 132.316406 166.578125 131.582031 165.632812 130.800781 164.726562 C 130.019531 163.820312 129.1875 162.960938 128.3125 162.140625 C 127.441406 161.324219 126.523438 160.558594 125.566406 159.839844 Z M 125.566406 159.839844 " fill-opacity="1" fill-rule="nonzero"/><path fill="#702a1c" d="M 110.5625 163.402344 C 111.050781 163.8125 111.523438 164.25 111.96875 164.707031 C 112.417969 165.167969 112.84375 165.644531 113.246094 166.144531 C 113.648438 166.644531 114.023438 167.164062 114.371094 167.699219 C 114.722656 168.238281 115.046875 168.789062 115.34375 169.359375 C 115.640625 169.925781 115.90625 170.507812 116.144531 171.101562 C 116.386719 171.695312 116.59375 172.300781 116.773438 172.917969 C 116.953125 173.53125 117.105469 174.152344 117.222656 174.785156 C 117.339844 175.414062 117.429688 176.046875 117.484375 176.683594 C 117.542969 177.324219 117.566406 177.960938 117.558594 178.601562 C 117.554688 179.242188 117.515625 179.882812 117.445312 180.519531 C 117.375 181.152344 117.277344 181.785156 117.144531 182.414062 C 117.015625 183.039062 116.851562 183.65625 116.660156 184.269531 C 116.46875 184.878906 116.246094 185.476562 115.996094 186.066406 C 115.742188 186.65625 115.464844 187.230469 115.15625 187.792969 C 114.847656 188.351562 114.515625 188.898438 114.152344 189.425781 C 113.792969 189.953125 113.40625 190.460938 112.996094 190.953125 C 112.582031 191.441406 112.148438 191.910156 111.691406 192.359375 C 111.234375 192.804688 110.753906 193.230469 110.253906 193.628906 C 109.757812 194.03125 109.238281 194.40625 108.703125 194.753906 C 108.167969 195.105469 107.613281 195.425781 107.046875 195.722656 C 106.476562 196.015625 105.898438 196.28125 105.304688 196.519531 C 104.707031 196.757812 104.105469 196.964844 103.488281 197.144531 C 102.875 197.324219 102.25 197.472656 101.621094 197.589844 C 100.992188 197.707031 100.359375 197.792969 99.722656 197.847656 C 99.082031 197.902344 98.441406 197.925781 97.800781 197.917969 C 97.160156 197.910156 96.523438 197.871094 95.886719 197.800781 C 95.25 197.730469 94.617188 197.628906 93.992188 197.496094 C 93.363281 197.363281 92.746094 197.203125 92.132812 197.007812 C 91.523438 196.816406 90.921875 196.59375 90.332031 196.339844 C 89.742188 196.085938 89.167969 195.808594 88.605469 195.5 C 88.042969 195.191406 87.5 194.855469 86.96875 194.492188 C 86.441406 194.128906 85.929688 193.742188 85.4375 193.332031 C 84.949219 192.917969 84.476562 192.484375 84.03125 192.023438 C 83.582031 191.566406 83.15625 191.085938 82.753906 190.585938 C 82.355469 190.089844 81.976562 189.570312 81.628906 189.03125 C 81.277344 188.496094 80.953125 187.945312 80.65625 187.375 C 80.359375 186.808594 80.09375 186.226562 79.855469 185.628906 C 79.613281 185.035156 79.40625 184.429688 79.226562 183.816406 C 79.046875 183.203125 78.898438 182.578125 78.777344 181.949219 C 78.660156 181.320312 78.570312 180.6875 78.515625 180.046875 C 78.460938 179.410156 78.433594 178.769531 78.441406 178.128906 C 78.449219 177.492188 78.484375 176.851562 78.554688 176.214844 C 78.625 175.578125 78.722656 174.945312 78.855469 174.320312 C 78.988281 173.695312 79.148438 173.074219 79.339844 172.464844 C 79.53125 171.855469 79.753906 171.253906 80.003906 170.667969 C 80.257812 170.078125 80.535156 169.503906 80.84375 168.941406 C 81.152344 168.378906 81.484375 167.835938 81.847656 167.308594 C 82.207031 166.78125 82.59375 166.269531 83.007812 165.78125 C 83.417969 165.289062 83.851562 164.820312 84.308594 164.375 C 84.765625 163.925781 85.246094 163.503906 85.746094 163.101562 C 86.242188 162.703125 86.761719 162.328125 87.296875 161.976562 C 87.835938 161.628906 88.386719 161.308594 88.953125 161.011719 C 89.523438 160.71875 90.101562 160.449219 90.699219 160.210938 C 91.292969 159.972656 91.898438 159.765625 92.511719 159.585938 C 93.125 159.410156 93.75 159.261719 94.378906 159.144531 C 95.007812 159.027344 95.640625 158.941406 96.28125 158.886719 C 96.917969 158.832031 97.558594 158.808594 98.199219 158.8125 C 98.839844 158.820312 99.476562 158.859375 100.113281 158.933594 C 100.75 159.003906 101.382812 159.105469 102.011719 159.234375 C 102.636719 159.367188 103.257812 159.53125 103.867188 159.726562 C 104.476562 159.917969 105.078125 160.140625 105.667969 160.394531 C 106.257812 160.644531 106.832031 160.925781 107.394531 161.234375 C 107.957031 161.542969 108.503906 161.878906 109.03125 162.242188 C 109.558594 162.601562 110.070312 162.988281 110.5625 163.402344 Z M 110.5625 163.402344 " fill-opacity="1" fill-rule="nonzero"/><path fill="#541a0c" d="M 139.164062 88.667969 C 139.164062 89.765625 139.109375 90.863281 139 91.957031 C 138.894531 93.050781 138.734375 94.136719 138.519531 95.214844 C 138.304688 96.289062 138.039062 97.355469 137.71875 98.40625 C 137.398438 99.460938 137.03125 100.492188 136.609375 101.507812 C 136.1875 102.523438 135.71875 103.515625 135.199219 104.484375 C 134.683594 105.453125 134.117188 106.394531 133.507812 107.308594 C 132.898438 108.222656 132.242188 109.105469 131.546875 109.953125 C 130.847656 110.804688 130.113281 111.617188 129.335938 112.394531 C 128.558594 113.171875 127.746094 113.90625 126.894531 114.605469 C 126.046875 115.300781 125.164062 115.957031 124.25 116.566406 C 123.335938 117.175781 122.394531 117.742188 121.425781 118.261719 C 120.457031 118.777344 119.464844 119.246094 118.449219 119.667969 C 117.433594 120.089844 116.398438 120.457031 115.347656 120.777344 C 114.296875 121.097656 113.230469 121.363281 112.15625 121.578125 C 111.078125 121.792969 109.992188 121.953125 108.898438 122.058594 C 107.804688 122.167969 106.707031 122.222656 105.609375 122.222656 C 104.507812 122.222656 103.414062 122.167969 102.320312 122.058594 C 101.226562 121.953125 100.140625 121.792969 99.0625 121.578125 C 97.984375 121.363281 96.917969 121.097656 95.867188 120.777344 C 94.816406 120.457031 93.78125 120.089844 92.765625 119.667969 C 91.75 119.246094 90.757812 118.777344 89.789062 118.261719 C 88.820312 117.742188 87.878906 117.175781 86.964844 116.566406 C 86.050781 115.957031 85.171875 115.300781 84.320312 114.605469 C 83.472656 113.90625 82.65625 113.171875 81.882812 112.394531 C 81.105469 111.617188 80.367188 110.804688 79.667969 109.953125 C 78.972656 109.105469 78.320312 108.222656 77.707031 107.308594 C 77.097656 106.394531 76.535156 105.453125 76.015625 104.484375 C 75.496094 103.515625 75.027344 102.523438 74.605469 101.507812 C 74.1875 100.492188 73.816406 99.460938 73.496094 98.40625 C 73.179688 97.355469 72.914062 96.289062 72.699219 95.214844 C 72.484375 94.136719 72.324219 93.050781 72.214844 91.957031 C 72.105469 90.863281 72.054688 89.765625 72.054688 88.667969 C 72.054688 87.566406 72.105469 86.472656 72.214844 85.378906 C 72.324219 84.285156 72.484375 83.199219 72.699219 82.121094 C 72.914062 81.042969 73.179688 79.976562 73.496094 78.925781 C 73.816406 77.875 74.1875 76.839844 74.605469 75.824219 C 75.027344 74.808594 75.496094 73.816406 76.015625 72.847656 C 76.535156 71.878906 77.097656 70.9375 77.707031 70.023438 C 78.320312 69.109375 78.972656 68.230469 79.667969 67.378906 C 80.367188 66.53125 81.105469 65.71875 81.882812 64.941406 C 82.65625 64.164062 83.472656 63.425781 84.320312 62.726562 C 85.171875 62.03125 86.050781 61.378906 86.964844 60.765625 C 87.878906 60.15625 88.820312 59.59375 89.789062 59.074219 C 90.757812 58.554688 91.75 58.085938 92.765625 57.664062 C 93.78125 57.246094 94.816406 56.875 95.867188 56.554688 C 96.917969 56.238281 97.984375 55.972656 99.0625 55.757812 C 100.140625 55.542969 101.226562 55.382812 102.320312 55.273438 C 103.414062 55.164062 104.507812 55.113281 105.609375 55.113281 C 106.707031 55.113281 107.804688 55.164062 108.898438 55.273438 C 109.992188 55.382812 111.078125 55.542969 112.15625 55.757812 C 113.230469 55.972656 114.296875 56.238281 115.347656 56.554688 C 116.398438 56.875 117.433594 57.246094 118.449219 57.664062 C 119.464844 58.085938 120.457031 58.554688 121.425781 59.074219 C 122.394531 59.59375 123.335938 60.15625 124.25 60.765625 C 125.164062 61.378906 126.046875 62.03125 126.894531 62.726562 C 127.746094 63.425781 128.558594 64.164062 129.335938 64.941406 C 130.113281 65.71875 130.847656 66.53125 131.546875 67.378906 C 132.242188 68.230469 132.898438 69.109375 133.507812 70.023438 C 134.117188 70.9375 134.683594 71.878906 135.199219 72.847656 C 135.71875 73.816406 136.1875 74.808594 136.609375 75.824219 C 137.03125 76.839844 137.398438 77.875 137.71875 78.925781 C 138.039062 79.976562 138.304688 81.042969 138.519531 82.121094 C 138.734375 83.199219 138.894531 84.285156 139 85.378906 C 139.109375 86.472656 139.164062 87.566406 139.164062 88.667969 Z M 139.164062 88.667969 " fill-opacity="1" fill-rule="nonzero"/><path fill="#350802" d="M 125.566406 61.691406 C 126.167969 62.492188 126.730469 63.316406 127.253906 64.164062 C 127.78125 65.011719 128.269531 65.882812 128.71875 66.777344 C 129.164062 67.671875 129.574219 68.582031 129.941406 69.511719 C 130.304688 70.441406 130.632812 71.382812 130.914062 72.339844 C 131.195312 73.300781 131.433594 74.269531 131.632812 75.25 C 131.828125 76.226562 131.980469 77.214844 132.085938 78.207031 C 132.195312 79.199219 132.257812 80.195312 132.277344 81.195312 C 132.292969 82.195312 132.269531 83.191406 132.199219 84.1875 C 132.125 85.1875 132.011719 86.175781 131.851562 87.164062 C 131.695312 88.148438 131.492188 89.125 131.242188 90.09375 C 130.996094 91.0625 130.707031 92.019531 130.375 92.960938 C 130.042969 93.902344 129.671875 94.828125 129.257812 95.738281 C 128.839844 96.644531 128.386719 97.535156 127.890625 98.402344 C 127.398438 99.269531 126.867188 100.117188 126.296875 100.9375 C 125.726562 101.757812 125.121094 102.550781 124.480469 103.316406 C 123.839844 104.082031 123.167969 104.820312 122.460938 105.527344 C 121.753906 106.234375 121.015625 106.90625 120.25 107.546875 C 119.484375 108.1875 118.691406 108.792969 117.871094 109.363281 C 117.046875 109.929688 116.203125 110.464844 115.335938 110.957031 C 114.46875 111.453125 113.578125 111.90625 112.671875 112.320312 C 111.761719 112.734375 110.835938 113.109375 109.894531 113.441406 C 108.949219 113.773438 107.996094 114.0625 107.027344 114.308594 C 106.058594 114.554688 105.082031 114.757812 104.09375 114.914062 C 103.109375 115.074219 102.117188 115.191406 101.121094 115.261719 C 100.125 115.332031 99.128906 115.355469 98.128906 115.335938 C 97.128906 115.320312 96.132812 115.253906 95.140625 115.148438 C 94.148438 115.039062 93.160156 114.886719 92.179688 114.691406 C 91.203125 114.496094 90.230469 114.257812 89.273438 113.972656 C 88.316406 113.691406 87.371094 113.367188 86.441406 113 C 85.515625 112.632812 84.601562 112.226562 83.710938 111.777344 C 82.816406 111.328125 81.945312 110.839844 81.097656 110.316406 C 80.25 109.789062 79.425781 109.226562 78.625 108.625 C 79.34375 109.582031 80.113281 110.5 80.929688 111.375 C 81.746094 112.25 82.605469 113.078125 83.511719 113.859375 C 84.417969 114.644531 85.363281 115.375 86.347656 116.054688 C 87.328125 116.738281 88.347656 117.363281 89.398438 117.9375 C 90.449219 118.511719 91.527344 119.023438 92.632812 119.480469 C 93.742188 119.9375 94.867188 120.335938 96.015625 120.671875 C 97.164062 121.007812 98.328125 121.28125 99.507812 121.492188 C 100.683594 121.703125 101.871094 121.851562 103.066406 121.9375 C 104.257812 122.023438 105.453125 122.042969 106.648438 122 C 107.847656 121.957031 109.035156 121.847656 110.222656 121.679688 C 111.40625 121.507812 112.578125 121.273438 113.738281 120.976562 C 114.898438 120.679688 116.039062 120.324219 117.160156 119.90625 C 118.28125 119.484375 119.375 119.007812 120.445312 118.472656 C 121.515625 117.9375 122.554688 117.34375 123.5625 116.699219 C 124.570312 116.050781 125.539062 115.351562 126.46875 114.601562 C 127.402344 113.847656 128.289062 113.050781 129.136719 112.203125 C 129.984375 111.359375 130.78125 110.46875 131.535156 109.539062 C 132.285156 108.605469 132.984375 107.636719 133.632812 106.628906 C 134.277344 105.621094 134.871094 104.585938 135.40625 103.515625 C 135.941406 102.445312 136.421875 101.347656 136.839844 100.226562 C 137.257812 99.105469 137.617188 97.964844 137.914062 96.804688 C 138.207031 95.644531 138.441406 94.472656 138.613281 93.289062 C 138.785156 92.105469 138.890625 90.914062 138.9375 89.71875 C 138.980469 88.523438 138.960938 87.328125 138.875 86.132812 C 138.789062 84.941406 138.640625 83.753906 138.429688 82.574219 C 138.21875 81.398438 137.945312 80.234375 137.609375 79.085938 C 137.273438 77.9375 136.878906 76.808594 136.421875 75.703125 C 135.964844 74.597656 135.449219 73.519531 134.875 72.464844 C 134.304688 71.414062 133.675781 70.398438 132.996094 69.414062 C 132.316406 68.429688 131.582031 67.484375 130.800781 66.578125 C 130.019531 65.671875 129.1875 64.8125 128.3125 63.996094 C 127.441406 63.179688 126.523438 62.410156 125.566406 61.691406 Z M 125.566406 61.691406 " fill-opacity="1" fill-rule="nonzero"/><path fill="#702a1c" d="M 110.5625 65.164062 C 111.054688 65.574219 111.523438 66.011719 111.972656 66.46875 C 112.421875 66.925781 112.847656 67.40625 113.246094 67.90625 C 113.648438 68.40625 114.023438 68.925781 114.375 69.460938 C 114.726562 69.996094 115.050781 70.550781 115.34375 71.117188 C 115.640625 71.6875 115.910156 72.269531 116.148438 72.863281 C 116.386719 73.457031 116.597656 74.0625 116.777344 74.675781 C 116.957031 75.292969 117.105469 75.914062 117.222656 76.542969 C 117.34375 77.175781 117.429688 77.808594 117.488281 78.445312 C 117.542969 79.082031 117.566406 79.722656 117.5625 80.363281 C 117.554688 81.003906 117.515625 81.640625 117.449219 82.277344 C 117.378906 82.914062 117.277344 83.546875 117.148438 84.171875 C 117.015625 84.800781 116.855469 85.417969 116.660156 86.027344 C 116.46875 86.640625 116.25 87.238281 115.996094 87.828125 C 115.746094 88.417969 115.464844 88.992188 115.160156 89.550781 C 114.851562 90.113281 114.515625 90.65625 114.15625 91.1875 C 113.792969 91.714844 113.40625 92.222656 112.996094 92.714844 C 112.585938 93.203125 112.152344 93.671875 111.691406 94.121094 C 111.234375 94.566406 110.757812 94.992188 110.257812 95.390625 C 109.757812 95.792969 109.242188 96.167969 108.703125 96.515625 C 108.167969 96.863281 107.617188 97.1875 107.046875 97.480469 C 106.480469 97.777344 105.898438 98.042969 105.304688 98.28125 C 104.710938 98.519531 104.105469 98.726562 103.492188 98.90625 C 102.875 99.085938 102.253906 99.234375 101.625 99.351562 C 100.996094 99.46875 100.359375 99.554688 99.722656 99.609375 C 99.085938 99.664062 98.445312 99.6875 97.804688 99.679688 C 97.164062 99.671875 96.523438 99.632812 95.886719 99.5625 C 95.25 99.492188 94.621094 99.390625 93.992188 99.257812 C 93.367188 99.125 92.746094 98.960938 92.136719 98.769531 C 91.523438 98.574219 90.925781 98.351562 90.335938 98.101562 C 89.746094 97.847656 89.167969 97.566406 88.609375 97.257812 C 88.046875 96.949219 87.5 96.617188 86.972656 96.253906 C 86.441406 95.890625 85.933594 95.503906 85.441406 95.089844 C 84.949219 94.679688 84.480469 94.246094 84.03125 93.785156 C 83.582031 93.328125 83.160156 92.847656 82.757812 92.347656 C 82.355469 91.847656 81.980469 91.332031 81.628906 90.792969 C 81.277344 90.257812 80.957031 89.703125 80.660156 89.136719 C 80.363281 88.566406 80.09375 87.984375 79.855469 87.390625 C 79.617188 86.796875 79.40625 86.191406 79.226562 85.578125 C 79.046875 84.960938 78.898438 84.339844 78.78125 83.710938 C 78.660156 83.082031 78.574219 82.445312 78.519531 81.808594 C 78.460938 81.171875 78.4375 80.53125 78.441406 79.890625 C 78.449219 79.25 78.488281 78.613281 78.554688 77.976562 C 78.625 77.339844 78.726562 76.707031 78.855469 76.082031 C 78.988281 75.453125 79.148438 74.835938 79.34375 74.226562 C 79.535156 73.617188 79.757812 73.015625 80.007812 72.425781 C 80.257812 71.839844 80.539062 71.261719 80.84375 70.703125 C 81.152344 70.140625 81.488281 69.597656 81.847656 69.070312 C 82.210938 68.539062 82.597656 68.03125 83.007812 67.542969 C 83.417969 67.050781 83.855469 66.582031 84.3125 66.136719 C 84.769531 65.6875 85.246094 65.265625 85.746094 64.863281 C 86.246094 64.464844 86.765625 64.089844 87.300781 63.738281 C 87.835938 63.390625 88.386719 63.066406 88.957031 62.773438 C 89.523438 62.476562 90.105469 62.210938 90.699219 61.972656 C 91.292969 61.734375 91.898438 61.527344 92.511719 61.347656 C 93.128906 61.171875 93.75 61.023438 94.378906 60.90625 C 95.007812 60.789062 95.644531 60.703125 96.28125 60.644531 C 96.917969 60.589844 97.558594 60.566406 98.199219 60.574219 C 98.839844 60.582031 99.480469 60.621094 100.117188 60.691406 C 100.753906 60.761719 101.386719 60.863281 102.011719 60.996094 C 102.640625 61.128906 103.257812 61.292969 103.867188 61.484375 C 104.480469 61.679688 105.082031 61.902344 105.667969 62.152344 C 106.257812 62.40625 106.835938 62.6875 107.398438 62.996094 C 107.957031 63.304688 108.503906 63.640625 109.03125 64 C 109.5625 64.363281 110.070312 64.75 110.5625 65.164062 Z M 110.5625 65.164062 " fill-opacity="1" fill-rule="nonzero"/><path fill="#541a0c" d="M 139.164062 284.773438 C 139.164062 285.871094 139.109375 286.96875 139 288.0625 C 138.894531 289.15625 138.734375 290.242188 138.519531 291.320312 C 138.304688 292.398438 138.039062 293.460938 137.71875 294.515625 C 137.398438 295.566406 137.03125 296.597656 136.609375 297.613281 C 136.1875 298.628906 135.71875 299.621094 135.199219 300.589844 C 134.683594 301.5625 134.117188 302.503906 133.507812 303.417969 C 132.898438 304.328125 132.242188 305.210938 131.546875 306.0625 C 130.847656 306.910156 130.113281 307.722656 129.335938 308.5 C 128.558594 309.277344 127.746094 310.015625 126.894531 310.710938 C 126.046875 311.410156 125.164062 312.0625 124.25 312.675781 C 123.335938 313.285156 122.394531 313.847656 121.425781 314.367188 C 120.457031 314.886719 119.464844 315.355469 118.449219 315.773438 C 117.433594 316.195312 116.398438 316.566406 115.347656 316.882812 C 114.296875 317.203125 113.230469 317.46875 112.15625 317.683594 C 111.078125 317.898438 109.992188 318.058594 108.898438 318.167969 C 107.804688 318.273438 106.707031 318.328125 105.609375 318.328125 C 104.507812 318.328125 103.414062 318.273438 102.320312 318.167969 C 101.226562 318.058594 100.140625 317.898438 99.0625 317.683594 C 97.984375 317.46875 96.917969 317.203125 95.867188 316.882812 C 94.816406 316.566406 93.78125 316.195312 92.765625 315.773438 C 91.75 315.355469 90.757812 314.886719 89.789062 314.367188 C 88.820312 313.847656 87.878906 313.285156 86.964844 312.675781 C 86.050781 312.0625 85.171875 311.410156 84.320312 310.710938 C 83.472656 310.015625 82.65625 309.277344 81.882812 308.5 C 81.105469 307.722656 80.367188 306.910156 79.667969 306.0625 C 78.972656 305.210938 78.320312 304.328125 77.707031 303.417969 C 77.097656 302.503906 76.535156 301.5625 76.015625 300.589844 C 75.496094 299.621094 75.027344 298.628906 74.605469 297.613281 C 74.1875 296.597656 73.816406 295.566406 73.496094 294.515625 C 73.179688 293.460938 72.914062 292.398438 72.699219 291.320312 C 72.484375 290.242188 72.324219 289.15625 72.214844 288.0625 C 72.105469 286.96875 72.054688 285.871094 72.054688 284.773438 C 72.054688 283.675781 72.105469 282.578125 72.214844 281.484375 C 72.324219 280.390625 72.484375 279.304688 72.699219 278.226562 C 72.914062 277.148438 73.179688 276.085938 73.496094 275.035156 C 73.816406 273.980469 74.1875 272.949219 74.605469 271.933594 C 75.027344 270.917969 75.496094 269.925781 76.015625 268.957031 C 76.535156 267.988281 77.097656 267.046875 77.707031 266.132812 C 78.320312 265.21875 78.972656 264.335938 79.667969 263.488281 C 80.367188 262.636719 81.105469 261.824219 81.882812 261.046875 C 82.65625 260.269531 83.472656 259.53125 84.320312 258.835938 C 85.171875 258.136719 86.050781 257.484375 86.964844 256.875 C 87.878906 256.261719 88.820312 255.699219 89.789062 255.179688 C 90.757812 254.664062 91.75 254.195312 92.765625 253.773438 C 93.78125 253.351562 94.816406 252.984375 95.867188 252.664062 C 96.917969 252.34375 97.984375 252.078125 99.0625 251.863281 C 100.140625 251.648438 101.226562 251.488281 102.320312 251.378906 C 103.414062 251.273438 104.507812 251.21875 105.609375 251.21875 C 106.707031 251.21875 107.804688 251.273438 108.898438 251.378906 C 109.992188 251.488281 111.078125 251.648438 112.15625 251.863281 C 113.230469 252.078125 114.296875 252.34375 115.347656 252.664062 C 116.398438 252.984375 117.433594 253.351562 118.449219 253.773438 C 119.464844 254.195312 120.457031 254.664062 121.425781 255.179688 C 122.394531 255.699219 123.335938 256.261719 124.25 256.875 C 125.164062 257.484375 126.046875 258.136719 126.894531 258.835938 C 127.746094 259.53125 128.558594 260.269531 129.335938 261.046875 C 130.113281 261.824219 130.847656 262.636719 131.546875 263.488281 C 132.242188 264.335938 132.898438 265.21875 133.507812 266.132812 C 134.117188 267.046875 134.683594 267.988281 135.199219 268.957031 C 135.71875 269.925781 136.1875 270.917969 136.609375 271.933594 C 137.03125 272.949219 137.398438 273.980469 137.71875 275.035156 C 138.039062 276.085938 138.304688 277.148438 138.519531 278.226562 C 138.734375 279.304688 138.894531 280.390625 139 281.484375 C 139.109375 282.578125 139.164062 283.675781 139.164062 284.773438 Z M 139.164062 284.773438 " fill-opacity="1" fill-rule="nonzero"/><path fill="#350802" d="M 125.566406 257.800781 C 126.167969 258.597656 126.730469 259.421875 127.253906 260.269531 C 127.78125 261.121094 128.269531 261.992188 128.71875 262.882812 C 129.164062 263.777344 129.574219 264.6875 129.941406 265.617188 C 130.304688 266.546875 130.632812 267.492188 130.914062 268.449219 C 131.195312 269.40625 131.433594 270.375 131.632812 271.355469 C 131.828125 272.335938 131.980469 273.320312 132.085938 274.316406 C 132.195312 275.308594 132.257812 276.304688 132.277344 277.304688 C 132.292969 278.300781 132.269531 279.300781 132.199219 280.296875 C 132.125 281.292969 132.011719 282.285156 131.851562 283.269531 C 131.695312 284.257812 131.492188 285.234375 131.242188 286.203125 C 130.996094 287.171875 130.707031 288.125 130.375 289.066406 C 130.042969 290.007812 129.671875 290.933594 129.257812 291.84375 C 128.839844 292.753906 128.386719 293.640625 127.890625 294.511719 C 127.398438 295.378906 126.867188 296.222656 126.296875 297.042969 C 125.726562 297.863281 125.121094 298.65625 124.480469 299.425781 C 123.839844 300.191406 123.167969 300.925781 122.460938 301.632812 C 121.753906 302.339844 121.015625 303.011719 120.25 303.652344 C 119.484375 304.292969 118.691406 304.898438 117.871094 305.46875 C 117.046875 306.039062 116.203125 306.570312 115.335938 307.0625 C 114.46875 307.558594 113.578125 308.011719 112.671875 308.425781 C 111.761719 308.84375 110.835938 309.214844 109.894531 309.546875 C 108.949219 309.878906 107.996094 310.167969 107.027344 310.414062 C 106.058594 310.660156 105.082031 310.863281 104.09375 311.023438 C 103.109375 311.183594 102.117188 311.296875 101.121094 311.367188 C 100.125 311.4375 99.128906 311.464844 98.128906 311.445312 C 97.128906 311.425781 96.132812 311.363281 95.140625 311.253906 C 94.148438 311.148438 93.160156 310.996094 92.179688 310.800781 C 91.203125 310.601562 90.230469 310.363281 89.273438 310.082031 C 88.316406 309.796875 87.371094 309.472656 86.441406 309.105469 C 85.515625 308.738281 84.601562 308.332031 83.710938 307.882812 C 82.816406 307.433594 81.945312 306.949219 81.097656 306.421875 C 80.25 305.894531 79.425781 305.332031 78.625 304.730469 C 79.34375 305.691406 80.113281 306.605469 80.929688 307.480469 C 81.746094 308.355469 82.605469 309.183594 83.511719 309.96875 C 84.417969 310.75 85.363281 311.480469 86.347656 312.164062 C 87.328125 312.84375 88.347656 313.472656 89.398438 314.042969 C 90.449219 314.617188 91.527344 315.132812 92.632812 315.589844 C 93.742188 316.046875 94.867188 316.441406 96.015625 316.777344 C 97.164062 317.113281 98.328125 317.390625 99.507812 317.601562 C 100.683594 317.8125 101.871094 317.960938 103.066406 318.042969 C 104.257812 318.128906 105.453125 318.148438 106.648438 318.105469 C 107.847656 318.0625 109.035156 317.957031 110.222656 317.785156 C 111.40625 317.613281 112.578125 317.378906 113.738281 317.085938 C 114.898438 316.789062 116.039062 316.429688 117.160156 316.011719 C 118.28125 315.59375 119.375 315.117188 120.445312 314.578125 C 121.515625 314.042969 122.554688 313.453125 123.5625 312.804688 C 124.570312 312.15625 125.539062 311.457031 126.46875 310.707031 C 127.402344 309.957031 128.289062 309.15625 129.136719 308.3125 C 129.984375 307.464844 130.78125 306.578125 131.535156 305.644531 C 132.285156 304.710938 132.984375 303.742188 133.632812 302.738281 C 134.277344 301.730469 134.871094 300.691406 135.40625 299.621094 C 135.941406 298.550781 136.421875 297.457031 136.839844 296.335938 C 137.257812 295.214844 137.617188 294.074219 137.914062 292.914062 C 138.207031 291.753906 138.441406 290.582031 138.613281 289.398438 C 138.785156 288.210938 138.890625 287.023438 138.9375 285.824219 C 138.980469 284.628906 138.960938 283.433594 138.875 282.242188 C 138.789062 281.046875 138.640625 279.859375 138.429688 278.683594 C 138.21875 277.503906 137.945312 276.339844 137.609375 275.191406 C 137.273438 274.042969 136.878906 272.917969 136.421875 271.808594 C 135.964844 270.703125 135.449219 269.625 134.875 268.574219 C 134.304688 267.523438 133.675781 266.503906 132.996094 265.519531 C 132.316406 264.535156 131.582031 263.589844 130.800781 262.6875 C 130.019531 261.78125 129.1875 260.917969 128.3125 260.101562 C 127.441406 259.285156 126.523438 258.519531 125.566406 257.800781 Z M 125.566406 257.800781 " fill-opacity="1" fill-rule="nonzero"/><path fill="#702a1c" d="M 110.554688 262.414062 C 111.046875 262.828125 111.515625 263.261719 111.964844 263.722656 C 112.414062 264.179688 112.839844 264.660156 113.238281 265.160156 C 113.640625 265.660156 114.015625 266.175781 114.367188 266.714844 C 114.71875 267.25 115.042969 267.800781 115.339844 268.371094 C 115.632812 268.9375 115.902344 269.519531 116.140625 270.117188 C 116.378906 270.710938 116.589844 271.316406 116.769531 271.929688 C 116.949219 272.542969 117.097656 273.167969 117.21875 273.796875 C 117.335938 274.425781 117.421875 275.058594 117.480469 275.699219 C 117.535156 276.335938 117.5625 276.976562 117.554688 277.617188 C 117.546875 278.257812 117.511719 278.894531 117.441406 279.53125 C 117.371094 280.167969 117.269531 280.800781 117.140625 281.425781 C 117.007812 282.050781 116.847656 282.671875 116.65625 283.28125 C 116.460938 283.890625 116.242188 284.492188 115.988281 285.078125 C 115.738281 285.667969 115.460938 286.242188 115.152344 286.804688 C 114.84375 287.367188 114.507812 287.910156 114.148438 288.4375 C 113.785156 288.964844 113.402344 289.476562 112.988281 289.964844 C 112.578125 290.457031 112.144531 290.925781 111.6875 291.371094 C 111.226562 291.820312 110.75 292.242188 110.25 292.644531 C 109.75 293.042969 109.234375 293.417969 108.699219 293.769531 C 108.160156 294.117188 107.609375 294.4375 107.039062 294.734375 C 106.472656 295.03125 105.890625 295.296875 105.296875 295.535156 C 104.703125 295.773438 104.097656 295.980469 103.484375 296.160156 C 102.867188 296.335938 102.246094 296.484375 101.617188 296.601562 C 100.988281 296.71875 100.355469 296.804688 99.714844 296.859375 C 99.078125 296.914062 98.4375 296.941406 97.796875 296.933594 C 97.15625 296.925781 96.519531 296.886719 95.882812 296.816406 C 95.246094 296.742188 94.613281 296.644531 93.984375 296.511719 C 93.359375 296.378906 92.738281 296.214844 92.128906 296.019531 C 91.515625 295.828125 90.917969 295.605469 90.328125 295.351562 C 89.738281 295.101562 89.164062 294.820312 88.601562 294.511719 C 88.039062 294.203125 87.492188 293.867188 86.964844 293.503906 C 86.433594 293.144531 85.925781 292.757812 85.433594 292.34375 C 84.941406 291.933594 84.472656 291.496094 84.023438 291.039062 C 83.578125 290.582031 83.152344 290.101562 82.75 289.601562 C 82.347656 289.101562 81.972656 288.582031 81.621094 288.046875 C 81.273438 287.507812 80.949219 286.957031 80.652344 286.386719 C 80.355469 285.820312 80.089844 285.238281 79.847656 284.644531 C 79.609375 284.050781 79.398438 283.445312 79.21875 282.828125 C 79.039062 282.214844 78.890625 281.59375 78.773438 280.960938 C 78.65625 280.332031 78.566406 279.699219 78.511719 279.0625 C 78.453125 278.421875 78.429688 277.785156 78.4375 277.144531 C 78.441406 276.503906 78.480469 275.863281 78.550781 275.230469 C 78.617188 274.59375 78.71875 273.960938 78.851562 273.332031 C 78.980469 272.707031 79.144531 272.089844 79.335938 271.476562 C 79.527344 270.867188 79.75 270.269531 80 269.679688 C 80.25 269.089844 80.53125 268.515625 80.839844 267.953125 C 81.144531 267.394531 81.480469 266.847656 81.84375 266.320312 C 82.203125 265.792969 82.589844 265.285156 83 264.792969 C 83.414062 264.304688 83.847656 263.835938 84.304688 263.386719 C 84.761719 262.941406 85.242188 262.515625 85.738281 262.117188 C 86.238281 261.714844 86.757812 261.339844 87.292969 260.992188 C 87.828125 260.640625 88.382812 260.320312 88.949219 260.023438 C 89.515625 259.730469 90.097656 259.464844 90.691406 259.226562 C 91.285156 258.988281 91.890625 258.78125 92.507812 258.601562 C 93.121094 258.421875 93.742188 258.273438 94.375 258.15625 C 95.003906 258.039062 95.636719 257.953125 96.273438 257.898438 C 96.914062 257.84375 97.550781 257.820312 98.191406 257.828125 C 98.832031 257.835938 99.472656 257.875 100.109375 257.945312 C 100.746094 258.015625 101.378906 258.117188 102.003906 258.25 C 102.632812 258.382812 103.25 258.542969 103.863281 258.738281 C 104.472656 258.929688 105.074219 259.152344 105.664062 259.40625 C 106.253906 259.660156 106.828125 259.9375 107.390625 260.246094 C 107.953125 260.554688 108.496094 260.890625 109.027344 261.253906 C 109.554688 261.617188 110.066406 262.003906 110.554688 262.414062 Z M 110.554688 262.414062 " fill-opacity="1" fill-rule="nonzero"/></svg>